<svg xmlns="http://www.w3.org/2000/svg" xmlns:xlink="http://www.w3.org/1999/xlink" width="222.735" height="226.469" viewBox="0 0 222.735 226.469">
  <defs>
    <clipPath id="clip-path">
      <rect id="Rect치ngulo_291369" data-name="Rect치ngulo 291369" width="217.061" height="217.091" fill="#467eac"/>
    </clipPath>
    <clipPath id="clip-path-2">
      <rect id="Rect치ngulo_293083" data-name="Rect치ngulo 293083" width="150.973" height="223.468" fill="none"/>
    </clipPath>
  </defs>
  <g id="Grupo_875933" data-name="Grupo 875933" transform="translate(-528.045 -9981.998)">
    <g id="Grupo_875928" data-name="Grupo 875928">
      <g id="Grupo_870717" data-name="Grupo 870717" transform="translate(528.045 9981.998)">
        <g id="Grupo_870714" data-name="Grupo 870714" clip-path="url(#clip-path)">
          <path id="Trazado_215321" data-name="Trazado 215321" d="M16.525,105.621c27.129-21.63-19.852-56.536-9.449-91.06s44.729.97,63.2,17.979S110.392,19.118,124.742,18.3s6.274,12.483,12.746,29.711,54.177,2.921,73.3,19.561-11.344,52.052-13.909,73.168,30.376,45.01,9.271,76.35l-104.846-.62c-10.55-3.243-17.432-5.813-17.432-5.813C-14.283,168.268-10.6,127.25,16.525,105.621" transform="translate(0 0)" fill="#467eac"/>
        </g>
      </g>
      <path id="Trazado_264543" data-name="Trazado 264543" d="M209.053,582.976c0,3.35-40.736,6.066-90.986,6.066s-90.986-2.716-90.986-6.066,40.759-3.741,91.01-3.741,90.963.391,90.963,3.741" transform="translate(541.728 9619.425)" fill="#033f71" opacity="0.4"/>
    </g>
    <g id="Grupo_875810" data-name="Grupo 875810" transform="translate(581.495 9981.998)">
      <g id="Grupo_875807" data-name="Grupo 875807">
        <g id="Grupo_875806" data-name="Grupo 875806" clip-path="url(#clip-path-2)">
          <path id="Trazado_268961" data-name="Trazado 268961" d="M30.95,37.133l13.511-.088A17.241,17.241,0,0,0,40.115,25.9a15.979,15.979,0,0,0-13.992-5.372,19.219,19.219,0,0,0-1.963.315l-.048.009v0l3.663,16.279Z" transform="translate(-9.402 -7.963)" fill="#00f3be"/>
          <path id="Trazado_268962" data-name="Trazado 268962" d="M35.143,65.695a16.027,16.027,0,0,0,9.2-13.139c.017-.171.033-.342.045-.516.008-.11.019-.218.025-.328q.027-.483.029-.98c0-.015,0-.03,0-.045v0c0-.014,0-.027,0-.041h0l-13.511.088-3.175.021L24.2,67.036l0,.02a16.1,16.1,0,0,0,3.5.362,17.536,17.536,0,0,0,7.443-1.723" transform="translate(-9.435 -19.747)" fill="#455a64"/>
          <path id="Trazado_268963" data-name="Trazado 268963" d="M16.687,38.838,13.024,22.559a16.687,16.687,0,0,0,.11,32.584l3.552-16.284" transform="translate(0 -8.796)" fill="#263238"/>
          <path id="Trazado_268964" data-name="Trazado 268964" d="M182.456,41.629H89.347a2.415,2.415,0,0,1-2.415-2.415V2.415A2.415,2.415,0,0,1,89.347,0h93.109a2.415,2.415,0,0,1,2.415,2.415v36.8a2.415,2.415,0,0,1-2.415,2.415" transform="translate(-33.897)" fill="#afafaf"/>
          <path id="Trazado_268965" data-name="Trazado 268965" d="M127.759,21.336a10.611,10.611,0,0,0-8.626-6.192q-.169-.019-.341-.034c-.073-.006-.144-.014-.217-.019-.213-.014-.429-.023-.649-.026l-.03,0h-.029l-.048,8.945-.012,2.1,10.753,2.48.013,0a10.6,10.6,0,0,0,.267-2.316,11.6,11.6,0,0,0-1.082-4.94" transform="translate(-45.937 -5.873)" fill="#fafafa"/>
          <path id="Trazado_268966" data-name="Trazado 268966" d="M108.057,28.1l.024-1.978.048-8.944a11.413,11.413,0,0,0-7.413,2.789,10.578,10.578,0,0,0-3.665,9.221q.055.575.17,1.169l-.082.018c1.432,5.151,6.083,9.044,10.675,8.75,5.283-.339,9.759-3.609,10.9-8.567Z" transform="translate(-37.821 -6.697)" fill="#e0e0e0"/>
          <path id="Trazado_268967" data-name="Trazado 268967" d="M166.086,22.683c0,.088-4.316.159-9.639.159s-9.64-.071-9.64-.159,4.315-.159,9.64-.159,9.639.071,9.639.159" transform="translate(-57.244 -8.783)" fill="#263238"/>
          <path id="Trazado_268968" data-name="Trazado 268968" d="M166.086,28.754c0,.088-4.316.159-9.639.159s-9.64-.071-9.64-.159,4.315-.159,9.64-.159,9.639.071,9.639.159" transform="translate(-57.244 -11.15)" fill="#263238"/>
          <path id="Trazado_268969" data-name="Trazado 268969" d="M166.086,34.824c0,.088-4.316.159-9.639.159s-9.64-.071-9.64-.159,4.315-.159,9.64-.159,9.639.071,9.639.159" transform="translate(-57.244 -13.517)" fill="#263238"/>
          <path id="Trazado_268970" data-name="Trazado 268970" d="M166.086,40.895c0,.088-4.316.159-9.639.159s-9.64-.071-9.64-.159,4.315-.159,9.64-.159,9.639.071,9.639.159" transform="translate(-57.244 -15.884)" fill="#263238"/>
          <path id="Trazado_268971" data-name="Trazado 268971" d="M158.106,47.463a8.575,8.575,0,0,1-1.655.112c-1.022.029-2.434.046-3.994.046s-2.972-.018-3.995-.046a8.582,8.582,0,0,1-1.655-.112,8.582,8.582,0,0,1,1.655-.112c1.023-.029,2.435-.046,3.995-.046s2.972.018,3.994.046a8.575,8.575,0,0,1,1.655.112" transform="translate(-57.244 -18.445)" fill="#263238"/>
          <path id="Trazado_268972" data-name="Trazado 268972" d="M199.512,16.917c-.008-.016.131-.112.415-.224a3.519,3.519,0,0,1,1.279-.234,3.563,3.563,0,0,1,.438.029c.076.01.154.022.232.038l.029.006h0c-.081-.13.112.178.092.147v0l0,.007,0,.015-.012.057-.025.117-.215,1-.519,2.323-.027.123h-.127l-.808,0-2.8-.029-.147,0,0-.145a3.881,3.881,0,0,1,.4-1.637,3.4,3.4,0,0,1,.807-1.032,3.016,3.016,0,0,1,.707-.464c.177-.083.28-.109.286-.1.023.04-.374.2-.874.688a3.517,3.517,0,0,0-1.031,2.545L197.464,20h2.8l.808.005-.155.122c.2-.82.381-1.6.552-2.315l.245-1,.029-.115.014-.057,0-.015,0-.007v0c-.02-.032.172.275.09.145h0l-.027-.006c-.073-.018-.144-.032-.215-.045a3.591,3.591,0,0,0-.41-.046,5.793,5.793,0,0,0-1.687.246" transform="translate(-76.938 -6.418)" fill="#e0e0e0"/>
          <path id="Trazado_268973" data-name="Trazado 268973" d="M201.815,21.19l-.646-.007-2.922-.016a3.726,3.726,0,0,0,.911,2.421,3.455,3.455,0,0,0,3.012,1.2q.188-.018.382-.056l.006.027a3.71,3.71,0,0,0,2.858-3.487,3.757,3.757,0,0,0-2.8-3.56Z" transform="translate(-77.302 -6.906)" fill="#fafafa"/>
          <path id="Trazado_268974" data-name="Trazado 268974" d="M199.607,38.509a3.467,3.467,0,0,0-2.023,2.818c0,.037-.008.074-.011.112s0,.047-.006.071c0,.07-.008.14-.009.212v.01h0v.009h0l2.922.015.686,0,.81-3.512v0a3.409,3.409,0,0,0-.756-.087,3.781,3.781,0,0,0-1.614.353" transform="translate(-77.033 -14.878)" fill="#fafafa"/>
          <path id="Trazado_268975" data-name="Trazado 268975" d="M201.743,42.63a8.283,8.283,0,0,1,.168-.976c.135-.655.311-1.506.523-2.53l.022-.108.115.022a3.71,3.71,0,0,1,2.668,2.429,3.662,3.662,0,0,1,.149,2.191,3.81,3.81,0,0,1-1.35,1.926,4.469,4.469,0,0,1-1.511.763l-.162.046-.035-.165-.006-.026.184.121a3.842,3.842,0,0,1-1.859-.09,3.588,3.588,0,0,1-1.482-.91,3.832,3.832,0,0,1-1.108-2.718l0-.117.113,0,2.611.065a6.568,6.568,0,0,1,.957.073,6.213,6.213,0,0,1-.958.054l-2.611.037.115-.113a3.638,3.638,0,0,0,1.081,2.516,3.376,3.376,0,0,0,3.081.893l.15-.032.033.153.006.027-.2-.119a4.2,4.2,0,0,0,1.4-.711,3.525,3.525,0,0,0,1.245-1.761,3.393,3.393,0,0,0-.127-2.007,3.492,3.492,0,0,0-2.442-2.3l.137-.086c-.267,1.094-.494,1.969-.652,2.562a6.324,6.324,0,0,1-.262.892" transform="translate(-77.229 -15.214)" fill="#e0e0e0"/>
          <path id="Trazado_268976" data-name="Trazado 268976" d="M228.162,41.711a58.782,58.782,0,0,1-6.1.159,58.8,58.8,0,0,1-6.1-.159,58.8,58.8,0,0,1,6.1-.159,58.78,58.78,0,0,1,6.1.159" transform="translate(-84.206 -16.202)" fill="#263238"/>
          <path id="Trazado_268977" data-name="Trazado 268977" d="M222.058,44.383a29.444,29.444,0,0,1-6.1,0,29.445,29.445,0,0,1,6.1,0" transform="translate(-84.206 -17.244)" fill="#263238"/>
          <path id="Trazado_268978" data-name="Trazado 268978" d="M228.162,20.2a58.782,58.782,0,0,1-6.1.159,58.8,58.8,0,0,1-6.1-.159,58.8,58.8,0,0,1,6.1-.159,58.781,58.781,0,0,1,6.1.159" transform="translate(-84.206 -7.815)" fill="#263238"/>
          <path id="Trazado_268979" data-name="Trazado 268979" d="M222.058,22.873a29.445,29.445,0,0,1-6.1,0,29.445,29.445,0,0,1,6.1,0" transform="translate(-84.206 -8.857)" fill="#263238"/>
          <path id="Trazado_268980" data-name="Trazado 268980" d="M188.2,37.915c-.088,0-.159-7.345-.159-16.4s.071-16.405.159-16.405.159,7.344.159,16.405-.071,16.4-.159,16.4" transform="translate(-73.322 -1.991)" fill="#263238"/>
        </g>
      </g>
      <g id="Grupo_875809" data-name="Grupo 875809">
        <g id="Grupo_875808" data-name="Grupo 875808" clip-path="url(#clip-path-2)">
          <path id="Trazado_268981" data-name="Trazado 268981" d="M90.156,61.462C89,61.176,89.189,58,89.07,57.033a3.189,3.189,0,0,1,.115-1.758A2.412,2.412,0,0,1,91.072,54.1c.763-.115,1.543-.041,2.307-.151,1.536-.222,2.906-1.173,4.452-1.311a4.394,4.394,0,0,1,3.454,1.26,8.618,8.618,0,0,0,1.592,1.6,8.671,8.671,0,0,0,1.916.572,4.4,4.4,0,0,1,3.033,3.6,12.566,12.566,0,0,1-.213,2.935,4.474,4.474,0,0,0,.41,2.866c.534.87,1.539,1.382,2.033,2.276a2.446,2.446,0,0,1-2.489,3.606c-.286-.041-.614-.123-.838.062a1.143,1.143,0,0,0-.264.685,1.858,1.858,0,0,1-3.654-.664" transform="translate(-34.705 -20.52)" fill="#263238"/>
          <path id="Trazado_268982" data-name="Trazado 268982" d="M103.632,83.512l-10.1-.807c-.063-1.18.022-5.743.022-5.743s-4.2-.653-4.255-4.856.677-13.852.677-13.852A14.606,14.606,0,0,1,104.648,60.1l.623.48Z" transform="translate(-34.818 -22.253)" fill="#ffbe9d"/>
          <path id="Trazado_268983" data-name="Trazado 268983" d="M91.34,69.531a.61.61,0,1,0-.862-.042.61.61,0,0,0,.862.042" transform="translate(-35.218 -26.698)" fill="#263238"/>
          <path id="Trazado_268984" data-name="Trazado 268984" d="M90.317,68.9c.066.073.478-.245,1.057-.248s1,.3,1.063.222c.031-.033-.034-.164-.218-.3a1.425,1.425,0,0,0-1.692.021c-.18.143-.242.276-.21.309" transform="translate(-35.214 -26.632)" fill="#263238"/>
          <path id="Trazado_268985" data-name="Trazado 268985" d="M100.9,69.559a.61.61,0,1,0,.839.2.61.61,0,0,0-.839-.2" transform="translate(-39.232 -27.088)" fill="#263238"/>
          <path id="Trazado_268986" data-name="Trazado 268986" d="M100.622,69.733c.066.073.478-.245,1.057-.248s1,.3,1.063.222c.031-.033-.034-.164-.218-.3a1.425,1.425,0,0,0-1.692.021c-.18.143-.242.276-.21.309" transform="translate(-39.232 -26.958)" fill="#263238"/>
          <path id="Trazado_268987" data-name="Trazado 268987" d="M95.862,74.725a2.842,2.842,0,0,0-.936-.2c-.152-.016-.27-.051-.281-.132a.819.819,0,0,1,.108-.433l.458-1.176a16.154,16.154,0,0,0,.991-3.092,16.079,16.079,0,0,0-1.3,2.975c-.149.409-.292.8-.434,1.185a.967.967,0,0,0-.082.63.4.4,0,0,0,.26.241.937.937,0,0,0,.259.034,2.778,2.778,0,0,0,.956-.034" transform="translate(-36.793 -27.175)" fill="#263238"/>
          <path id="Trazado_268988" data-name="Trazado 268988" d="M98.091,78.948c.6-.359-1.661.882-2.839.825a1.6,1.6,0,0,0,1.888.636c1.258-.46.951-1.461.951-1.461" transform="translate(-37.141 -30.759)" fill="#fafafa"/>
          <path id="Trazado_268989" data-name="Trazado 268989" d="M96.255,88.584a9.773,9.773,0,0,0,5.478-1.557s-1.295,3.024-5.488,2.646Z" transform="translate(-37.529 -33.934)" fill="#eb996e"/>
          <path id="Trazado_268990" data-name="Trazado 268990" d="M114.419,69.81c.083-.051,2.981-.99,3.354,2.569s-3.345,2.759-3.362,2.657.008-5.226.008-5.226" transform="translate(-44.61 -27.163)" fill="#ffbe9d"/>
          <path id="Trazado_268991" data-name="Trazado 268991" d="M115.974,74.392c.015-.013.066.037.176.074a.622.622,0,0,0,.464-.039,1.542,1.542,0,0,0,.566-1.451,2.05,2.05,0,0,0-.267-.869.719.719,0,0,0-.516-.427.317.317,0,0,0-.348.208c-.038.1-.007.173-.026.181s-.083-.051-.07-.2a.4.4,0,0,1,.117-.238.473.473,0,0,1,.334-.126.876.876,0,0,1,.705.484,2.116,2.116,0,0,1,.319.969,1.619,1.619,0,0,1-.743,1.632.669.669,0,0,1-.577-.035c-.12-.076-.146-.154-.135-.162" transform="translate(-45.213 -27.881)" fill="#eb996e"/>
          <path id="Trazado_268992" data-name="Trazado 268992" d="M90,57.211a5.011,5.011,0,0,0,4.263,2.312,16.332,16.332,0,0,0,4.975-.878c.883-.245,1.96-.432,2.607.217a2.459,2.459,0,0,1,.556,1.471,15.871,15.871,0,0,1,.049,3.553,4.068,4.068,0,0,0,.006,1.418,1.187,1.187,0,0,0,.953.936c.741.063,1.194-.776,1.445-1.476a13.784,13.784,0,0,0,.822-2.975,4.639,4.639,0,0,0-.54-2.986,6.155,6.155,0,0,0-2.724-2.105,16.007,16.007,0,0,0-6.727-1.765,8.9,8.9,0,0,0-6.384,2.42" transform="translate(-34.819 -21.419)" fill="#263238"/>
          <path id="Trazado_268993" data-name="Trazado 268993" d="M83.911,357.739l-.032-5.61L94.386,352l.134,8.207-.651.049c-2.9.2-14.746.793-16.692.229-2.17-.63,6.733-2.748,6.733-2.748" transform="translate(-29.961 -137.255)" fill="#e8e8e8"/>
          <path id="Trazado_268994" data-name="Trazado 268994" d="M99.575,363.44a3.646,3.646,0,0,1,1.313-2.257,3.545,3.545,0,0,1,2.447-.794l.038,2.937Z" transform="translate(-38.827 -140.523)" fill="#edeadb"/>
          <path id="Trazado_268995" data-name="Trazado 268995" d="M79.542,363.358s-3.118.941-2.722,1.451,12.393.358,17.679-.173l-.02-.234-13.991.3s-.334-1.323-.946-1.342" transform="translate(-29.941 -141.683)" fill="#edeadb"/>
          <path id="Trazado_268996" data-name="Trazado 268996" d="M94.664,365.052a1.026,1.026,0,0,1-.181.022l-.518.038-1.909.107c-1.612.078-3.841.157-6.3.191s-4.694.014-6.308-.021l-1.911-.055-.519-.024a1.027,1.027,0,0,1-.181-.017.984.984,0,0,1,.182-.009h.52l1.911.015c1.613.012,3.842.016,6.3-.016s4.69-.1,6.3-.154l1.91-.066.52-.014a.981.981,0,0,1,.182,0" transform="translate(-29.96 -142.342)" fill="#263238"/>
          <path id="Trazado_268997" data-name="Trazado 268997" d="M82.205,364.78a2.779,2.779,0,0,0-1.029-1.63,1.7,1.7,0,0,1,1.029,1.63" transform="translate(-31.653 -141.601)" fill="#263238"/>
          <path id="Trazado_268998" data-name="Trazado 268998" d="M87.547,362.626c-.029.019-.18-.159-.336-.4s-.259-.449-.23-.469.18.159.336.4.259.45.23.469" transform="translate(-33.914 -141.059)" fill="#263238"/>
          <path id="Trazado_268999" data-name="Trazado 268999" d="M88.871,362.052c-.023.026-.19-.082-.373-.242s-.313-.312-.29-.339.19.082.373.242.313.312.29.339" transform="translate(-34.394 -140.946)" fill="#263238"/>
          <path id="Trazado_269000" data-name="Trazado 269000" d="M89.457,360.756a2.394,2.394,0,1,1-.55-.051,1.235,1.235,0,0,1,.55.051" transform="translate(-34.454 -140.648)" fill="#263238"/>
          <path id="Trazado_269001" data-name="Trazado 269001" d="M89.652,359.633a1.548,1.548,0,0,1-1.242.11,3.337,3.337,0,0,1,.621-.051,3.435,3.435,0,0,1,.621-.059" transform="translate(-34.473 -140.227)" fill="#263238"/>
          <path id="Trazado_269002" data-name="Trazado 269002" d="M86.038,361.093a1.952,1.952,0,0,1-.676,0,3.934,3.934,0,0,1-.72-.149,1.938,1.938,0,0,1-.414-.164.365.365,0,0,1-.17-.207.268.268,0,0,1,.1-.271,1.238,1.238,0,0,1,1.536.343,1.189,1.189,0,0,1,.226.448c.029.115.028.181.02.182a1.931,1.931,0,0,0-.314-.572,1.225,1.225,0,0,0-.583-.368,1.048,1.048,0,0,0-.8.065c-.106.081-.063.206.057.276a2.033,2.033,0,0,0,.382.157,4.679,4.679,0,0,0,.7.172c.406.067.664.064.664.085" transform="translate(-32.773 -140.438)" fill="#263238"/>
          <path id="Trazado_269003" data-name="Trazado 269003" d="M86.965,360.9a.662.662,0,0,1-.084-.468,1.1,1.1,0,0,1,.178-.5.679.679,0,0,1,.558-.351.268.268,0,0,1,.212.309.722.722,0,0,1-.111.3,2.019,2.019,0,0,1-.314.413.981.981,0,0,1-.383.278c-.012-.016.133-.123.316-.339a2.32,2.32,0,0,0,.278-.409c.091-.144.151-.4-.018-.43s-.34.156-.441.292a1.105,1.105,0,0,0-.185.442,2.484,2.484,0,0,0-.005.455" transform="translate(-33.876 -140.214)" fill="#263238"/>
          <path id="Trazado_269004" data-name="Trazado 269004" d="M103.284,360.306c0,.024-.3-.025-.775.037a3.289,3.289,0,0,0-2.724,2.229c-.155.453-.167.755-.19.753a.616.616,0,0,1,0-.212,2.76,2.76,0,0,1,.107-.568,3.194,3.194,0,0,1,2.8-2.291,2.79,2.79,0,0,1,.578.007.6.6,0,0,1,.207.045" transform="translate(-38.832 -140.469)" fill="#263238"/>
          <path id="Trazado_269005" data-name="Trazado 269005" d="M103.753,353.2a18.221,18.221,0,0,1,.118,2.157,18.457,18.457,0,0,1-.009,2.161,36.772,36.772,0,0,1-.11-4.317" transform="translate(-40.445 -137.724)" fill="#263238"/>
          <path id="Trazado_269006" data-name="Trazado 269006" d="M95.425,363.736a8.654,8.654,0,0,1-3.07.068c0-.037.689,0,1.535-.024s1.53-.081,1.535-.045" transform="translate(-36.012 -141.826)" fill="#263238"/>
          <path id="Trazado_269007" data-name="Trazado 269007" d="M100.574,363.692c.026.026-.054.146-.123.3s-.1.3-.14.3-.057-.165.024-.348.216-.278.239-.253" transform="translate(-39.102 -141.812)" fill="#263238"/>
          <path id="Trazado_269008" data-name="Trazado 269008" d="M101.762,362.092c.026.024-.041.135-.148.246s-.215.182-.24.157.041-.134.148-.246.215-.182.24-.158" transform="translate(-39.526 -141.188)" fill="#263238"/>
          <path id="Trazado_269009" data-name="Trazado 269009" d="M103.443,361.312c-.007.036-.146.036-.3.093s-.264.14-.292.116.058-.17.25-.236.353,0,.342.027" transform="translate(-40.103 -140.863)" fill="#263238"/>
          <path id="Trazado_269010" data-name="Trazado 269010" d="M104.915,360.976c.013.032-.046.087-.134.122s-.167.037-.181,0,.046-.087.134-.122.168-.037.181,0" transform="translate(-40.786 -140.745)" fill="#263238"/>
          <path id="Trazado_269011" data-name="Trazado 269011" d="M168.946,353.238l-1.711-5.342-10.028,3.14,2.42,7.842.634-.154c2.815-.713,14.264-3.823,15.938-4.964,1.867-1.271-7.254-.522-7.254-.522" transform="translate(-61.3 -135.654)" fill="#e8e8e8"/>
          <path id="Trazado_269012" data-name="Trazado 269012" d="M164.2,362.639a3.644,3.644,0,0,0-1.949-1.738,3.541,3.541,0,0,0-2.572,0l.875,2.8Z" transform="translate(-62.265 -140.632)" fill="#edeadb"/>
          <path id="Trazado_269013" data-name="Trazado 269013" d="M174.962,356.294s3.255-.074,3.037.535-11.67,4.187-16.859,5.323l-.054-.229,13.393-4.06s-.092-1.362.484-1.569" transform="translate(-62.811 -138.928)" fill="#edeadb"/>
          <path id="Trazado_269014" data-name="Trazado 269014" d="M160.824,362.2a.945.945,0,0,0,.178-.035l.5-.124,1.848-.491c1.557-.426,3.7-1.043,6.051-1.775s4.467-1.443,5.99-1.978l1.8-.646.486-.184a.964.964,0,0,0,.167-.073,1.022,1.022,0,0,0-.175.048l-.494.161-1.812.607c-1.53.513-3.648,1.209-6,1.942s-4.488,1.362-6.038,1.81l-1.836.53-.5.148a.933.933,0,0,0-.171.06" transform="translate(-62.71 -139.164)" fill="#263238"/>
          <path id="Trazado_269015" data-name="Trazado 269015" d="M183.042,357.93a2.77,2.77,0,0,1,.472-1.869,1.7,1.7,0,0,0-.472,1.869" transform="translate(-71.329 -138.837)" fill="#263238"/>
          <path id="Trazado_269016" data-name="Trazado 269016" d="M177.485,357.54c.034.009.121-.207.2-.484a1.115,1.115,0,0,0,.073-.517c-.034-.009-.122.207-.2.484a1.1,1.1,0,0,0-.073.517" transform="translate(-69.201 -139.025)" fill="#263238"/>
          <path id="Trazado_269017" data-name="Trazado 269017" d="M175.939,357.407c.031.018.156-.137.28-.346s.2-.394.17-.411-.156.137-.28.346-.2.394-.17.411" transform="translate(-68.601 -139.067)" fill="#263238"/>
          <path id="Trazado_269018" data-name="Trazado 269018" d="M174.617,356.394a2.389,2.389,0,1,0,.508-.219,1.239,1.239,0,0,0-.508.219" transform="translate(-68.088 -138.84)" fill="#263238"/>
          <path id="Trazado_269019" data-name="Trazado 269019" d="M173.986,355.415a1.547,1.547,0,0,0,1.215-.281,47.9,47.9,0,0,1-1.215.281" transform="translate(-67.842 -138.474)" fill="#263238"/>
          <path id="Trazado_269020" data-name="Trazado 269020" d="M177.6,355.707a1.926,1.926,0,0,0,.643-.206,3.953,3.953,0,0,0,.639-.365,1.949,1.949,0,0,0,.342-.285.36.36,0,0,0,.1-.25.266.266,0,0,0-.178-.228,1.238,1.238,0,0,0-1.353.8,1.2,1.2,0,0,0-.076.5.375.375,0,0,0,.038.179,1.922,1.922,0,0,1,.122-.641,1.217,1.217,0,0,1,.439-.53,1.048,1.048,0,0,1,.785-.188c.126.044.124.177.031.28a2.011,2.011,0,0,1-.314.268,4.714,4.714,0,0,1-.609.38c-.365.189-.61.267-.6.286" transform="translate(-69.253 -138.173)" fill="#263238"/>
          <path id="Trazado_269021" data-name="Trazado 269021" d="M177.15,355.848a.664.664,0,0,0-.065-.47,1.105,1.105,0,0,0-.323-.416.678.678,0,0,0-.639-.161.269.269,0,0,0-.106.36.739.739,0,0,0,.2.254,2.079,2.079,0,0,0,.426.295.978.978,0,0,0,.45.146c.006-.02-.165-.076-.406-.225a2.4,2.4,0,0,1-.39-.3c-.131-.109-.268-.334-.115-.414a.6.6,0,0,1,.51.141,1.118,1.118,0,0,1,.313.362,2.5,2.5,0,0,1,.146.431" transform="translate(-68.622 -138.334)" fill="#263238"/>
          <path id="Trazado_269022" data-name="Trazado 269022" d="M159.754,360.75c.009.022.279-.117.749-.206a3.291,3.291,0,0,1,3.282,1.273c.287.382.392.666.414.656a.61.61,0,0,0-.063-.2,2.789,2.789,0,0,0-.278-.506,3.194,3.194,0,0,0-3.373-1.309,2.772,2.772,0,0,0-.547.187.607.607,0,0,0-.183.107" transform="translate(-62.292 -140.519)" fill="#263238"/>
          <path id="Trazado_269023" data-name="Trazado 269023" d="M159.318,353.617a36.685,36.685,0,0,0,1.236,4.138,36.68,36.68,0,0,0-1.236-4.138" transform="translate(-62.121 -137.885)" fill="#263238"/>
          <path id="Trazado_269024" data-name="Trazado 269024" d="M168.662,361.084a8.64,8.64,0,0,0,2.94-.888c-.015-.034-.657.21-1.467.454s-1.48.4-1.473.434" transform="translate(-65.766 -140.449)" fill="#263238"/>
          <path id="Trazado_269025" data-name="Trazado 269025" d="M165.437,362.65c-.017.032.1.122.21.251s.192.251.226.239,0-.175-.131-.323-.292-.2-.306-.167" transform="translate(-64.508 -141.404)" fill="#263238"/>
          <path id="Trazado_269026" data-name="Trazado 269026" d="M163.751,361.517c-.016.031.081.115.217.188s.261.107.278.076-.081-.115-.218-.188-.261-.107-.277-.076" transform="translate(-63.85 -140.961)" fill="#263238"/>
          <path id="Trazado_269027" data-name="Trazado 269027" d="M161.8,361.292c.018.032.151-.011.314,0s.294.051.313.02-.107-.143-.31-.147-.337.1-.317.132" transform="translate(-63.088 -140.826)" fill="#263238"/>
          <path id="Trazado_269028" data-name="Trazado 269028" d="M160.46,361.4c0,.035.071.069.164.075s.171-.017.173-.052-.071-.068-.165-.074-.17.017-.173.052" transform="translate(-62.568 -140.901)" fill="#263238"/>
          <path id="Trazado_269029" data-name="Trazado 269029" d="M76.712,178.793l4.9,108.99,16.362.343-2.717-91.245,29.651,92.333,13.373-3.66-29.84-106.761" transform="translate(-29.912 -69.716)" fill="#263238"/>
          <path id="Trazado_269030" data-name="Trazado 269030" d="M154.573,355.551l.763,1.467,14.171-4.131-.861-2.379Z" transform="translate(-60.272 -136.673)" fill="#455a64"/>
          <path id="Trazado_269031" data-name="Trazado 269031" d="M174.917,349.616c.084-.025.211.151.284.393s.063.458-.021.484-.211-.151-.284-.393-.063-.459.021-.484" transform="translate(-68.178 -136.324)" fill="#455a64"/>
          <path id="Trazado_269032" data-name="Trazado 269032" d="M173.2,343.815c.084-.025.271.35.417.839s.2.905.113.93-.271-.35-.417-.839-.2-.905-.113-.93" transform="translate(-67.518 -134.063)" fill="#455a64"/>
          <path id="Trazado_269033" data-name="Trazado 269033" d="M171.456,338.014c.084-.025.271.35.417.839s.2.905.113.93-.271-.35-.417-.839-.2-.905-.113-.93" transform="translate(-66.84 -131.801)" fill="#455a64"/>
          <path id="Trazado_269034" data-name="Trazado 269034" d="M169.717,332.213c.084-.025.271.35.417.839s.2.905.113.93-.271-.35-.417-.839-.2-.905-.113-.93" transform="translate(-66.161 -129.539)" fill="#455a64"/>
          <path id="Trazado_269035" data-name="Trazado 269035" d="M167.977,326.412c.084-.025.271.351.417.839s.2.905.113.93-.271-.35-.417-.839-.2-.905-.113-.93" transform="translate(-65.483 -127.277)" fill="#455a64"/>
          <path id="Trazado_269036" data-name="Trazado 269036" d="M166.238,320.611c.084-.025.271.351.417.839s.2.905.113.93-.271-.35-.418-.839-.2-.905-.113-.93" transform="translate(-64.805 -125.015)" fill="#455a64"/>
          <path id="Trazado_269037" data-name="Trazado 269037" d="M164.5,314.81c.084-.025.271.351.417.839s.2.905.113.93-.271-.35-.417-.839-.2-.905-.113-.93" transform="translate(-64.126 -122.753)" fill="#455a64"/>
          <path id="Trazado_269038" data-name="Trazado 269038" d="M162.759,309.009c.084-.025.27.351.417.839s.2.905.113.93-.271-.35-.417-.839-.2-.905-.113-.93" transform="translate(-63.448 -120.491)" fill="#455a64"/>
          <path id="Trazado_269039" data-name="Trazado 269039" d="M161.019,303.208c.084-.025.271.351.417.839s.2.905.113.93-.271-.35-.417-.839-.2-.905-.113-.93" transform="translate(-62.77 -118.229)" fill="#455a64"/>
          <path id="Trazado_269040" data-name="Trazado 269040" d="M159.279,297.408c.084-.025.271.351.417.839s.2.905.113.93-.271-.35-.417-.839-.2-.905-.113-.93" transform="translate(-62.091 -115.967)" fill="#455a64"/>
          <path id="Trazado_269041" data-name="Trazado 269041" d="M157.54,291.607c.084-.025.271.35.417.839s.2.905.113.93-.271-.35-.417-.839-.2-.905-.113-.93" transform="translate(-61.413 -113.705)" fill="#455a64"/>
          <path id="Trazado_269042" data-name="Trazado 269042" d="M155.8,285.806c.084-.025.271.35.417.839s.2.905.113.93-.271-.35-.417-.839-.2-.905-.113-.93" transform="translate(-60.735 -111.443)" fill="#455a64"/>
          <path id="Trazado_269043" data-name="Trazado 269043" d="M154.061,280.005c.084-.025.27.351.417.839s.2.905.113.93-.271-.35-.417-.839-.2-.905-.113-.93" transform="translate(-60.057 -109.181)" fill="#455a64"/>
          <path id="Trazado_269044" data-name="Trazado 269044" d="M152.321,274.2c.084-.025.271.351.417.839s.2.905.113.93-.271-.35-.417-.839-.2-.905-.113-.93" transform="translate(-59.378 -106.919)" fill="#455a64"/>
          <path id="Trazado_269045" data-name="Trazado 269045" d="M150.581,268.4c.084-.025.271.351.417.839s.2.905.113.93-.271-.35-.417-.839-.2-.905-.113-.93" transform="translate(-58.7 -104.657)" fill="#455a64"/>
          <path id="Trazado_269046" data-name="Trazado 269046" d="M148.842,262.6c.084-.025.271.351.417.839s.2.905.113.93-.271-.35-.417-.839-.2-.905-.113-.93" transform="translate(-58.022 -102.395)" fill="#455a64"/>
          <path id="Trazado_269047" data-name="Trazado 269047" d="M147.1,256.8c.084-.025.271.351.417.839s.2.905.113.93-.271-.35-.417-.839-.2-.905-.113-.93" transform="translate(-57.343 -100.133)" fill="#455a64"/>
          <path id="Trazado_269048" data-name="Trazado 269048" d="M145.363,251c.084-.025.271.351.417.839s.2.905.113.931-.271-.351-.418-.839-.2-.905-.113-.93" transform="translate(-56.665 -97.871)" fill="#455a64"/>
          <path id="Trazado_269049" data-name="Trazado 269049" d="M143.623,245.2c.084-.025.271.35.417.839s.2.905.113.93-.271-.35-.417-.839-.2-.905-.113-.93" transform="translate(-55.987 -95.61)" fill="#455a64"/>
          <path id="Trazado_269050" data-name="Trazado 269050" d="M141.883,239.4c.084-.025.271.351.417.839s.2.905.113.93-.271-.35-.417-.839-.2-.905-.113-.93" transform="translate(-55.308 -93.348)" fill="#455a64"/>
          <path id="Trazado_269051" data-name="Trazado 269051" d="M140.144,233.6c.084-.025.271.35.417.839s.2.905.113.93-.271-.35-.417-.839-.2-.905-.113-.93" transform="translate(-54.63 -91.086)" fill="#455a64"/>
          <path id="Trazado_269052" data-name="Trazado 269052" d="M138.4,227.8c.084-.025.271.35.417.839s.2.905.113.93-.271-.35-.417-.839-.2-.905-.113-.93" transform="translate(-53.952 -88.824)" fill="#455a64"/>
          <path id="Trazado_269053" data-name="Trazado 269053" d="M136.665,222c.084-.025.271.351.417.839s.2.905.113.93-.271-.35-.417-.839-.2-.905-.113-.93" transform="translate(-53.274 -86.562)" fill="#455a64"/>
          <path id="Trazado_269054" data-name="Trazado 269054" d="M134.925,216.2c.084-.025.271.351.417.839s.2.905.113.93-.271-.35-.418-.839-.2-.905-.113-.93" transform="translate(-52.595 -84.3)" fill="#455a64"/>
          <path id="Trazado_269055" data-name="Trazado 269055" d="M133.185,210.394c.084-.025.271.35.417.839s.2.905.113.93-.271-.35-.417-.839-.2-.905-.113-.93" transform="translate(-51.917 -82.038)" fill="#455a64"/>
          <path id="Trazado_269056" data-name="Trazado 269056" d="M131.446,204.593c.084-.025.271.35.417.839s.2.905.113.93-.271-.35-.417-.839-.2-.905-.113-.93" transform="translate(-51.239 -79.776)" fill="#455a64"/>
          <path id="Trazado_269057" data-name="Trazado 269057" d="M129.706,198.792c.084-.025.271.351.417.839s.2.905.113.93-.271-.35-.417-.839-.2-.905-.113-.93" transform="translate(-50.56 -77.514)" fill="#455a64"/>
          <path id="Trazado_269058" data-name="Trazado 269058" d="M127.967,192.992c.084-.025.271.351.417.839s.2.905.113.931-.271-.351-.418-.839-.2-.905-.113-.93" transform="translate(-49.882 -75.253)" fill="#455a64"/>
          <path id="Trazado_269059" data-name="Trazado 269059" d="M126.227,187.191c.084-.025.271.35.417.839s.2.905.113.93-.271-.35-.417-.839-.2-.905-.113-.93" transform="translate(-49.204 -72.991)" fill="#455a64"/>
          <path id="Trazado_269060" data-name="Trazado 269060" d="M124.907,182.852c.084-.025.211.151.284.392s.063.459-.021.484-.211-.151-.284-.393-.063-.459.021-.484" transform="translate(-48.678 -71.298)" fill="#455a64"/>
          <path id="Trazado_269061" data-name="Trazado 269061" d="M106.861,356.546c.088,0,.169.2.182.448s-.048.461-.135.465-.169-.2-.182-.448.047-.461.135-.465" transform="translate(-41.615 -139.027)" fill="#455a64"/>
          <path id="Trazado_269062" data-name="Trazado 269062" d="M106.619,350.595c.088,0,.174.4.193.9s-.037.91-.124.914-.174-.4-.193-.9.037-.911.124-.914" transform="translate(-41.524 -136.707)" fill="#455a64"/>
          <path id="Trazado_269063" data-name="Trazado 269063" d="M106.431,344.642c.088,0,.171.4.185.9s-.045.91-.132.913-.17-.4-.185-.9.045-.91.132-.913" transform="translate(-41.448 -134.385)" fill="#455a64"/>
          <path id="Trazado_269064" data-name="Trazado 269064" d="M106.278,338.687c.088,0,.169.4.181.9s-.049.91-.137.913-.169-.4-.181-.9.049-.91.137-.912" transform="translate(-41.387 -132.063)" fill="#455a64"/>
          <path id="Trazado_269065" data-name="Trazado 269065" d="M106.136,332.73c.088,0,.168.4.181.9s-.049.91-.137.913-.168-.4-.181-.905.049-.91.137-.912" transform="translate(-41.331 -129.741)" fill="#455a64"/>
          <path id="Trazado_269066" data-name="Trazado 269066" d="M105.983,326.771c.088,0,.17.4.184.9s-.047.911-.134.913-.17-.4-.184-.9.046-.911.134-.913" transform="translate(-41.273 -127.417)" fill="#455a64"/>
          <path id="Trazado_269067" data-name="Trazado 269067" d="M105.79,320.814c.088,0,.173.4.191.9s-.038.911-.126.914-.173-.4-.191-.9.038-.91.126-.914" transform="translate(-41.2 -125.094)" fill="#455a64"/>
          <path id="Trazado_269068" data-name="Trazado 269068" d="M105.543,314.863c.088,0,.176.4.2.9s-.033.911-.121.915-.176-.4-.2-.9.033-.911.121-.914" transform="translate(-41.105 -122.774)" fill="#455a64"/>
          <path id="Trazado_269069" data-name="Trazado 269069" d="M105.309,308.91c.088,0,.174.4.193.9s-.037.911-.124.914-.174-.4-.193-.9.037-.911.124-.914" transform="translate(-41.013 -120.453)" fill="#455a64"/>
          <path id="Trazado_269070" data-name="Trazado 269070" d="M105.1,302.957c.088,0,.173.4.19.9s-.041.91-.128.913-.173-.4-.19-.9.04-.91.128-.913" transform="translate(-40.93 -118.131)" fill="#455a64"/>
          <path id="Trazado_269071" data-name="Trazado 269071" d="M104.915,297c.088,0,.171.4.185.9s-.044.91-.132.913-.171-.4-.185-.9.044-.91.132-.913" transform="translate(-40.857 -115.808)" fill="#455a64"/>
          <path id="Trazado_269072" data-name="Trazado 269072" d="M104.757,291.044c.088,0,.169.4.182.9s-.049.91-.136.913-.169-.4-.182-.9.048-.91.136-.912" transform="translate(-40.794 -113.486)" fill="#455a64"/>
          <path id="Trazado_269073" data-name="Trazado 269073" d="M104.626,285.088c.088,0,.167.4.178.905s-.052.91-.14.911-.167-.4-.178-.905.052-.91.14-.911" transform="translate(-40.741 -111.164)" fill="#455a64"/>
          <path id="Trazado_269074" data-name="Trazado 269074" d="M104.523,279.132c.088,0,.165.4.173.906s-.057.91-.145.911-.165-.4-.173-.906.057-.91.145-.911" transform="translate(-40.7 -108.841)" fill="#455a64"/>
          <path id="Trazado_269075" data-name="Trazado 269075" d="M104.449,273.176c.087,0,.164.405.168.907s-.062.91-.149.91-.162-.405-.168-.907.061-.91.149-.91" transform="translate(-40.669 -106.519)" fill="#455a64"/>
          <path id="Trazado_269076" data-name="Trazado 269076" d="M104.4,267.22c.088,0,.161.406.164.908s-.066.908-.153.909-.162-.406-.165-.907.066-.909.154-.91" transform="translate(-40.65 -104.196)" fill="#455a64"/>
          <path id="Trazado_269077" data-name="Trazado 269077" d="M104.388,261.263c.088,0,.159.407.16.908s-.07.908-.158.908-.159-.406-.16-.908.07-.908.158-.908" transform="translate(-40.642 -101.874)" fill="#455a64"/>
          <path id="Trazado_269078" data-name="Trazado 269078" d="M104.4,255.307c.088,0,.157.408.155.909s-.074.908-.162.908-.157-.407-.155-.909.074-.908.162-.908" transform="translate(-40.646 -99.551)" fill="#455a64"/>
          <path id="Trazado_269079" data-name="Trazado 269079" d="M104.446,249.35c.088,0,.155.408.151.91s-.079.908-.167.907-.155-.408-.151-.91.079-.908.167-.907" transform="translate(-40.661 -97.228)" fill="#455a64"/>
          <path id="Trazado_269080" data-name="Trazado 269080" d="M104.52,243.394c.088,0,.153.409.146.911s-.084.907-.171.906-.153-.409-.146-.911.084-.907.171-.906" transform="translate(-40.688 -94.906)" fill="#455a64"/>
          <path id="Trazado_269081" data-name="Trazado 269081" d="M104.623,237.44c.088,0,.151.41.142.911s-.088.907-.176.905-.151-.409-.142-.911.088-.907.176-.905" transform="translate(-40.726 -92.584)" fill="#455a64"/>
          <path id="Trazado_269082" data-name="Trazado 269082" d="M104.753,231.48c.088,0,.149.411.137.913s-.093.907-.181.905-.149-.411-.137-.913.093-.908.181-.905" transform="translate(-40.775 -90.26)" fill="#455a64"/>
          <path id="Trazado_269083" data-name="Trazado 269083" d="M104.953,225.522c.088,0,.143.414.123.915s-.107.905-.195.9-.143-.412-.123-.915.107-.907.195-.9" transform="translate(-40.847 -87.937)" fill="#455a64"/>
          <path id="Trazado_269084" data-name="Trazado 269084" d="M105.281,219.572c.087.007.132.417.1.918s-.131.9-.218.9-.132-.415-.1-.918.131-.9.218-.9" transform="translate(-40.963 -85.617)" fill="#455a64"/>
          <path id="Trazado_269085" data-name="Trazado 269085" d="M105.8,213.64c.087.01.117.422.066.92s-.162.9-.25.888-.117-.42-.066-.92.163-.9.25-.888" transform="translate(-41.146 -83.304)" fill="#455a64"/>
          <path id="Trazado_269086" data-name="Trazado 269086" d="M106.4,209.212c.087.013.128.226.093.475s-.135.442-.221.431-.129-.225-.093-.475.135-.444.221-.431" transform="translate(-41.396 -81.577)" fill="#455a64"/>
          <path id="Trazado_269087" data-name="Trazado 269087" d="M84.05,356.65l17.3.282-.136-2.883-17.168.091Z" transform="translate(-32.774 -138.054)" fill="#455a64"/>
          <path id="Trazado_269088" data-name="Trazado 269088" d="M102.635,181.058a2.765,2.765,0,0,1,.1.666c.046.43.1,1.054.163,1.824.124,1.541.274,3.671.42,6.025.068,1.173.133,2.291.193,3.32a10.206,10.206,0,0,0,.316,2.651,2.25,2.25,0,0,0,1.1,1.312,3.247,3.247,0,0,0,.63.181c0,.01-.059.025-.176.028a1.391,1.391,0,0,1-.5-.095,2.3,2.3,0,0,1-1.266-1.348,9.615,9.615,0,0,1-.4-2.712c-.067-1.029-.141-2.146-.218-3.318-.146-2.354-.26-4.487-.326-6.031-.034-.772-.056-1.4-.063-1.83a2.744,2.744,0,0,1,.02-.674" transform="translate(-40.011 -70.6)" fill="#455a64"/>
          <path id="Trazado_269089" data-name="Trazado 269089" d="M105.151,183.348c.024.041-.137.149-.152.406a.491.491,0,0,0,.126.373.433.433,0,0,0,.692-.281.49.49,0,0,0-.169-.355c-.19-.175-.382-.139-.392-.185-.029-.029.2-.184.524,0a.681.681,0,0,1,.33.528.7.7,0,0,1-1.2.488.685.685,0,0,1-.132-.609c.1-.359.373-.409.373-.368" transform="translate(-40.847 -71.441)" fill="#455a64"/>
          <path id="Trazado_269090" data-name="Trazado 269090" d="M125.539,185.388a3.146,3.146,0,0,1-1.359.519,5.754,5.754,0,0,1-6.1-2.726,3.14,3.14,0,0,1-.52-1.358c.052-.019.22.512.71,1.238a5.982,5.982,0,0,0,5.872,2.625c.868-.12,1.376-.348,1.4-.3" transform="translate(-45.838 -70.897)" fill="#455a64"/>
          <path id="Trazado_269091" data-name="Trazado 269091" d="M82.636,181.06a2.307,2.307,0,0,1-.058,1.18,4.644,4.644,0,0,1-4.086,3.581,2.307,2.307,0,0,1-1.178-.1c0-.053.453-.005,1.148-.125a4.871,4.871,0,0,0,3.9-3.416c.21-.674.221-1.124.275-1.122" transform="translate(-30.147 -70.6)" fill="#455a64"/>
          <path id="Trazado_269092" data-name="Trazado 269092" d="M148.738,141.532a10.212,10.212,0,0,0-.046-13.456l-16.316-18.5-4.368,12.208c.3.2,12.7,13.5,12.7,13.5l-10.662,13.287a7.646,7.646,0,0,0-1.267,7.274l2.848,6.974,7.8-3.5-.592-.91h-5.854l-.348-1.4Z" transform="translate(-49.914 -42.726)" fill="#ffbe9d"/>
          <path id="Trazado_269093" data-name="Trazado 269093" d="M51.456,52.225s2.556,3.014,5.2-.569c2.079-2.815,2.524-6.3.856-7.771l.545-.362s2.781,1.8,1.525,5.737S55.621,55.227,53.7,54.92A3.239,3.239,0,0,1,51.264,52.6l.187-.567" transform="translate(-19.989 -16.971)" fill="#455a64"/>
          <path id="Trazado_269094" data-name="Trazado 269094" d="M63.209,96.9s-16.369,6.755-16,6.308L46.8,83.126H40.392s-4.557,26.488.33,29.607c6.678,4.263,22.851-4.61,22.851-4.61Z" transform="translate(-14.997 -32.413)" fill="#ffbe9d"/>
          <path id="Trazado_269095" data-name="Trazado 269095" d="M46.729,69.748l-.029.211-1.224,8.753-3.85-.8.49-5.037" transform="translate(-16.231 -27.197)" fill="#ffbe9d"/>
          <path id="Trazado_269096" data-name="Trazado 269096" d="M50.257,66.745,47.6,76.227l2.371.47s.332-.7,1.109-2.752a6.149,6.149,0,0,0-.141-4.574s2.152-4.857,1.32-5.078-2,2.452-2,2.452" transform="translate(-18.559 -25.064)" fill="#ffbe9d"/>
          <path id="Trazado_269097" data-name="Trazado 269097" d="M50.71,61.1c-.137.409-5.843,14.522-5.843,14.522l-1.429-.8,5.737-14.994Z" transform="translate(-16.938 -23.328)" fill="#263238"/>
          <path id="Trazado_269098" data-name="Trazado 269098" d="M41.726,74.783s-.7-4.151.068-5.438c.275-.462,4.2-5.875,4.486-5.7s1.985,4.967,1.081,5.128a1.206,1.206,0,0,1-1.264-.8s1.182,2.95.353,3S44.917,69.2,44.917,69.2s1.745,3.478.652,3.661-2.6-2.679-2.6-2.679Z" transform="translate(-16.156 -24.815)" fill="#ffbe9d"/>
          <path id="Trazado_269099" data-name="Trazado 269099" d="M47.821,66.806a7.158,7.158,0,0,1,.872,1.93,5.605,5.605,0,0,0,.293.736,1.049,1.049,0,0,0,.409.422c.305.171.552.151.555.2.013.034-.246.151-.65,0a1.164,1.164,0,0,1-.564-.473,4.056,4.056,0,0,1-.341-.778,7.166,7.166,0,0,1-.573-2.039" transform="translate(-18.641 -26.049)" fill="#eb996e"/>
          <path id="Trazado_269100" data-name="Trazado 269100" d="M45.841,69.008c.088-.029.657,1.588,1.6,3.466.115.239.229.447.395.509s.295-.008.348-.195a1.922,1.922,0,0,0,.03-.6c-.01-.2-.028-.384-.051-.553-.093-.675-.232-1.083-.185-1.1a2.445,2.445,0,0,1,.407,1.062,5.437,5.437,0,0,1,.092.571,2.013,2.013,0,0,1-.011.7.6.6,0,0,1-.256.375.549.549,0,0,1-.489.031,1.187,1.187,0,0,1-.564-.656,12.439,12.439,0,0,1-1.321-3.609" transform="translate(-17.871 -26.908)" fill="#eb996e"/>
          <path id="Trazado_269101" data-name="Trazado 269101" d="M44.119,72.309a4.749,4.749,0,0,1,.658,1.04l.637,1.168.366.695a3.887,3.887,0,0,0,.4.69.406.406,0,0,0,.541.124.6.6,0,0,0,.2-.563,9.942,9.942,0,0,0-.39-1.233,4.761,4.761,0,0,1-.336-1.184,4.726,4.726,0,0,1,.545,1.1q.118.278.24.57a3.033,3.033,0,0,1,.231.707.9.9,0,0,1-.3.848.625.625,0,0,1-.523.11.873.873,0,0,1-.439-.27,3.741,3.741,0,0,1-.445-.761l-.35-.7-.576-1.2a4.745,4.745,0,0,1-.459-1.141" transform="translate(-17.201 -28.195)" fill="#eb996e"/>
          <path id="Trazado_269102" data-name="Trazado 269102" d="M53.482,54.756a3.387,3.387,0,0,1-1.38-.286,4.112,4.112,0,0,1-2.261-3.239,8.94,8.94,0,0,1,3.746-8.47,3.81,3.81,0,0,1,6.179,2.733,8.4,8.4,0,0,1-.691,4.757c-1.212,2.741-3.51,4.5-5.593,4.5M56.1,43.182a3.524,3.524,0,0,0-1.859.609,7.731,7.731,0,0,0-3.2,7.228A2.942,2.942,0,0,0,52.6,53.354c1.711.756,4.167-.891,5.364-3.6a7.177,7.177,0,0,0,.605-4.053,2.945,2.945,0,0,0-1.553-2.334,2.241,2.241,0,0,0-.913-.188" transform="translate(-19.395 -16.361)" fill="#263238"/>
          <path id="Trazado_269103" data-name="Trazado 269103" d="M113.186,112.267l-10.305-10.389v0a18.365,18.365,0,0,0-7.116-4.607,14.685,14.685,0,0,0-4.46-.855,17.874,17.874,0,0,1-10.771.007,25.93,25.93,0,0,0-8.493,2.431h0L56.651,105.1l4.931,13.6,8.25-2.776.488,12.79-1.63,19.139,31.933.331-.412-17.359-.023-12.558,4.607,4.485Z" transform="translate(-22.09 -37.596)" fill="#edeadb"/>
          <path id="Trazado_269104" data-name="Trazado 269104" d="M110.71,107.925a5.5,5.5,0,0,1-.453.7,9.744,9.744,0,0,1-1.644,1.729,10.244,10.244,0,0,1-3.3,1.825,9.811,9.811,0,0,1-4.973.32,10.213,10.213,0,0,1-5.339-2.8,5.265,5.265,0,0,1-.954-1.4,2.947,2.947,0,0,1-.276-1.745,1.931,1.931,0,0,1,1.131-1.428,2.544,2.544,0,0,1,1.873.021,2.784,2.784,0,0,1,1.47,1.235,3.646,3.646,0,0,1,.4,1.914,6.676,6.676,0,0,1-1.5,3.652,10,10,0,0,1-7.2,3.751,9.331,9.331,0,0,1-4.158-.681,6.484,6.484,0,0,1-3.145-2.61,4.108,4.108,0,0,1-.171-3.9,3.061,3.061,0,0,1,3.346-1.529,2.4,2.4,0,0,1,1.489,1.134,3.16,3.16,0,0,1,.413,1.77,3.607,3.607,0,0,1-1.811,2.833,5.818,5.818,0,0,1-3.066.819,12.845,12.845,0,0,1-2.9-.376,13.922,13.922,0,0,1-4.669-1.778A6.133,6.133,0,0,1,72.87,108.5a4.486,4.486,0,0,1-.293-2.359,2.82,2.82,0,0,1,.232-.8c.021.006-.1.272-.169.808a4.538,4.538,0,0,0,.345,2.3,6.047,6.047,0,0,0,2.388,2.776,13.887,13.887,0,0,0,4.621,1.708,12.731,12.731,0,0,0,2.846.35,5.578,5.578,0,0,0,2.929-.8,3.337,3.337,0,0,0,1.671-2.624,2.875,2.875,0,0,0-.38-1.609,2.109,2.109,0,0,0-1.315-1,2.767,2.767,0,0,0-3.006,1.388,3.807,3.807,0,0,0,.173,3.6,6.181,6.181,0,0,0,3,2.474,9.033,9.033,0,0,0,4.014.655,9.7,9.7,0,0,0,6.976-3.623,6.388,6.388,0,0,0,1.439-3.477,3.342,3.342,0,0,0-.358-1.758,2.492,2.492,0,0,0-1.31-1.1,2.261,2.261,0,0,0-1.658-.031,1.65,1.65,0,0,0-.969,1.218,2.679,2.679,0,0,0,.25,1.58,4.981,4.981,0,0,0,.9,1.331,10.018,10.018,0,0,0,5.19,2.764,9.68,9.68,0,0,0,4.876-.269,10.3,10.3,0,0,0,3.279-1.752,10.45,10.45,0,0,0,1.67-1.672c.338-.424.489-.668.5-.658" transform="translate(-28.281 -40.924)" fill="#263238"/>
          <path id="Trazado_269105" data-name="Trazado 269105" d="M108.343,149.016a2.851,2.851,0,0,1-.631.309,4.8,4.8,0,0,1-2,.26,6.775,6.775,0,0,1-3.023-1,16.567,16.567,0,0,1-3.246-2.7,4.678,4.678,0,0,1-1.29-2.12,2.6,2.6,0,0,1,.068-1.351,1.887,1.887,0,0,1,.886-1.1,1.805,1.805,0,0,1,1.463-.071,3,3,0,0,1,1.227.86,4.259,4.259,0,0,1,.943,2.9,5.222,5.222,0,0,1-1.088,3.017,5.95,5.95,0,0,1-2.75,1.9,7.469,7.469,0,0,1-3.45.317,9.837,9.837,0,0,1-3.365-1.17,12.669,12.669,0,0,1-2.844-2.143,4.7,4.7,0,0,1-1.47-3.128,3.078,3.078,0,0,1,.425-1.68,2.636,2.636,0,0,1,1.323-1.077,3.272,3.272,0,0,1,3.142.491,3.726,3.726,0,0,1,1.281,2.759,4.341,4.341,0,0,1-.863,2.745,6.532,6.532,0,0,1-4.428,2.454,10.859,10.859,0,0,1-7.176-1.377,4.244,4.244,0,0,1-1.364-1.477,2.644,2.644,0,0,1-.212-.481.752.752,0,0,1-.052-.171c.023-.01.083.229.319.62a4.342,4.342,0,0,0,1.378,1.407,10.88,10.88,0,0,0,7.073,1.257,6.319,6.319,0,0,0,4.247-2.386,4.075,4.075,0,0,0,.8-2.579,3.445,3.445,0,0,0-1.187-2.543,2.98,2.98,0,0,0-2.85-.434,2.336,2.336,0,0,0-1.167.953,2.77,2.77,0,0,0-.376,1.512,4.4,4.4,0,0,0,1.387,2.916,12.432,12.432,0,0,0,2.769,2.085,9.557,9.557,0,0,0,3.255,1.135,7.171,7.171,0,0,0,3.3-.3,5.658,5.658,0,0,0,2.612-1.8,4.93,4.93,0,0,0,1.035-2.84,3.979,3.979,0,0,0-.862-2.709,2.733,2.733,0,0,0-1.106-.786,1.534,1.534,0,0,0-1.25.048,2,2,0,0,0-.838,2.168,4.476,4.476,0,0,0,1.214,2.017,16.667,16.667,0,0,0,3.174,2.706,6.734,6.734,0,0,0,2.941,1.027,4.969,4.969,0,0,0,1.966-.2c.434-.142.644-.265.652-.249" transform="translate(-31.137 -54.918)" fill="#263238"/>
        </g>
      </g>
    </g>
  </g>
</svg>
