<svg xmlns="http://www.w3.org/2000/svg" xmlns:xlink="http://www.w3.org/1999/xlink" width="245.357" height="226.469" viewBox="0 0 245.357 226.469">
  <defs>
    <clipPath id="clip-path">
      <rect id="Rectángulo_291369" data-name="Rectángulo 291369" width="217.061" height="217.091" fill="#467eac"/>
    </clipPath>
    <clipPath id="clip-path-2">
      <rect id="Rectángulo_293140" data-name="Rectángulo 293140" width="203.543" height="223.469" fill="none"/>
    </clipPath>
    <clipPath id="clip-path-4">
      <rect id="Rectángulo_293110" data-name="Rectángulo 293110" width="62.383" height="103.944" fill="none"/>
    </clipPath>
    <clipPath id="clip-path-6">
      <rect id="Rectángulo_293115" data-name="Rectángulo 293115" width="58.92" height="50.047" fill="none"/>
    </clipPath>
    <clipPath id="clip-path-8">
      <rect id="Rectángulo_293118" data-name="Rectángulo 293118" width="51.84" height="46.35" fill="none"/>
    </clipPath>
    <clipPath id="clip-path-9">
      <rect id="Rectángulo_293119" data-name="Rectángulo 293119" width="2.138" height="2.097" fill="none"/>
    </clipPath>
    <clipPath id="clip-path-10">
      <rect id="Rectángulo_293120" data-name="Rectángulo 293120" width="6.531" height="6.1" fill="none"/>
    </clipPath>
    <clipPath id="clip-path-11">
      <rect id="Rectángulo_293121" data-name="Rectángulo 293121" width="3.884" height="24.819" fill="none"/>
    </clipPath>
    <clipPath id="clip-path-13">
      <rect id="Rectángulo_293123" data-name="Rectángulo 293123" width="25.026" height="17.756" fill="none"/>
    </clipPath>
    <clipPath id="clip-path-14">
      <rect id="Rectángulo_293124" data-name="Rectángulo 293124" width="14.53" height="18.243" fill="none"/>
    </clipPath>
    <clipPath id="clip-path-15">
      <rect id="Rectángulo_293128" data-name="Rectángulo 293128" width="29.961" height="1.227" fill="none"/>
    </clipPath>
    <clipPath id="clip-path-16">
      <rect id="Rectángulo_293129" data-name="Rectángulo 293129" width="29.96" height="1.227" fill="none"/>
    </clipPath>
    <clipPath id="clip-path-17">
      <rect id="Rectángulo_293135" data-name="Rectángulo 293135" width="29.961" height="1.226" fill="none"/>
    </clipPath>
  </defs>
  <g id="Grupo_875934" data-name="Grupo 875934" transform="translate(-846.045 -9981.998)">
    <g id="Grupo_875929" data-name="Grupo 875929">
      <g id="Grupo_870717" data-name="Grupo 870717" transform="translate(846.045 9981.998)">
        <g id="Grupo_870714" data-name="Grupo 870714" clip-path="url(#clip-path)">
          <path id="Trazado_215321" data-name="Trazado 215321" d="M16.525,105.621c27.129-21.63-19.852-56.536-9.449-91.06s44.729.97,63.2,17.979S110.392,19.118,124.742,18.3s6.274,12.483,12.746,29.711,54.177,2.921,73.3,19.561-11.344,52.052-13.909,73.168,30.376,45.01,9.271,76.35l-104.846-.62c-10.55-3.243-17.432-5.813-17.432-5.813C-14.283,168.268-10.6,127.25,16.525,105.621" transform="translate(0 0)" fill="#467eac"/>
        </g>
      </g>
      <path id="Trazado_264543" data-name="Trazado 264543" d="M223.844,582.976c0,3.35-44.047,6.066-98.382,6.066s-98.382-2.716-98.382-6.066,44.072-3.741,98.408-3.741,98.357.391,98.357,3.741" transform="translate(844.936 9619.425)" fill="#033f71" opacity="0.4"/>
    </g>
    <g id="Grupo_875927" data-name="Grupo 875927" transform="translate(887.859 9981.998)">
      <g id="Grupo_875926" data-name="Grupo 875926" clip-path="url(#clip-path-2)">
        <rect id="Rectángulo_293108" data-name="Rectángulo 293108" width="62.383" height="103.944" transform="translate(82.929 119.475)" fill="#455a64"/>
        <g id="Grupo_875880" data-name="Grupo 875880">
          <g id="Grupo_875879" data-name="Grupo 875879" clip-path="url(#clip-path-2)">
            <g id="Grupo_875878" data-name="Grupo 875878" transform="translate(82.929 119.475)" opacity="0.3">
              <g id="Grupo_875877" data-name="Grupo 875877">
                <g id="Grupo_875876" data-name="Grupo 875876" clip-path="url(#clip-path-4)">
                  <rect id="Rectángulo_293109" data-name="Rectángulo 293109" width="62.383" height="103.944" transform="translate(0)"/>
                </g>
              </g>
            </g>
          </g>
        </g>
        <rect id="Rectángulo_293112" data-name="Rectángulo 293112" width="62.383" height="103.944" transform="translate(95.876 119.475)" fill="#455a64"/>
        <g id="Grupo_875885" data-name="Grupo 875885">
          <g id="Grupo_875884" data-name="Grupo 875884" clip-path="url(#clip-path-2)">
            <path id="Trazado_269206" data-name="Trazado 269206" d="M172.9,328.87c.046.059-2.741,2.3-6.223,5.012s-6.344,4.858-6.39,4.8,2.741-2.3,6.224-5.012,6.343-4.857,6.389-4.8" transform="translate(-77.216 -158.428)" fill="#455a64"/>
            <path id="Trazado_269207" data-name="Trazado 269207" d="M172.9,317.564c.046.059-2.741,2.3-6.223,5.012s-6.344,4.857-6.39,4.8,2.741-2.3,6.224-5.012,6.343-4.857,6.389-4.8" transform="translate(-77.216 -152.982)" fill="#455a64"/>
            <path id="Trazado_269208" data-name="Trazado 269208" d="M172.9,306.257c.046.059-2.741,2.3-6.223,5.012s-6.344,4.858-6.39,4.8,2.741-2.3,6.224-5.012,6.343-4.857,6.389-4.8" transform="translate(-77.216 -147.535)" fill="#455a64"/>
            <path id="Trazado_269209" data-name="Trazado 269209" d="M172.9,294.951c.046.059-2.741,2.3-6.223,5.012s-6.344,4.858-6.39,4.8,2.741-2.3,6.224-5.012,6.343-4.857,6.389-4.8" transform="translate(-77.216 -142.088)" fill="#455a64"/>
            <path id="Trazado_269210" data-name="Trazado 269210" d="M172.9,283.644c.046.059-2.741,2.3-6.223,5.012s-6.344,4.858-6.39,4.8,2.741-2.3,6.224-5.012,6.343-4.857,6.389-4.8" transform="translate(-77.216 -136.641)" fill="#455a64"/>
            <path id="Trazado_269211" data-name="Trazado 269211" d="M172.9,272.337c.046.059-2.741,2.3-6.223,5.012s-6.344,4.858-6.39,4.8,2.741-2.3,6.224-5.012,6.343-4.857,6.389-4.8" transform="translate(-77.216 -131.194)" fill="#455a64"/>
            <path id="Trazado_269212" data-name="Trazado 269212" d="M172.9,261.031c.046.059-2.741,2.3-6.223,5.012s-6.344,4.858-6.39,4.8,2.741-2.3,6.224-5.012,6.343-4.857,6.389-4.8" transform="translate(-77.216 -125.748)" fill="#455a64"/>
            <path id="Trazado_269213" data-name="Trazado 269213" d="M172.9,249.724c.046.059-2.741,2.3-6.223,5.012s-6.344,4.858-6.39,4.8,2.741-2.3,6.224-5.012,6.343-4.857,6.389-4.8" transform="translate(-77.216 -120.301)" fill="#455a64"/>
            <path id="Trazado_269214" data-name="Trazado 269214" d="M172.9,238.418c.046.059-2.741,2.3-6.223,5.012s-6.344,4.858-6.39,4.8,2.741-2.3,6.224-5.012,6.343-4.857,6.389-4.8" transform="translate(-77.216 -114.854)" fill="#455a64"/>
            <path id="Trazado_269215" data-name="Trazado 269215" d="M170.341,230.952c.046.059-2.168,1.857-4.943,4.016s-5.064,3.862-5.11,3.8,2.167-1.857,4.944-4.017,5.063-3.862,5.109-3.8" transform="translate(-77.217 -111.257)" fill="#455a64"/>
            <path id="Trazado_269216" data-name="Trazado 269216" d="M162.945,230.738a10.6,10.6,0,0,1-2.66,2.069,10.568,10.568,0,0,1,2.66-2.069" transform="translate(-77.214 -111.152)" fill="#455a64"/>
            <path id="Trazado_269217" data-name="Trazado 269217" d="M160.224,353.025c-.046-.059,2.741-2.3,6.223-5.012s6.344-4.858,6.389-4.8-2.74,2.3-6.223,5.012-6.343,4.857-6.389,4.8" transform="translate(-77.186 -165.339)" fill="#455a64"/>
            <path id="Trazado_269218" data-name="Trazado 269218" d="M160.97,367.328c-.046-.059,2.741-2.3,6.223-5.012s6.344-4.858,6.39-4.8-2.74,2.3-6.224,5.012-6.343,4.857-6.389,4.8" transform="translate(-77.545 -172.229)" fill="#455a64"/>
            <path id="Trazado_269219" data-name="Trazado 269219" d="M160.287,380.462c-.046-.059,2.741-2.3,6.223-5.012s6.344-4.858,6.39-4.8-2.741,2.3-6.224,5.012-6.343,4.857-6.389,4.8" transform="translate(-77.216 -178.556)" fill="#455a64"/>
            <path id="Trazado_269220" data-name="Trazado 269220" d="M160.287,391.768c-.046-.059,2.741-2.3,6.223-5.012s6.344-4.858,6.39-4.8-2.741,2.3-6.224,5.012-6.343,4.857-6.389,4.8" transform="translate(-77.216 -184.003)" fill="#455a64"/>
            <path id="Trazado_269221" data-name="Trazado 269221" d="M160.287,403.075c-.046-.059,2.741-2.3,6.223-5.012s6.344-4.858,6.39-4.8-2.741,2.3-6.224,5.012-6.343,4.857-6.389,4.8" transform="translate(-77.216 -189.45)" fill="#455a64"/>
            <path id="Trazado_269222" data-name="Trazado 269222" d="M160.287,414.381c-.046-.059,2.741-2.3,6.223-5.012s6.344-4.858,6.39-4.8-2.741,2.3-6.224,5.012-6.343,4.857-6.389,4.8" transform="translate(-77.216 -194.896)" fill="#455a64"/>
            <path id="Trazado_269223" data-name="Trazado 269223" d="M165.226,423.7c-.046-.059,2.168-1.857,4.943-4.016s5.064-3.862,5.11-3.8-2.167,1.857-4.944,4.017-5.063,3.862-5.109,3.8" transform="translate(-79.595 -200.343)" fill="#455a64"/>
            <path id="Trazado_269224" data-name="Trazado 269224" d="M179.49,429.249a10.6,10.6,0,0,1,2.66-2.069,10.592,10.592,0,0,1-2.66,2.069" transform="translate(-86.466 -205.786)" fill="#455a64"/>
            <rect id="Rectángulo_293113" data-name="Rectángulo 293113" width="58.92" height="50.047" transform="translate(0.003 173.416)" fill="#455a64"/>
            <g id="Grupo_875883" data-name="Grupo 875883" transform="translate(0.003 173.416)" opacity="0.3">
              <g id="Grupo_875882" data-name="Grupo 875882">
                <g id="Grupo_875881" data-name="Grupo 875881" clip-path="url(#clip-path-6)">
                  <rect id="Rectángulo_293114" data-name="Rectángulo 293114" width="58.92" height="50.047" transform="translate(0 0)"/>
                </g>
              </g>
            </g>
            <rect id="Rectángulo_293116" data-name="Rectángulo 293116" width="58.919" height="50.047" transform="translate(10.607 173.416)" fill="#455a64"/>
            <path id="Trazado_269225" data-name="Trazado 269225" d="M10.41,415.561c.046.059-2.246,1.919-5.119,4.153s-5.24,4-5.286,3.94,2.246-1.918,5.12-4.153,5.239-4,5.285-3.94" transform="translate(-0.002 -200.191)" fill="#455a64"/>
            <path id="Trazado_269226" data-name="Trazado 269226" d="M10.41,406.233c.046.059-2.246,1.919-5.119,4.153s-5.24,4-5.286,3.94,2.246-1.918,5.12-4.153,5.239-4,5.285-3.94" transform="translate(-0.002 -195.697)" fill="#455a64"/>
            <path id="Trazado_269227" data-name="Trazado 269227" d="M10.41,396.906c.046.059-2.246,1.918-5.119,4.153s-5.24,4-5.286,3.94,2.246-1.918,5.12-4.153,5.239-4,5.285-3.94" transform="translate(-0.002 -191.204)" fill="#455a64"/>
            <path id="Trazado_269228" data-name="Trazado 269228" d="M10.41,387.579c.046.059-2.246,1.919-5.119,4.153s-5.24,4-5.286,3.94,2.246-1.918,5.12-4.153,5.239-4,5.285-3.94" transform="translate(-0.002 -186.711)" fill="#455a64"/>
            <path id="Trazado_269229" data-name="Trazado 269229" d="M10.41,378.251c.046.059-2.246,1.918-5.119,4.153s-5.24,4-5.286,3.94,2.246-1.918,5.12-4.153,5.239-4,5.285-3.94" transform="translate(-0.002 -182.217)" fill="#455a64"/>
            <path id="Trazado_269230" data-name="Trazado 269230" d="M10.41,368.924c.046.059-2.246,1.919-5.119,4.153s-5.24,4-5.286,3.94,2.246-1.918,5.12-4.153,5.239-4,5.285-3.94" transform="translate(-0.002 -177.724)" fill="#455a64"/>
            <path id="Trazado_269231" data-name="Trazado 269231" d="M10.41,359.6c.046.059-2.246,1.919-5.119,4.153s-5.24,4-5.286,3.94,2.246-1.918,5.12-4.153,5.239-4,5.285-3.94" transform="translate(-0.002 -173.23)" fill="#455a64"/>
            <path id="Trazado_269232" data-name="Trazado 269232" d="M10.41,350.269c.046.059-2.246,1.918-5.119,4.153s-5.24,4-5.286,3.94,2.246-1.918,5.12-4.153,5.239-4,5.285-3.94" transform="translate(-0.002 -168.737)" fill="#455a64"/>
            <path id="Trazado_269233" data-name="Trazado 269233" d="M10.41,340.942c.046.059-2.246,1.919-5.119,4.153s-5.24,4-5.286,3.94,2.246-1.918,5.12-4.153,5.239-4,5.285-3.94" transform="translate(-0.002 -164.244)" fill="#455a64"/>
            <path id="Trazado_269234" data-name="Trazado 269234" d="M8.3,334.782a51.408,51.408,0,0,1-4.064,3.332,51.271,51.271,0,0,1-4.23,3.119A51.145,51.145,0,0,1,4.069,337.9,51.339,51.339,0,0,1,8.3,334.782" transform="translate(-0.002 -161.276)" fill="#455a64"/>
            <path id="Trazado_269235" data-name="Trazado 269235" d="M2.2,334.6c.045.059-.409.489-1.014.96a3.707,3.707,0,0,1-1.18.747c-.046-.059.407-.489,1.014-.96A3.69,3.69,0,0,1,2.2,334.6" transform="translate(0 -161.188)" fill="#455a64"/>
          </g>
        </g>
        <g id="Grupo_875899" data-name="Grupo 875899">
          <g id="Grupo_875898" data-name="Grupo 875898" clip-path="url(#clip-path-2)">
            <g id="Grupo_875888" data-name="Grupo 875888" transform="translate(97.418 114.933)" opacity="0.3">
              <g id="Grupo_875887" data-name="Grupo 875887">
                <g id="Grupo_875886" data-name="Grupo 875886" clip-path="url(#clip-path-8)">
                  <path id="Trazado_269236" data-name="Trazado 269236" d="M238.713,221.9a3.1,3.1,0,0,0-1.52-.085c-15.84,1.756-33.382,2.953-49.222,4.709v.181a96.28,96.28,0,0,0,31.322,3.649,3.467,3.467,0,0,1,2.791.67c.734.794.538,2.042.3,3.1L215.7,263.192c-.35,1.523-.593,3.395.6,4.4,1.645,1.391,4.075-.264,5.462-1.911,9.432-11.189,13.71-25.71,17.75-39.775.414-1.441.583-3.436-.8-4.005" transform="translate(-187.971 -221.766)"/>
                </g>
              </g>
            </g>
            <path id="Trazado_269237" data-name="Trazado 269237" d="M315.935,211.069a8.305,8.305,0,0,0-5.968-1.969l-3.65,11.6c2.675.118,5.343,1.5,7.926.79a5.654,5.654,0,0,0,3.935-4.647,6.719,6.719,0,0,0-2.243-5.776" transform="translate(-147.564 -100.724)" fill="#efefef"/>
            <path id="Trazado_269238" data-name="Trazado 269238" d="M310.646,208.438c.007-.094.4-.166,1.106-.159a8.983,8.983,0,0,1,2.988.563,8.127,8.127,0,0,1,3.638,2.825,7.534,7.534,0,0,1,1.214,2.516,6.638,6.638,0,0,1,.09,3.043,6.147,6.147,0,0,1-1.327,2.77A5.789,5.789,0,0,1,316,221.629a8.418,8.418,0,0,1-4.592.3,14.291,14.291,0,0,1-2.862-.888c-.644-.278-.98-.481-.952-.574s.422-.066,1.107.048,1.659.321,2.846.429a8.185,8.185,0,0,0,3.967-.513,4.684,4.684,0,0,0,1.785-1.317,4.992,4.992,0,0,0,1-2.167,5.982,5.982,0,0,0-.988-4.535,7.8,7.8,0,0,0-2.974-2.656,13.5,13.5,0,0,0-2.663-.932c-.664-.171-1.041-.283-1.032-.383" transform="translate(-148.179 -100.335)" fill="#e0e0e0"/>
            <path id="Trazado_269239" data-name="Trazado 269239" d="M242.861,290.9l-7.356,20.61L261.1,320.79c.737-2.5-10.724-12.211-10.724-12.211l5.255-13.012Z" transform="translate(-113.452 -140.136)" fill="#efefef"/>
            <g id="Grupo_875891" data-name="Grupo 875891" transform="translate(128.25 164.455)" opacity="0.6">
              <g id="Grupo_875890" data-name="Grupo 875890">
                <g id="Grupo_875889" data-name="Grupo 875889" clip-path="url(#clip-path-9)">
                  <path id="Trazado_269240" data-name="Trazado 269240" d="M248.625,317.329a1.112,1.112,0,0,0-1.155.931,1.069,1.069,0,0,0,.912,1.154,1.173,1.173,0,0,0,1.218-.992c.006-.546-.542-1.172-1.082-1.094" transform="translate(-247.462 -317.32)" fill="#fff"/>
                </g>
              </g>
            </g>
            <path id="Trazado_269241" data-name="Trazado 269241" d="M235.505,328.73l.743-2.08,24.313,9.7s.96.91.539,1.665Z" transform="translate(-113.452 -157.36)" fill="#f5f5f5"/>
            <path id="Trazado_269242" data-name="Trazado 269242" d="M262.445,324.7c-.049.123-.695-.047-1.456.133-.766.159-1.279.585-1.376.493-.106-.066.351-.745,1.276-.946s1.624.215,1.555.32" transform="translate(-125.058 -156.241)" fill="#263238"/>
            <path id="Trazado_269243" data-name="Trazado 269243" d="M267.31,328.931c-.015.132-.634.148-1.25.522-.628.357-.942.889-1.065.839-.124-.023.054-.786.83-1.238s1.525-.244,1.484-.123" transform="translate(-127.641 -158.383)" fill="#263238"/>
            <path id="Trazado_269244" data-name="Trazado 269244" d="M270.137,334.642c-.124-.015-.071-.7.5-1.27s1.253-.628,1.268-.5c.033.128-.479.358-.94.831s-.7.976-.826.944" transform="translate(-130.109 -160.328)" fill="#263238"/>
            <path id="Trazado_269245" data-name="Trazado 269245" d="M264.247,318.1c-.094.095-.6-.286-1.328-.494s-1.356-.185-1.382-.316.665-.385,1.514-.128,1.293.861,1.2.937" transform="translate(-125.991 -152.74)" fill="#263238"/>
            <path id="Trazado_269246" data-name="Trazado 269246" d="M264.567,309.74a2.555,2.555,0,0,1-1.28-.472,6.138,6.138,0,0,1-1.191-.9,6.409,6.409,0,0,1-.594-.658,1.666,1.666,0,0,1-.278-.442.58.58,0,0,1,.184-.686.729.729,0,0,1,.651-.087,1.763,1.763,0,0,1,.457.241,4.908,4.908,0,0,1,.7.562,4.793,4.793,0,0,1,.9,1.2,2.276,2.276,0,0,1,.377,1.314c-.072.021-.219-.475-.659-1.148a5.443,5.443,0,0,0-.91-1.059,5.084,5.084,0,0,0-.654-.494c-.245-.169-.475-.255-.589-.16-.042.037-.052.054-.024.154a1.379,1.379,0,0,0,.2.323,7.273,7.273,0,0,0,.537.632,7.538,7.538,0,0,0,1.067.925,9.459,9.459,0,0,1,1.1.747" transform="translate(-125.819 -147.632)" fill="#263238"/>
            <path id="Trazado_269247" data-name="Trazado 269247" d="M267.224,309.545a2.173,2.173,0,0,1,.111-1.361,4.418,4.418,0,0,1,1.293-2,1.127,1.127,0,0,1,1.053-.351.638.638,0,0,1,.406.551,1.86,1.86,0,0,1-.039.518,3.043,3.043,0,0,1-.312.864,3.133,3.133,0,0,1-1.028,1.126c-.741.482-1.316.442-1.311.4a11.257,11.257,0,0,0,1.118-.66,3.138,3.138,0,0,0,.842-1.058,2.8,2.8,0,0,0,.245-.749c.059-.287.036-.543-.076-.552a.779.779,0,0,0-.6.258,4.507,4.507,0,0,0-.57.579,4.9,4.9,0,0,0-.712,1.189c-.308.738-.344,1.255-.419,1.249" transform="translate(-128.704 -147.317)" fill="#263238"/>
            <path id="Trazado_269248" data-name="Trazado 269248" d="M178.042,177.381c-4.191.1-8.167.689-11.054,3.73-3.829,4.032-8.564,9.775-8.833,13.759-.4,5.953,3.19,7.723,5.812,9.175a7.279,7.279,0,0,0,3.807.88l48.445-.367,1.521-8.206-31.333-7.722,1.3-11.793Z" transform="translate(-76.174 -85.189)" fill="#263238"/>
            <path id="Trazado_269249" data-name="Trazado 269249" d="M214,176.185l15.24-.7s26.326,1.463,31.942,6.611,4.914,11,3.042,16.612-18.367,41.531-18.367,41.531a6.206,6.206,0,0,1,.585,4.563,6.021,6.021,0,0,1-4.3,4.1l-14.65-5.384s-1.989-.7-.585-2.574a6.473,6.473,0,0,1,2.339-2.223v-3.744s5.148-9.359,5.616-10.646,5.4-20.335,5.4-20.335l3.277-5.632s-7.927-3.727-14.8-6.428L212.7,187.977Z" transform="translate(-102.465 -84.537)" fill="#263238"/>
            <path id="Trazado_269250" data-name="Trazado 269250" d="M253.936,302c-.03.035-.491-.33-1.285-.843a17.367,17.367,0,0,0-6.841-2.6c-.934-.145-1.522-.178-1.521-.224a5.735,5.735,0,0,1,1.546.027,14.608,14.608,0,0,1,6.927,2.633A5.7,5.7,0,0,1,253.936,302" transform="translate(-117.683 -143.702)" fill="#455a64"/>
            <path id="Trazado_269251" data-name="Trazado 269251" d="M272.4,294.186a5.1,5.1,0,0,1-.851-.9c-.494-.58-1.152-1.4-1.841-2.339s-1.279-1.81-1.685-2.454a5.1,5.1,0,0,1-.6-1.079,5.723,5.723,0,0,1,.767.967l1.748,2.4,1.77,2.382a5.726,5.726,0,0,1,.7,1.02" transform="translate(-128.824 -138.46)" fill="#455a64"/>
            <path id="Trazado_269252" data-name="Trazado 269252" d="M279.707,209.693c.009.046-.538.162-1.388.444a14.6,14.6,0,0,0-5.869,3.664c-.627.64-.971,1.08-1.009,1.052a5.028,5.028,0,0,1,.863-1.187,12.445,12.445,0,0,1,5.956-3.719,5.035,5.035,0,0,1,1.446-.254" transform="translate(-130.763 -101.013)" fill="#455a64"/>
            <path id="Trazado_269253" data-name="Trazado 269253" d="M258.473,232.623a1.374,1.374,0,0,1,.06-.317c.059-.234.133-.529.225-.892l.877-3.269c.777-2.786,1.833-6.573,3-10.757.608-2.1,1.13-4.1,1.716-5.911a12.323,12.323,0,0,1,2.758-4.208,15.745,15.745,0,0,1,2.619-2.159c.339-.215.6-.378.79-.476a1.409,1.409,0,0,1,.289-.143c.013.022-.366.249-1.017.709a17.414,17.414,0,0,0-2.537,2.206,12.4,12.4,0,0,0-2.659,4.161c-.562,1.786-1.084,3.811-1.69,5.9-1.2,4.175-2.28,7.953-3.077,10.732l-.963,3.244c-.112.357-.2.648-.276.878a1.379,1.379,0,0,1-.115.3" transform="translate(-124.515 -98.511)" fill="#455a64"/>
            <path id="Trazado_269254" data-name="Trazado 269254" d="M231.38,193.98c-.077.007-.4-2.843-.715-6.364s-.513-6.382-.435-6.39.4,2.842.715,6.364.513,6.382.435,6.389" transform="translate(-110.902 -87.304)" fill="#455a64"/>
            <path id="Trazado_269255" data-name="Trazado 269255" d="M176.991,215.4c-.043.021-.278-.44-.755-1.116a10.961,10.961,0,0,0-5.005-3.91c-.771-.3-1.275-.416-1.265-.463a4.13,4.13,0,0,1,1.332.275,9.606,9.606,0,0,1,5.1,3.988,4.124,4.124,0,0,1,.589,1.226" transform="translate(-81.879 -101.12)" fill="#455a64"/>
            <path id="Trazado_269256" data-name="Trazado 269256" d="M189.338,198.087c-.027.044-.673-.371-1.792-.88a16.887,16.887,0,0,0-9.366-1.344c-1.217.174-1.953.39-1.967.34a1.966,1.966,0,0,1,.5-.192,11.033,11.033,0,0,1,1.431-.345,15.334,15.334,0,0,1,9.483,1.36,10.988,10.988,0,0,1,1.276.734,2.02,2.02,0,0,1,.431.326" transform="translate(-84.888 -94.148)" fill="#455a64"/>
            <path id="Trazado_269257" data-name="Trazado 269257" d="M237.517,207.656a1.979,1.979,0,0,1-.38-.063l-1.075-.233-3.949-.887c-3.335-.747-7.948-1.749-13.061-2.762s-9.762-1.843-13.13-2.423l-3.989-.684-1.083-.194a1.92,1.92,0,0,1-.375-.087,1.922,1.922,0,0,1,.383.031l1.092.142c.947.128,2.316.331,4,.6,3.378.53,8.033,1.331,13.152,2.344s9.726,2.047,13.051,2.844c1.662.4,3,.732,3.929.974l1.063.285a1.983,1.983,0,0,1,.366.118" transform="translate(-96.576 -96.501)" fill="#455a64"/>
            <path id="Trazado_269258" data-name="Trazado 269258" d="M204.863,195.35a16.642,16.642,0,0,0-.671-1.548,6.8,6.8,0,0,0-1.108-1.434,17.842,17.842,0,0,0-1.7-1.467,25.557,25.557,0,0,0-3.47-2.155,11.277,11.277,0,0,1-1.482-.843,9.358,9.358,0,0,1,1.572.666,20.139,20.139,0,0,1,3.552,2.109,15.638,15.638,0,0,1,1.711,1.51,6.387,6.387,0,0,1,1.1,1.52,5.277,5.277,0,0,1,.433,1.185,1.311,1.311,0,0,1,.063.458" transform="translate(-94.63 -90.519)" fill="#455a64"/>
            <path id="Trazado_269259" data-name="Trazado 269259" d="M314.651,216.406c.062.06-.748.879-1.379,2.124s-.838,2.374-.923,2.359a6.17,6.17,0,0,1,2.3-4.483" transform="translate(-150.46 -104.25)" fill="#263238"/>
            <path id="Trazado_269260" data-name="Trazado 269260" d="M348.851,81.2a.286.286,0,0,1-.043.073l-.143.2-.571.786L345.9,85.225l-7.865,10.495-.068.091-.094-.066L331.021,90.9l.181-.029-5.158,6.965-5.606,7.553-.07.094-.1-.059-8.42-4.931.146-.027-7.263,9.069-2.039,2.518-.543.657a1.8,1.8,0,0,1-.2.218,1.883,1.883,0,0,1,.168-.239l.517-.677,1.991-2.557,7.188-9.129.061-.077.085.049,8.436,4.9-.17.035,5.6-7.559,5.165-6.96.076-.1.1.074,6.836,4.869-.162.025,7.942-10.436,2.246-2.919.6-.764.158-.193c.036-.043.055-.064.058-.062" transform="translate(-145.462 -39.118)" fill="#263238"/>
            <path id="Trazado_269261" data-name="Trazado 269261" d="M385.011,88.709a2.575,2.575,0,0,1,0-.607c.031-.445.069-1,.113-1.644.108-1.388.275-3.3.477-5.417l0-.035.179.139c-1.993.713-3.8,1.344-5.112,1.788l-1.558.512a2.576,2.576,0,0,1-.584.153,2.6,2.6,0,0,1,.549-.252l1.529-.593c1.3-.49,3.093-1.149,5.086-1.863l.2-.072-.02.211,0,.035c-.2,2.114-.4,4.026-.556,5.41-.079.646-.145,1.193-.2,1.637a2.7,2.7,0,0,1-.109.6" transform="translate(-182.354 -38.934)" fill="#263238"/>
            <path id="Trazado_269262" data-name="Trazado 269262" d="M223.733,99.174c-.237-1.585-4.977-6.829-4.977-6.829s-4.117-10.086-4.827-12.891a42.724,42.724,0,0,0-1.942-5.2c-1.654-2.805-2.478-2.859-5.317-4.456l-5.5-2.427-.673-1.5a6.248,6.248,0,0,0-2.841-2.993l-13.816-7.1-4.273,7.539s-8.195,3.872-8.676,4.484c-1.684,2.145-.532,36.606-.532,36.606s-.826,13.428-1.741,17.2-1.452,6.552-1.452,6.552l4.1-4.708c2.4-3.014,7.675-4.4,11.461-4.346l32.364.144-1.974-9.653,26.854,5.677s4.5-8.78,4.858-8.957-21.091-7.141-21.091-7.141" transform="translate(-80.529 -26.871)" fill="#00cb9e"/>
            <path id="Trazado_269263" data-name="Trazado 269263" d="M198.027,75.484c-.227-.232,2.565,6.486,4.41,13.784,1.15,4.55,1.392,11.942,1.392,16.012l.7,11.477v10.036l15.518-1.054-2.32-16.867s-1.892-10.88-2.421-15.018c-.485-3.789-2.789-18.973-2.789-18.973s-7.988,7.218-14.485.6" transform="translate(-95.391 -36.074)" fill="#fff"/>
            <path id="Trazado_269264" data-name="Trazado 269264" d="M264.466,145.795a.977.977,0,0,1,0-.39,5.8,5.8,0,0,1,.2-1.043,7.005,7.005,0,0,1,4.781-4.791,5.808,5.808,0,0,1,1.042-.206.978.978,0,0,1,.391,0c.007.048-.544.107-1.373.4a7.45,7.45,0,0,0-4.652,4.662c-.287.829-.344,1.38-.392,1.373" transform="translate(-127.395 -67.13)" fill="#263238"/>
            <path id="Trazado_269265" data-name="Trazado 269265" d="M266.021,139.272a6.212,6.212,0,0,1,4.818-.4c-.016.084-1.1-.125-2.426-.009s-2.362.486-2.392.406" transform="translate(-128.152 -66.75)" fill="#263238"/>
            <path id="Trazado_269266" data-name="Trazado 269266" d="M160.95,78.375a15.153,15.153,0,0,0-8.725,10.533c-1.455,5.921-7.675,30.116-6.4,33.737s26.155,7.171,26.155,7.171l2.947-12.437L162.3,113.922s.16-11.519.32-16.292-1.669-19.255-1.669-19.255" transform="translate(-70.168 -37.756)" fill="#00cb9e"/>
            <path id="Trazado_269267" data-name="Trazado 269267" d="M199.139,157l4.428,1.159-2.626,9.589-4.355-.193Z" transform="translate(-94.703 -75.633)" fill="#fff"/>
            <path id="Trazado_269268" data-name="Trazado 269268" d="M233.655,167.175l-3.99-4.237-8.207-2.077s-7.521,2.253-7.7,2.246-6.545-1.739-6.545-1.739l-2.224,8.16,11.463.785,13.089-.524s.683-.636.278-1.07,2.188.734,2.493.748.9.249,1.3-.24a1.727,1.727,0,0,0,.04-2.052" transform="translate(-98.751 -77.493)" fill="#c78976"/>
            <path id="Trazado_269269" data-name="Trazado 269269" d="M244.6,173.872a7.157,7.157,0,0,1-1.3-.371c-.8-.252-1.9-.59-3.127-.905s-2.36-.548-3.179-.713a7.054,7.054,0,0,1-1.32-.308,5.564,5.564,0,0,1,1.355.1,29.057,29.057,0,0,1,3.217.632,28.233,28.233,0,0,1,3.123.994,5.519,5.519,0,0,1,1.235.568" transform="translate(-113.531 -82.646)" fill="#8b5d54"/>
            <path id="Trazado_269270" data-name="Trazado 269270" d="M248.612,170.049a17.212,17.212,0,0,1-1.821-.587c-1.117-.377-2.679-.838-4.415-1.323a23.131,23.131,0,0,0-4.449-1.1,10.9,10.9,0,0,0-1.89.074,1.49,1.49,0,0,1,.491-.165,5.377,5.377,0,0,1,1.411-.117,19.232,19.232,0,0,1,4.518,1.024c1.737.485,3.3.981,4.4,1.41.553.212.995.4,1.3.538a1.771,1.771,0,0,1,.455.245" transform="translate(-113.708 -80.367)" fill="#8b5d54"/>
            <path id="Trazado_269271" data-name="Trazado 269271" d="M145.788,154.46c.021,0-.012.207.061.586a2.76,2.76,0,0,0,.868,1.412,11.964,11.964,0,0,0,5.764,2.316l.008,0,.01,0c1.2.393,2.559.705,4.017,1.035s3.027.661,4.682,1c3.31.677,6.972,1.389,10.852,2.115l-.169.109c.281-1.154.578-2.373.88-3.61l2.014-8.24.1.171-11.227-3.2-.007,0-.006,0a11.091,11.091,0,0,0-4.9-.858,10.819,10.819,0,0,0-3.7.868,12.476,12.476,0,0,0-2.123,1.176l-.514.375a.992.992,0,0,1-.182.121,1.071,1.071,0,0,1,.161-.148c.111-.091.272-.233.5-.4a11.475,11.475,0,0,1,2.111-1.24,10.763,10.763,0,0,1,3.737-.933,11.2,11.2,0,0,1,5,.829l-.013,0,11.243,3.153.132.037-.033.134-2.005,8.242-.881,3.61-.033.135-.136-.025c-3.882-.731-7.543-1.453-10.852-2.146-1.655-.345-3.22-.688-4.681-1.026s-2.816-.663-4.033-1.076l.018.005a11.844,11.844,0,0,1-5.808-2.435,2.747,2.747,0,0,1-.847-1.481,1.723,1.723,0,0,1-.005-.6" transform="translate(-70.222 -70.853)" fill="#263238"/>
            <path id="Trazado_269272" data-name="Trazado 269272" d="M170.32,145.716c-.035.037-.457-.349-1.215-.858a11.6,11.6,0,0,0-6.728-1.96c-.914.021-1.477.121-1.486.071a4.646,4.646,0,0,1,1.476-.279,10.294,10.294,0,0,1,6.858,2,4.64,4.64,0,0,1,1.1,1.028" transform="translate(-77.507 -68.725)" fill="#263238"/>
            <path id="Trazado_269273" data-name="Trazado 269273" d="M178.853,109.456a3.748,3.748,0,0,1,.008.759c-.011.488-.053,1.193-.119,2.062-.139,1.738-.4,4.136-.853,6.76a47.091,47.091,0,0,1-1.569,6.635c-.139.415-.281.784-.4,1.109l-.362.815a3.713,3.713,0,0,1-.387.655,3.776,3.776,0,0,1,.283-.7l.312-.826c.106-.328.234-.7.359-1.114a58.6,58.6,0,0,0,1.478-6.622c.452-2.614.744-5,.935-6.729.086-.821.157-1.508.213-2.05a3.751,3.751,0,0,1,.106-.751" transform="translate(-84.384 -52.729)" fill="#263238"/>
            <path id="Trazado_269274" data-name="Trazado 269274" d="M197.454,84.756c-.018.005-.056-.147-.187-.4a2.406,2.406,0,0,0-.812-.887,2.033,2.033,0,0,0-1.757-.257,2.265,2.265,0,0,0-1.482,1.678l-.076.384-.165-.355a37.692,37.692,0,0,1-1.651-4.171A21.928,21.928,0,0,1,190.1,73.38c0-.481.068-.913.1-1.293.065-.376.114-.7.172-.963a4.638,4.638,0,0,1,.239-.8,18.792,18.792,0,0,0-.308,3.058,23.4,23.4,0,0,0,1.289,7.279,41.943,41.943,0,0,0,1.615,4.151l-.241.029a2.475,2.475,0,0,1,1.669-1.831,2.179,2.179,0,0,1,1.907.333,2.327,2.327,0,0,1,.8.978,1.628,1.628,0,0,1,.1.319c.014.075.019.114.012.115" transform="translate(-91.575 -33.878)" fill="#263238"/>
            <path id="Trazado_269275" data-name="Trazado 269275" d="M229.959,86.492a4.04,4.04,0,0,1-.118-.643,7.068,7.068,0,0,1-.108-1.811,3.859,3.859,0,0,1,1.232-2.393,2.269,2.269,0,0,1,1.486-.564,1.978,1.978,0,0,1,1.565.74l-.226.136-.485-1.29c-.953-2.545-1.8-4.855-2.4-6.531-.282-.8-.518-1.471-.7-1.991a4.349,4.349,0,0,1-.223-.743,4.3,4.3,0,0,1,.32.705l.779,1.959c.647,1.658,1.524,3.957,2.478,6.5l.482,1.292.311.834-.537-.7a1.74,1.74,0,0,0-1.362-.648,2.045,2.045,0,0,0-1.339.491,3.721,3.721,0,0,0-1.2,2.224,8.092,8.092,0,0,0,.03,1.773,2.913,2.913,0,0,1,.023.655" transform="translate(-110.659 -34.397)" fill="#263238"/>
            <path id="Trazado_269276" data-name="Trazado 269276" d="M247.906,103.1c.073-.009,1.228,7.555,2.58,16.894s2.389,16.922,2.316,16.932-1.227-7.553-2.58-16.9-2.389-16.921-2.316-16.931" transform="translate(-119.424 -49.669)" fill="#263238"/>
            <g id="Grupo_875894" data-name="Grupo 875894" transform="translate(99.915 46.959)" opacity="0.3">
              <g id="Grupo_875893" data-name="Grupo 875893">
                <g id="Grupo_875892" data-name="Grupo 875892" clip-path="url(#clip-path-10)">
                  <path id="Trazado_269277" data-name="Trazado 269277" d="M192.789,90.609a16.956,16.956,0,0,0,1.345,6.1A4.326,4.326,0,0,1,196.27,95a3.4,3.4,0,0,1,3.05,1.26,5.528,5.528,0,0,0-.974-2.331,2.731,2.731,0,0,0-2.141-1.119,1.9,1.9,0,0,0-1.8,1.47l-1.549-3.637" transform="translate(-192.789 -90.609)"/>
                </g>
              </g>
            </g>
            <path id="Trazado_269278" data-name="Trazado 269278" d="M177.308,89.662c-.052,0-.035-.566-.2-1.449A8.816,8.816,0,0,0,175.8,85a9.462,9.462,0,0,0-1.234-1.468,8.357,8.357,0,0,0-1.238-.964c-.759-.479-1.294-.663-1.275-.713a1.1,1.1,0,0,1,.388.095,2.867,2.867,0,0,1,.435.169,4.683,4.683,0,0,1,.555.278,7.338,7.338,0,0,1,1.312.944,8.687,8.687,0,0,1,1.293,1.5,8.021,8.021,0,0,1,1.277,3.337,5.643,5.643,0,0,1,.053,1.085,1.1,1.1,0,0,1-.051.4" transform="translate(-82.882 -39.431)" fill="#263238"/>
            <g id="Grupo_875897" data-name="Grupo 875897" transform="translate(128.947 56.797)" opacity="0.3">
              <g id="Grupo_875896" data-name="Grupo 875896">
                <g id="Grupo_875895" data-name="Grupo 875895" clip-path="url(#clip-path-11)">
                  <path id="Trazado_269279" data-name="Trazado 269279" d="M248.806,109.592l3.467,24.428.174.391a52.413,52.413,0,0,0-3.641-24.819" transform="translate(-248.806 -109.592)"/>
                </g>
              </g>
            </g>
            <path id="Trazado_269280" data-name="Trazado 269280" d="M249.57,136.093l-11.276,19.721-27.782.6-.069,1.258,26.9-.2.853-.029,28.407.056,5.74-9.9,7.333-10.51a1.037,1.037,0,0,0-.855-1.631l-28.356.108a1.037,1.037,0,0,0-.9.522" transform="translate(-101.378 -65.257)" fill="#e0e0e0"/>
            <path id="Trazado_269281" data-name="Trazado 269281" d="M321.324,158.888s1.46,1.338,1.229,2.474-.153,1.982-1.229,2.059a1.636,1.636,0,0,1-1.46,1.69,1.8,1.8,0,0,1-1.745,2.09s-.636,1.906-1.943,1.444a11.522,11.522,0,0,1-2.151-1l-.385-.691s-1.924-.723-1.45-1.81c.288-.659,1.283-.831,1.283-.831a1.868,1.868,0,0,1,.123-1.69c.462-.62,1.964-.108,1.964-.108a2.118,2.118,0,0,1,.476-1.47c.512-.606,2.9,1.042,2.9,1.042l1.3-1.558Z" transform="translate(-150.358 -76.542)" fill="#c78976"/>
            <path id="Trazado_269282" data-name="Trazado 269282" d="M319.381,172.24a26.589,26.589,0,0,1-4.646-2.886,26.695,26.695,0,0,1,4.646,2.886" transform="translate(-151.619 -81.581)" fill="#8b5d54"/>
            <path id="Trazado_269283" data-name="Trazado 269283" d="M323.066,168.479a22.475,22.475,0,0,1-4.3-2.594,22.546,22.546,0,0,1,4.3,2.594" transform="translate(-153.559 -79.91)" fill="#8b5d54"/>
            <path id="Trazado_269284" data-name="Trazado 269284" d="M322.478,163.342a7.577,7.577,0,0,1,1.973,1.047,18.035,18.035,0,0,1,1.855,1.23,5.973,5.973,0,0,1-2-.992,10.953,10.953,0,0,1-1.823-1.286" transform="translate(-155.349 -78.684)" fill="#8b5d54"/>
            <path id="Trazado_269285" data-name="Trazado 269285" d="M306.629,136.769a.5.5,0,0,1-.136.015l-.4.014-1.534.026-5.641.045-18.611.041h-1.355a1.119,1.119,0,0,0-1.033.488l-1.263,2.277L274.261,144l-4.069,7.311-2.765,4.917-.764,1.329-.2.343a.517.517,0,0,1-.078.112.5.5,0,0,1,.053-.126l.18-.356.718-1.356,2.687-4.961,4.017-7.341,2.38-4.331,1.27-2.3a1.4,1.4,0,0,1,1.267-.615h1.355l18.611.041,5.641.045,1.534.026.4.014a.5.5,0,0,1,.136.015" transform="translate(-128.325 -65.817)" fill="#263238"/>
            <path id="Trazado_269286" data-name="Trazado 269286" d="M305.111,155.58a1.2,1.2,0,1,0,1.79-.211,1.28,1.28,0,0,0-1.79.211" transform="translate(-146.798 -74.713)" fill="#fff"/>
            <path id="Trazado_269287" data-name="Trazado 269287" d="M210.857,39.8l-.156-4.471s5.942-1.3,5.646-7.3c-.143-2.9-.923-8.845-1.691-14.217a11.2,11.2,0,0,0-11.773-9.59l-.579.035C196.087,5,193.25,10.7,194.17,16.9l1.456,23.64a7.625,7.625,0,0,0,15.231-.734" transform="translate(-93.457 -2.022)" fill="#c78976"/>
            <path id="Trazado_269288" data-name="Trazado 269288" d="M218.833,62.573a14.518,14.518,0,0,1-7.952-1.828s2.032,4.252,7.983,3.344Z" transform="translate(-101.589 -29.263)" fill="#8b5d54"/>
            <path id="Trazado_269289" data-name="Trazado 269289" d="M230.841,32.948a.858.858,0,0,1-.773.915.821.821,0,0,1-.93-.718.858.858,0,0,1,.772-.915.822.822,0,0,1,.931.718" transform="translate(-110.383 -15.523)" fill="#263238"/>
            <path id="Trazado_269290" data-name="Trazado 269290" d="M228.569,27.815c-.1.118-.777-.322-1.7-.263s-1.569.562-1.676.455c-.052-.047.044-.256.325-.488a2.353,2.353,0,0,1,1.333-.5,2.259,2.259,0,0,1,1.361.349c.3.2.405.4.356.449" transform="translate(-108.478 -13.013)" fill="#263238"/>
            <path id="Trazado_269291" data-name="Trazado 269291" d="M213.485,33.656a.858.858,0,0,1-.773.915.82.82,0,0,1-.93-.718.858.858,0,0,1,.772-.915.821.821,0,0,1,.931.718" transform="translate(-102.022 -15.864)" fill="#263238"/>
            <path id="Trazado_269292" data-name="Trazado 269292" d="M211.108,29.223c-.1.119-.779-.321-1.7-.263s-1.568.562-1.675.455c-.052-.047.042-.254.325-.488a2.353,2.353,0,0,1,1.332-.5,2.261,2.261,0,0,1,1.361.349c.3.2.4.4.356.449" transform="translate(-100.066 -13.691)" fill="#263238"/>
            <path id="Trazado_269293" data-name="Trazado 269293" d="M220.685,35.646a6.131,6.131,0,0,1,1.48-.362c.234-.039.454-.1.484-.262a1.2,1.2,0,0,0-.2-.688l-.806-1.749a30.879,30.879,0,0,1-1.852-4.592,30.916,30.916,0,0,1,2.217,4.432l.778,1.762a1.367,1.367,0,0,1,.179.916.591.591,0,0,1-.366.368,1.615,1.615,0,0,1-.4.08,6.006,6.006,0,0,1-1.517.095" transform="translate(-105.877 -13.485)" fill="#263238"/>
            <path id="Trazado_269294" data-name="Trazado 269294" d="M216.252,44.313c.149-.018.213.982,1.113,1.64s1.959.481,1.975.621c.018.062-.226.209-.675.249a2.5,2.5,0,0,1-1.645-.462,2.174,2.174,0,0,1-.869-1.379c-.064-.416.032-.671.1-.669" transform="translate(-104.118 -21.347)" fill="#263238"/>
            <path id="Trazado_269295" data-name="Trazado 269295" d="M210.4,22.424c-.076.256-1,.194-2.076.391-1.077.175-1.93.545-2.088.33-.07-.1.067-.349.4-.613a3.674,3.674,0,0,1,3.172-.549c.407.136.619.32.587.442" transform="translate(-99.344 -10.519)" fill="#263238"/>
            <path id="Trazado_269296" data-name="Trazado 269296" d="M227.821,22.653c-.149.219-.8.041-1.562.078-.765.01-1.4.227-1.564.018-.072-.1.017-.319.287-.534a2.264,2.264,0,0,1,2.518-.077c.283.2.385.409.32.515" transform="translate(-108.233 -10.499)" fill="#263238"/>
            <path id="Trazado_269297" data-name="Trazado 269297" d="M212.532,10.368s-1.813-3.658-3.679-4.424c-2.258-.926-3.054,1.539-5.179,1.084s-4.281-1.345-6.318.4c-2.229,1.912-1.057,3.085-1.038,5.755.079,10.826-1.7,14-2.577,8.951-.1-.553-1.668-.9-2.042-3.239-.485-3.032-.83-6.729-.283-8.935a8.554,8.554,0,0,1,3.2-4.689c2.809-2.376,6.852-2.672,9.616-2.564s8.255,2.942,8.294,7.66" transform="translate(-92.078 -1.296)" fill="#263238"/>
            <path id="Trazado_269298" data-name="Trazado 269298" d="M193.18,38.475a1.631,1.631,0,0,0-1.854-1.46c-1.112.175-2.318.887-2.1,3.194.383,4.092,4.413,2.863,4.409,2.745,0-.08-.277-2.768-.453-4.479" transform="translate(-91.144 -17.822)" fill="#c78976"/>
            <path id="Trazado_269299" data-name="Trazado 269299" d="M193.917,42.738c-.019-.011-.067.056-.182.123a.718.718,0,0,1-.532.061,1.772,1.772,0,0,1-.964-1.506,2.366,2.366,0,0,1,.1-1.04.829.829,0,0,1,.485-.6.365.365,0,0,1,.439.157c.065.109.047.193.069.2s.081-.077.033-.243a.454.454,0,0,0-.185-.242.542.542,0,0,0-.4-.067,1.007,1.007,0,0,0-.685.7,2.432,2.432,0,0,0-.14,1.164,1.859,1.859,0,0,0,1.206,1.67.766.766,0,0,0,.642-.169c.118-.113.131-.206.116-.212" transform="translate(-92.463 -19.062)" fill="#8b5d54"/>
            <path id="Trazado_269300" data-name="Trazado 269300" d="M192.241,12.7a3.9,3.9,0,0,0,1.786.695,1.341,1.341,0,0,0,1.426-1.032c.031-.288-.059-.615.115-.847.207-.277.626-.22.972-.2a2.623,2.623,0,0,0,2.6-2.044,1.1,1.1,0,0,0,1.482.048,5.913,5.913,0,0,0,1.043-1.263,1.69,1.69,0,0,1,1.364-.791,4.042,4.042,0,0,0,.9.141c.536-.081.76-.728.809-1.267s.074-1.167.512-1.486a2.152,2.152,0,0,1,1.464-.131c.5.042,1.133-.113,1.23-.606a.976.976,0,0,0-.229-.732,2.662,2.662,0,0,0-3.2-.813,3.606,3.606,0,0,0-6.657-.29,3.66,3.66,0,0,0-5.757,1.692A2.718,2.718,0,0,0,189.4,4.882a2.717,2.717,0,0,0-.04,2.926A2.52,2.52,0,0,0,188.1,9.9a1.442,1.442,0,0,0,1.721,1.371,1.469,1.469,0,0,0,2.626,1.307" transform="translate(-90.614 0)" fill="#263238"/>
            <path id="Trazado_269301" data-name="Trazado 269301" d="M205.272,6.868s0,.025,0,.075,0,.124-.012.221a2.591,2.591,0,0,1-.249.808A2.94,2.94,0,0,1,204.165,9a2.737,2.737,0,0,1-1.65.583l.064-.095a1.489,1.489,0,0,1-.012,1.137,4.269,4.269,0,0,1-.64,1.052,3.087,3.087,0,0,1-.43.5,1.437,1.437,0,0,1-.635.281,1.5,1.5,0,0,1-1.349-.391l.151-.053a3.082,3.082,0,0,1-1.174,2.208,2.246,2.246,0,0,1-1.319.524,4.057,4.057,0,0,1-1.345-.209l.107-.055a3.23,3.23,0,0,1-.892,1.325,1.722,1.722,0,0,1-1.4.477,2.263,2.263,0,0,1-1.848-1.661l.1.037a2.118,2.118,0,0,1-1.4.294,2.3,2.3,0,0,1-1.01-.378,1.986,1.986,0,0,1-.489-.473,1.024,1.024,0,0,1-.117-.206,2.484,2.484,0,0,0,.644.621,2.278,2.278,0,0,0,.983.336,2.027,2.027,0,0,0,1.316-.3l.075-.048.021.086a2.134,2.134,0,0,0,1.747,1.537,1.564,1.564,0,0,0,1.274-.448,3.086,3.086,0,0,0,.838-1.257l.028-.078.079.023a3.916,3.916,0,0,0,1.286.2,2.075,2.075,0,0,0,1.218-.487A2.917,2.917,0,0,0,199.488,12l.014-.2.137.142a1.334,1.334,0,0,0,1.191.346,1.276,1.276,0,0,0,.563-.244,2.991,2.991,0,0,0,.406-.468,4.144,4.144,0,0,0,.627-1.008,1.347,1.347,0,0,0,.026-1.03l-.04-.1h.1A2.641,2.641,0,0,0,204.1,8.91a2.917,2.917,0,0,0,.847-.973,3.188,3.188,0,0,0,.326-1.069" transform="translate(-90.985 -3.308)" fill="#455a64"/>
            <path id="Trazado_269302" data-name="Trazado 269302" d="M224.082,29.6a7.36,7.36,0,0,1-.268-.959,4.043,4.043,0,0,1,.426-2.615,3.987,3.987,0,0,1,3.2-2.089,4,4,0,0,1,2.26.49,3.965,3.965,0,0,1,1.966,4.274,3.99,3.99,0,0,1-1.1,2.035,4.022,4.022,0,0,1-5.93-.308,7.46,7.46,0,0,1-.554-.828,1.586,1.586,0,0,0,.106.237,1.832,1.832,0,0,0,.153.276,2.814,2.814,0,0,0,.246.354,4.088,4.088,0,0,0,4.183,1.436,4.126,4.126,0,0,0,1.9-1.061,4.126,4.126,0,0,0,1.148-2.109,4.107,4.107,0,0,0-2.045-4.443,4.12,4.12,0,0,0-2.348-.5,4.122,4.122,0,0,0-2.041.751,4.087,4.087,0,0,0-1.632,4.111,2.891,2.891,0,0,0,.109.417,1.891,1.891,0,0,0,.109.3,1.574,1.574,0,0,0,.111.235" transform="translate(-107.752 -11.453)" fill="#263238"/>
            <path id="Trazado_269303" data-name="Trazado 269303" d="M203.677,30.8a7.37,7.37,0,0,1-.268-.959,4.047,4.047,0,0,1,.427-2.615,3.987,3.987,0,0,1,3.2-2.089,4,4,0,0,1,2.26.49,3.965,3.965,0,0,1,1.966,4.274,3.991,3.991,0,0,1-1.1,2.035,4.022,4.022,0,0,1-5.93-.308,7.463,7.463,0,0,1-.554-.828,1.509,1.509,0,0,0,.106.237,1.856,1.856,0,0,0,.153.275,2.856,2.856,0,0,0,.246.354,4.086,4.086,0,0,0,4.184,1.436,4.126,4.126,0,0,0,1.9-1.061,4.126,4.126,0,0,0,1.148-2.109,4.107,4.107,0,0,0-2.045-4.443,4.12,4.12,0,0,0-2.348-.5,4.127,4.127,0,0,0-2.041.751,4.085,4.085,0,0,0-1.631,4.111,2.81,2.81,0,0,0,.109.417,1.84,1.84,0,0,0,.109.3,1.539,1.539,0,0,0,.111.235" transform="translate(-97.922 -12.03)" fill="#263238"/>
            <path id="Trazado_269304" data-name="Trazado 269304" d="M218.963,30.751a2.78,2.78,0,0,1,2.508-.128c.01-.016-.1-.121-.33-.224a2.115,2.115,0,0,0-1.873.1c-.215.126-.317.242-.305.256" transform="translate(-105.482 -14.561)" fill="#263238"/>
            <path id="Trazado_269305" data-name="Trazado 269305" d="M196.16,35.962a13.93,13.93,0,0,0,1.907-.9,13.883,13.883,0,0,0,1.833-1.039,27.756,27.756,0,0,0-3.74,1.935" transform="translate(-94.497 -16.391)" fill="#263238"/>
          </g>
        </g>
        <g id="Grupo_875925" data-name="Grupo 875925">
          <g id="Grupo_875924" data-name="Grupo 875924" clip-path="url(#clip-path-2)">
            <path id="Trazado_269306" data-name="Trazado 269306" d="M42.461,238.056a16.885,16.885,0,1,1-9.249-21.985,16.867,16.867,0,0,1,9.249,21.985" transform="translate(-4.793 -103.48)" fill="#ffc631"/>
            <path id="Trazado_269307" data-name="Trazado 269307" d="M42.476,240.263a12.868,12.868,0,1,1-7.048-16.754,12.854,12.854,0,0,1,7.048,16.754" transform="translate(-8.527 -107.208)" fill="#ffc631"/>
            <path id="Trazado_269308" data-name="Trazado 269308" d="M42.353,240.154a1.258,1.258,0,0,1,.056-.2l.19-.581.143-.426c.045-.159.079-.337.125-.528a9.337,9.337,0,0,0,.249-1.328,12.237,12.237,0,0,0-.039-3.687,12.776,12.776,0,0,0-12.125-10.816,13.291,13.291,0,0,0-1.812.046c-.3.032-.606.092-.913.137a6.405,6.405,0,0,0-.911.2,14.3,14.3,0,0,0-1.8.587,14.339,14.339,0,0,0-1.713.89,12.282,12.282,0,0,0-3.013,2.551,12.559,12.559,0,0,0-3.04,7.427,12.279,12.279,0,0,0,.361,3.932,11.629,11.629,0,0,0,1.471,3.517,11.756,11.756,0,0,0,2.328,2.821,12.83,12.83,0,0,0,5.979,3.049,12.84,12.84,0,0,0,10.25-2.266,12.248,12.248,0,0,0,2.612-2.6,9.327,9.327,0,0,0,.753-1.121c.1-.168.2-.319.28-.464l.2-.4.272-.547a1.275,1.275,0,0,1,.1-.183,1.193,1.193,0,0,1-.076.194l-.248.56-.186.412c-.076.148-.173.3-.271.473a9.085,9.085,0,0,1-.738,1.143,12.121,12.121,0,0,1-2.606,2.66,12.948,12.948,0,0,1-10.386,2.365,13.027,13.027,0,0,1-6.1-3.084,11.957,11.957,0,0,1-2.381-2.871,11.9,11.9,0,0,1-1.508-3.587,12.55,12.55,0,0,1-.372-4.014,12.8,12.8,0,0,1,3.1-7.585,12.518,12.518,0,0,1,3.079-2.6,14.619,14.619,0,0,1,1.75-.906,14.629,14.629,0,0,1,1.839-.595,6.583,6.583,0,0,1,.93-.2c.312-.046.621-.106.931-.137a13.387,13.387,0,0,1,1.848-.042,13.025,13.025,0,0,1,6.512,2.076,12.949,12.949,0,0,1,5.751,8.966,12.151,12.151,0,0,1-.005,3.725,9.085,9.085,0,0,1-.275,1.332c-.05.191-.089.369-.138.528l-.156.424-.216.573a1.2,1.2,0,0,1-.082.192" transform="translate(-8.404 -107.099)" fill="#263238"/>
            <g id="Grupo_875902" data-name="Grupo 875902" transform="translate(9.912 115.386)" opacity="0.3">
              <g id="Grupo_875901" data-name="Grupo 875901">
                <g id="Grupo_875900" data-name="Grupo 875900" clip-path="url(#clip-path-13)">
                  <path id="Trazado_269309" data-name="Trazado 269309" d="M43.019,240.4a7.623,7.623,0,0,1,.274-1.56,13.752,13.752,0,0,0,.133-4.207,13.174,13.174,0,0,0-.676-2.8,12.8,12.8,0,0,0-1.516-2.916,12.419,12.419,0,0,0-2.472-2.632,12.219,12.219,0,0,0-1.585-1.067,12.327,12.327,0,0,0-3.673-1.37,12.335,12.335,0,0,0-1.9-.23,12.464,12.464,0,0,0-3.595.372,12.825,12.825,0,0,0-3.056,1.212,13.225,13.225,0,0,0-2.348,1.677,13.747,13.747,0,0,0-2.655,3.267,7.635,7.635,0,0,1-.815,1.358,3.822,3.822,0,0,1,.477-1.534,12.017,12.017,0,0,1,2.521-3.6,12.861,12.861,0,0,1,5.651-3.258,12.279,12.279,0,0,1,1.871-.371,12.416,12.416,0,0,1,1.988-.088,12.885,12.885,0,0,1,2.049.233,12.966,12.966,0,0,1,3.964,1.477,12.861,12.861,0,0,1,1.7,1.165,12.9,12.9,0,0,1,2.617,2.872,12.847,12.847,0,0,1,2.136,6.16,12,12,0,0,1-.451,4.368,3.823,3.823,0,0,1-.644,1.472" transform="translate(-19.125 -222.64)"/>
                </g>
              </g>
            </g>
            <g id="Grupo_875905" data-name="Grupo 875905" transform="translate(14.543 119.68)" opacity="0.3">
              <g id="Grupo_875904" data-name="Grupo 875904">
                <g id="Grupo_875903" data-name="Grupo 875903" clip-path="url(#clip-path-14)">
                  <path id="Trazado_269310" data-name="Trazado 269310" d="M34,247.082l-.818,2.087-1.863-.732.8-2.03a9.488,9.488,0,0,1-4.054-3.31l1.916-1.871a8.085,8.085,0,0,0,3.1,2.741l1.221-3.112c-1.871-1.314-3.91-2.91-2.865-5.574.775-1.975,2.874-3.107,5.949-2.288l.812-2.068,1.863.731-.8,2.031a9.053,9.053,0,0,1,3.336,2.62l-1.831,1.926a8.2,8.2,0,0,0-2.471-2.088l-1.242,3.168c1.878,1.3,3.88,2.877,2.849,5.5-.76,1.938-2.834,3.059-5.9,2.265m1.368-8.965,1.038-2.645c-1.075-.164-1.678.223-1.92.838-.256.651.164,1.225.882,1.807m1.443,5.748c.256-.652-.146-1.218-.837-1.812l-1.009,2.571c1.012.161,1.611-.163,1.846-.759" transform="translate(-28.061 -230.926)"/>
                </g>
              </g>
            </g>
            <rect id="Rectángulo_293125" data-name="Rectángulo 293125" width="32.42" height="5.887" transform="translate(46.516 155.873)" fill="#ffc631"/>
            <path id="Trazado_269311" data-name="Trazado 269311" d="M95.758,306.77a31.708,31.708,0,0,1,0-5.84,31.708,31.708,0,0,1,0,5.84" transform="translate(-46.065 -144.969)" fill="#263238"/>
            <path id="Trazado_269312" data-name="Trazado 269312" d="M92.336,306.77a31.708,31.708,0,0,1,0-5.84,31.71,31.71,0,0,1,0,5.84" transform="translate(-44.417 -144.969)" fill="#263238"/>
            <path id="Trazado_269313" data-name="Trazado 269313" d="M103.273,306.77a31.589,31.589,0,0,1,0-5.84,31.71,31.71,0,0,1,0,5.84" transform="translate(-49.685 -144.969)" fill="#263238"/>
            <path id="Trazado_269314" data-name="Trazado 269314" d="M99.852,306.77a31.586,31.586,0,0,1,0-5.84,31.708,31.708,0,0,1,0,5.84" transform="translate(-48.037 -144.969)" fill="#263238"/>
            <path id="Trazado_269315" data-name="Trazado 269315" d="M110.79,306.77a31.589,31.589,0,0,1,0-5.84,31.71,31.71,0,0,1,0,5.84" transform="translate(-53.307 -144.969)" fill="#263238"/>
            <path id="Trazado_269316" data-name="Trazado 269316" d="M107.369,306.77a31.71,31.71,0,0,1,0-5.84,31.71,31.71,0,0,1,0,5.84" transform="translate(-51.659 -144.969)" fill="#263238"/>
            <path id="Trazado_269317" data-name="Trazado 269317" d="M118.307,306.77a31.708,31.708,0,0,1,0-5.84,31.708,31.708,0,0,1,0,5.84" transform="translate(-56.928 -144.969)" fill="#263238"/>
            <path id="Trazado_269318" data-name="Trazado 269318" d="M114.885,306.77a31.708,31.708,0,0,1,0-5.84,31.708,31.708,0,0,1,0,5.84" transform="translate(-55.279 -144.969)" fill="#263238"/>
            <path id="Trazado_269319" data-name="Trazado 269319" d="M125.823,306.77a31.591,31.591,0,0,1,0-5.84,31.83,31.83,0,0,1,0,5.84" transform="translate(-60.549 -144.969)" fill="#263238"/>
            <path id="Trazado_269320" data-name="Trazado 269320" d="M122.4,306.77a31.708,31.708,0,0,1,0-5.84,31.708,31.708,0,0,1,0,5.84" transform="translate(-58.901 -144.969)" fill="#263238"/>
            <path id="Trazado_269321" data-name="Trazado 269321" d="M133.34,306.77a31.708,31.708,0,0,1,0-5.84,31.708,31.708,0,0,1,0,5.84" transform="translate(-64.17 -144.969)" fill="#263238"/>
            <path id="Trazado_269322" data-name="Trazado 269322" d="M129.918,306.77a31.712,31.712,0,0,1,0-5.84,31.708,31.708,0,0,1,0,5.84" transform="translate(-62.521 -144.969)" fill="#263238"/>
            <path id="Trazado_269323" data-name="Trazado 269323" d="M140.856,306.77a31.7,31.7,0,0,1,0-5.84,31.712,31.712,0,0,1,0,5.84" transform="translate(-67.791 -144.969)" fill="#263238"/>
            <path id="Trazado_269324" data-name="Trazado 269324" d="M137.435,306.77a31.708,31.708,0,0,1,0-5.84,31.708,31.708,0,0,1,0,5.84" transform="translate(-66.143 -144.969)" fill="#263238"/>
            <path id="Trazado_269325" data-name="Trazado 269325" d="M148.373,306.77a31.712,31.712,0,0,1,0-5.84,31.7,31.7,0,0,1,0,5.84" transform="translate(-71.412 -144.969)" fill="#263238"/>
            <path id="Trazado_269326" data-name="Trazado 269326" d="M144.951,306.77a31.708,31.708,0,0,1,0-5.84,31.708,31.708,0,0,1,0,5.84" transform="translate(-69.763 -144.969)" fill="#263238"/>
            <path id="Trazado_269327" data-name="Trazado 269327" d="M121.96,300.636c0,.075-7.309.135-16.324.135s-16.325-.06-16.325-.135,7.308-.135,16.325-.135,16.324.06,16.324.135" transform="translate(-43.025 -144.763)" fill="#263238"/>
            <rect id="Rectángulo_293126" data-name="Rectángulo 293126" width="32.42" height="5.887" transform="translate(43.975 161.713)" fill="#ffc631"/>
            <path id="Trazado_269328" data-name="Trazado 269328" d="M90.854,318.039a31.708,31.708,0,0,1,0-5.84,31.708,31.708,0,0,1,0,5.84" transform="translate(-43.703 -150.398)" fill="#263238"/>
            <path id="Trazado_269329" data-name="Trazado 269329" d="M87.433,318.039a31.708,31.708,0,0,1,0-5.84,31.708,31.708,0,0,1,0,5.84" transform="translate(-42.055 -150.398)" fill="#263238"/>
            <path id="Trazado_269330" data-name="Trazado 269330" d="M98.371,318.039a31.706,31.706,0,0,1,0-5.84,31.71,31.71,0,0,1,0,5.84" transform="translate(-47.324 -150.398)" fill="#263238"/>
            <path id="Trazado_269331" data-name="Trazado 269331" d="M94.949,318.039a31.71,31.71,0,0,1,0-5.84,31.71,31.71,0,0,1,0,5.84" transform="translate(-45.675 -150.398)" fill="#263238"/>
            <path id="Trazado_269332" data-name="Trazado 269332" d="M105.887,318.039a31.71,31.71,0,0,1,0-5.84,31.708,31.708,0,0,1,0,5.84" transform="translate(-50.945 -150.398)" fill="#263238"/>
            <path id="Trazado_269333" data-name="Trazado 269333" d="M102.465,318.039a31.71,31.71,0,0,1,0-5.84,31.708,31.708,0,0,1,0,5.84" transform="translate(-49.296 -150.398)" fill="#263238"/>
            <path id="Trazado_269334" data-name="Trazado 269334" d="M113.4,318.039a31.708,31.708,0,0,1,0-5.84,31.708,31.708,0,0,1,0,5.84" transform="translate(-54.565 -150.398)" fill="#263238"/>
            <path id="Trazado_269335" data-name="Trazado 269335" d="M109.982,318.039a31.71,31.71,0,0,1,0-5.84,31.71,31.71,0,0,1,0,5.84" transform="translate(-52.917 -150.398)" fill="#263238"/>
            <path id="Trazado_269336" data-name="Trazado 269336" d="M120.92,318.039a31.71,31.71,0,0,1,0-5.84,31.708,31.708,0,0,1,0,5.84" transform="translate(-58.187 -150.398)" fill="#263238"/>
            <path id="Trazado_269337" data-name="Trazado 269337" d="M117.5,318.039a31.708,31.708,0,0,1,0-5.84,31.706,31.706,0,0,1,0,5.84" transform="translate(-56.538 -150.398)" fill="#263238"/>
            <path id="Trazado_269338" data-name="Trazado 269338" d="M128.436,318.039a31.708,31.708,0,0,1,0-5.84,31.708,31.708,0,0,1,0,5.84" transform="translate(-61.807 -150.398)" fill="#263238"/>
            <path id="Trazado_269339" data-name="Trazado 269339" d="M125.015,318.039a31.708,31.708,0,0,1,0-5.84,31.83,31.83,0,0,1,0,5.84" transform="translate(-60.159 -150.398)" fill="#263238"/>
            <path id="Trazado_269340" data-name="Trazado 269340" d="M135.953,318.039a31.708,31.708,0,0,1,0-5.84,31.708,31.708,0,0,1,0,5.84" transform="translate(-65.429 -150.398)" fill="#263238"/>
            <path id="Trazado_269341" data-name="Trazado 269341" d="M132.531,318.039a31.708,31.708,0,0,1,0-5.84,31.708,31.708,0,0,1,0,5.84" transform="translate(-63.78 -150.398)" fill="#263238"/>
            <path id="Trazado_269342" data-name="Trazado 269342" d="M143.469,318.039a31.708,31.708,0,0,1,0-5.84,31.708,31.708,0,0,1,0,5.84" transform="translate(-69.049 -150.398)" fill="#263238"/>
            <path id="Trazado_269343" data-name="Trazado 269343" d="M140.047,318.039a31.708,31.708,0,0,1,0-5.84,31.712,31.712,0,0,1,0,5.84" transform="translate(-67.401 -150.398)" fill="#263238"/>
            <path id="Trazado_269344" data-name="Trazado 269344" d="M117.13,311.9c0,.075-7.292.135-16.284.135s-16.286-.06-16.286-.135,7.29-.135,16.286-.135,16.284.06,16.284.135" transform="translate(-40.735 -150.191)" fill="#263238"/>
            <rect id="Rectángulo_293127" data-name="Rectángulo 293127" width="32.42" height="5.887" transform="translate(41.892 167.641)" fill="#ffc631"/>
            <path id="Trazado_269345" data-name="Trazado 269345" d="M86.835,329.478a31.714,31.714,0,0,1,0-5.841,31.715,31.715,0,0,1,0,5.841" transform="translate(-41.767 -155.908)" fill="#263238"/>
            <path id="Trazado_269346" data-name="Trazado 269346" d="M83.413,329.478a31.715,31.715,0,0,1,0-5.841,31.714,31.714,0,0,1,0,5.841" transform="translate(-40.118 -155.908)" fill="#263238"/>
            <path id="Trazado_269347" data-name="Trazado 269347" d="M94.351,329.478a31.594,31.594,0,0,1,0-5.841,31.836,31.836,0,0,1,0,5.841" transform="translate(-45.387 -155.908)" fill="#263238"/>
            <path id="Trazado_269348" data-name="Trazado 269348" d="M90.93,329.478a31.714,31.714,0,0,1,0-5.841,31.715,31.715,0,0,1,0,5.841" transform="translate(-43.739 -155.908)" fill="#263238"/>
            <path id="Trazado_269349" data-name="Trazado 269349" d="M101.868,329.478a31.717,31.717,0,0,1,0-5.841,31.714,31.714,0,0,1,0,5.841" transform="translate(-49.009 -155.908)" fill="#ffc631"/>
            <path id="Trazado_269350" data-name="Trazado 269350" d="M98.446,329.478a31.714,31.714,0,0,1,0-5.841,31.714,31.714,0,0,1,0,5.841" transform="translate(-47.36 -155.908)" fill="#263238"/>
            <path id="Trazado_269351" data-name="Trazado 269351" d="M109.384,329.478a31.714,31.714,0,0,1,0-5.841,31.714,31.714,0,0,1,0,5.841" transform="translate(-52.629 -155.908)" fill="#263238"/>
            <path id="Trazado_269352" data-name="Trazado 269352" d="M105.963,329.478a31.717,31.717,0,0,1,0-5.841,31.714,31.714,0,0,1,0,5.841" transform="translate(-50.981 -155.908)" fill="#263238"/>
            <path id="Trazado_269353" data-name="Trazado 269353" d="M116.9,329.478a31.712,31.712,0,0,1,0-5.841,31.714,31.714,0,0,1,0,5.841" transform="translate(-56.251 -155.908)" fill="#263238"/>
            <path id="Trazado_269354" data-name="Trazado 269354" d="M113.479,329.478a31.714,31.714,0,0,1,0-5.841,31.714,31.714,0,0,1,0,5.841" transform="translate(-54.602 -155.908)" fill="#263238"/>
            <path id="Trazado_269355" data-name="Trazado 269355" d="M124.417,329.478a31.714,31.714,0,0,1,0-5.841,31.714,31.714,0,0,1,0,5.841" transform="translate(-59.871 -155.908)" fill="#263238"/>
            <path id="Trazado_269356" data-name="Trazado 269356" d="M120.995,329.478a31.714,31.714,0,0,1,0-5.841,31.715,31.715,0,0,1,0,5.841" transform="translate(-58.223 -155.908)" fill="#263238"/>
            <path id="Trazado_269357" data-name="Trazado 269357" d="M131.933,329.478a31.593,31.593,0,0,1,0-5.841,31.836,31.836,0,0,1,0,5.841" transform="translate(-63.492 -155.908)" fill="#263238"/>
            <path id="Trazado_269358" data-name="Trazado 269358" d="M128.512,329.478a31.714,31.714,0,0,1,0-5.841,31.714,31.714,0,0,1,0,5.841" transform="translate(-61.844 -155.908)" fill="#263238"/>
            <path id="Trazado_269359" data-name="Trazado 269359" d="M139.45,329.478a31.717,31.717,0,0,1,0-5.841,31.71,31.71,0,0,1,0,5.841" transform="translate(-67.113 -155.908)" fill="#263238"/>
            <path id="Trazado_269360" data-name="Trazado 269360" d="M136.028,329.478a31.721,31.721,0,0,1,0-5.841,31.714,31.714,0,0,1,0,5.841" transform="translate(-65.465 -155.908)" fill="#263238"/>
            <path id="Trazado_269361" data-name="Trazado 269361" d="M113.111,323.343c0,.075-7.292.135-16.284.135s-16.286-.06-16.286-.135,7.29-.135,16.286-.135,16.284.06,16.284.135" transform="translate(-38.799 -155.701)" fill="#263238"/>
            <g id="Grupo_875908" data-name="Grupo 875908" transform="translate(48.378 161.773)" opacity="0.3">
              <g id="Grupo_875907" data-name="Grupo 875907">
                <g id="Grupo_875906" data-name="Grupo 875906" clip-path="url(#clip-path-15)">
                  <path id="Trazado_269362" data-name="Trazado 269362" d="M93.346,312.144a49.531,49.531,0,0,0,14.976,1.089c4.975-.331,10-1.062,14.985-1Z" transform="translate(-93.346 -312.144)"/>
                </g>
              </g>
            </g>
            <g id="Grupo_875911" data-name="Grupo 875911" transform="translate(42.288 167.716)" opacity="0.3">
              <g id="Grupo_875910" data-name="Grupo 875910">
                <g id="Grupo_875909" data-name="Grupo 875909" clip-path="url(#clip-path-16)">
                  <path id="Trazado_269363" data-name="Trazado 269363" d="M81.6,323.613A49.528,49.528,0,0,0,96.572,324.7c4.975-.331,10-1.062,14.985-1Z" transform="translate(-81.596 -323.613)"/>
                </g>
              </g>
            </g>
            <path id="Trazado_269364" data-name="Trazado 269364" d="M91.165,301.312c0,.075-.183.135-.407.135s-.407-.06-.407-.135.182-.135.407-.135.407.06.407.135" transform="translate(-43.525 -145.088)" fill="#fff"/>
            <path id="Trazado_269365" data-name="Trazado 269365" d="M97.15,301.344a12.907,12.907,0,0,1-3.721,0,12.907,12.907,0,0,1,3.721,0" transform="translate(-45.008 -145.104)" fill="#fff"/>
            <path id="Trazado_269366" data-name="Trazado 269366" d="M107.075,301.344a12.907,12.907,0,0,1-3.721,0,12.907,12.907,0,0,1,3.721,0" transform="translate(-49.789 -145.104)" fill="#fff"/>
            <rect id="Rectángulo_293130" data-name="Rectángulo 293130" width="32.42" height="5.887" transform="translate(5.296 143.897)" fill="#ffc631"/>
            <path id="Trazado_269367" data-name="Trazado 269367" d="M16.223,283.663a31.709,31.709,0,0,1,0-5.84,31.708,31.708,0,0,1,0,5.84" transform="translate(-7.75 -133.838)" fill="#263238"/>
            <path id="Trazado_269368" data-name="Trazado 269368" d="M12.8,283.663a31.709,31.709,0,0,1,0-5.84,15.915,15.915,0,0,1,.135,2.92,15.916,15.916,0,0,1-.135,2.92" transform="translate(-6.102 -133.838)" fill="#263238"/>
            <path id="Trazado_269369" data-name="Trazado 269369" d="M23.739,283.663a31.709,31.709,0,0,1,0-5.84,31.709,31.709,0,0,1,0,5.84" transform="translate(-11.371 -133.838)" fill="#263238"/>
            <path id="Trazado_269370" data-name="Trazado 269370" d="M20.318,283.663a31.709,31.709,0,0,1,0-5.84,31.709,31.709,0,0,1,0,5.84" transform="translate(-9.723 -133.838)" fill="#263238"/>
            <path id="Trazado_269371" data-name="Trazado 269371" d="M31.256,283.663a31.709,31.709,0,0,1,0-5.84,31.709,31.709,0,0,1,0,5.84" transform="translate(-14.992 -133.838)" fill="#263238"/>
            <path id="Trazado_269372" data-name="Trazado 269372" d="M27.834,283.663a31.709,31.709,0,0,1,0-5.84,31.709,31.709,0,0,1,0,5.84" transform="translate(-13.344 -133.838)" fill="#263238"/>
            <path id="Trazado_269373" data-name="Trazado 269373" d="M38.772,283.663a31.709,31.709,0,0,1,0-5.84,31.708,31.708,0,0,1,0,5.84" transform="translate(-18.613 -133.838)" fill="#263238"/>
            <path id="Trazado_269374" data-name="Trazado 269374" d="M35.35,283.663a31.709,31.709,0,0,1,0-5.84,31.708,31.708,0,0,1,0,5.84" transform="translate(-16.964 -133.838)" fill="#263238"/>
            <path id="Trazado_269375" data-name="Trazado 269375" d="M46.288,283.663a31.71,31.71,0,0,1,0-5.84,31.708,31.708,0,0,1,0,5.84" transform="translate(-22.234 -133.838)" fill="#263238"/>
            <path id="Trazado_269376" data-name="Trazado 269376" d="M42.867,283.663a31.708,31.708,0,0,1,0-5.84,31.709,31.709,0,0,1,0,5.84" transform="translate(-20.586 -133.838)" fill="#263238"/>
            <path id="Trazado_269377" data-name="Trazado 269377" d="M53.8,283.663a31.708,31.708,0,0,1,0-5.84,31.709,31.709,0,0,1,0,5.84" transform="translate(-25.855 -133.838)" fill="#263238"/>
            <path id="Trazado_269378" data-name="Trazado 269378" d="M50.383,283.663a31.709,31.709,0,0,1,0-5.84,31.708,31.708,0,0,1,0,5.84" transform="translate(-24.206 -133.838)" fill="#263238"/>
            <path id="Trazado_269379" data-name="Trazado 269379" d="M61.321,283.663a31.709,31.709,0,0,1,0-5.84,31.708,31.708,0,0,1,0,5.84" transform="translate(-29.476 -133.838)" fill="#263238"/>
            <path id="Trazado_269380" data-name="Trazado 269380" d="M57.9,283.663a31.708,31.708,0,0,1,0-5.84,31.71,31.71,0,0,1,0,5.84" transform="translate(-27.828 -133.838)" fill="#263238"/>
            <path id="Trazado_269381" data-name="Trazado 269381" d="M68.838,283.663a31.708,31.708,0,0,1,0-5.84,31.708,31.708,0,0,1,0,5.84" transform="translate(-33.097 -133.838)" fill="#263238"/>
            <path id="Trazado_269382" data-name="Trazado 269382" d="M65.416,283.663a31.708,31.708,0,0,1,0-5.84,31.708,31.708,0,0,1,0,5.84" transform="translate(-31.448 -133.838)" fill="#263238"/>
            <path id="Trazado_269383" data-name="Trazado 269383" d="M42.5,277.528c0,.075-7.292.135-16.285.135s-16.286-.06-16.286-.135,7.29-.135,16.286-.135,16.285.06,16.285.135" transform="translate(-4.782 -133.631)" fill="#263238"/>
            <rect id="Rectángulo_293131" data-name="Rectángulo 293131" width="32.42" height="5.887" transform="translate(3.173 149.877)" fill="#ffc631"/>
            <path id="Trazado_269384" data-name="Trazado 269384" d="M12.128,295.2a31.709,31.709,0,0,1,0-5.84,15.911,15.911,0,0,1,.135,2.92,15.92,15.92,0,0,1-.135,2.92" transform="translate(-5.777 -139.396)" fill="#263238"/>
            <path id="Trazado_269385" data-name="Trazado 269385" d="M8.706,295.2a31.71,31.71,0,0,1,0-5.84,15.911,15.911,0,0,1,.135,2.92,15.92,15.92,0,0,1-.135,2.92" transform="translate(-4.129 -139.396)" fill="#263238"/>
            <path id="Trazado_269386" data-name="Trazado 269386" d="M19.644,295.2a31.71,31.71,0,0,1,0-5.84,31.709,31.709,0,0,1,0,5.84" transform="translate(-9.398 -139.396)" fill="#263238"/>
            <path id="Trazado_269387" data-name="Trazado 269387" d="M16.223,295.2a31.709,31.709,0,0,1,0-5.84,15.911,15.911,0,0,1,.135,2.92,15.92,15.92,0,0,1-.135,2.92" transform="translate(-7.75 -139.396)" fill="#263238"/>
            <path id="Trazado_269388" data-name="Trazado 269388" d="M27.161,295.2a31.71,31.71,0,0,1,0-5.84,31.709,31.709,0,0,1,0,5.84" transform="translate(-13.019 -139.396)" fill="#263238"/>
            <path id="Trazado_269389" data-name="Trazado 269389" d="M23.739,295.2a31.709,31.709,0,0,1,0-5.84,31.709,31.709,0,0,1,0,5.84" transform="translate(-11.371 -139.396)" fill="#263238"/>
            <path id="Trazado_269390" data-name="Trazado 269390" d="M34.677,295.2a31.71,31.71,0,0,1,0-5.84,31.709,31.709,0,0,1,0,5.84" transform="translate(-16.64 -139.396)" fill="#263238"/>
            <path id="Trazado_269391" data-name="Trazado 269391" d="M31.256,295.2a31.709,31.709,0,0,1,0-5.84,31.709,31.709,0,0,1,0,5.84" transform="translate(-14.992 -139.396)" fill="#263238"/>
            <path id="Trazado_269392" data-name="Trazado 269392" d="M42.194,295.2a31.709,31.709,0,0,1,0-5.84,31.71,31.71,0,0,1,0,5.84" transform="translate(-20.261 -139.396)" fill="#263238"/>
            <path id="Trazado_269393" data-name="Trazado 269393" d="M38.772,295.2a31.71,31.71,0,0,1,0-5.84,31.709,31.709,0,0,1,0,5.84" transform="translate(-18.613 -139.396)" fill="#263238"/>
            <path id="Trazado_269394" data-name="Trazado 269394" d="M49.71,295.2a31.709,31.709,0,0,1,0-5.84,31.71,31.71,0,0,1,0,5.84" transform="translate(-23.882 -139.396)" fill="#263238"/>
            <path id="Trazado_269395" data-name="Trazado 269395" d="M46.288,295.2a31.711,31.711,0,0,1,0-5.84,31.708,31.708,0,0,1,0,5.84" transform="translate(-22.234 -139.396)" fill="#263238"/>
            <path id="Trazado_269396" data-name="Trazado 269396" d="M57.226,295.2a31.708,31.708,0,0,1,0-5.84,31.711,31.711,0,0,1,0,5.84" transform="translate(-27.503 -139.396)" fill="#263238"/>
            <path id="Trazado_269397" data-name="Trazado 269397" d="M53.8,295.2a31.709,31.709,0,0,1,0-5.84,31.71,31.71,0,0,1,0,5.84" transform="translate(-25.855 -139.396)" fill="#263238"/>
            <path id="Trazado_269398" data-name="Trazado 269398" d="M64.743,295.2a31.711,31.711,0,0,1,0-5.84,31.709,31.709,0,0,1,0,5.84" transform="translate(-31.124 -139.396)" fill="#263238"/>
            <path id="Trazado_269399" data-name="Trazado 269399" d="M61.321,295.2a31.71,31.71,0,0,1,0-5.84,31.709,31.709,0,0,1,0,5.84" transform="translate(-29.476 -139.396)" fill="#263238"/>
            <path id="Trazado_269400" data-name="Trazado 269400" d="M38.4,289.067c0,.075-7.292.135-16.284.135s-16.286-.06-16.286-.135,7.29-.135,16.286-.135,16.284.06,16.284.135" transform="translate(-2.809 -139.189)" fill="#263238"/>
            <rect id="Rectángulo_293132" data-name="Rectángulo 293132" width="32.42" height="5.887" transform="translate(5.823 155.805)" fill="#ffc631"/>
            <path id="Trazado_269401" data-name="Trazado 269401" d="M17.24,306.64a31.709,31.709,0,0,1,0-5.84,31.709,31.709,0,0,1,0,5.84" transform="translate(-8.24 -144.907)" fill="#263238"/>
            <path id="Trazado_269402" data-name="Trazado 269402" d="M13.818,306.64a31.709,31.709,0,0,1,0-5.84,15.911,15.911,0,0,1,.135,2.92,15.92,15.92,0,0,1-.135,2.92" transform="translate(-6.592 -144.907)" fill="#263238"/>
            <path id="Trazado_269403" data-name="Trazado 269403" d="M24.756,306.64a31.708,31.708,0,0,1,0-5.84,31.709,31.709,0,0,1,0,5.84" transform="translate(-11.861 -144.907)" fill="#263238"/>
            <path id="Trazado_269404" data-name="Trazado 269404" d="M21.335,306.64a31.709,31.709,0,0,1,0-5.84,31.709,31.709,0,0,1,0,5.84" transform="translate(-10.213 -144.907)" fill="#263238"/>
            <path id="Trazado_269405" data-name="Trazado 269405" d="M32.273,306.64a31.71,31.71,0,0,1,0-5.84,31.708,31.708,0,0,1,0,5.84" transform="translate(-15.482 -144.907)" fill="#263238"/>
            <path id="Trazado_269406" data-name="Trazado 269406" d="M28.851,306.64a31.708,31.708,0,0,1,0-5.84,31.709,31.709,0,0,1,0,5.84" transform="translate(-13.834 -144.907)" fill="#263238"/>
            <path id="Trazado_269407" data-name="Trazado 269407" d="M39.789,306.64a31.708,31.708,0,0,1,0-5.84,31.709,31.709,0,0,1,0,5.84" transform="translate(-19.103 -144.907)" fill="#263238"/>
            <path id="Trazado_269408" data-name="Trazado 269408" d="M36.368,306.64a31.708,31.708,0,0,1,0-5.84,31.71,31.71,0,0,1,0,5.84" transform="translate(-17.455 -144.907)" fill="#263238"/>
            <path id="Trazado_269409" data-name="Trazado 269409" d="M47.306,306.64a31.709,31.709,0,0,1,0-5.84,31.708,31.708,0,0,1,0,5.84" transform="translate(-22.724 -144.907)" fill="#263238"/>
            <path id="Trazado_269410" data-name="Trazado 269410" d="M43.884,306.64a31.708,31.708,0,0,1,0-5.84,31.709,31.709,0,0,1,0,5.84" transform="translate(-21.076 -144.907)" fill="#263238"/>
            <path id="Trazado_269411" data-name="Trazado 269411" d="M54.822,306.64a31.709,31.709,0,0,1,0-5.84,31.708,31.708,0,0,1,0,5.84" transform="translate(-26.345 -144.907)" fill="#263238"/>
            <path id="Trazado_269412" data-name="Trazado 269412" d="M51.4,306.64a31.708,31.708,0,0,1,0-5.84,31.709,31.709,0,0,1,0,5.84" transform="translate(-24.696 -144.907)" fill="#263238"/>
            <path id="Trazado_269413" data-name="Trazado 269413" d="M62.338,306.64a31.708,31.708,0,0,1,0-5.84,31.708,31.708,0,0,1,0,5.84" transform="translate(-29.966 -144.907)" fill="#263238"/>
            <path id="Trazado_269414" data-name="Trazado 269414" d="M58.917,306.64a31.708,31.708,0,0,1,0-5.84,31.708,31.708,0,0,1,0,5.84" transform="translate(-28.317 -144.907)" fill="#263238"/>
            <path id="Trazado_269415" data-name="Trazado 269415" d="M69.855,306.64a31.708,31.708,0,0,1,0-5.84,31.71,31.71,0,0,1,0,5.84" transform="translate(-33.587 -144.907)" fill="#263238"/>
            <path id="Trazado_269416" data-name="Trazado 269416" d="M66.433,306.64a31.71,31.71,0,0,1,0-5.84,31.708,31.708,0,0,1,0,5.84" transform="translate(-31.938 -144.907)" fill="#263238"/>
            <path id="Trazado_269417" data-name="Trazado 269417" d="M43.442,300.5c0,.075-7.309.135-16.324.135s-16.325-.06-16.325-.135,7.308-.135,16.325-.135,16.324.06,16.324.135" transform="translate(-5.2 -144.699)" fill="#263238"/>
            <rect id="Rectángulo_293133" data-name="Rectángulo 293133" width="32.42" height="5.887" transform="translate(3.282 161.646)" fill="#ffc631"/>
            <path id="Trazado_269418" data-name="Trazado 269418" d="M12.336,317.909a31.709,31.709,0,0,1,0-5.84,15.915,15.915,0,0,1,.135,2.92,15.916,15.916,0,0,1-.135,2.92" transform="translate(-5.878 -150.335)" fill="#263238"/>
            <path id="Trazado_269419" data-name="Trazado 269419" d="M8.915,317.909a31.709,31.709,0,0,1,0-5.84,15.915,15.915,0,0,1,.135,2.92,15.916,15.916,0,0,1-.135,2.92" transform="translate(-4.23 -150.335)" fill="#263238"/>
            <path id="Trazado_269420" data-name="Trazado 269420" d="M19.853,317.909a31.709,31.709,0,0,1,0-5.84,31.709,31.709,0,0,1,0,5.84" transform="translate(-9.499 -150.335)" fill="#263238"/>
            <path id="Trazado_269421" data-name="Trazado 269421" d="M16.431,317.909a31.709,31.709,0,0,1,0-5.84,31.709,31.709,0,0,1,0,5.84" transform="translate(-7.85 -150.335)" fill="#263238"/>
            <path id="Trazado_269422" data-name="Trazado 269422" d="M27.369,317.909a31.709,31.709,0,0,1,0-5.84,31.709,31.709,0,0,1,0,5.84" transform="translate(-13.12 -150.335)" fill="#263238"/>
            <path id="Trazado_269423" data-name="Trazado 269423" d="M23.948,317.909a31.709,31.709,0,0,1,0-5.84,31.831,31.831,0,0,1,0,5.84" transform="translate(-11.472 -150.335)" fill="#263238"/>
            <path id="Trazado_269424" data-name="Trazado 269424" d="M34.885,317.909a31.588,31.588,0,0,1,0-5.84,31.708,31.708,0,0,1,0,5.84" transform="translate(-16.74 -150.335)" fill="#263238"/>
            <path id="Trazado_269425" data-name="Trazado 269425" d="M31.464,317.909a31.709,31.709,0,0,1,0-5.84,31.709,31.709,0,0,1,0,5.84" transform="translate(-15.092 -150.335)" fill="#263238"/>
            <path id="Trazado_269426" data-name="Trazado 269426" d="M42.4,317.909a31.708,31.708,0,0,1,0-5.84,31.709,31.709,0,0,1,0,5.84" transform="translate(-20.362 -150.335)" fill="#263238"/>
            <path id="Trazado_269427" data-name="Trazado 269427" d="M38.98,317.909a31.709,31.709,0,0,1,0-5.84,31.708,31.708,0,0,1,0,5.84" transform="translate(-18.713 -150.335)" fill="#263238"/>
            <path id="Trazado_269428" data-name="Trazado 269428" d="M49.918,317.909a31.709,31.709,0,0,1,0-5.84,31.709,31.709,0,0,1,0,5.84" transform="translate(-23.982 -150.335)" fill="#263238"/>
            <path id="Trazado_269429" data-name="Trazado 269429" d="M46.5,317.909a31.708,31.708,0,0,1,0-5.84,31.709,31.709,0,0,1,0,5.84" transform="translate(-22.334 -150.335)" fill="#263238"/>
            <path id="Trazado_269430" data-name="Trazado 269430" d="M57.435,317.909a31.708,31.708,0,0,1,0-5.84,31.709,31.709,0,0,1,0,5.84" transform="translate(-27.604 -150.335)" fill="#263238"/>
            <path id="Trazado_269431" data-name="Trazado 269431" d="M54.013,317.909a31.708,31.708,0,0,1,0-5.84,31.709,31.709,0,0,1,0,5.84" transform="translate(-25.955 -150.335)" fill="#263238"/>
            <path id="Trazado_269432" data-name="Trazado 269432" d="M64.951,317.909a31.71,31.71,0,0,1,0-5.84,31.708,31.708,0,0,1,0,5.84" transform="translate(-31.224 -150.335)" fill="#263238"/>
            <path id="Trazado_269433" data-name="Trazado 269433" d="M61.529,317.909a31.708,31.708,0,0,1,0-5.84,31.709,31.709,0,0,1,0,5.84" transform="translate(-29.576 -150.335)" fill="#263238"/>
            <path id="Trazado_269434" data-name="Trazado 269434" d="M38.612,311.775c0,.075-7.292.135-16.284.135s-16.286-.06-16.286-.135,7.29-.135,16.286-.135,16.284.06,16.284.135" transform="translate(-2.91 -150.129)" fill="#263238"/>
            <rect id="Rectángulo_293134" data-name="Rectángulo 293134" width="32.42" height="5.887" transform="translate(6.531 167.618)" fill="#ffc631"/>
            <path id="Trazado_269435" data-name="Trazado 269435" d="M18.6,329.432a31.709,31.709,0,0,1,0-5.84,31.709,31.709,0,0,1,0,5.84" transform="translate(-8.898 -155.886)" fill="#263238"/>
            <path id="Trazado_269436" data-name="Trazado 269436" d="M15.184,329.432a31.709,31.709,0,0,1,0-5.84,15.915,15.915,0,0,1,.135,2.92,15.916,15.916,0,0,1-.135,2.92" transform="translate(-7.25 -155.886)" fill="#263238"/>
            <path id="Trazado_269437" data-name="Trazado 269437" d="M26.122,329.432a31.709,31.709,0,0,1,0-5.84,31.709,31.709,0,0,1,0,5.84" transform="translate(-12.519 -155.886)" fill="#263238"/>
            <path id="Trazado_269438" data-name="Trazado 269438" d="M22.7,329.432a31.709,31.709,0,0,1,0-5.84,31.709,31.709,0,0,1,0,5.84" transform="translate(-10.87 -155.886)" fill="#263238"/>
            <path id="Trazado_269439" data-name="Trazado 269439" d="M33.638,329.432a31.709,31.709,0,0,1,0-5.84,31.709,31.709,0,0,1,0,5.84" transform="translate(-16.14 -155.886)" fill="#263238"/>
            <path id="Trazado_269440" data-name="Trazado 269440" d="M30.216,329.432a31.588,31.588,0,0,1,0-5.84,31.709,31.709,0,0,1,0,5.84" transform="translate(-14.491 -155.886)" fill="#263238"/>
            <path id="Trazado_269441" data-name="Trazado 269441" d="M41.155,329.432a31.708,31.708,0,0,1,0-5.84,31.709,31.709,0,0,1,0,5.84" transform="translate(-19.761 -155.886)" fill="#263238"/>
            <path id="Trazado_269442" data-name="Trazado 269442" d="M37.733,329.432a31.709,31.709,0,0,1,0-5.84,31.708,31.708,0,0,1,0,5.84" transform="translate(-18.112 -155.886)" fill="#263238"/>
            <path id="Trazado_269443" data-name="Trazado 269443" d="M48.671,329.432a31.708,31.708,0,0,1,0-5.84,31.71,31.71,0,0,1,0,5.84" transform="translate(-23.382 -155.886)" fill="#263238"/>
            <path id="Trazado_269444" data-name="Trazado 269444" d="M45.249,329.432a31.588,31.588,0,0,1,0-5.84,31.83,31.83,0,0,1,0,5.84" transform="translate(-21.733 -155.886)" fill="#263238"/>
            <path id="Trazado_269445" data-name="Trazado 269445" d="M56.187,329.432a31.588,31.588,0,0,1,0-5.84,31.831,31.831,0,0,1,0,5.84" transform="translate(-27.002 -155.886)" fill="#263238"/>
            <path id="Trazado_269446" data-name="Trazado 269446" d="M52.766,329.432a31.708,31.708,0,0,1,0-5.84,31.709,31.709,0,0,1,0,5.84" transform="translate(-25.354 -155.886)" fill="#263238"/>
            <path id="Trazado_269447" data-name="Trazado 269447" d="M63.7,329.432a31.709,31.709,0,0,1,0-5.84,31.708,31.708,0,0,1,0,5.84" transform="translate(-30.624 -155.886)" fill="#263238"/>
            <path id="Trazado_269448" data-name="Trazado 269448" d="M60.281,329.432a31.588,31.588,0,0,1,0-5.84,31.709,31.709,0,0,1,0,5.84" transform="translate(-28.975 -155.886)" fill="#263238"/>
            <path id="Trazado_269449" data-name="Trazado 269449" d="M71.219,329.432a31.589,31.589,0,0,1,0-5.84,31.708,31.708,0,0,1,0,5.84" transform="translate(-34.244 -155.886)" fill="#263238"/>
            <path id="Trazado_269450" data-name="Trazado 269450" d="M67.8,329.432a31.708,31.708,0,0,1,0-5.84,31.71,31.71,0,0,1,0,5.84" transform="translate(-32.596 -155.886)" fill="#263238"/>
            <path id="Trazado_269451" data-name="Trazado 269451" d="M44.881,323.3c0,.075-7.292.135-16.284.135s-16.286-.06-16.286-.135,7.29-.135,16.286-.135,16.284.06,16.284.135" transform="translate(-5.93 -155.679)" fill="#263238"/>
            <g id="Grupo_875914" data-name="Grupo 875914" transform="translate(5.823 155.806)" opacity="0.3">
              <g id="Grupo_875913" data-name="Grupo 875913">
                <g id="Grupo_875912" data-name="Grupo 875912" clip-path="url(#clip-path-17)">
                  <path id="Trazado_269452" data-name="Trazado 269452" d="M11.235,300.631a49.529,49.529,0,0,0,14.976,1.089c4.975-.331,10-1.062,14.985-1Z" transform="translate(-11.235 -300.631)"/>
                </g>
              </g>
            </g>
            <g id="Grupo_875917" data-name="Grupo 875917" transform="translate(6.115 149.945)" opacity="0.3">
              <g id="Grupo_875916" data-name="Grupo 875916">
                <g id="Grupo_875915" data-name="Grupo 875915" clip-path="url(#clip-path-17)">
                  <path id="Trazado_269453" data-name="Trazado 269453" d="M11.8,289.322a49.514,49.514,0,0,0,14.976,1.089c4.975-.331,10-1.062,14.985-1Z" transform="translate(-11.799 -289.322)"/>
                </g>
              </g>
            </g>
            <g id="Grupo_875920" data-name="Grupo 875920" transform="translate(7.685 161.705)" opacity="0.3">
              <g id="Grupo_875919" data-name="Grupo 875919">
                <g id="Grupo_875918" data-name="Grupo 875918" clip-path="url(#clip-path-15)">
                  <path id="Trazado_269454" data-name="Trazado 269454" d="M14.828,312.014A49.529,49.529,0,0,0,29.8,313.1c4.975-.331,10-1.062,14.985-1Z" transform="translate(-14.828 -312.014)"/>
                </g>
              </g>
            </g>
            <g id="Grupo_875923" data-name="Grupo 875923" transform="translate(6.413 167.582)" opacity="0.3">
              <g id="Grupo_875922" data-name="Grupo 875922">
                <g id="Grupo_875921" data-name="Grupo 875921" clip-path="url(#clip-path-15)">
                  <path id="Trazado_269455" data-name="Trazado 269455" d="M12.375,323.354a49.532,49.532,0,0,0,14.976,1.089c4.975-.331,10-1.062,14.985-1Z" transform="translate(-12.375 -323.354)"/>
                </g>
              </g>
            </g>
            <path id="Trazado_269456" data-name="Trazado 269456" d="M11.24,282.426a9.71,9.71,0,0,1,0-3.224,9.71,9.71,0,0,1,0,3.224" transform="translate(-5.35 -134.502)" fill="#fff"/>
            <path id="Trazado_269457" data-name="Trazado 269457" d="M7.295,294.345a11.172,11.172,0,0,1,0-3.46,11.172,11.172,0,0,1,0,3.46" transform="translate(-3.449 -140.13)" fill="#fff"/>
            <path id="Trazado_269458" data-name="Trazado 269458" d="M12.909,306.394a8.791,8.791,0,0,1,0-3.067,8.791,8.791,0,0,1,0,3.067" transform="translate(-6.154 -146.124)" fill="#fff"/>
            <path id="Trazado_269459" data-name="Trazado 269459" d="M7.144,317.458a7.093,7.093,0,0,1,0-2.752,7.093,7.093,0,0,1,0,2.752" transform="translate(-3.376 -151.606)" fill="#fff"/>
            <path id="Trazado_269460" data-name="Trazado 269460" d="M20.238,290a53.092,53.092,0,0,1-5.346.135A53.1,53.1,0,0,1,9.544,290a53.074,53.074,0,0,1,5.347-.135,53.069,53.069,0,0,1,5.346.135" transform="translate(-4.598 -139.64)" fill="#fff"/>
            <path id="Trazado_269461" data-name="Trazado 269461" d="M26.841,279.078a53.863,53.863,0,0,1-5.386.135,53.876,53.876,0,0,1-5.387-.135,53.854,53.854,0,0,1,5.387-.135,53.841,53.841,0,0,1,5.386.135" transform="translate(-7.741 -134.377)" fill="#fff"/>
            <path id="Trazado_269462" data-name="Trazado 269462" d="M43.579,279.229a5.915,5.915,0,0,1-1.769.135,5.917,5.917,0,0,1-1.769-.135,5.914,5.914,0,0,1,1.769-.135,5.912,5.912,0,0,1,1.769.135" transform="translate(-19.289 -134.45)" fill="#fff"/>
          </g>
        </g>
      </g>
    </g>
  </g>
</svg>
