<svg id="Grupo_875875" data-name="Grupo 875875" xmlns="http://www.w3.org/2000/svg" xmlns:xlink="http://www.w3.org/1999/xlink" width="206.838" height="207.163" viewBox="0 0 206.838 207.163">
  <defs>
    <clipPath id="clip-path">
      <rect id="Rectángulo_293107" data-name="Rectángulo 293107" width="206.838" height="207.163" fill="none"/>
    </clipPath>
    <clipPath id="clip-path-3">
      <rect id="Rectángulo_293085" data-name="Rectángulo 293085" width="49.666" height="27.681" fill="none"/>
    </clipPath>
    <clipPath id="clip-path-4">
      <rect id="Rectángulo_293086" data-name="Rectángulo 293086" width="42.147" height="29.902" fill="none"/>
    </clipPath>
    <clipPath id="clip-path-5">
      <rect id="Rectángulo_293087" data-name="Rectángulo 293087" width="24.47" height="30.724" fill="none"/>
    </clipPath>
    <clipPath id="clip-path-6">
      <rect id="Rectángulo_293088" data-name="Rectángulo 293088" width="2.056" height="1.935" fill="none"/>
    </clipPath>
    <clipPath id="clip-path-7">
      <rect id="Rectángulo_293089" data-name="Rectángulo 293089" width="26.348" height="2.635" fill="none"/>
    </clipPath>
    <clipPath id="clip-path-8">
      <rect id="Rectángulo_293090" data-name="Rectángulo 293090" width="1.785" height="1.707" fill="none"/>
    </clipPath>
    <clipPath id="clip-path-9">
      <rect id="Rectángulo_293091" data-name="Rectángulo 293091" width="18.82" height="15.599" fill="none"/>
    </clipPath>
    <clipPath id="clip-path-10">
      <rect id="Rectángulo_293092" data-name="Rectángulo 293092" width="28.691" height="12.395" fill="none"/>
    </clipPath>
    <clipPath id="clip-path-12">
      <rect id="Rectángulo_293094" data-name="Rectángulo 293094" width="27.799" height="31.411" fill="none"/>
    </clipPath>
    <clipPath id="clip-path-14">
      <rect id="Rectángulo_293096" data-name="Rectángulo 293096" width="27.449" height="28.045" fill="none"/>
    </clipPath>
    <clipPath id="clip-path-15">
      <rect id="Rectángulo_293097" data-name="Rectángulo 293097" width="22.165" height="26.342" fill="none"/>
    </clipPath>
    <clipPath id="clip-path-16">
      <rect id="Rectángulo_293098" data-name="Rectángulo 293098" width="51.002" height="7.802" fill="none"/>
    </clipPath>
    <clipPath id="clip-path-17">
      <rect id="Rectángulo_293099" data-name="Rectángulo 293099" width="54.849" height="42.036" fill="none"/>
    </clipPath>
    <clipPath id="clip-path-18">
      <rect id="Rectángulo_293100" data-name="Rectángulo 293100" width="5.495" height="19.718" fill="none"/>
    </clipPath>
    <clipPath id="clip-path-20">
      <rect id="Rectángulo_293102" data-name="Rectángulo 293102" width="32.015" height="20.891" fill="none"/>
    </clipPath>
    <clipPath id="clip-path-21">
      <rect id="Rectángulo_293103" data-name="Rectángulo 293103" width="12.289" height="5.491" fill="none"/>
    </clipPath>
    <clipPath id="clip-path-22">
      <rect id="Rectángulo_293104" data-name="Rectángulo 293104" width="28.784" height="61.826" fill="none"/>
    </clipPath>
    <clipPath id="clip-path-23">
      <rect id="Rectángulo_293105" data-name="Rectángulo 293105" width="0.433" height="0.019" fill="none"/>
    </clipPath>
  </defs>
  <g id="Grupo_875874" data-name="Grupo 875874" clip-path="url(#clip-path)">
    <path id="Trazado_269106" data-name="Trazado 269106" d="M82.726,73.1,67.749,80.8,45.988,66.608l-7.3,8.912L61.856,93.839l16.326.008L88.354,79.423Z" transform="translate(98.096 -31.507)" fill="#455a64"/>
    <path id="Trazado_269107" data-name="Trazado 269107" d="M78.176,93.845l0-.006L88.359,79.4l-.007-.008-5.635-6.335-.01.005-14.969,7.7L45.971,66.572l-.008.01L38.653,75.5l.012.009L61.838,93.836h0Z" transform="translate(98.11 -31.49)" fill="#455a64"/>
    <g id="Grupo_875836" data-name="Grupo 875836">
      <g id="Grupo_875835" data-name="Grupo 875835" clip-path="url(#clip-path)">
        <g id="Grupo_875813" data-name="Grupo 875813" transform="translate(136.784 34.659)" opacity="0.3">
          <g id="Grupo_875812" data-name="Grupo 875812">
            <g id="Grupo_875811" data-name="Grupo 875811" clip-path="url(#clip-path-3)">
              <path id="Trazado_269108" data-name="Trazado 269108" d="M82.726,72.7,67.749,80.4l-22.1-14.634-6.963,9.354L61.856,93.442l16.326.008L88.354,79.025Z" transform="translate(-38.688 -65.769)"/>
            </g>
          </g>
        </g>
        <path id="Trazado_269109" data-name="Trazado 269109" d="M98.886,44.387A28.436,28.436,0,1,0,114.463,7.362,28.4,28.4,0,0,0,98.886,44.387" transform="translate(2.202 -2.475)" fill="#ffc631"/>
        <path id="Trazado_269110" data-name="Trazado 269110" d="M111.221,47.888a21.671,21.671,0,1,0,11.87-28.216,21.646,21.646,0,0,0-11.87,28.216" transform="translate(-3.87 -8.537)" fill="#ffc631"/>
        <path id="Trazado_269111" data-name="Trazado 269111" d="M110.892,47.71a1.992,1.992,0,0,0-.095-.34l-.319-.978-.241-.718c-.076-.268-.133-.568-.21-.889a15.7,15.7,0,0,1-.419-2.236,20.61,20.61,0,0,1,.067-6.209,21.513,21.513,0,0,1,20.418-18.215,22.373,22.373,0,0,1,3.052.077c.512.054,1.022.155,1.537.231a10.8,10.8,0,0,1,1.535.333,19.6,19.6,0,0,1,5.918,2.487,20.694,20.694,0,0,1,5.074,4.3,22.839,22.839,0,0,1,3.585,5.834,22.83,22.83,0,0,1,1.535,6.675,20.713,20.713,0,0,1-.607,6.622,24.37,24.37,0,0,1-1.007,3.093,24.2,24.2,0,0,1-1.471,2.831,19.754,19.754,0,0,1-3.92,4.75,21.6,21.6,0,0,1-10.069,5.136,21.62,21.62,0,0,1-17.262-3.816,20.592,20.592,0,0,1-4.4-4.382,15.716,15.716,0,0,1-1.268-1.888c-.17-.283-.339-.538-.473-.782l-.331-.681-.457-.922a2.04,2.04,0,0,0-.171-.308,1.94,1.94,0,0,0,.128.327c.1.232.241.545.418.943l.313.694c.128.249.292.508.457.8A15.358,15.358,0,0,0,113.45,52.4a20.446,20.446,0,0,0,4.389,4.48,21.811,21.811,0,0,0,17.491,3.982A21.944,21.944,0,0,0,145.6,55.664a20.167,20.167,0,0,0,4.01-4.836,24.638,24.638,0,0,0,1.506-2.886,24.64,24.64,0,0,0,1.033-3.154,21.118,21.118,0,0,0,.627-6.761,23.219,23.219,0,0,0-1.565-6.817,23.192,23.192,0,0,0-3.663-5.956,21.085,21.085,0,0,0-5.185-4.381,19.991,19.991,0,0,0-6.044-2.528,11.15,11.15,0,0,0-1.566-.336c-.526-.076-1.046-.178-1.568-.231a22.669,22.669,0,0,0-3.113-.071,21.937,21.937,0,0,0-10.967,3.5,21.81,21.81,0,0,0-9.685,15.1,20.431,20.431,0,0,0,.009,6.273,15.32,15.32,0,0,0,.463,2.244c.084.321.15.621.233.888l.262.715.363.966a2,2,0,0,0,.138.323" transform="translate(-3.541 -8.36)" fill="#795b0c"/>
        <g id="Grupo_875816" data-name="Grupo 875816" transform="translate(105.686 9.595)" opacity="0.3">
          <g id="Grupo_875815" data-name="Grupo 875815">
            <g id="Grupo_875814" data-name="Grupo 875814" clip-path="url(#clip-path-4)">
              <path id="Trazado_269112" data-name="Trazado 269112" d="M113.876,48.109a12.937,12.937,0,0,0-.462-2.627,23.127,23.127,0,0,1-.224-7.085,22.177,22.177,0,0,1,1.138-4.72,21.551,21.551,0,0,1,2.554-4.91,20.937,20.937,0,0,1,4.164-4.432,20.669,20.669,0,0,1,2.668-1.8,20.762,20.762,0,0,1,6.188-2.307,20.788,20.788,0,0,1,3.195-.387,20.979,20.979,0,0,1,6.052.627,21.565,21.565,0,0,1,5.149,2.041,22.255,22.255,0,0,1,3.954,2.823,23.17,23.17,0,0,1,4.471,5.5,12.8,12.8,0,0,0,1.372,2.287,6.432,6.432,0,0,0-.8-2.583,20.2,20.2,0,0,0-4.245-6.057A21.687,21.687,0,0,0,139.528,19a21.764,21.764,0,0,0-6.5-.772,21.686,21.686,0,0,0-3.451.392A21.781,21.781,0,0,0,122.9,21.1a21.725,21.725,0,0,0-2.865,1.961A21.794,21.794,0,0,0,115.63,27.9a21.634,21.634,0,0,0-3.6,10.374,20.2,20.2,0,0,0,.759,7.356,6.425,6.425,0,0,0,1.085,2.479" transform="translate(-111.968 -18.208)"/>
            </g>
          </g>
        </g>
        <g id="Grupo_875819" data-name="Grupo 875819" transform="translate(115.564 16.827)" opacity="0.3">
          <g id="Grupo_875818" data-name="Grupo 875818">
            <g id="Grupo_875817" data-name="Grupo 875817" clip-path="url(#clip-path-5)">
              <path id="Trazado_269113" data-name="Trazado 269113" d="M141.238,59.14l1.379,3.515,3.137-1.232L144.412,58a15.976,15.976,0,0,0,6.827-5.575l-3.227-3.151a13.618,13.618,0,0,1-5.213,4.616l-2.055-5.24c3.151-2.212,6.585-4.9,4.824-9.387-1.3-3.325-4.841-5.232-10.019-3.852l-1.367-3.483-3.138,1.231,1.342,3.421a15.238,15.238,0,0,0-5.618,4.412l3.082,3.244a13.817,13.817,0,0,1,4.16-3.515l2.093,5.334c-3.162,2.181-6.534,4.846-4.8,9.268,1.281,3.263,4.773,5.151,9.932,3.814m-2.3-15.1-1.747-4.455c1.81-.276,2.826.376,3.233,1.411.43,1.1-.277,2.064-1.486,3.044m-2.43,9.679c-.431-1.1.245-2.051,1.41-3.052l1.7,4.33c-1.7.271-2.714-.273-3.109-1.277" transform="translate(-126.769 -31.931)"/>
            </g>
          </g>
        </g>
        <path id="Trazado_269114" data-name="Trazado 269114" d="M34.351,19.984,32,43.269c-.4,3.96-1.795,9.695-8.027,8.778-5.347-1.2-6.2-6.491-5.825-10.185.179-1.753.324-3.215.33-3.4,0,0-5.872-1.155-5.708-7.065.079-2.856.721-8.725,1.363-14.028A11.012,11.012,0,0,1,25.513,7.7l.57.023c6.131.6,9.043,6.15,8.268,12.263" transform="translate(165.635 -3.638)" fill="#ffbe9d"/>
        <path id="Trazado_269115" data-name="Trazado 269115" d="M28.489,64.326a14.285,14.285,0,0,0,7.782-1.966s-2.049,4.24-7.921,3.471Z" transform="translate(155.627 -29.498)" fill="#eb996e"/>
        <path id="Trazado_269116" data-name="Trazado 269116" d="M26.034,32.01c.1.132.841-.336,1.824-.251s1.661.649,1.779.534c.057-.051-.04-.28-.334-.541a2.473,2.473,0,0,0-1.411-.579,2.387,2.387,0,0,0-1.465.353c-.323.212-.444.425-.393.484" transform="translate(163.473 -14.742)" fill="#263238"/>
        <path id="Trazado_269117" data-name="Trazado 269117" d="M30.256,36.775a.8.8,0,0,0,.737.836.763.763,0,0,0,.851-.687.8.8,0,0,0-.736-.836.765.765,0,0,0-.852.687" transform="translate(159.048 -17.069)" fill="#263238"/>
        <path id="Trazado_269118" data-name="Trazado 269118" d="M39.926,38.41a6.014,6.014,0,0,0-1.463-.325c-.231-.033-.448-.088-.481-.248a1.182,1.182,0,0,1,.182-.681q.361-.828.756-1.737a30.43,30.43,0,0,0,1.725-4.555,30.432,30.432,0,0,0-2.087,4.406l-.728,1.749a1.346,1.346,0,0,0-.157.905.582.582,0,0,0,.367.354,1.592,1.592,0,0,0,.392.071,5.919,5.919,0,0,0,1.494.062" transform="translate(146.351 -14.599)" fill="#263238"/>
        <path id="Trazado_269119" data-name="Trazado 269119" d="M24.4,25.357c.07.228.874.153,1.809.308.937.135,1.684.45,1.816.253.06-.094-.064-.311-.362-.542a2.994,2.994,0,0,0-1.333-.543,2.96,2.96,0,0,0-1.429.116c-.35.13-.531.3-.5.408" transform="translate(165.943 -11.729)" fill="#263238"/>
        <path id="Trazado_269120" data-name="Trazado 269120" d="M42.507,26.8c.083.189.871.079,1.8.155.933.06,1.687.282,1.806.109.053-.084-.082-.26-.389-.437a3.268,3.268,0,0,0-1.346-.383,3.374,3.374,0,0,0-1.4.181c-.338.131-.505.285-.47.375" transform="translate(138.315 -12.408)" fill="#263238"/>
        <path id="Trazado_269121" data-name="Trazado 269121" d="M7.443,39.16c.1-.04,4.107-1.038,3.816,3s-4.28,2.909-4.279,2.793.463-5.788.463-5.788" transform="translate(191.885 -18.458)" fill="#ffbe9d"/>
        <path id="Trazado_269122" data-name="Trazado 269122" d="M8.952,44.72c.019-.011.067.055.181.118a.706.706,0,0,0,.525.048,1.744,1.744,0,0,0,.917-1.5,2.334,2.334,0,0,0-.124-1.02.812.812,0,0,0-.49-.577.359.359,0,0,0-.428.162c-.062.109-.043.191-.064.2s-.082-.074-.037-.238a.449.449,0,0,1,.177-.241.529.529,0,0,1,.4-.075.989.989,0,0,1,.689.678,2.389,2.389,0,0,1,.163,1.142A1.829,1.829,0,0,1,9.7,45.08a.754.754,0,0,1-.635-.153c-.118-.109-.132-.2-.118-.207" transform="translate(191.256 -19.669)" fill="#eb996e"/>
        <path id="Trazado_269123" data-name="Trazado 269123" d="M33.247,48.555c-.032-.106.781-.253,1.418-.928a4.544,4.544,0,0,0,.675-.985c.15-.278.26-.451.3-.433s.007.213-.094.523a2.974,2.974,0,0,1-.65,1.116,2.42,2.42,0,0,1-1.115.669c-.32.089-.529.074-.535.038" transform="translate(153.661 -21.857)" fill="#263238"/>
        <path id="Trazado_269124" data-name="Trazado 269124" d="M43.078,30.787c.1.132.841-.336,1.824-.251s1.661.649,1.779.534c.057-.051-.04-.28-.334-.541a2.475,2.475,0,0,0-1.411-.579,2.387,2.387,0,0,0-1.465.353c-.323.212-.444.425-.393.484" transform="translate(137.447 -14.164)" fill="#263238"/>
        <path id="Trazado_269125" data-name="Trazado 269125" d="M45.942,35.835a.8.8,0,0,0,.737.836.763.763,0,0,0,.851-.687.8.8,0,0,0-.736-.836.765.765,0,0,0-.852.687" transform="translate(135.096 -16.624)" fill="#263238"/>
        <path id="Trazado_269126" data-name="Trazado 269126" d="M5.59,5.5a3.188,3.188,0,0,1,4.092-.8A4.492,4.492,0,0,1,12.529.249,4.491,4.491,0,0,1,17.575,1.8a1.783,1.783,0,0,1,1-1.09,3.513,3.513,0,0,1,1.49-.266A6.937,6.937,0,0,1,26.048,3.9a7.549,7.549,0,0,1,6.093,3.04c1.649,2.3,1.456,7.184-1.084,11.132l-.784,2.567a2.406,2.406,0,0,0-1.686.218c-.6.426-.944,1.317-1.806.866-.439-.229-.748-1.239-.849-1.724a22.994,22.994,0,0,1,.107-9.782,7.384,7.384,0,0,0-2.082-1.893l.062.07c-1.571-.754-3.358-1.522-5-.93-1.271.459-2.121,1.628-3.134,2.523A9.251,9.251,0,0,1,9,12.271c-.274,1.638-.4,3.983-.673,5.622L7.236,15.1l0,.013C7.141,14.9,7.07,14.7,7,14.491l-.024-.063v-.009c-.23-.235-.38-.634-.753-1.174a3.48,3.48,0,0,1-.167-3.6A3.187,3.187,0,0,1,5.59,5.5" transform="translate(170.98 0)" fill="#263238"/>
        <path id="Trazado_269127" data-name="Trazado 269127" d="M55.5,25.505l.006,0Z" transform="translate(122.077 -12.063)" fill="#263238"/>
        <path id="Trazado_269128" data-name="Trazado 269128" d="M40.473,11.065s-.017.027-.039.083a1.219,1.219,0,0,0-.066.256,1.754,1.754,0,0,0,.127.968,1.8,1.8,0,0,0,.389.57,1.611,1.611,0,0,0,.7.395,1.822,1.822,0,0,0,1.745-.44l-.09-.1a1.115,1.115,0,0,0-.373.755,1.463,1.463,0,0,0,.334,1.062,1.649,1.649,0,0,0,.9.512,2.568,2.568,0,0,0,1.7-.267,5.454,5.454,0,0,0,.968-.65,2.252,2.252,0,0,0,.317-.285,2.965,2.965,0,0,0-.349.244,6.244,6.244,0,0,1-.977.605,2.507,2.507,0,0,1-1.633.232,1.535,1.535,0,0,1-.831-.476,1.339,1.339,0,0,1-.3-.965.985.985,0,0,1,.325-.666l-.09-.1a1.715,1.715,0,0,1-1.621.42,1.581,1.581,0,0,1-1.036-.888,1.8,1.8,0,0,1-.16-.925c.024-.223.07-.341.058-.345" transform="translate(138.489 -5.234)" fill="#455a64"/>
        <path id="Trazado_269129" data-name="Trazado 269129" d="M36.892,3.8s-.033.006-.091.028a1.77,1.77,0,0,0-.241.126,1.962,1.962,0,0,0-.695.717,1.549,1.549,0,0,0-.026,1.462,1.2,1.2,0,0,0,.675.585,1.214,1.214,0,0,0,.956-.075,1.056,1.056,0,0,0,.248-.2l-.107-.078a1.129,1.129,0,0,0-.073.906,1.242,1.242,0,0,0,.516.665,1.639,1.639,0,0,0,1.368.152,2.189,2.189,0,0,0,.8-.472,1.049,1.049,0,0,0,.227-.251c-.008-.007-.091.079-.259.213A2.334,2.334,0,0,1,39.4,8a1.559,1.559,0,0,1-1.275-.165,1.125,1.125,0,0,1-.459-.6,1.006,1.006,0,0,1,.065-.8l.268-.468-.376.391a.926.926,0,0,1-.214.169,1.09,1.09,0,0,1-.849.068,1.074,1.074,0,0,1-.607-.519,1.465,1.465,0,0,1,0-1.36,2.042,2.042,0,0,1,.64-.718c.189-.134.308-.187.3-.2" transform="translate(147.593 -1.795)" fill="#455a64"/>
        <path id="Trazado_269130" data-name="Trazado 269130" d="M92.349,353.7l.419,20.007-26.334.62c.091-2.381,13.59-7.476,13.59-7.476L79.2,354.048Z" transform="translate(79.062 -167.311)" fill="#455a64"/>
        <g id="Grupo_875822" data-name="Grupo 875822" transform="translate(165.936 198.237)" opacity="0.6">
          <g id="Grupo_875821" data-name="Grupo 875821" transform="translate(0)">
            <g id="Grupo_875820" data-name="Grupo 875820" clip-path="url(#clip-path-6)">
              <path id="Trazado_269131" data-name="Trazado 269131" d="M74.979,376.217a1.017,1.017,0,0,1,.774,1.142,1.035,1.035,0,0,1-1.191.735,1.072,1.072,0,0,1-.813-1.214,1.089,1.089,0,0,1,1.329-.635" transform="translate(-73.715 -376.18)" fill="#fff"/>
            </g>
          </g>
        </g>
        <g id="Grupo_875825" data-name="Grupo 875825" transform="translate(145.481 204.385)" opacity="0.6">
          <g id="Grupo_875824" data-name="Grupo 875824" transform="translate(0)">
            <g id="Grupo_875823" data-name="Grupo 875823" clip-path="url(#clip-path-7)">
              <path id="Trazado_269132" data-name="Trazado 269132" d="M92.781,389.86l-.126-2.015-25.2,1.348s-1.16.51-1.007,1.287Z" transform="translate(-66.433 -387.845)" fill="#fff"/>
            </g>
          </g>
        </g>
        <path id="Trazado_269133" data-name="Trazado 269133" d="M86.813,378.329c.007.121.652.161,1.295.538.653.359.993.878,1.11.827.118-.026-.093-.748-.88-1.19s-1.557-.286-1.526-.174" transform="translate(71.841 -178.901)" fill="#263238"/>
        <path id="Trazado_269134" data-name="Trazado 269134" d="M93.228,380.565c-.026.119.536.312.986.816.466.491.591,1.044.719,1.036.121.016.191-.7-.381-1.314s-1.324-.654-1.324-.538" transform="translate(62.692 -179.992)" fill="#263238"/>
        <path id="Trazado_269135" data-name="Trazado 269135" d="M100.255,384.748c.118.023.28-.589-.067-1.246s-.956-.909-1.008-.806c-.07.1.329.449.607.994s.34,1.049.468,1.058" transform="translate(54.18 -181.014)" fill="#263238"/>
        <path id="Trazado_269136" data-name="Trazado 269136" d="M85.944,372.444c.057.11.642-.072,1.371-.043s1.3.233,1.364.128c.072-.09-.492-.526-1.35-.55s-1.451.372-1.385.465" transform="translate(72.865 -175.955)" fill="#263238"/>
        <path id="Trazado_269137" data-name="Trazado 269137" d="M82.572,365.361a2.618,2.618,0,0,0,1.32-.037,6.2,6.2,0,0,0,1.369-.433,6.393,6.393,0,0,0,.747-.4,1.6,1.6,0,0,0,.39-.3.508.508,0,0,0,.043-.648.722.722,0,0,0-.571-.265,1.8,1.8,0,0,0-.493.076,4.958,4.958,0,0,0-.813.285,4.673,4.673,0,0,0-1.2.784c-.6.549-.793,1.008-.749,1.03.06.038.346-.349.957-.8a5.322,5.322,0,0,1,1.16-.655,5.122,5.122,0,0,1,.751-.238c.276-.076.514-.083.589.033.027.044.031.061-.025.14a1.322,1.322,0,0,1-.288.221,7.041,7.041,0,0,1-.686.393,7.563,7.563,0,0,1-1.263.492,9.57,9.57,0,0,0-1.242.328" transform="translate(76.786 -171.84)" fill="#263238"/>
        <path id="Trazado_269138" data-name="Trazado 269138" d="M90.972,364.026a1.909,1.909,0,0,0,.316-1.212,3.847,3.847,0,0,0-.216-1.361,3.986,3.986,0,0,0-.356-.749,1.081,1.081,0,0,0-.858-.609.614.614,0,0,0-.542.36,1.6,1.6,0,0,0-.123.46,2.634,2.634,0,0,0,.021.839,2.788,2.788,0,0,0,.6,1.274c.531.633,1.072.766,1.081.724.042-.062-.413-.286-.823-.9a2.778,2.778,0,0,1-.448-1.161,2.417,2.417,0,0,1,.005-.721c.034-.266.133-.481.239-.457.131-.005.359.189.472.4a4.028,4.028,0,0,1,.345.668,4.262,4.262,0,0,1,.288,1.238c.055.729-.07,1.188,0,1.2" transform="translate(68.559 -170.334)" fill="#263238"/>
        <path id="Trazado_269139" data-name="Trazado 269139" d="M9.272,338.09l10.763,14.16-18.6,14.217c-1.18-1.759,5.858-12.479,5.858-12.479L0,345.214Z" transform="translate(186.802 -159.925)" fill="#455a64"/>
        <g id="Grupo_875828" data-name="Grupo 875828" transform="translate(198.692 188.837)" opacity="0.6">
          <g id="Grupo_875827" data-name="Grupo 875827" transform="translate(0)">
            <g id="Grupo_875826" data-name="Grupo 875826" clip-path="url(#clip-path-8)">
              <path id="Trazado_269140" data-name="Trazado 269140" d="M12.637,358.411a.9.9,0,0,1,1.154.416.921.921,0,0,1-.472,1.151.952.952,0,0,1-1.219-.447.968.968,0,0,1,.623-1.151" transform="translate(-12.069 -358.342)" fill="#fff"/>
            </g>
          </g>
        </g>
        <g id="Grupo_875831" data-name="Grupo 875831" transform="translate(188.018 190.942)" opacity="0.6">
          <g id="Grupo_875830" data-name="Grupo 875830" transform="translate(0)">
            <g id="Grupo_875829" data-name="Grupo 875829" clip-path="url(#clip-path-9)">
              <path id="Trazado_269141" data-name="Trazado 269141" d="M18.82,363.719l-1.144-1.382L.268,376.485s-.567.973-.051,1.452Z" transform="translate(0 -362.337)" fill="#fff"/>
            </g>
          </g>
        </g>
        <path id="Trazado_269142" data-name="Trazado 269142" d="M20.249,367.91c.069.083.553-.225,1.212-.291.658-.083,1.174.112,1.231.014.071-.081-.458-.489-1.255-.4s-1.268.609-1.188.672" transform="translate(173.474 -173.706)" fill="#263238"/>
        <path id="Trazado_269143" data-name="Trazado 269143" d="M23.29,372.494c.043.1.549-.056,1.136.071.591.109.971.442,1.058.369.1-.052-.227-.6-.961-.745s-1.294.222-1.233.306" transform="translate(169.066 -176.038)" fill="#263238"/>
        <path id="Trazado_269144" data-name="Trazado 269144" d="M28.173,377.655c.1-.045-.106-.57-.7-.861s-1.163-.153-1.146-.052.472.151.956.4.793.576.89.515" transform="translate(164.769 -178.15)" fill="#263238"/>
        <path id="Trazado_269145" data-name="Trazado 269145" d="M23.8,363.08c.1.049.424-.388.963-.747s1.057-.513,1.047-.622-.629-.121-1.258.311-.848,1.025-.752,1.059" transform="translate(168.496 -171.07)" fill="#263238"/>
        <path id="Trazado_269146" data-name="Trazado 269146" d="M25.725,356.762c.026.036.426-.185.928-.717a5.466,5.466,0,0,0,.758-1.027,5.682,5.682,0,0,0,.329-.677,1.425,1.425,0,0,0,.122-.422.45.45,0,0,0-.309-.487.641.641,0,0,0-.549.108,1.6,1.6,0,0,0-.314.313,4.36,4.36,0,0,0-.435.63,4.127,4.127,0,0,0-.45,1.188,1.834,1.834,0,0,0,0,1.132c.063,0,.066-.432.267-1.079a4.74,4.74,0,0,1,.492-1.077,4.559,4.559,0,0,1,.415-.564c.159-.2.326-.328.44-.285.043.017.055.028.055.114a1.176,1.176,0,0,1-.091.309,6.135,6.135,0,0,1-.288.641,6.678,6.678,0,0,1-.65,1.014c-.425.548-.758.839-.72.884" transform="translate(165.415 -167.172)" fill="#263238"/>
        <path id="Trazado_269147" data-name="Trazado 269147" d="M32.431,357.7c.042-.012-.013-.456-.407-1.037a3.431,3.431,0,0,0-.866-.865,3.523,3.523,0,0,0-.648-.352.963.963,0,0,0-.935.011.547.547,0,0,0-.2.542,1.432,1.432,0,0,0,.152.4,2.327,2.327,0,0,0,.454.592,2.483,2.483,0,0,0,1.1.6,1.524,1.524,0,0,0,1.156-.045,9.174,9.174,0,0,1-1.06-.213,2.466,2.466,0,0,1-.93-.6,2.16,2.16,0,0,1-.373-.521c-.114-.209-.156-.416-.067-.453a.662.662,0,0,1,.548.038,3.6,3.6,0,0,1,.6.3,3.8,3.8,0,0,1,.855.739c.421.5.571.891.63.866" transform="translate(158.922 -168.081)" fill="#263238"/>
        <path id="Trazado_269148" data-name="Trazado 269148" d="M68.594,182.238l-3.2,10.415a16.936,16.936,0,0,1-4.284,7.074c-2.065,2.04-4.5,4.461-4.891,4.937L46.5,236.2l2.261,42.049-16.746,1.136s-6.587-42.937-5.525-49.579,7.819-50.963,7.819-50.963l1.776-3.082Z" transform="translate(124.345 -83.139)" fill="#263238"/>
        <path id="Trazado_269149" data-name="Trazado 269149" d="M27.693,228.366l1.7,30.98,22.274,30.276L37.7,299.143,7.658,264.067l-.3-40.586Z" transform="translate(151.295 -105.712)" fill="#263238"/>
        <path id="Trazado_269150" data-name="Trazado 269150" d="M59.74,230.609a.663.663,0,0,0-.062.145l-.157.436-.578,1.689-2.1,6.288c-1.761,5.367-4.209,12.825-6.984,21.28l-.009.026,0,.028c.094,1.81.192,3.707.291,5.638.549,10.217,1.046,19.465,1.406,26.182.194,3.334.351,6.039.461,7.933.061.92.108,1.643.141,2.156.018.232.033.417.044.56a.905.905,0,0,0,.025.19.878.878,0,0,0,.006-.192c0-.143-.008-.329-.014-.562-.02-.513-.048-1.237-.083-2.158-.087-1.894-.211-4.6-.364-7.937-.338-6.718-.8-15.968-1.317-26.187-.1-1.931-.2-3.827-.3-5.637l-.007.054,6.887-21.311,2.009-6.317.528-1.706.13-.444a.646.646,0,0,0,.035-.154" transform="translate(120.825 -109.084)" fill="#455a64"/>
        <path id="Trazado_269151" data-name="Trazado 269151" d="M48.761,70.872s5.5,8.589,4.436,15.761c-.536,3.622-9.908,40.287-9.908,40.287l.108,12.6L7.519,132.119l3.611-12.786,10.651-37.71L34.323,71.049Z" transform="translate(149.543 -33.524)" fill="#196a51"/>
        <g id="Grupo_875834" data-name="Grupo 875834" transform="translate(165.637 55.837)" opacity="0.3">
          <g id="Grupo_875833" data-name="Grupo 875833" transform="translate(0)">
            <g id="Grupo_875832" data-name="Grupo 875832" clip-path="url(#clip-path-10)">
              <path id="Trazado_269152" data-name="Trazado 269152" d="M52.429,105.957s-17.388,12.4-23.5,12.247l-5.194.148.8-2.82Z" transform="translate(-23.737 -105.957)"/>
            </g>
          </g>
        </g>
        <path id="Trazado_269153" data-name="Trazado 269153" d="M11.162,109.532a7.233,7.233,0,0,0,1.351.889,23.858,23.858,0,0,0,7.312,2.677,7.256,7.256,0,0,0,1.606.193,13.479,13.479,0,0,0-1.566-.384,31.561,31.561,0,0,1-7.26-2.657,13.433,13.433,0,0,0-1.443-.718" transform="translate(179.525 -51.81)" fill="#263238"/>
        <path id="Trazado_269154" data-name="Trazado 269154" d="M20.906,137.726c-.019.073,6.915,1.911,15.486,4.1s15.537,3.911,15.555,3.838-6.914-1.91-15.487-4.1-15.535-3.911-15.554-3.837" transform="translate(143.874 -65.147)" fill="#263238"/>
        <path id="Trazado_269155" data-name="Trazado 269155" d="M27.333,169.946a1.583,1.583,0,0,0,.332.082l.958.18c.831.16,2.031.4,3.508.733,2.955.654,7.007,1.691,11.475,2.865s8.514,2.253,11.46,2.963c1.472.358,2.669.626,3.5.8l.958.186a1.56,1.56,0,0,0,.338.046,1.647,1.647,0,0,0-.326-.1l-.946-.236-3.475-.882-11.437-3.04c-4.469-1.175-8.534-2.183-11.5-2.789-1.483-.309-2.692-.521-3.53-.648l-.968-.13a1.569,1.569,0,0,0-.34-.027" transform="translate(132.574 -80.387)" fill="#263238"/>
        <path id="Trazado_269156" data-name="Trazado 269156" d="M151.914,72.785a7.239,7.239,0,0,0-1.092-2.938c-.973-1.541-3.6-3.3-3.644-4.508s-1.4-.689-1.552.755a14.6,14.6,0,0,0,1.006,3.738,5.765,5.765,0,0,1-3.418-1.334c-1.157-1.228-5.623-4.155-6.353-3.627-.826.6.379,1.242.836,1.72.348.364,3.119,2.961,3.119,2.961s-6.417-2.174-7.327-2.112c-.989.069-.316,1.126.087,1.266.254.088-.8.523-.234,1.492a11.157,11.157,0,0,0,3.594,2.273l1.5.476-4.722-.9s-1.009.485-.022,1.194c.441.316,13.715,6.494,14.772,6.881,1.828.669,4.464,1.528,4.464,1.528l2.365-7.709Z" transform="translate(-18.529 -30.588)" fill="#ffbe9d"/>
        <path id="Trazado_269157" data-name="Trazado 269157" d="M159.847,72.329a21.964,21.964,0,0,0,3.661,2.079,18.868,18.868,0,0,0,3.894,1.6,5.781,5.781,0,0,0-1.092-.575l-2.668-1.3-2.663-1.313a5.352,5.352,0,0,0-1.133-.492" transform="translate(-44.8 -34.211)" fill="#eb996e"/>
        <path id="Trazado_269158" data-name="Trazado 269158" d="M77.753,89.121S54.3,103.3,43.376,100.481,10.448,87.727,10.448,87.727l5.079-11.868L44.785,86.384S65.733,76.594,70.23,75.22c6.61-2.018,15.593,6.693,7.523,13.9" transform="translate(120.384 -35.441)" fill="#196a51"/>
        <path id="Trazado_269159" data-name="Trazado 269159" d="M68.226,79.252s-.107.031-.311.106-.51.184-.9.347c-.792.313-1.95.8-3.438,1.456C60.6,82.471,56.309,84.438,51,86.96l.081,0L21.839,76.391l-.131-.047-.055.128L16.571,88.338l-.06.139.137.06,4.257,1.879c4.277,1.862,8.479,3.616,12.565,5.244s8.057,3.129,11.906,4.374c.968.3,1.912.62,2.867.871l1.417.391a12.6,12.6,0,0,0,1.44.25,20.31,20.31,0,0,0,5.581-.24,51.931,51.931,0,0,0,9.613-2.761,113.14,113.14,0,0,0,13.122-6.1c1.5-.814,2.655-1.473,3.43-1.93l.877-.528c.2-.122.291-.192.291-.192s-.106.052-.308.165l-.892.5c-.785.439-1.945,1.081-3.455,1.879a118.266,118.266,0,0,1-13.142,6.008,52.115,52.115,0,0,1-9.578,2.713,20.119,20.119,0,0,1-5.507.223,12.343,12.343,0,0,1-1.405-.248l-1.409-.392c-.949-.251-1.892-.578-2.855-.874-3.837-1.248-7.8-2.762-11.883-4.384S25.3,92,21.028,90.135l-4.254-1.877.077.2,5.075-11.87-.185.081L51.012,87.154l.042.015.04-.019c5.293-2.546,9.567-4.543,12.526-5.883,1.48-.668,2.63-1.176,3.414-1.507l.892-.374c.2-.084.3-.134.3-.134" transform="translate(114.122 -36.113)" fill="#263238"/>
        <path id="Trazado_269160" data-name="Trazado 269160" d="M12.122,77.526a3.912,3.912,0,0,0,.664-.271c.421-.185,1.028-.46,1.8-.744a12.937,12.937,0,0,1,2.771-.719,7.728,7.728,0,0,1,3.442.286,5.477,5.477,0,0,1,2.818,2.008l.005.007.005.006a9.818,9.818,0,0,1,2,3.34c.32.909.4,1.473.436,1.467a1.413,1.413,0,0,0-.033-.406,7.983,7.983,0,0,0-.259-1.109,9.35,9.35,0,0,0-1.959-3.462l.011.014a5.632,5.632,0,0,0-2.94-2.126,7.79,7.79,0,0,0-3.562-.277,12.246,12.246,0,0,0-2.806.788,18.819,18.819,0,0,0-1.774.829,3.343,3.343,0,0,0-.617.367" transform="translate(174.383 -35.69)" fill="#263238"/>
        <path id="Trazado_269161" data-name="Trazado 269161" d="M44.333,87.476a2.883,2.883,0,0,0,.191.609c.139.386.353.939.627,1.618.548,1.359,1.346,3.22,2.3,5.244s1.873,3.828,2.57,5.117c.348.644.637,1.163.845,1.516a2.831,2.831,0,0,0,.347.536,2.9,2.9,0,0,0-.252-.586l-.767-1.555c-.651-1.311-1.544-3.124-2.494-5.145s-1.774-3.865-2.367-5.2l-.707-1.583a2.846,2.846,0,0,0-.29-.568" transform="translate(132.265 -41.378)" fill="#263238"/>
        <path id="Trazado_269162" data-name="Trazado 269162" d="M79.1,110.7c.075.011.56-2.926,1.083-6.56s.887-6.589.812-6.6-.56,2.926-1.083,6.56-.886,6.588-.812,6.6" transform="translate(84.154 -46.138)" fill="#263238"/>
        <path id="Trazado_269163" data-name="Trazado 269163" d="M106.09,99.656a2.046,2.046,0,0,0,.284-.461c.167-.3.4-.748.681-1.3.564-1.1,1.326-2.632,2.152-4.329s1.561-3.241,2.08-4.365c.26-.562.466-1.019.6-1.337a2.063,2.063,0,0,0,.188-.507,2.05,2.05,0,0,0-.282.458c-.166.3-.4.748-.681,1.3-.564,1.1-1.326,2.633-2.154,4.332s-1.562,3.243-2.082,4.367c-.26.562-.465,1.019-.6,1.336a2.03,2.03,0,0,0-.187.506" transform="translate(38.853 -41.322)" fill="#263238"/>
      </g>
    </g>
    <path id="Trazado_269164" data-name="Trazado 269164" d="M130.017,364.649h-6.866l-.985-2.4-1.219,2.4h-4.506l.524-18.336.222-10.834,27.054-2.241Z" transform="translate(1.234 -157.63)" fill="#ff725e"/>
    <g id="Grupo_875841" data-name="Grupo 875841">
      <g id="Grupo_875840" data-name="Grupo 875840" clip-path="url(#clip-path)">
        <g id="Grupo_875839" data-name="Grupo 875839" transform="translate(117.676 175.608)" opacity="0.3">
          <g id="Grupo_875838" data-name="Grupo 875838" transform="translate(0)">
            <g id="Grupo_875837" data-name="Grupo 875837" clip-path="url(#clip-path-12)">
              <path id="Trazado_269165" data-name="Trazado 269165" d="M144.242,333.238l-14.225,31.411h-6.866l-.985-2.4-1.219,2.4h-4.505l.524-18.336.222-10.834Z" transform="translate(-116.442 -333.238)"/>
            </g>
          </g>
        </g>
      </g>
    </g>
    <path id="Trazado_269166" data-name="Trazado 269166" d="M248.166,367.671H241.3l-.985-2.194-1.219,2.194h-4.506l.524-16.785.222-9.918,26.7-1.342Z" transform="translate(-178.826 -160.652)" fill="#ff725e"/>
    <g id="Grupo_875873" data-name="Grupo 875873">
      <g id="Grupo_875872" data-name="Grupo 875872" clip-path="url(#clip-path)">
        <g id="Grupo_875844" data-name="Grupo 875844" transform="translate(55.766 178.974)" opacity="0.3">
          <g id="Grupo_875843" data-name="Grupo 875843" transform="translate(0)">
            <g id="Grupo_875842" data-name="Grupo 875842" clip-path="url(#clip-path-14)">
              <path id="Trazado_269167" data-name="Trazado 269167" d="M262.04,339.626l-13.874,28.046H241.3l-.985-2.194-1.219,2.194h-4.505l.524-16.786.222-9.917Z" transform="translate(-234.591 -339.626)"/>
            </g>
          </g>
        </g>
        <path id="Trazado_269168" data-name="Trazado 269168" d="M366.155,182.769a.506.506,0,0,0-.129.046l-.37.16a6.258,6.258,0,0,0-1.288.861,7.225,7.225,0,0,0-1.559,1.893,7.149,7.149,0,0,0-.937,3.108,6.432,6.432,0,0,0,.965,3.8,7.382,7.382,0,0,0,3.423,2.926,6.08,6.08,0,0,0,4.937-.008,3.641,3.641,0,0,0,1.831-1.939,2.85,2.85,0,0,0-.252-2.714,3.236,3.236,0,0,0-2.419-1.288,3.789,3.789,0,0,0-2.535.836,5.478,5.478,0,0,0-2.034,4.472,7.012,7.012,0,0,0,1.566,4.217,6.35,6.35,0,0,0,1.535,1.383,7.4,7.4,0,0,0,1.734.785,7.96,7.96,0,0,0,3.239.241,8.548,8.548,0,0,0,2.365-.651,7.818,7.818,0,0,0,1.355-.75l.321-.243c.072-.056.106-.086.1-.09a11.048,11.048,0,0,1-1.821.985,8.64,8.64,0,0,1-2.341.6,7.878,7.878,0,0,1-3.165-.274,7.271,7.271,0,0,1-1.676-.778A6.169,6.169,0,0,1,367.529,199a6.807,6.807,0,0,1-1.49-4.079,5.23,5.23,0,0,1,1.946-4.255,3.519,3.519,0,0,1,2.353-.777,2.968,2.968,0,0,1,2.213,1.175,2.576,2.576,0,0,1,.222,2.455,3.373,3.373,0,0,1-1.7,1.8,5.837,5.837,0,0,1-4.72.015,7.179,7.179,0,0,1-3.327-2.812,6.251,6.251,0,0,1-.964-3.67,7.05,7.05,0,0,1,.877-3.043,7.3,7.3,0,0,1,1.5-1.888,7.936,7.936,0,0,1,1.717-1.147" transform="translate(-361.854 -86.454)" fill="#ff725e"/>
        <path id="Trazado_269169" data-name="Trazado 269169" d="M65.38,177.983c-2.065,46.611,37.01,69.868,81.241,69.868s80.09-30.285,80.09-67.643-35.857-67.642-80.09-67.642-79.588,28.1-81.241,65.417" transform="translate(-54.286 -53.247)" fill="#ff725e"/>
        <g id="Grupo_875847" data-name="Grupo 875847" transform="translate(75.753 75.787)" opacity="0.3">
          <g id="Grupo_875846" data-name="Grupo 875846" transform="translate(0)">
            <g id="Grupo_875845" data-name="Grupo 875845" clip-path="url(#clip-path-15)">
              <path id="Trazado_269170" data-name="Trazado 269170" d="M228.855,144.054s-5.312-1.686-10.282,3.929-11.883,15.189-11.883,15.189a9.143,9.143,0,0,0,5.965,6.987Z" transform="translate(-206.689 -143.816)"/>
            </g>
          </g>
        </g>
        <path id="Trazado_269171" data-name="Trazado 269171" d="M65.3,274.14c0,11.608,12.279,21.018,27.424,21.018s27.424-9.41,27.424-21.018-12.278-21.018-27.424-21.018S65.3,262.532,65.3,274.14" transform="translate(52.275 -119.733)" fill="#ff725e"/>
        <path id="Trazado_269172" data-name="Trazado 269172" d="M203.586,166.253s-16.073-24.936-23.433-22.232-14.27,26.137-14.27,26.137" transform="translate(-84.164 -68.029)" fill="#ff725e"/>
        <path id="Trazado_269173" data-name="Trazado 269173" d="M73.3,163.04l.751-6.752a138.731,138.731,0,0,1,19.078-6.265c9.013-2.059,10.786,0,10.786,0L89.653,170Z" transform="translate(64.303 -70.532)" fill="#ff725e"/>
        <g id="Grupo_875850" data-name="Grupo 875850" transform="translate(65.145 63.956)" opacity="0.3">
          <g id="Grupo_875849" data-name="Grupo 875849" transform="translate(0)">
            <g id="Grupo_875848" data-name="Grupo 875848" clip-path="url(#clip-path-16)">
              <path id="Trazado_269174" data-name="Trazado 269174" d="M223.1,126l-5.333,3.167s-25.834-6.833-45.669,0l7.278-6.194S203.432,117.8,223.1,126" transform="translate(-172.098 -121.365)"/>
            </g>
          </g>
        </g>
        <g id="Grupo_875853" data-name="Grupo 875853" transform="translate(117.577 133.389)" opacity="0.3">
          <g id="Grupo_875852" data-name="Grupo 875852" transform="translate(0)">
            <g id="Grupo_875851" data-name="Grupo 875851" clip-path="url(#clip-path-17)">
              <path id="Trazado_269175" data-name="Trazado 269175" d="M65.3,274.14c0,11.608,12.279,21.018,27.424,21.018s27.424-9.41,27.424-21.018-12.278-21.018-27.424-21.018S65.3,262.532,65.3,274.14" transform="translate(-65.302 -253.123)"/>
            </g>
          </g>
        </g>
        <path id="Trazado_269176" data-name="Trazado 269176" d="M55.367,274.14c0,11.608,11.5,21.018,25.692,21.018s25.691-9.41,25.691-21.018-11.5-21.018-25.691-21.018-25.692,9.41-25.692,21.018" transform="translate(70.911 -119.733)" fill="#ff725e"/>
        <g id="Grupo_875856" data-name="Grupo 875856" transform="translate(159.091 144.549)" opacity="0.3">
          <g id="Grupo_875855" data-name="Grupo 875855" transform="translate(0)">
            <g id="Grupo_875854" data-name="Grupo 875854" clip-path="url(#clip-path-18)">
              <path id="Trazado_269177" data-name="Trazado 269177" d="M81.935,294.017h1.98a1.757,1.757,0,0,0,1.757-1.757v-16.2a1.758,1.758,0,0,0-1.757-1.758h-1.98a1.758,1.758,0,0,0-1.757,1.758v16.2a1.757,1.757,0,0,0,1.757,1.757" transform="translate(-80.178 -274.299)"/>
            </g>
          </g>
        </g>
        <g id="Grupo_875859" data-name="Grupo 875859" transform="translate(144.33 144.549)" opacity="0.3">
          <g id="Grupo_875858" data-name="Grupo 875858" transform="translate(0)">
            <g id="Grupo_875857" data-name="Grupo 875857" clip-path="url(#clip-path-18)">
              <path id="Trazado_269178" data-name="Trazado 269178" d="M109.947,294.017h1.98a1.757,1.757,0,0,0,1.757-1.757v-16.2a1.758,1.758,0,0,0-1.757-1.758h-1.98a1.758,1.758,0,0,0-1.758,1.758v16.2a1.758,1.758,0,0,0,1.758,1.757" transform="translate(-108.189 -274.299)"/>
            </g>
          </g>
        </g>
        <g id="Grupo_875862" data-name="Grupo 875862" transform="translate(136.197 78.576)" opacity="0.3">
          <g id="Grupo_875861" data-name="Grupo 875861">
            <g id="Grupo_875860" data-name="Grupo 875860" clip-path="url(#clip-path-20)">
              <path id="Trazado_269179" data-name="Trazado 269179" d="M76.257,163.7c-2.311-1.306-3.553-3.255-2.681-6.473,0,0,11.937-5.149,20.95-7.207s10.786,0,10.786,0L91.055,170Z" transform="translate(-73.296 -149.108)"/>
            </g>
          </g>
        </g>
        <path id="Trazado_269180" data-name="Trazado 269180" d="M69.248,164.354s.669-.456,1.8-1.209c5.319-3.55,20.854-13.7,24.79-13.812,5.408-.156,5.415,4.506,5.408,8.112-.005,2.558-2.1,24.785-2.1,24.785" transform="translate(69.102 -70.636)" fill="#ff725e"/>
        <path id="Trazado_269181" data-name="Trazado 269181" d="M165.882,170.036a.729.729,0,0,0,.061-.154l.155-.458.592-1.764c.52-1.529,1.292-3.737,2.348-6.424a83.248,83.248,0,0,1,4.213-9.214,32.414,32.414,0,0,1,3.26-4.99,12.181,12.181,0,0,1,2.232-2.191,4.259,4.259,0,0,1,2.929-.995,7.55,7.55,0,0,1,3,1.046,19.537,19.537,0,0,1,2.59,1.785,44.261,44.261,0,0,1,4.345,4.1,101.051,101.051,0,0,1,6.5,7.774c1.751,2.3,3.1,4.2,4.031,5.527l1.061,1.528.277.4a.8.8,0,0,0,.1.131.692.692,0,0,0-.078-.146l-.255-.412c-.228-.359-.569-.886-1.019-1.558-.9-1.342-2.231-3.268-3.964-5.583a96.582,96.582,0,0,0-6.474-7.83,43.7,43.7,0,0,0-4.362-4.134,19.627,19.627,0,0,0-2.624-1.814,7.8,7.8,0,0,0-3.118-1.081,3.593,3.593,0,0,0-1.672.237,6.874,6.874,0,0,0-1.439.811,12.4,12.4,0,0,0-2.279,2.241,32.317,32.317,0,0,0-3.274,5.04,80.2,80.2,0,0,0-4.172,9.264c-1.034,2.7-1.779,4.921-2.269,6.462-.245.77-.426,1.372-.543,1.781l-.129.467a.711.711,0,0,0-.034.162" transform="translate(-84.164 -67.906)" fill="#263238"/>
        <path id="Trazado_269182" data-name="Trazado 269182" d="M179.462,124.417a.685.685,0,0,0-.132.095l-.369.3-1.4,1.171-5.122,4.345-.34.289.432-.121a80.637,80.637,0,0,1,21.163-3.011,84.055,84.055,0,0,1,23.944,3.22l.035.01.03-.018,4.055-2.378,1.069-.64.272-.17a.427.427,0,0,0,.089-.064.383.383,0,0,0-.1.044l-.283.15-1.091.6-4.094,2.311.065-.007a81.16,81.16,0,0,0-10.225-2.321c-2.046-.338-4.245-.583-6.551-.783-2.31-.153-4.729-.277-7.217-.231a80.272,80.272,0,0,0-11.774.983,78.166,78.166,0,0,0-9.441,2.115l.091.168,5.064-4.412,1.368-1.21.351-.32a.693.693,0,0,0,.113-.116" transform="translate(-107.04 -58.852)" fill="#263238"/>
        <g id="Grupo_875865" data-name="Grupo 875865" transform="translate(102.114 131.63)" opacity="0.2">
          <g id="Grupo_875864" data-name="Grupo 875864" transform="translate(0)">
            <g id="Grupo_875863" data-name="Grupo 875863" clip-path="url(#clip-path-21)">
              <path id="Trazado_269183" data-name="Trazado 269183" d="M175.422,252.974c.121.753.9,1.315,1.995,1.695a15.406,15.406,0,0,0,8.227.091c1.107-.356,1.893-.9,2.031-1.651s-.43-1.552-1.532-2.2a10.252,10.252,0,0,0-9.141-.1c-1.116.621-1.7,1.42-1.58,2.164" transform="translate(-175.407 -249.784)" fill="#fff"/>
            </g>
          </g>
        </g>
        <path id="Trazado_269184" data-name="Trazado 269184" d="M55.343,257.054a.825.825,0,0,0,.151-.089l.426-.281.686-.465c.28-.169.615-.346.985-.555a23.02,23.02,0,0,1,6.786-2.3,33.375,33.375,0,0,1,4.944-.461,35.5,35.5,0,0,1,5.682.417,28.988,28.988,0,0,1,12.065,4.694,24.413,24.413,0,0,1,2.656,2.159,22.163,22.163,0,0,1,2.232,2.461,21.455,21.455,0,0,1,3.079,5.454,19.032,19.032,0,0,1,.672,10.484,17.846,17.846,0,0,1-1.383,3.843A16.717,16.717,0,0,1,92.64,285l-.729.863-.591.581-.36.362a.792.792,0,0,0-.117.13.81.81,0,0,0,.135-.11l.38-.341.612-.565.753-.852a16.215,16.215,0,0,0,1.736-2.586,17.689,17.689,0,0,0,1.435-3.87A19.1,19.1,0,0,0,95.272,268a20.363,20.363,0,0,0-1.317-2.821,21.218,21.218,0,0,0-1.786-2.711,22.363,22.363,0,0,0-2.257-2.5,24.6,24.6,0,0,0-2.688-2.185,29.026,29.026,0,0,0-12.183-4.719,35.256,35.256,0,0,0-5.725-.4,32.986,32.986,0,0,0-4.975.5,22.443,22.443,0,0,0-6.8,2.4c-.368.218-.7.4-.977.58l-.675.489-.41.3a.829.829,0,0,0-.134.111" transform="translate(81.304 -119.519)" fill="#263238"/>
        <path id="Trazado_269185" data-name="Trazado 269185" d="M82.57,277.8a5.039,5.039,0,0,0-.06.839c-.025.589-.058,1.36-.1,2.289-.081,1.933-.239,4.6-.312,7.556-.018.739-.024,1.461-.021,2.159a11.221,11.221,0,0,0,.151,2.023,3.82,3.82,0,0,0,1.865,2.817,2.285,2.285,0,0,0,2.264-.118,1.631,1.631,0,0,0,.451-.447.565.565,0,0,0,.1-.2,2.48,2.48,0,0,1-.6.555,2.2,2.2,0,0,1-2.118.036,3.658,3.658,0,0,1-1.705-2.691,11.261,11.261,0,0,1-.131-1.978c0-.695.008-1.414.026-2.152.073-2.948.2-5.62.232-7.556.018-.968.02-1.752.01-2.293a4.811,4.811,0,0,0-.047-.841" transform="translate(76.676 -131.407)" fill="#263238"/>
        <path id="Trazado_269186" data-name="Trazado 269186" d="M110.213,277.8a5.04,5.04,0,0,0-.06.839c-.025.589-.058,1.36-.1,2.289-.081,1.933-.239,4.6-.312,7.556-.018.739-.024,1.461-.021,2.159a11.221,11.221,0,0,0,.151,2.023,3.82,3.82,0,0,0,1.865,2.817,2.285,2.285,0,0,0,2.264-.118,1.62,1.62,0,0,0,.45-.447.562.562,0,0,0,.1-.2,2.481,2.481,0,0,1-.6.555,2.2,2.2,0,0,1-2.118.036,3.658,3.658,0,0,1-1.705-2.691,11.261,11.261,0,0,1-.131-1.978c0-.695.008-1.414.026-2.152.073-2.948.2-5.62.232-7.556.018-.968.019-1.752.01-2.293a4.812,4.812,0,0,0-.047-.841" transform="translate(34.466 -131.407)" fill="#263238"/>
        <path id="Trazado_269187" data-name="Trazado 269187" d="M94.365,301.693a1.973,1.973,0,0,0,.112.363c.09.231.19.587.39,1.015a20.107,20.107,0,0,0,1.926,3.508,25.144,25.144,0,0,0,3.9,4.47,29.053,29.053,0,0,0,2.751,2.183,27.526,27.526,0,0,0,3.247,1.916,28.846,28.846,0,0,0,6.833,2.476,27.356,27.356,0,0,0,5.905.594c1.691-.008,3.054-.1,3.994-.17l1.082-.086a1.953,1.953,0,0,0,.377-.049,2.035,2.035,0,0,0-.38-.006l-1.085.034c-.942.033-2.306.1-3.988.082a28.229,28.229,0,0,1-5.852-.647,29.3,29.3,0,0,1-6.764-2.474,27.883,27.883,0,0,1-3.218-1.892,29.612,29.612,0,0,1-2.734-2.15,25.817,25.817,0,0,1-3.914-4.392,22.041,22.041,0,0,1-1.988-3.441c-.214-.42-.33-.768-.436-.992a1.982,1.982,0,0,0-.164-.343" transform="translate(32.222 -142.708)" fill="#263238"/>
        <path id="Trazado_269188" data-name="Trazado 269188" d="M79.85,275.43a4.747,4.747,0,0,1,.363-.521,2.137,2.137,0,0,1,1.507-.682,2.925,2.925,0,0,1,2.222.992,2.974,2.974,0,0,1,.675,1.3,6.728,6.728,0,0,1,.157,1.61c-.018,2.265-.028,4.322-.017,5.808.011.7.019,1.288.026,1.761a2.958,2.958,0,0,0,.046.646,2.93,2.93,0,0,0,.06-.645c.017-.473.037-1.061.062-1.76.039-1.488.079-3.539.1-5.811a6.82,6.82,0,0,0-.17-1.676,3.2,3.2,0,0,0-.749-1.4,3.083,3.083,0,0,0-2.42-1.015,2.181,2.181,0,0,0-1.577.806,1.7,1.7,0,0,0-.242.424c-.035.106-.048.163-.039.166" transform="translate(79.713 -129.622)" fill="#fff"/>
        <path id="Trazado_269189" data-name="Trazado 269189" d="M107.905,279c-.076,0-.137,2.778-.137,6.2s.061,6.2.137,6.2.137-2.777.137-6.2-.061-6.2-.137-6.2" transform="translate(42.005 -131.973)" fill="#fff"/>
        <path id="Trazado_269190" data-name="Trazado 269190" d="M56.733,256.239a1.439,1.439,0,0,0,.325.022c.212.01.524,0,.926.02a23.1,23.1,0,0,1,3.379.367A22.018,22.018,0,0,1,78,270.195a23.024,23.024,0,0,1,1.044,3.235c.1.388.154.7.207.9a1.514,1.514,0,0,0,.087.314,1.438,1.438,0,0,0-.032-.323c-.036-.21-.068-.523-.158-.917a20.175,20.175,0,0,0-.968-3.283A21.676,21.676,0,0,0,61.4,256.456a20.2,20.2,0,0,0-3.411-.282c-.4-.008-.718.024-.93.031a1.456,1.456,0,0,0-.323.034" transform="translate(97.598 -121.176)" fill="#fff"/>
        <path id="Trazado_269191" data-name="Trazado 269191" d="M65.258,205.354a1.365,1.365,0,0,0,.1.3l.326.834c.148.359.324.8.5,1.323s.415,1.1.617,1.769c.217.66.451,1.383.66,2.172.235.782.427,1.633.643,2.524a50.03,50.03,0,0,1,1.233,11.844c-.028.917-.041,1.789-.11,2.6-.043.815-.123,1.571-.2,2.261-.06.692-.166,1.312-.239,1.858s-.151,1.016-.221,1.4l-.146.883a1.4,1.4,0,0,0-.033.312,1.32,1.32,0,0,0,.087-.3c.052-.229.118-.519.2-.875.087-.38.183-.847.268-1.394s.207-1.166.28-1.859c.089-.691.18-1.45.233-2.268.079-.816.1-1.693.135-2.614a47.422,47.422,0,0,0-1.239-11.905c-.224-.894-.426-1.747-.671-2.53-.22-.79-.466-1.512-.7-2.171s-.459-1.245-.657-1.762-.386-.955-.549-1.309l-.374-.815a1.35,1.35,0,0,0-.147-.277" transform="translate(102.851 -97.138)" fill="#fff"/>
        <path id="Trazado_269192" data-name="Trazado 269192" d="M71.11,153.351c-.022.017.216.285.531.837a8.171,8.171,0,0,1,.881,2.529,24.537,24.537,0,0,1,.325,3.991c.04,1.513.05,3.178.007,4.924-.085,3.493-.366,6.647-.631,8.922-.138,1.1-.252,2.014-.337,2.692l-.093.732a.927.927,0,0,0-.014.259.915.915,0,0,0,.069-.25l.144-.725c.115-.631.268-1.548.424-2.684a81.25,81.25,0,0,0,.712-8.94c.043-1.751.026-3.421-.028-4.938a23.045,23.045,0,0,0-.387-4.022,7.709,7.709,0,0,0-.979-2.545,4.526,4.526,0,0,0-.441-.6c-.112-.127-.174-.191-.182-.184" transform="translate(96.214 -72.539)" fill="#fff"/>
        <path id="Trazado_269193" data-name="Trazado 269193" d="M112.977,122.018a1.828,1.828,0,0,0,.336.139l.98.346,3.612,1.241a120.479,120.479,0,0,1,11.709,4.606,54.563,54.563,0,0,1,10.731,6.5c1.261,1,2.232,1.871,2.884,2.492.333.3.574.557.749.718a1.841,1.841,0,0,0,.273.24,1.715,1.715,0,0,0-.233-.278c-.162-.173-.393-.439-.715-.756a35.394,35.394,0,0,0-2.837-2.567,51.585,51.585,0,0,0-10.737-6.6,106.017,106.017,0,0,0-11.764-4.541c-1.533-.5-2.779-.894-3.641-1.158l-1-.3a1.781,1.781,0,0,0-.353-.086" transform="translate(3.05 -57.717)" fill="#fff"/>
        <path id="Trazado_269194" data-name="Trazado 269194" d="M168.674,146.815a1.248,1.248,0,0,0,.235.189l.7.5c.615.42,1.49,1.051,2.552,1.853s2.3,1.8,3.628,2.947,2.733,2.485,4.146,3.943,2.674,2.928,3.786,4.291,2.052,2.642,2.81,3.736,1.36,1.989,1.756,2.62l.468.719a1.279,1.279,0,0,0,.18.241,1.222,1.222,0,0,0-.132-.27l-.426-.747c-.369-.649-.943-1.565-1.687-2.673s-1.678-2.4-2.772-3.785-2.375-2.85-3.786-4.323-2.843-2.787-4.178-3.944-2.595-2.131-3.678-2.912-1.975-1.393-2.609-1.786l-.73-.453a1.231,1.231,0,0,0-.265-.142" transform="translate(-70.988 -69.447)" fill="#fff"/>
        <path id="Trazado_269195" data-name="Trazado 269195" d="M363.706,216.385a6.5,6.5,0,0,0-.624,1.33,27.974,27.974,0,0,0-1.739,6.859,6.5,6.5,0,0,0-.084,1.467,9.758,9.758,0,0,0,.277-1.439c.153-.889.388-2.112.725-3.445s.715-2.519,1-3.374a9.674,9.674,0,0,0,.442-1.4" transform="translate(-347.237 -102.355)" fill="#fff"/>
        <path id="Trazado_269196" data-name="Trazado 269196" d="M114.178,331.017s.085.07.258.2l.775.552,1.265.891.809.565.943.612a105.013,105.013,0,0,0,11.682,6.673c1.276.624,2.632,1.242,4.042,1.888l2.185.926,1.125.474,1.16.446,2.381.911,2.487.859c.838.3,1.7.564,2.578.831s1.756.563,2.667.8a109.689,109.689,0,0,0,11.5,2.587,96.362,96.362,0,0,0,12.584,1.355,84.478,84.478,0,0,0,12.653-.4l1.52-.149c.5-.051,1-.136,1.5-.2l2.953-.419,2.872-.532,1.411-.265,1.383-.316a101.521,101.521,0,0,0,18.964-6.169,80.621,80.621,0,0,0,11.855-6.351c1.356-.83,2.325-1.6,3.011-2.077l.768-.561c.172-.128.256-.2.256-.2s-.095.056-.272.176l-.784.539c-.7.463-1.674,1.217-3.037,2.033a83.223,83.223,0,0,1-11.875,6.262,102.512,102.512,0,0,1-18.941,6.1l-1.38.312-1.408.262-2.865.526-2.946.414c-.5.065-.993.15-1.5.2l-1.517.147a84.693,84.693,0,0,1-12.614.39,96.776,96.776,0,0,1-12.551-1.346,110.678,110.678,0,0,1-11.478-2.565c-.909-.232-1.786-.533-2.662-.79s-1.738-.524-2.575-.823l-2.484-.851-2.378-.9-1.159-.441-1.124-.47-2.184-.916c-1.41-.64-2.766-1.25-4.042-1.868a109.525,109.525,0,0,1-11.708-6.588l-.95-.6-.816-.554-1.279-.868-.79-.53c-.179-.118-.275-.173-.275-.173" transform="translate(-85.101 -156.58)" fill="#263238"/>
        <path id="Trazado_269197" data-name="Trazado 269197" d="M319.026,327.5l-10.592,27.085H301.2l-1.577-2.358-1.856,2.358H295.2l-.951-42.924Z" transform="translate(-267.251 -147.426)" fill="#ff725e"/>
        <path id="Trazado_269198" data-name="Trazado 269198" d="M190.92,345.534l-8.951,23.272h-8.23l-1.679-2.7-1.622,2.7h-2.044s-.9-26.255,0-27,22.526,3.729,22.526,3.729" transform="translate(-72.613 -161.643)" fill="#ff725e"/>
        <path id="Trazado_269199" data-name="Trazado 269199" d="M308.21,250.258a.653.653,0,0,0,0,.155c.01.117.021.266.035.452.039.417.094,1,.163,1.737.038.379.079.8.125,1.255s.152.95.237,1.481c.188,1.06.342,2.28.685,3.593q.232.991.486,2.073c.174.719.424,1.449.646,2.215.419,1.541,1.042,3.128,1.662,4.811a62.739,62.739,0,0,0,12.366,19.642c1.251,1.286,2.413,2.534,3.621,3.578.595.531,1.145,1.071,1.718,1.539l1.658,1.334c1.036.877,2.069,1.543,2.944,2.171.443.306.846.6,1.233.854l1.078.655,1.5.9.393.228a.656.656,0,0,0,.138.069.618.618,0,0,0-.124-.093l-.378-.251-1.467-.941-1.063-.674c-.382-.256-.78-.559-1.217-.871-.864-.638-1.886-1.313-2.91-2.2l-1.642-1.343c-.568-.471-1.112-1.013-1.7-1.546-1.2-1.048-2.349-2.3-3.589-3.582a63.756,63.756,0,0,1-12.317-19.564c-.623-1.674-1.252-3.253-1.679-4.785-.225-.762-.48-1.487-.658-2.2l-.5-2.061c-.354-1.306-.521-2.519-.723-3.574-.092-.529-.193-1.019-.26-1.474s-.1-.872-.148-1.25c-.091-.736-.162-1.314-.214-1.73l-.063-.45a.666.666,0,0,0-.031-.152" transform="translate(-294.476 -118.378)" fill="#fff"/>
        <g id="Grupo_875868" data-name="Grupo 875868" transform="translate(20.842 94.423)" opacity="0.2">
          <g id="Grupo_875867" data-name="Grupo 875867">
            <g id="Grupo_875866" data-name="Grupo 875866" clip-path="url(#clip-path-22)">
              <path id="Trazado_269200" data-name="Trazado 269200" d="M302.679,193.789a26.313,26.313,0,0,1,13.715-14.041,7.825,7.825,0,0,1,10.7,6.843c0,.038,0,.076.006.114.189,3.816-1.31,7.517-3.144,10.869s-4.037,6.52-5.466,10.064a25.672,25.672,0,0,0-.212,18.441c1.412,3.752,3.756,7.747,1.635,11.488a7.178,7.178,0,0,1-7,3.406c-5.38-.489-8.175-5.347-10.723-9.761a31.349,31.349,0,0,1-3.839-13.243,58.326,58.326,0,0,1,4.328-24.18" transform="translate(-298.33 -179.18)" fill="#fff"/>
            </g>
          </g>
        </g>
        <g id="Grupo_875871" data-name="Grupo 875871" transform="translate(44.912 93.67)" opacity="0.2">
          <g id="Grupo_875870" data-name="Grupo 875870" transform="translate(0)">
            <g id="Grupo_875869" data-name="Grupo 875869" clip-path="url(#clip-path-23)">
              <path id="Trazado_269201" data-name="Trazado 269201" d="M306.885,177.75c-.136,0-.269.016-.4.019l-.027-.01Z" transform="translate(-306.452 -177.75)" fill="#fff"/>
            </g>
          </g>
        </g>
        <path id="Trazado_269202" data-name="Trazado 269202" d="M173.677,233.516c.2.054.506-.732,1.026-1.868a6.314,6.314,0,0,1,1.14-1.725,2.934,2.934,0,0,1,1.98-.969,3.282,3.282,0,0,1,2.1.8,5.229,5.229,0,0,1,1.242,1.6c.555,1.087.766,1.893.97,1.86.166-.019.317-.867-.07-2.224a5.106,5.106,0,0,0-1.292-2.175,4.208,4.208,0,0,0-2.987-1.237,3.593,3.593,0,0,0-1.693.483,4.415,4.415,0,0,0-1.195,1.015,5.736,5.736,0,0,0-1.11,2.238c-.324,1.336-.281,2.153-.114,2.2" transform="translate(-66.928 -107.652)" fill="#263238"/>
        <path id="Trazado_269203" data-name="Trazado 269203" d="M99.6,229.334a3.788,3.788,0,1,0,3.788-3.788,3.788,3.788,0,0,0-3.788,3.788" transform="translate(47.176 -106.689)" fill="#263238"/>
        <path id="Trazado_269204" data-name="Trazado 269204" d="M285.977,152.02a2.052,2.052,0,0,0,.261-.285l.707-.849c.3-.373.674-.826,1.126-1.336s.943-1.11,1.532-1.733,1.212-1.325,1.924-2.038c.694-.731,1.478-1.469,2.293-2.255,1.658-1.544,3.539-3.178,5.6-4.781s4.133-3,6.047-4.211c.968-.589,1.88-1.161,2.763-1.647.87-.509,1.7-.947,2.459-1.345s1.456-.738,2.065-1.043,1.14-.553,1.577-.75l1-.468a2.1,2.1,0,0,0,.342-.181,1.979,1.979,0,0,0-.364.13l-1.022.422c-.445.182-.984.414-1.6.709s-1.328.607-2.088,1.009-1.6.817-2.483,1.32c-.891.478-1.81,1.045-2.785,1.63-1.927,1.205-4,2.611-6.08,4.208s-3.957,3.256-5.611,4.814c-.813.794-1.594,1.541-2.283,2.281-.708.722-1.336,1.423-1.906,2.067s-1.066,1.242-1.505,1.764-.8.984-1.092,1.368l-.667.882a2.027,2.027,0,0,0-.218.319" transform="translate(-259.545 -61.065)" fill="#fff"/>
        <path id="Trazado_269205" data-name="Trazado 269205" d="M188.615,136.416a2.454,2.454,0,0,0,.411-.122l1.157-.4c.5-.181,1.112-.394,1.837-.605s1.535-.495,2.457-.72l1.439-.381c.5-.13,1.031-.231,1.574-.356,1.085-.261,2.262-.45,3.5-.67a62.213,62.213,0,0,1,16.262-.468c1.245.149,2.431.27,3.529.468.55.093,1.085.163,1.592.265l1.459.3c.934.172,1.761.4,2.494.577s1.36.347,1.868.5l1.178.331a2.538,2.538,0,0,0,.417.1,2.452,2.452,0,0,0-.4-.151l-1.164-.381c-.5-.168-1.127-.361-1.86-.545s-1.558-.434-2.492-.619l-1.46-.316c-.509-.107-1.044-.183-1.6-.281-1.1-.209-2.29-.339-3.54-.495a60.108,60.108,0,0,0-16.329.47c-1.238.228-2.418.426-3.5.7-.544.129-1.075.236-1.576.373l-1.44.4c-.922.238-1.733.53-2.453.761s-1.331.454-1.825.651l-1.14.447a2.491,2.491,0,0,0-.391.173" transform="translate(-122.342 -62.488)" fill="#fff"/>
      </g>
    </g>
  </g>
</svg>
