<svg xmlns="http://www.w3.org/2000/svg" xmlns:xlink="http://www.w3.org/1999/xlink" width="63" height="63.196" viewBox="0 0 63 63.196">
  <defs>
    <radialGradient id="radial-gradient" cx="0.741" cy="0.152" r="0.5" gradientUnits="objectBoundingBox">
      <stop offset="0" stop-color="#fff"/>
      <stop offset="1" stop-color="#adc7db"/>
    </radialGradient>
  </defs>
  <g id="Grupo_877041" data-name="Grupo 877041" transform="translate(-622 -8881.516)">
    <g id="Grupo_870604" data-name="Grupo 870604" transform="translate(337 1561.516)">
      <circle id="Elipse_4720" data-name="Elipse 4720" cx="31.5" cy="31.5" r="31.5" transform="translate(285 7320)" fill="url(#radial-gradient)"/>
      <path id="Sustracción_8" data-name="Sustracción 8" d="M8407.5,11782a31.476,31.476,0,0,1-31.5-31.5,31.842,31.842,0,0,1,.514-5.7,38.533,38.533,0,0,0,51.173,29.878A31.38,31.38,0,0,1,8407.5,11782Z" transform="translate(-8091 -4398.805)" fill="#003b73" opacity="0.383"/>
    </g>
    <path id="Trazado_270208" data-name="Trazado 270208" d="M13.965-7.554a8.826,8.826,0,0,1-1.682,5.776A5.813,5.813,0,0,1,7.541.254,5.844,5.844,0,0,1,2.768-1.79,8.812,8.812,0,0,1,1.079-7.554v-3.377a8.826,8.826,0,0,1,1.682-5.776,5.827,5.827,0,0,1,4.754-2.031,5.83,5.83,0,0,1,4.761,2.044,8.834,8.834,0,0,1,1.688,5.776ZM9.687-11.477a6.593,6.593,0,0,0-.521-2.977,1.74,1.74,0,0,0-1.65-.984,1.7,1.7,0,0,0-1.606.914,6.21,6.21,0,0,0-.54,2.768v4.723a6.642,6.642,0,0,0,.521,3.028,1.746,1.746,0,0,0,1.65.958A1.723,1.723,0,0,0,9.153-3.98a6.341,6.341,0,0,0,.533-2.926ZM29.085,0h-12.9V-2.793l5.941-6.246q2.2-2.5,2.2-3.974a2.764,2.764,0,0,0-.521-1.815,1.858,1.858,0,0,0-1.511-.622,1.882,1.882,0,0,0-1.587.832,3.417,3.417,0,0,0-.609,2.076H15.806a6.07,6.07,0,0,1,.851-3.142,5.965,5.965,0,0,1,2.361-2.253,7.014,7.014,0,0,1,3.377-.812,6.9,6.9,0,0,1,4.615,1.384,4.94,4.94,0,0,1,1.619,3.974,5.77,5.77,0,0,1-.406,2.126A9.325,9.325,0,0,1,26.958-9.1,31.82,31.82,0,0,1,24.2-6.056L21.811-3.3h7.274Z" transform="translate(639 8921.508)" fill="#12263f"/>
  </g>
</svg>
