<svg xmlns="http://www.w3.org/2000/svg" width="71" height="71" viewBox="0 0 71 71">
  <g id="Grupo_877043" data-name="Grupo 877043" transform="translate(-194 -9784)">
    <circle id="Elipse_4789" data-name="Elipse 4789" cx="35.5" cy="35.5" r="35.5" transform="translate(194 9784)" fill="#fff"/>
    <g id="Grupo_875794" data-name="Grupo 875794" transform="translate(2745 12333.181)">
      <path id="Trazado_268894" data-name="Trazado 268894" d="M12.077,31.957q0-7.576,0-15.152a2.133,2.133,0,0,1,2.381-2.373c1.372,0,2.745-.018,4.116.011.41.009.562-.071.52-.509a2.025,2.025,0,0,1,.663-1.734,3.934,3.934,0,0,1,4.257-.007,2.172,2.172,0,0,1,.672,1.864c-.025.306.066.384.376.383q5.934-.018,11.868,0c.367,0,.385-.134.382-.423a2.086,2.086,0,0,1,1.664-2.33,6.174,6.174,0,0,1,2.264,0,2.025,2.025,0,0,1,1.661,2.2c-.013.455.107.571.561.56,1.328-.034,2.659.041,3.984-.026a2.285,2.285,0,0,1,2.494,2.469c-.042,6.5-.014,12.992-.027,19.488,0,.391.086.509.49.5.962-.033,1.927-.014,2.89-.009.572,0,.833.257.833.826q0,6.876,0,13.751c0,.59-.259.836-.864.84-.467,0-.936.028-1.4-.008-.414-.032-.638.058-.54.523a.678.678,0,0,1,0,.218.69.69,0,0,1-.684.665c-.116.011-.233,0-.35,0H25.72c-.834,0-1.026-.193-1.027-1.029,0-.934-.014-1.869.008-2.8.007-.307-.072-.382-.38-.381-3.284.012-6.569.008-9.853.008a2.145,2.145,0,0,1-2.39-2.409q0-7.554,0-15.109" transform="translate(-2548.666 -2546.271)" fill="#033f71"/>
      <path id="Trazado_268895" data-name="Trazado 268895" d="M41.6,52.2H26.486c-.811,0-1.012.2-1.012,1q0,12.308,0,24.617c0,.826.2,1.016,1.04,1.016,2.774,0,5.548.006,8.322-.008.344,0,.473.05.461.436-.032.973-.009.974-.965.974H25.09c-.813,0-1.017-.2-1.017-.995q0-15.134,0-30.267c0-.771.209-.977.99-.977,1.416,0,2.833.011,4.249-.009.315,0,.4.085.371.386A2.177,2.177,0,0,0,32.142,50.8c.334-.026.671,0,1.007,0a2.111,2.111,0,0,0,2.137-2.137c.011-.666.011-.666.694-.666q5.76,0,11.52-.007c.311,0,.415.051.412.394a2.135,2.135,0,0,0,2.417,2.416c.35,0,.7,0,1.051,0a2.109,2.109,0,0,0,2.128-2.146c.01-.657.01-.657.659-.657q2.037,0,4.074,0c.627,0,.874.247.874.874q0,9.9.007,19.8c0,.283-.067.362-.356.36-1.052-.007-1.052.005-1.052-1.059q0-7.381,0-14.761c0-.807-.2-1.008-1-1.008H41.6" transform="translate(-2559.26 -2578.428)" fill="#fefefe"/>
      <path id="Trazado_268896" data-name="Trazado 268896" d="M143.874,275.121c-3.825,0-7.651-.006-11.476.009-.364,0-.45-.084-.448-.448q.024-5.19,0-10.381c0-.328.077-.4.4-.4q11.52.016,23.039,0c.327,0,.4.075.4.4q-.02,5.212,0,10.425c0,.328-.077.4-.4.4-3.84-.013-7.68-.008-11.52-.008" transform="translate(-2654.531 -2769.114)" fill="#fefefe"/>
      <path id="Trazado_268897" data-name="Trazado 268897" d="M107.878,191.9c3.809,0,7.617.009,11.426-.012.44,0,.515.124.5.527-.03,1.094-.028,2.189,0,3.283.009.362-.113.415-.435.415q-9.084-.014-18.168-.007c-.839,0-1.031.191-1.031,1.023,0,.482-.014.964.006,1.444.011.258-.041.38-.328.341a1.394,1.394,0,0,0-.522.015.733.733,0,0,0-.56.823c.008,1.445-.013,2.89.014,4.334.007.38-.107.454-.458.439-.67-.03-1.342-.018-2.013,0-.245.005-.352-.024-.351-.32q.017-6,0-11.995c0-.374.2-.306.406-.306h11.514" transform="translate(-2622.745 -2705.521)" fill="#fefefe"/>
      <path id="Trazado_268898" data-name="Trazado 268898" d="M52.221,107.881c0,3.825-.006,7.651.009,11.476,0,.363-.081.458-.448.449-1.138-.027-2.278-.02-3.416,0-.287,0-.358-.074-.357-.358q.012-11.563,0-23.127c0-.285.07-.363.357-.359,1.153.017,2.307.021,3.46,0,.329-.007.4.077.4.4-.013,3.84-.008,7.68-.008,11.519" transform="translate(-2580.399 -2620.797)" fill="#fefefe"/>
      <path id="Trazado_268899" data-name="Trazado 268899" d="M156.556,239.906c4.059,0,8.118.005,12.177-.009.366,0,.448.087.447.449q-.022,5.869,0,11.739c0,.367-.087.457-.45.447-.961-.027-.961-.008-.961-.977q0-4.643,0-9.286c0-.744-.218-.961-.963-.961q-11.191,0-22.383.009c-.4,0-.507-.093-.493-.492.032-.918.01-.919.931-.919Z" transform="translate(-2665.109 -2747.917)" fill="#fefefe"/>
      <path id="Trazado_268900" data-name="Trazado 268900" d="M98.454,100.2c-.715,0-1.431-.011-2.146.006-.248.006-.316-.065-.313-.313q.019-1.8,0-3.591c0-.248.065-.315.313-.313q2.146.018,4.292,0c.247,0,.316.065.313.313q-.019,1.8,0,3.591c0,.248-.065.319-.313.313-.715-.016-1.43-.006-2.146-.006" transform="translate(-2622.778 -2620.823)" fill="#fefefe"/>
      <path id="Trazado_268901" data-name="Trazado 268901" d="M152.393,100.192c-.7,0-1.4-.008-2.1,0-.229,0-.33-.031-.327-.3q.023-1.817,0-3.635c0-.247.089-.281.3-.28,1.445.007,2.89.01,4.335,0,.247,0,.282.088.28.3-.008,1.212-.012,2.423,0,3.635,0,.247-.088.283-.3.28-.73-.011-1.46,0-2.19,0" transform="translate(-2670.44 -2620.818)" fill="#fefefe"/>
      <path id="Trazado_268902" data-name="Trazado 268902" d="M206.411,100.2c-.715,0-1.431-.011-2.146.006-.248.006-.316-.065-.313-.313q.019-1.8,0-3.591c0-.248.066-.315.313-.313q2.146.018,4.292,0c.247,0,.316.065.313.313q-.019,1.8,0,3.591c0,.247-.065.319-.313.313-.715-.016-1.43-.006-2.146-.006" transform="translate(-2718.119 -2620.823)" fill="#fefefe"/>
      <path id="Trazado_268903" data-name="Trazado 268903" d="M260.35,100.192c-.7,0-1.4-.008-2.1,0-.229,0-.33-.031-.327-.3q.023-1.817,0-3.635c0-.247.088-.281.3-.28,1.445.007,2.89.01,4.336,0,.247,0,.282.088.28.3-.008,1.212-.012,2.423,0,3.635,0,.247-.088.283-.3.28-.73-.011-1.46,0-2.19,0" transform="translate(-2765.781 -2620.818)" fill="#fefefe"/>
      <path id="Trazado_268904" data-name="Trazado 268904" d="M98.454,143.969c.715,0,1.431.011,2.146-.006.25-.006.314.07.311.315q-.019,1.8,0,3.591c0,.25-.07.313-.315.311q-2.146-.017-4.292,0c-.25,0-.314-.07-.311-.315q.019-1.8,0-3.591c0-.25.07-.317.315-.311.715.016,1.43.006,2.146.006" transform="translate(-2622.776 -2663.193)" fill="#fefefe"/>
      <path id="Trazado_268905" data-name="Trazado 268905" d="M152.432,148.177c-.715,0-1.431-.011-2.146.006-.248.006-.316-.065-.313-.313q.019-1.8,0-3.591c0-.248.066-.315.313-.313q2.146.018,4.292,0c.247,0,.316.065.313.313q-.019,1.8,0,3.591c0,.248-.065.319-.313.313-.715-.016-1.43-.006-2.146-.006" transform="translate(-2670.448 -2663.197)" fill="#fefefe"/>
      <path id="Trazado_268906" data-name="Trazado 268906" d="M206.411,148.177c-.715,0-1.431-.011-2.146.006-.248.006-.316-.065-.313-.313q.019-1.8,0-3.591c0-.247.065-.315.313-.313q2.146.018,4.292,0c.247,0,.316.065.313.313q-.019,1.8,0,3.591c0,.247-.065.319-.313.313-.715-.017-1.43-.006-2.146-.006" transform="translate(-2718.119 -2663.196)" fill="#fefefe"/>
      <path id="Trazado_268907" data-name="Trazado 268907" d="M260.35,148.173c-.7,0-1.4-.008-2.1,0-.229,0-.33-.031-.327-.3q.023-1.817,0-3.635c0-.247.088-.281.3-.28,1.445.007,2.89.01,4.336,0,.247,0,.282.088.28.3-.008,1.212-.012,2.423,0,3.635,0,.247-.088.283-.3.28-.73-.011-1.46,0-2.19,0" transform="translate(-2765.781 -2663.192)" fill="#fefefe"/>
      <path id="Trazado_268908" data-name="Trazado 268908" d="M86.819,26.118c0,.451.009.9,0,1.354a.692.692,0,0,1-.734.743c-.451.013-.9.015-1.354,0a.679.679,0,0,1-.707-.724q-.018-1.376,0-2.752a.678.678,0,0,1,.71-.72c.451-.015.9-.014,1.354,0a.691.691,0,0,1,.731.746c.011.451,0,.9,0,1.354" transform="translate(-2612.194 -2557.256)" fill="#fefefe"/>
      <path id="Trazado_268909" data-name="Trazado 268909" d="M242.756,26.117c0,.451.008.9,0,1.354a.693.693,0,0,1-.722.756q-.677.022-1.354,0a.679.679,0,0,1-.72-.711q-.02-1.376,0-2.752a.686.686,0,0,1,.741-.735c.422-.012.845-.009,1.267,0a.709.709,0,0,1,.789.778c.009.437,0,.874,0,1.311" transform="translate(-2749.908 -2557.268)" fill="#fefefe"/>
      <path id="Trazado_268910" data-name="Trazado 268910" d="M202.232,275.964a4.2,4.2,0,1,1-4.216,4.136,4.21,4.21,0,0,1,4.216-4.136" transform="translate(-2712.876 -2779.769)" fill="#033f71"/>
      <path id="Trazado_268911" data-name="Trazado 268911" d="M144.013,278.654c0-.175,0-.35,0-.525a.688.688,0,0,1,.665-.767.751.751,0,0,0,.744-.755.682.682,0,0,1,.735-.652c.1,0,.2,0,.306,0,1.064,0,1.048,0,1.063,1.046,0,.331-.116.4-.4.357a.481.481,0,0,0-.6.332,1.353,1.353,0,0,1-.715.739.57.57,0,0,0-.4.7c.047.264-.048.381-.325.334a1.565,1.565,0,0,0-.262,0c-.815,0-.815,0-.815-.8" transform="translate(-2665.183 -2779.759)" fill="#033f71"/>
      <path id="Trazado_268912" data-name="Trazado 268912" d="M294.719,275.95c.175,0,.35-.005.524,0a.681.681,0,0,1,.743.643.764.764,0,0,0,.779.768.67.67,0,0,1,.631.71c0,.1,0,.2,0,.306,0,1.109,0,1.1-1.112,1.081-.217,0-.329-.044-.291-.284a.614.614,0,0,0-.425-.77,1.2,1.2,0,0,1-.637-.638.589.589,0,0,0-.73-.418c-.241.049-.35-.049-.311-.3a1.758,1.758,0,0,0,0-.262c0-.837,0-.837.825-.837" transform="translate(-2797.542 -2779.755)" fill="#033f71"/>
      <path id="Trazado_268913" data-name="Trazado 268913" d="M146.639,321.277c-.175,0-.35.006-.524,0a.681.681,0,0,1-.734-.653.75.75,0,0,0-.745-.754.686.686,0,0,1-.664-.769c-.008-.349.015-.7-.007-1.049-.016-.244.082-.3.3-.28.13.014.262,0,.393,0,.218,0,.482-.069.642.029.188.115.062.4.068.61,0,.169.094.215.219.275a1.815,1.815,0,0,1,.922.893.428.428,0,0,0,.538.293c.377-.07.5.1.432.446a.744.744,0,0,0,0,.131c0,.826,0,.826-.836.826" transform="translate(-2665.14 -2816.673)" fill="#033f71"/>
      <path id="Trazado_268914" data-name="Trazado 268914" d="M297.3,318.651c0,.175,0,.35,0,.524a.681.681,0,0,1-.654.735.747.747,0,0,0-.753.744.687.687,0,0,1-.769.664c-.349.008-.7-.015-1.049.007-.244.016-.3-.082-.28-.3.013-.13,0-.262,0-.393,0-.218-.069-.482.028-.642.115-.188.4-.062.61-.068.168,0,.215-.094.275-.219a1.824,1.824,0,0,1,.894-.922.429.429,0,0,0,.292-.538c-.07-.377.1-.495.446-.432a.741.741,0,0,0,.131,0c.826,0,.826,0,.826.836" transform="translate(-2797.44 -2816.715)" fill="#033f71"/>
      <path id="Trazado_268915" data-name="Trazado 268915" d="M210.008,290.74a2.8,2.8,0,1,1,2.746,2.826,2.807,2.807,0,0,1-2.746-2.826" transform="translate(-2723.468 -2790.364)" fill="#fefefe"/>
      <rect id="Rectángulo_293073" data-name="Rectángulo 293073" width="45" height="45" transform="translate(-2538 -2536.181)" fill="none"/>
    </g>
  </g>
</svg>
