<svg xmlns="http://www.w3.org/2000/svg" width="124.95" height="124.417" viewBox="0 0 124.95 124.417">
  <g id="Grupo_873637" data-name="Grupo 873637" transform="translate(7614.974 5205.688)">
    <path id="Trazado_266993" data-name="Trazado 266993" d="M179.026,257.773a7.82,7.82,0,0,1,1.876-1.655c3.554-2.354,7.082-4.748,10.65-7.083.64-.419.825-.744.39-1.425-.457-.715-.811-1.5-1.2-2.253-.793-1.541-.715-2.1.552-3.324a40.785,40.785,0,0,1,8.544-6.227c2.078-1.16,2.078-1.146,1.134-3.337a113.874,113.874,0,0,1-7.943-29.768,1.888,1.888,0,0,1,1.582-2.231,1.82,1.82,0,0,1,2.008,1.7c.678,4.332,1.4,8.656,2.426,12.922,2.873,11.926,7.545,23.045,15.058,32.823a65.489,65.489,0,0,0,26.685,20.647,1.83,1.83,0,0,0,1.6-.073c16.166-6.949,27.553-18.747,34.973-34.539a109.39,109.39,0,0,0,9.348-34.991,139.574,139.574,0,0,0,.69-21.677c-.033-.731-.262-.946-.967-1.043a98.285,98.285,0,0,1-44.208-17.283,1.042,1.042,0,0,0-1.463.021,99.176,99.176,0,0,1-40.233,16.7c-1.318.241-2.649.419-3.981.564-.626.068-.906.24-.939.944a133.588,133.588,0,0,0,.154,15.608c.042.608.092,1.219.089,1.827a1.834,1.834,0,1,1-3.645.106c-.154-2.516-.333-5.033-.39-7.552a108.263,108.263,0,0,1,.3-11.945c.161-1.829.591-2.188,2.413-2.405a95.262,95.262,0,0,0,44.4-17.04c.331-.234.653-.483.977-.728,1.3-.985,1.877-.987,3.152-.04a93.7,93.7,0,0,0,33.389,15.622,95.119,95.119,0,0,0,12.217,2.2c1.578.185,2.078.658,2.211,2.2a122.938,122.938,0,0,1-.245,21.56,127.414,127.414,0,0,1-4.186,23.342,91.706,91.706,0,0,1-4.9,13.6c-.421.911-.23,1.305.633,1.744a40.507,40.507,0,0,1,9.259,6.467c1.591,1.48,1.665,1.968.691,3.9-.467.926-1.5,1.91-1.214,2.775.258.771,1.522,1.22,2.359,1.784,3.1,2.086,6.21,4.155,9.308,6.243,1.917,1.292,1.853,2.745-.172,3.867-2.945,1.632-5.891,3.26-8.855,4.857a1.271,1.271,0,0,0-.783,1.318c.042,3.293.026,6.589.016,9.883-.007,2.192-1.3,2.955-3.183,1.85q-9.757-5.74-19.5-11.51c-1.37-.811-1.593-1.584-.908-3.04.64-1.356,1.273-2.716,1.955-4.052.279-.545.281-.9-.366-1.079a1.959,1.959,0,0,1-.229-.084c-1.346-.561-2.677-1.526-4.04-1.574-1.4-.05-2.155,1.629-3.184,2.547A71.215,71.215,0,0,1,242.9,272.243a3.351,3.351,0,0,1-2.785,0,68.439,68.439,0,0,1-22.52-14.861,1.347,1.347,0,0,0-1.79-.366c-1.164.566-2.371,1.049-3.579,1.518-.615.239-.655.533-.372,1.086.7,1.37,1.357,2.765,2.011,4.16a1.889,1.889,0,0,1-.852,2.864q-9.846,5.83-19.708,11.631c-1.747,1.026-3.063.254-3.072-1.771-.016-3.336-.026-6.672.014-10.005a1.269,1.269,0,0,0-.777-1.32c-2.931-1.571-5.836-3.191-8.758-4.779a3.328,3.328,0,0,1-1.688-1.65Z" transform="translate(-7794 -5360.001)" fill="#00c298"/>
    <path id="Trazado_266994" data-name="Trazado 266994" d="M204.7,192.145c-.085-2.018.073-4.455.221-6.89.1-1.589.6-2.127,2.229-2.32a73.22,73.22,0,0,0,31.513-11.447c.92-.594,1.791-1.265,2.681-1.9,1.419-1.02,1.882-1.043,3.262-.025a72.367,72.367,0,0,0,34.432,13.395,1.967,1.967,0,0,1,2.031,2.125,90.445,90.445,0,0,1,.073,12.313c-.092,1.48-.721,2.224-1.876,2.2-1.175-.027-1.858-.914-1.762-2.427.2-3.171.17-6.341.059-9.513-.029-.821-.167-1.223-1.168-1.368A75.133,75.133,0,0,1,243.643,173.4a.909.909,0,0,0-1.26-.019,75.768,75.768,0,0,1-30.817,12.622c-.12.022-.238.052-.359.071-2.8.435-2.8.434-2.841,3.245a99.137,99.137,0,0,0,4.116,31.038,65.68,65.68,0,0,0,8.387,17.748,13.691,13.691,0,0,1,.808,1.217,1.795,1.795,0,0,1-2.989,1.981,37.075,37.075,0,0,1-3.156-4.771,82.556,82.556,0,0,1-9.9-30.592,108.93,108.93,0,0,1-.934-13.8" transform="translate(-7795.494 -5360.845)" fill="#00c298"/>
    <path id="Trazado_266995" data-name="Trazado 266995" d="M228.572,209.29a6.432,6.432,0,0,1,4.882,2.046c1.61,1.609,3.271,3.172,4.807,4.848.727.794,1.089.639,1.765-.044q7.5-7.59,15.078-15.1c2.679-2.664,6.164-2.929,8.887-.736a6.361,6.361,0,0,1,1.163,8.636,12.694,12.694,0,0,1-1.292,1.456q-9.78,9.794-19.571,19.577c-3.361,3.36-6.956,3.362-10.313.007-3.22-3.218-6.472-6.406-9.644-9.67a6.365,6.365,0,0,1,1.634-10.429,5.881,5.881,0,0,1,2.6-.589" transform="translate(-7796.521 -5362.593)" fill="#00c298"/>
    <path id="Trazado_266996" data-name="Trazado 266996" d="M281.558,207.717a92.2,92.2,0,0,1-2.783,13.86,67.849,67.849,0,0,1-11.13,22.964,53.232,53.232,0,0,1-22.593,17.213,2.476,2.476,0,0,1-2-.06,53.252,53.252,0,0,1-18.008-12.02c-1.03-1.052-1.126-2.052-.3-2.884.778-.779,1.884-.694,2.891.325A50.259,50.259,0,0,0,243.217,257.8a2.053,2.053,0,0,0,1.834,0c12.1-5.377,20.6-14.343,26.175-26.216a81.222,81.222,0,0,0,6.591-23.457c.05-.362.114-.722.2-1.076a1.717,1.717,0,0,1,2.047-1.458c.975.1,1.529.888,1.5,2.122" transform="translate(-7796.63 -5362.986)" fill="#00c298"/>
    <path id="Trazado_266997" data-name="Trazado 266997" d="M214.911,258.969c-1.937.838-3.893,1.69-5.766,2.717a31.685,31.685,0,0,0-4.771,3.129c-.581.472-.845.49-1.223-.245q-3.724-7.234-7.545-14.417a.89.89,0,0,1,.258-1.313,45.669,45.669,0,0,1,8.062-5.409c.4-.218.59-.229.828.226a86.662,86.662,0,0,0,10.129,15.118c.022.026.013.079.028.192" transform="translate(-7794.955 -5365.182)" fill="#f6f6f6"/>
    <path id="Trazado_266998" data-name="Trazado 266998" d="M274.5,258.938a86.488,86.488,0,0,0,7.954-11.081c.773-1.329,1.512-2.679,2.234-4.037.24-.449.4-.691.978-.367a48.8,48.8,0,0,1,7.959,5.346.95.95,0,0,1,.277,1.412c-2.543,4.79-5.047,9.6-7.564,14.4-.2.382-.315.878-.933.382a42.961,42.961,0,0,0-10.9-6.059" transform="translate(-7799.559 -5365.183)" fill="#f6f6f6"/>
    <path id="Trazado_266999" data-name="Trazado 266999" d="M194.226,279.717c0-2.9-.064-5.582.025-8.26a2.879,2.879,0,0,0-1.787-2.984c-2.239-1.139-4.416-2.4-6.614-3.618-.347-.192-.762-.295-1-.706l9.566-6.4c2,3.822,4.016,7.569,5.928,11.366a3.235,3.235,0,0,0,2.857,2.063c1.347.107,2.676.452,4.246.734l-13.217,7.8" transform="translate(-7794.339 -5366.024)" fill="#f6f6f6"/>
    <path id="Trazado_267000" data-name="Trazado 267000" d="M294.935,257.755l9.691,6.478c-2.03,1.119-3.978,2.168-5.9,3.258-4.121,2.334-3.57,1.292-3.6,6.139-.013,1.972,0,3.944,0,6.087l-13.229-7.807c1.7-.293,3.141-.592,4.6-.777a2.789,2.789,0,0,0,2.326-1.674c1.989-3.9,4.048-7.755,6.119-11.7" transform="translate(-7799.99 -5366.024)" fill="#f6f6f6"/>
    <path id="Trazado_267001" data-name="Trazado 267001" d="M208.1,268.7c1.8-1.758,1.879-1.748,2.636.254-.87.156-1.646-.276-2.636-.254" transform="translate(-7795.693 -5366.587)" fill="#f0f0f0"/>
    <path id="Trazado_267002" data-name="Trazado 267002" d="M282.575,268.637l-2.769.434c.2-.683.345-1.532.787-1.609.674-.117,1.206.59,1.981,1.175" transform="translate(-7799.868 -5366.588)" fill="#f0f0f0"/>
    <path id="Trazado_267003" data-name="Trazado 267003" d="M262.89,205.771a2.806,2.806,0,0,1-.981,1.86q-10.17,10.184-20.361,20.347a2.774,2.774,0,0,1-4.377.006q-4.992-4.925-9.922-9.915a2.763,2.763,0,0,1-.72-3.426,2.708,2.708,0,0,1,2.968-1.4,3.427,3.427,0,0,1,1.825,1.134c2.076,2.063,4.14,4.14,6.214,6.205,1.435,1.429,2.224,1.42,3.683-.04q8.2-8.191,16.393-16.38a7.985,7.985,0,0,1,1.212-1.006,2.431,2.431,0,0,1,2.656-.061,2.753,2.753,0,0,1,1.41,2.679" transform="translate(-7796.747 -5362.82)" fill="#f6f6f6"/>
  </g>
</svg>
