<svg xmlns="http://www.w3.org/2000/svg" width="153.137" height="124.417" viewBox="0 0 153.137 124.417">
  <g id="Grupo_873639" data-name="Grupo 873639" transform="translate(7610.734 5348.312)">
    <path id="Trazado_267005" data-name="Trazado 267005" d="M336.149,50.329a20.108,20.108,0,0,1-8.416,14.046,1.987,1.987,0,0,0-.928,1.818q.033,32.074-.007,64.148c0,1.056.266,1.449,1.309,1.279a5.486,5.486,0,0,1,1.045-.007,2.243,2.243,0,1,1,.123,4.475c-.447.031-.9.01-1.345.01H191.708a11.77,11.77,0,0,1-1.642-.038,2.2,2.2,0,0,1-1.984-2.386,2.163,2.163,0,0,1,2.165-2.059c.83-.07,1.992.391,2.405-.2.427-.612.191-1.711.191-2.6q.009-31.177.022-62.353a2.368,2.368,0,0,0-1.064-2.2,20.515,20.515,0,0,1-8.527-15.885,4.415,4.415,0,0,1,.611-2.559q8.647-15.071,17.255-30.165a7.34,7.34,0,0,1,6.849-3.96q51.812.006,103.622,0a7.644,7.644,0,0,1,7.128,4.281Q327.191,30.9,335.752,45.76c.185.321.217.769.65.92v2.094c-.355.475.015,1.067-.254,1.556" transform="translate(-7794 -5360.001)" fill="#00c298"/>
    <path id="Trazado_267006" data-name="Trazado 267006" d="M307.474,43.37a1.572,1.572,0,0,1,.254-1.556v1.5l-.117.073Z" transform="translate(-7765.326 -5353.042)" fill="#474747"/>
    <path id="Trazado_267007" data-name="Trazado 267007" d="M329.095,44.42c-1.591,0-3.223-.015-4.856,0-1.779.02-2.767.822-2.789,2.223-.022,1.417.947,2.237,2.723,2.255,1.795.018,3.593.073,5.383-.02,1.161-.06,1.318.353,1.093,1.371a16.361,16.361,0,0,1-31.828.351c-.427-1.7-.427-1.7,1.359-1.7q6.505,0,13.011,0c2.034,0,3.1-.739,3.14-2.159.047-1.488-1.078-2.324-3.159-2.324H211.18q-3.141,0-6.282,0-3.37,0-3.348,2.286c.016,1.494,1.1,2.2,3.4,2.2,4.288,0,8.575.057,12.86-.033,1.314-.027,1.6.314,1.317,1.554a16.364,16.364,0,0,1-31.642.729c-.628-2.249-.628-2.248,1.7-2.249,1.6,0,3.191.025,4.785-.01a2.242,2.242,0,1,0,.011-4.464c-1.739-.049-3.481-.011-5.217-.011-.121-.585.263-.9.473-1.27,4.9-8.6,9.822-17.183,14.695-25.8a3.587,3.587,0,0,1,3.478-2.032q51.518.042,103.037.006a3.376,3.376,0,0,1,3.335,1.744q7.512,13.234,15.087,26.431c.137.239.407.463.23.916" transform="translate(-7793.107 -5359.162)" fill="#f6f6f6"/>
    <path id="Trazado_267008" data-name="Trazado 267008" d="M194.758,58.847c12.3,2.159,19.534-.778,25.252-10.306,4.183,7.115,10.247,11.217,18.57,11.232,8.3.016,14.359-4.017,18.6-11.2,4.205,7.1,10.265,11.2,18.595,11.2,8.359,0,14.426-4.112,18.614-11.242,3.431,6.081,8.43,9.848,15.252,11.018a19.169,19.169,0,0,0,9.02-.554c.98-.305,1.05-.018,1.05.817q-.024,31.1,0,62.209c0,.816-.176,1.13-1.055,1.1-1.742-.069-3.49-.073-5.232,0-.95.039-1.269-.2-1.248-1.209.068-3.339.026-6.679.026-10.019q0-21.532,0-43.067c0-2.621-.641-3.27-3.245-3.271q-13.385,0-26.768,0c-2.687,0-3.236.551-3.236,3.245q0,26.319.033,52.638c0,1.375-.355,1.7-1.706,1.693q-40.526-.063-81.051-.03c-.819,0-1.573.244-1.57-1.179q.079-31.1.038-62.208c0-.287.036-.574.055-.867" transform="translate(-7791.367 -5351.489)" fill="#f6f6f6"/>
    <path id="Trazado_267009" data-name="Trazado 267009" d="M291.066,86.475c0,6.428-.022,12.858.023,19.286.006,1.012-.207,1.35-1.291,1.343q-10.839-.076-21.679,0c-.993.006-1.36-.175-1.358-1.278q.063-19.285.007-38.573c0-.934.191-1.27,1.21-1.264q10.913.068,21.828,0c1.1-.007,1.288.361,1.281,1.355-.043,6.379-.022,12.758-.022,19.137" transform="translate(-7774.711 -5347.458)" fill="#f6f6f6"/>
    <path id="Trazado_267010" data-name="Trazado 267010" d="M233.541,42.606c4.928,0,9.854.017,14.782-.015.921-.006,1.27.062,1.04,1.193a16.354,16.354,0,0,1-32-.119c-.177-.932.108-1.08.949-1.075,5.076.032,10.152.016,15.229.016" transform="translate(-7786.134 -5352.862)" fill="#f6f6f6"/>
    <path id="Trazado_267011" data-name="Trazado 267011" d="M247.509,42.609h4.176c8.909,0,17.818.026,26.725-.03,1.256-.009,1.355.325,1.094,1.428a16.338,16.338,0,0,1-32.02-.862,2.829,2.829,0,0,1,.025-.537" transform="translate(-7779.167 -5352.865)" fill="#f6f6f6"/>
    <path id="Trazado_267012" data-name="Trazado 267012" d="M278.841,110.518c-3.634,0-7.268-.028-10.9.022-.892.011-1.22-.177-1.176-1.135.081-1.786.053-3.582.009-5.373-.018-.732.122-1.04.959-1.037q11.2.048,22.4.007c.68,0,.973.138.952.9-.052,1.891-.06,3.785,0,5.674.028.849-.323.964-1.045.958-3.734-.028-7.466-.014-11.2-.014" transform="translate(-7774.711 -5338.908)" fill="#f6f6f6"/>
    <path id="Trazado_267013" data-name="Trazado 267013" d="M235.42,62.36q15.7,0,31.4,0c2.575,0,3.214.624,3.215,3.155q.005,21.83,0,43.66c0,2.527-.689,3.224-3.17,3.224q-31.474,0-62.949,0c-2.4,0-3.134-.724-3.134-3.1q0-21.905,0-43.811c0-2.423.687-3.123,3.089-3.124q15.775-.007,31.55,0" transform="translate(-7789.954 -5348.295)" fill="#00c298"/>
    <path id="Trazado_267014" data-name="Trazado 267014" d="M234.615,66.009c9.521,0,19.041.023,28.562-.028,1.237-.007,1.572.31,1.567,1.561q-.072,18.99,0,37.982c0,1.205-.25,1.587-1.526,1.584q-28.636-.065-57.272,0c-1.249,0-1.546-.318-1.542-1.552q.074-18.99-.007-37.982c-.007-1.384.41-1.6,1.659-1.593,9.521.052,19.041.028,28.562.028" transform="translate(-7789.119 -5347.458)" fill="#f6f6f6"/>
  </g>
</svg>
