<svg xmlns="http://www.w3.org/2000/svg" xmlns:xlink="http://www.w3.org/1999/xlink" width="266" height="226.469" viewBox="0 0 266 226.469">
  <defs>
    <clipPath id="clip-path">
      <rect id="Rectángulo_291369" data-name="Rectángulo 291369" width="217.061" height="217.091" fill="#5d8fb8"/>
    </clipPath>
    <clipPath id="clip-path-2">
      <rect id="Rectángulo_292364" data-name="Rectángulo 292364" width="266" height="179.262" fill="none"/>
    </clipPath>
    <clipPath id="clip-path-4">
      <rect id="Rectángulo_292339" data-name="Rectángulo 292339" width="55.103" height="34.404" fill="none"/>
    </clipPath>
    <clipPath id="clip-path-5">
      <rect id="Rectángulo_292340" data-name="Rectángulo 292340" width="20.668" height="12.689" fill="none"/>
    </clipPath>
    <clipPath id="clip-path-6">
      <rect id="Rectángulo_292341" data-name="Rectángulo 292341" width="5.106" height="17.201" fill="none"/>
    </clipPath>
    <clipPath id="clip-path-7">
      <rect id="Rectángulo_292342" data-name="Rectángulo 292342" width="11.806" height="1.764" fill="none"/>
    </clipPath>
    <clipPath id="clip-path-9">
      <rect id="Rectángulo_292345" data-name="Rectángulo 292345" width="36.591" height="5.17" fill="none"/>
    </clipPath>
    <clipPath id="clip-path-11">
      <rect id="Rectángulo_292347" data-name="Rectángulo 292347" width="24.441" height="28.955" fill="#c9c5c5"/>
    </clipPath>
    <clipPath id="clip-path-12">
      <rect id="Rectángulo_292349" data-name="Rectángulo 292349" width="4.894" height="4.893" fill="#538cbc"/>
    </clipPath>
    <clipPath id="clip-path-13">
      <rect id="Rectángulo_292351" data-name="Rectángulo 292351" width="4.893" height="4.894" fill="#538cbc"/>
    </clipPath>
    <clipPath id="clip-path-14">
      <rect id="Rectángulo_292354" data-name="Rectángulo 292354" width="5.702" height="8.979" fill="#3b2626"/>
    </clipPath>
    <clipPath id="clip-path-16">
      <rect id="Rectángulo_292356" data-name="Rectángulo 292356" width="5.248" height="8.464" fill="none"/>
    </clipPath>
    <clipPath id="clip-path-17">
      <rect id="Rectángulo_292357" data-name="Rectángulo 292357" width="11.665" height="6.024" fill="none"/>
    </clipPath>
    <clipPath id="clip-path-19">
      <rect id="Rectángulo_292361" data-name="Rectángulo 292361" width="46.385" height="6.806" fill="#02345d"/>
    </clipPath>
    <clipPath id="clip-path-20">
      <rect id="Rectángulo_292362" data-name="Rectángulo 292362" width="1.317" height="2.04" fill="none"/>
    </clipPath>
  </defs>
  <g id="Grupo_873891" data-name="Grupo 873891" transform="translate(-515 -840.998)">
    <g id="Grupo_873890" data-name="Grupo 873890">
      <g id="Grupo_870717" data-name="Grupo 870717" transform="translate(528.045 840.998)">
        <g id="Grupo_870714" data-name="Grupo 870714" clip-path="url(#clip-path)">
          <path id="Trazado_215321" data-name="Trazado 215321" d="M16.525,105.621c27.129-21.63-19.852-56.536-9.449-91.06s44.729.97,63.2,17.979S110.392,19.118,124.742,18.3s6.274,12.483,12.746,29.711,54.177,2.921,73.3,19.561-11.344,52.052-13.909,73.168,30.376,45.01,9.271,76.35l-104.846-.62c-10.55-3.243-17.432-5.813-17.432-5.813C-14.283,168.268-10.6,127.25,16.525,105.621" transform="translate(0 0)" fill="#5d8fb8"/>
        </g>
      </g>
      <path id="Trazado_264543" data-name="Trazado 264543" d="M209.053,582.976c0,3.35-40.736,6.066-90.986,6.066s-90.986-2.716-90.986-6.066,40.759-3.741,91.01-3.741,90.963.391,90.963,3.741" transform="translate(541.728 478.425)" fill="#033f71" opacity="0.4"/>
    </g>
    <g id="Grupo_873840" data-name="Grupo 873840" transform="translate(515 882.9)">
      <g id="Grupo_873889" data-name="Grupo 873889" clip-path="url(#clip-path-2)">
        <g id="Grupo_873853" data-name="Grupo 873853">
          <g id="Grupo_873852" data-name="Grupo 873852" clip-path="url(#clip-path-2)">
            <path id="Trazado_267352" data-name="Trazado 267352" d="M334.864,86.989a15.138,15.138,0,0,1,4.988,13.088c-.3,2.343-1.077,4.995.365,6.865,1.427,1.851,4.4,1.945,5.766,3.845,1.6,2.236.016,5.37.5,8.08a5.448,5.448,0,0,0,5.589,4.327,21.255,21.255,0,0,1-10.752,4.053l-2.76-3.926a3.908,3.908,0,0,1-.5,4.774,8.9,8.9,0,0,1-4.53,2.4A26.977,26.977,0,0,1,310.1,125.5" transform="translate(-182.154 -51.097)" fill="#263238"/>
            <path id="Trazado_267353" data-name="Trazado 267353" d="M259.815,86.136c.677-1.774,1.748-3.4,2.235-5.232,1.047-3.945-.675-8.527,1.434-12.021,1.5-2.487,4.5-3.594,7.31-4.312s5.826-1.3,7.994-3.231c1.59-1.419,2.553-3.432,4.138-4.856,2.259-2.029,5.474-2.6,8.51-2.634a18.176,18.176,0,0,1,9.045,1.926,9.978,9.978,0,0,1,5.272,7.3c.169,1.511-.092,3.072.31,4.539.442,1.612,1.628,2.908,2.323,4.428a8,8,0,0,1-2.465,9.475l-22.689,26.519c-4.566,1.474-15.327-1.106-18.63-4.586s-6.5-12.829-4.787-17.312" transform="translate(-152.335 -31.63)" fill="#263238"/>
            <path id="Trazado_267354" data-name="Trazado 267354" d="M322.95,93.622c-.573-6.3-4.971-13.93-11.242-13.09l-19.5,5.51A3.7,3.7,0,0,0,289,89.888l3.418,47.3-.135.033s4.816,13.243,17.692,8.83c2.553-.875,3.656-3.72,4.092-6.629l.033-7.484c-.061-3.824-.106-5.392-.1-5.357,0,0,8.027-1.563,9.405-12.131.686-5.256.184-13.828-.453-20.828" transform="translate(-169.756 -47.267)" fill="#ffbe9d"/>
            <path id="Trazado_267355" data-name="Trazado 267355" d="M325.736,134.118a1.349,1.349,0,0,1-1.263,1.4,1.291,1.291,0,0,1-1.425-1.178,1.35,1.35,0,0,1,1.262-1.4,1.292,1.292,0,0,1,1.426,1.179" transform="translate(-189.756 -78.086)" fill="#263238"/>
            <path id="Trazado_267356" data-name="Trazado 267356" d="M359.6,133.006a1.35,1.35,0,0,1-1.263,1.4,1.291,1.291,0,0,1-1.425-1.178,1.35,1.35,0,0,1,1.262-1.4,1.292,1.292,0,0,1,1.426,1.179" transform="translate(-209.646 -77.432)" fill="#263238"/>
            <path id="Trazado_267357" data-name="Trazado 267357" d="M360.161,121.5c-.158.239-1.37-.613-2.947-.462-1.578.125-2.634,1.176-2.83.968-.095-.092.048-.51.506-.984a3.621,3.621,0,0,1,2.236-1.049,3.582,3.582,0,0,1,2.375.645c.531.387.739.774.66.882" transform="translate(-208.149 -70.462)" fill="#263238"/>
            <path id="Trazado_267358" data-name="Trazado 267358" d="M324.178,123.471c-.2.217-1.383-.736-3.071-.746-1.686-.037-2.929.883-3.111.659-.089-.1.108-.493.651-.909a4.089,4.089,0,0,1,2.491-.8,3.983,3.983,0,0,1,2.443.869c.517.432.692.83.6.927" transform="translate(-186.779 -71.472)" fill="#263238"/>
            <path id="Trazado_267359" data-name="Trazado 267359" d="M344.557,133.454a9.611,9.611,0,0,1,2.346-.491c.37-.049.719-.132.774-.387a1.89,1.89,0,0,0-.278-1.092q-.561-1.331-1.175-2.793c-1.634-3.977-2.829-7.252-2.668-7.317s1.616,3.107,3.25,7.085q.591,1.472,1.129,2.811a2.144,2.144,0,0,1,.233,1.45.931.931,0,0,1-.595.559,2.527,2.527,0,0,1-.627.1,9.447,9.447,0,0,1-2.391.07" transform="translate(-201.797 -71.295)" fill="#263238"/>
            <path id="Trazado_267360" data-name="Trazado 267360" d="M329.381,187.436a26.778,26.778,0,0,1-14.2-3.367s3.747,7.286,14.251,6.009Z" transform="translate(-185.139 -108.122)" fill="#eb996e"/>
            <path id="Trazado_267361" data-name="Trazado 267361" d="M338.618,157.85a2.618,2.618,0,0,0-2.373-.906,2.389,2.389,0,0,0-1.625.931,1.514,1.514,0,0,0-.067,1.734,1.756,1.756,0,0,0,1.917.428,5.492,5.492,0,0,0,1.825-1.159,1.591,1.591,0,0,0,.4-.441.484.484,0,0,0-.017-.54" transform="translate(-196.374 -92.174)" fill="#ff725e"/>
            <path id="Trazado_267362" data-name="Trazado 267362" d="M335.407,153.375c.236-.02.283,1.556,1.663,2.637s3.053.861,3.071,1.081c.025.1-.366.316-1.074.356a3.928,3.928,0,0,1-2.561-.814,3.417,3.417,0,0,1-1.293-2.214c-.078-.657.086-1.053.194-1.046" transform="translate(-196.892 -90.092)" fill="#263238"/>
            <path id="Trazado_267363" data-name="Trazado 267363" d="M323.848,115.094c-.132.4-1.587.252-3.285.5-1.7.219-3.063.755-3.3.408-.106-.167.124-.545.668-.942a5.779,5.779,0,0,1,5.016-.7c.632.235.956.536.9.725" transform="translate(-186.346 -67.011)" fill="#263238"/>
            <path id="Trazado_267364" data-name="Trazado 267364" d="M357.435,107.368c-.283.338-1.435.027-2.811.05-1.376-.02-2.533.292-2.81-.045-.122-.164.052-.5.552-.826a4.308,4.308,0,0,1,2.269-.6,4.256,4.256,0,0,1,2.26.6c.5.326.664.661.54.825" transform="translate(-206.633 -62.23)" fill="#263238"/>
            <path id="Trazado_267365" data-name="Trazado 267365" d="M284.73,86.8c1.041-1.442,2.818-2.124,4.506-2.682a96.72,96.72,0,0,1,22.5-4.572c.87,1.606-.109,3.685-1.592,4.751s-3.34,1.424-5.079,1.979-3.539,1.454-4.325,3.1c-.836,1.753-.308,3.9-1.055,5.7-1.285,3.085-5.717,3.883-6.984,6.975-.958,2.339.3,4.939.518,7.457a9.03,9.03,0,0,1-9.361,9.835q-.118-13.553-.237-27.107c-.016-1.882.01-3.907,1.111-5.434" transform="translate(-166.596 -46.725)" fill="#263238"/>
            <path id="Trazado_267366" data-name="Trazado 267366" d="M236.524,116.434c1.485-1.206,3.324-2.221,3.98-4.018.956-2.618-1.026-5.845.467-8.2,1.362-2.146,5.05-1.853,6.326-4.052,1-1.716.028-3.326.449-4.856A4.224,4.224,0,0,1,252,92.791l11.433,18.437c.85,6.038,1.843,9.279.387,12.716a28.484,28.484,0,0,0-2.184,5.724c-.375,2.013.03,4.334,1.628,5.613-7.386.217-14.092-3.972-20.281-8.007L236.427,123a4.931,4.931,0,0,1-1.777-1.634c-.908-1.684.388-3.73,1.874-4.936" transform="translate(-137.656 -54.485)" fill="#263238"/>
            <path id="Trazado_267367" data-name="Trazado 267367" d="M255.031,108.043a3.52,3.52,0,0,0,.779.189,6.7,6.7,0,0,0,2.3-.05,7.107,7.107,0,0,0,3.281-1.564,6.988,6.988,0,0,0,2.315-4.2,7.2,7.2,0,0,0-.1-2.833,11.517,11.517,0,0,0-1.232-2.8,10.837,10.837,0,0,1-1.271-2.906,3.661,3.661,0,0,1,.547-3.1c.713-.864,1.967-1.022,3.143-1.431a3.369,3.369,0,0,0,1.626-1.085,3.3,3.3,0,0,0,.6-1.9,20.981,20.981,0,0,0-.649-3.873,4.184,4.184,0,0,1,.08-1.88,2.625,2.625,0,0,1,1.135-1.44,7.362,7.362,0,0,1,3.77-.812,7.987,7.987,0,0,0,3.847-.93,7.155,7.155,0,0,0,2.733-2.686,11.785,11.785,0,0,0,1.13-3.479,16.488,16.488,0,0,1,.883-3.272,7.36,7.36,0,0,1,1.858-2.523,8.272,8.272,0,0,1,9.713-.883,10.091,10.091,0,0,1,2.728,2.3,13.368,13.368,0,0,1,1.629,2.6.749.749,0,0,0-.061-.194c-.051-.124-.111-.317-.228-.552a9.655,9.655,0,0,0-1.211-1.955,10.025,10.025,0,0,0-2.736-2.4A8.641,8.641,0,0,0,287,63.1a8.779,8.779,0,0,0-5.428,2.091,7.707,7.707,0,0,0-1.97,2.641,16.75,16.75,0,0,0-.925,3.342,11.458,11.458,0,0,1-1.1,3.357,6.755,6.755,0,0,1-2.581,2.521,7.573,7.573,0,0,1-3.662.871,7.73,7.73,0,0,0-3.983.878,3.06,3.06,0,0,0-1.311,1.671,4.6,4.6,0,0,0-.094,2.072,21.176,21.176,0,0,1,.651,3.8,2.883,2.883,0,0,1-.512,1.666,2.965,2.965,0,0,1-1.433.95c-.561.205-1.16.335-1.741.549a3.5,3.5,0,0,0-1.566,1.013,4.029,4.029,0,0,0-.613,3.433,11.127,11.127,0,0,0,1.329,3,11.266,11.266,0,0,1,1.222,2.708,6.928,6.928,0,0,1,.124,2.706,6.764,6.764,0,0,1-2.172,4.064,7.026,7.026,0,0,1-3.157,1.582,7.966,7.966,0,0,1-3.045.025" transform="translate(-149.805 -37.065)" fill="#455a64"/>
            <path id="Trazado_267368" data-name="Trazado 267368" d="M232.254,94.319a1.549,1.549,0,0,0-.272.59,2.643,2.643,0,0,0,.227,1.84,2.8,2.8,0,0,0,.893,1.036,2.934,2.934,0,0,0,1.551.5,3.679,3.679,0,0,0,3.323-1.888,4.932,4.932,0,0,0,.634-2.217,6.871,6.871,0,0,0-.4-2.457c-.506-1.621-1.49-3.224-1.422-5.086a3.4,3.4,0,0,1,.978-2.488,3.721,3.721,0,0,1,2.715-.7,9.038,9.038,0,0,0,3.2-.174,2.773,2.773,0,0,0,1.364-1.039,3.957,3.957,0,0,0,.618-1.6,13.046,13.046,0,0,0-.106-3.284,7.19,7.19,0,0,1,.319-3.023A7.663,7.663,0,0,1,249.522,70a10.849,10.849,0,0,1,5.159-.915,15.071,15.071,0,0,0,4.693-.506,9.9,9.9,0,0,0,5.318-4.143,6.991,6.991,0,0,0,.99-2.292,13.514,13.514,0,0,1-1.13,2.2,9.821,9.821,0,0,1-1.934,2.138,9.606,9.606,0,0,1-3.334,1.806,14.99,14.99,0,0,1-4.6.44,11.117,11.117,0,0,0-5.34.92,8.04,8.04,0,0,0-3.86,4.544,7.606,7.606,0,0,0-.345,3.191,12.83,12.83,0,0,1,.108,3.177,2.746,2.746,0,0,1-1.7,2.306,8.808,8.808,0,0,1-3.047.156,4.113,4.113,0,0,0-3,.821,3.791,3.791,0,0,0-1.1,2.782,7.236,7.236,0,0,0,.539,2.774c.316.852.676,1.645.94,2.434a6.561,6.561,0,0,1,.406,2.331,4.637,4.637,0,0,1-.566,2.08,3.425,3.425,0,0,1-3.052,1.8,2.733,2.733,0,0,1-1.445-.426,2.656,2.656,0,0,1-.859-.943,2.626,2.626,0,0,1-.29-1.743c.084-.407.209-.6.187-.609" transform="translate(-136.221 -36.5)" fill="#263238"/>
            <path id="Trazado_267369" data-name="Trazado 267369" d="M391.012,116.531a2.915,2.915,0,0,1-.118,1.923,2.537,2.537,0,0,1-1.605,1.476,2.662,2.662,0,0,1-2.665-.87,2.446,2.446,0,0,1-.557-1.572,5.089,5.089,0,0,1,.373-1.848c.452-1.227,1.315-2.543,1.272-4.173a5.944,5.944,0,0,0-2.03-4.362,6.964,6.964,0,0,0-2.234-1.319,10.207,10.207,0,0,0-2.6-.505,13.76,13.76,0,0,1-2.531-.391,3.386,3.386,0,0,1-1.92-1.327,4.166,4.166,0,0,1-.609-2.212,8.288,8.288,0,0,1,.3-2.26,17.227,17.227,0,0,0,.87-4.272,6.533,6.533,0,0,0-1.139-3.639,8.435,8.435,0,0,0-2.3-2.143,15.844,15.844,0,0,1-1.853-1.418,4.935,4.935,0,0,1-1.13-1.608c-.007,0,0,.046.025.13a2.07,2.07,0,0,0,.13.368,3.933,3.933,0,0,0,.857,1.229,14.645,14.645,0,0,0,1.829,1.494,8.341,8.341,0,0,1,2.187,2.117,6.263,6.263,0,0,1,1.035,3.469,17.27,17.27,0,0,1-.9,4.176,8.646,8.646,0,0,0-.328,2.365,4.559,4.559,0,0,0,.668,2.436,3.8,3.8,0,0,0,2.148,1.5,13.983,13.983,0,0,0,2.611.409,9.9,9.9,0,0,1,2.5.479,6.577,6.577,0,0,1,2.1,1.233,5.559,5.559,0,0,1,1.913,4.053c.057,1.491-.744,2.755-1.211,4.044a5.378,5.378,0,0,0-.37,1.98,2.754,2.754,0,0,0,.657,1.76,2.913,2.913,0,0,0,2.962.9,2.81,2.81,0,0,0,1.837-3.138,1.541,1.541,0,0,0-.181-.491" transform="translate(-217.653 -50.521)" fill="#263238"/>
            <path id="Trazado_267370" data-name="Trazado 267370" d="M269.69,83.92c-.706,2.336-2.772,3.962-4.127,5.992-1.911,2.862-2.35,6.451-2.391,9.893.1-1.621-.552-3.182-.869-4.775a11.778,11.778,0,0,1,7.913-13.5" transform="translate(-153.946 -47.888)" fill="#263238"/>
            <path id="Trazado_267371" data-name="Trazado 267371" d="M281.47,206.582c1.384-.388-6.843,2.756-7.012,2.811l7.347,11.966,28.486,6.061,10.717-17.411-21.659-6.461Z" transform="translate(-161.216 -119.563)" fill="#ffbe9d"/>
            <path id="Trazado_267372" data-name="Trazado 267372" d="M285.733,250.877l17.357-7.464s-6.6-22.912-8.332-25.342-19.651-7.99-19.651-7.99-6.193,10.329-16.781,11.023-14.6-.4-16.685-9.6c0,0-17.731,4.093-19.119,5.655s-10.732,27.3-10.732,27.3,18.4,5.207,19.093,5.554,1.91,27.6,1.91,27.6-8.218,21.238-8.55,25.057l67.407-.173-6.959-40.158Z" transform="translate(-124.406 -123.402)" fill="#57726a"/>
            <path id="Trazado_267373" data-name="Trazado 267373" d="M245.514,258.87a5.763,5.763,0,0,1,.276.818c.168.571.392,1.332.663,2.254.549,1.905,1.29,4.541,2.094,7.457l1.124,4.114c.166.633.341,1.232.482,1.8s.25,1.1.345,1.589c.189.975.319,1.767.409,2.314a6.027,6.027,0,0,1,.114.855.733.733,0,0,1-.068-.214l-.143-.623-.486-2.3c-.106-.484-.227-1.012-.373-1.574l-.5-1.788c-.352-1.267-.739-2.655-1.143-4.111-.8-2.918-1.52-5.563-2.025-7.481l-.585-2.274a5.579,5.579,0,0,1-.181-.842" transform="translate(-144.213 -152.06)" fill="#263238"/>
            <path id="Trazado_267374" data-name="Trazado 267374" d="M312.212,345.58a1.145,1.145,0,0,1-.2.192l-.6.514c-.522.446-1.3,1.066-2.272,1.811a78.91,78.91,0,0,1-16.519,9.655c-1.128.484-2.049.854-2.693,1.09l-.742.27a1.184,1.184,0,0,1-.265.078,1.122,1.122,0,0,1,.246-.125l.724-.314c.632-.264,1.542-.659,2.657-1.162a90.095,90.095,0,0,0,16.485-9.635c.986-.725,1.776-1.324,2.317-1.745l.628-.477a1.158,1.158,0,0,1,.23-.154" transform="translate(-169.714 -202.993)" fill="#263238"/>
            <g id="Grupo_873842" data-name="Grupo 873842" transform="translate(108.202 122.353)" opacity="0.2">
              <g id="Grupo_873841" data-name="Grupo 873841">
                <g id="Grupo_873840-2" data-name="Grupo 873840" clip-path="url(#clip-path-4)">
                  <path id="Trazado_267375" data-name="Trazado 267375" d="M310.178,307.667c-3.28-3.9-7.862-6.493-12.575-8.431-4.783-1.967-10.032-3.358-15.107-2.363-4.681.918-8.724,3.758-12.582,6.562a15.736,15.736,0,0,0-3.483,3.111,15.05,15.05,0,0,0-2.077,4.595c-1.318,4.174-1.2,9.032-2.109,13.313l.036.762c.883.269,1.278-.141,2.089-.582,4.837-2.625,6.8-9.486,12.138-10.82a25.14,25.14,0,0,1,2.969-.4,16.871,16.871,0,0,0,7.211-2.761,6.135,6.135,0,0,1,2.812-1.344,5.757,5.757,0,0,1,3.1,1.086,31.8,31.8,0,0,0,8.991,3.406,2.892,2.892,0,0,1,1.2.441,2.84,2.84,0,0,1,.8,1.388,31.47,31.47,0,0,0,4.928,9.52,15.934,15.934,0,0,0,8.835,5.793c-.7-8.226-1.858-16.961-7.171-23.28" transform="translate(-262.245 -296.542)"/>
                </g>
              </g>
            </g>
            <g id="Grupo_873845" data-name="Grupo 873845" transform="translate(123.314 146.282)" opacity="0.2">
              <g id="Grupo_873844" data-name="Grupo 873844">
                <g id="Grupo_873843" data-name="Grupo 873843" clip-path="url(#clip-path-5)">
                  <path id="Trazado_267376" data-name="Trazado 267376" d="M298.871,366.773c3.726,1.294,9.927-.4,13.372-2.32a16.264,16.264,0,0,0,7.3-9.916c-5.805,3.773-14.341,9.425-20.668,12.236" transform="translate(-298.871 -354.537)"/>
                </g>
              </g>
            </g>
            <g id="Grupo_873848" data-name="Grupo 873848" transform="translate(101.374 109.088)" opacity="0.2">
              <g id="Grupo_873847" data-name="Grupo 873847">
                <g id="Grupo_873846" data-name="Grupo 873846" clip-path="url(#clip-path-6)">
                  <path id="Trazado_267377" data-name="Trazado 267377" d="M248.411,272.073c-.8-2.5-1.4-5.178-2.2-7.681h-.092a24.917,24.917,0,0,0,.024,9.269,14.541,14.541,0,0,0,4.66,7.932,71.792,71.792,0,0,0-2.389-9.52" transform="translate(-245.694 -264.392)"/>
                </g>
              </g>
            </g>
            <path id="Trazado_267378" data-name="Trazado 267378" d="M242.166,234.069a17.818,17.818,0,0,1-1.786-5.875c.072-.014.384,1.324.878,2.942s.975,2.905.907,2.933" transform="translate(-141.192 -134.041)" fill="#263238"/>
            <path id="Trazado_267379" data-name="Trazado 267379" d="M396.527,241.943c.068.01-.784,5.939-1.9,13.239s-2.085,13.213-2.153,13.2.784-5.937,1.905-13.24,2.085-13.211,2.153-13.2" transform="translate(-230.533 -142.117)" fill="#263238"/>
            <path id="Trazado_267380" data-name="Trazado 267380" d="M295.184,206.491c-8.128-4.744-23.2-2.346-23.2-2.346a9.759,9.759,0,0,0-9.619-3.49,1.255,1.255,0,0,0-1.023,1.259l.1,6.184c-6.175,2.54-7.628,10.488-7.628,10.488l-2.781.78a2.3,2.3,0,0,0-1.679,2.253l.1,5.986a2.3,2.3,0,0,0,1.815,2.211l2.742.592c3.253,5.066,6.444,7.8,10.742,9.239l.1,5.332,8.775-.146,2.032-3.7,9.9-.26,1.621,4.024,9.116-.441.094-6.27c6.255-5.1,7.953-8.37,8.094-15.2s-1.44-11.907-9.3-16.5" transform="translate(-146.471 -117.759)" fill="#ff725e"/>
            <path id="Trazado_267381" data-name="Trazado 267381" d="M271.58,240.142a1.352,1.352,0,1,0,.33-.1" transform="translate(-159.083 -140.993)" fill="#263238"/>
            <path id="Trazado_267382" data-name="Trazado 267382" d="M281.777,209.7a8.341,8.341,0,0,1-.128-1.088,16.548,16.548,0,0,0-1.378-5.05,8.4,8.4,0,0,1-.442-1,4.2,4.2,0,0,1,.579.937,12.926,12.926,0,0,1,1.392,5.1,4.173,4.173,0,0,1-.023,1.1" transform="translate(-164.369 -118.983)" fill="#263238"/>
            <g id="Grupo_873851" data-name="Grupo 873851" transform="translate(128.223 88.764)" opacity="0.3">
              <g id="Grupo_873850" data-name="Grupo 873850">
                <g id="Grupo_873849" data-name="Grupo 873849" clip-path="url(#clip-path-7)">
                  <path id="Trazado_267383" data-name="Trazado 267383" d="M310.767,215.849l.572,1.048a33.98,33.98,0,0,1,11.233-.186l-1.088-1.191a26.941,26.941,0,0,0-10.717.328" transform="translate(-310.767 -215.133)"/>
                </g>
              </g>
            </g>
            <path id="Trazado_267384" data-name="Trazado 267384" d="M253.867,257.207c.01.622-.217,1.13-.508,1.135s-.535-.5-.545-1.117.217-1.13.507-1.135.535.5.545,1.117" transform="translate(-148.503 -150.427)" fill="#263238"/>
            <path id="Trazado_267385" data-name="Trazado 267385" d="M252,256.349a3.036,3.036,0,0,0,.5.081,1.572,1.572,0,0,0,1.218-.47,3.216,3.216,0,0,0,.548-.761,4.756,4.756,0,0,0,.337-1.03,9.782,9.782,0,0,0,.3-2.488,9.324,9.324,0,0,0-.323-2.481,2.848,2.848,0,0,0-1.148-1.6,2.188,2.188,0,0,0-1.291-.354c-.323.021-.492.1-.5.083s.037-.029.118-.067a1.52,1.52,0,0,1,.374-.1,2.17,2.17,0,0,1,1.379.307,2.953,2.953,0,0,1,1.257,1.671,9.058,9.058,0,0,1,.35,2.54,9.509,9.509,0,0,1-.326,2.54,4.738,4.738,0,0,1-.371,1.065,3.284,3.284,0,0,1-.6.785,1.445,1.445,0,0,1-.715.4,1.834,1.834,0,0,1-.615.042,1.265,1.265,0,0,1-.376-.094c-.081-.036-.119-.065-.116-.07" transform="translate(-147.814 -145.172)" fill="#263238"/>
            <path id="Trazado_267386" data-name="Trazado 267386" d="M317.323,294.064a1.428,1.428,0,0,1-.276.079l-.8.186c-.7.162-1.713.361-2.974.576s-2.771.425-4.453.6-3.54.3-5.492.349-3.814.005-5.5-.078-3.208-.227-4.478-.382-2.295-.3-3-.428l-.81-.146a1.413,1.413,0,0,1-.28-.065,1.454,1.454,0,0,1,.287.023l.816.106c.707.1,1.733.228,3,.36s2.785.252,4.471.335,3.542.1,5.489.061,3.8-.177,5.478-.332,3.187-.358,4.448-.556,2.28-.371,2.981-.508l.81-.146a1.447,1.447,0,0,1,.285-.037" transform="translate(-169.908 -172.732)" fill="#263238"/>
            <path id="Trazado_267387" data-name="Trazado 267387" d="M292.505,209.259a1.566,1.566,0,0,1-.06.44,6.876,6.876,0,0,1-.359,1.156,7.921,7.921,0,0,1-5.977,4.844,6.911,6.911,0,0,1-1.206.111,1.555,1.555,0,0,1-.443-.033c0-.041.633-.017,1.619-.227a8.241,8.241,0,0,0,5.867-4.754c.41-.921.519-1.546.558-1.537" transform="translate(-167.092 -122.918)" fill="#263238"/>
            <path id="Trazado_267388" data-name="Trazado 267388" d="M268.57,220.78c.021.031-.487.377-1.236,1.02a16.663,16.663,0,0,0-4.5,6.166c-.385.909-.56,1.5-.6,1.487a1.676,1.676,0,0,1,.087-.424,10.646,10.646,0,0,1,.367-1.12,14.808,14.808,0,0,1,4.546-6.226,10.449,10.449,0,0,1,.956-.69,1.672,1.672,0,0,1,.377-.213" transform="translate(-154.035 -129.685)" fill="#fff"/>
            <path id="Trazado_267389" data-name="Trazado 267389" d="M253.712,245.841a12.8,12.8,0,0,1,2.227-.552,4.1,4.1,0,0,1-2.227.552" transform="translate(-149.03 -144.075)" fill="#fff"/>
            <path id="Trazado_267390" data-name="Trazado 267390" d="M250.054,255.784a3.652,3.652,0,0,1-.184-.938,18.6,18.6,0,0,1,0-4.6,3.656,3.656,0,0,1,.187-.937c.064.009-.119,1.451-.117,3.238s.174,3.229.109,3.238" transform="translate(-146.691 -146.443)" fill="#fff"/>
            <path id="Trazado_267391" data-name="Trazado 267391" d="M278.947,203.131c.064.007-.08,1.418-.048,3.159s.216,3.146.152,3.156a3.512,3.512,0,0,1-.194-.911,18.518,18.518,0,0,1-.074-4.486,3.524,3.524,0,0,1,.163-.918" transform="translate(-163.698 -119.319)" fill="#fff"/>
            <path id="Trazado_267392" data-name="Trazado 267392" d="M287.916,202.84a12.595,12.595,0,0,0-6.956-1.322,3.612,3.612,0,0,1,1.047-.187,9.608,9.608,0,0,1,5,.951,3.616,3.616,0,0,1,.906.558" transform="translate(-165.036 -118.243)" fill="#fff"/>
            <path id="Trazado_267393" data-name="Trazado 267393" d="M323.432,219.456c-.007.034-.631-.08-1.646-.207a30.367,30.367,0,0,0-7.961.04c-1.013.137-1.636.257-1.643.224a1.8,1.8,0,0,1,.428-.13c.279-.071.686-.156,1.192-.244a24.692,24.692,0,0,1,8.005-.041c.508.083.916.164,1.195.232a1.8,1.8,0,0,1,.43.125" transform="translate(-183.375 -128.519)" fill="#fff"/>
            <path id="Trazado_267394" data-name="Trazado 267394" d="M322.926,209.693a3.6,3.6,0,0,1-.625-.107c-.4-.086-.977-.2-1.693-.323a38.792,38.792,0,0,0-11.317-.314c-.722.085-1.306.165-1.708.229a3.591,3.591,0,0,1-.63.073,3.577,3.577,0,0,1,.615-.155c.4-.089.98-.193,1.7-.3a33.906,33.906,0,0,1,11.364.316c.716.145,1.291.28,1.685.391a3.571,3.571,0,0,1,.606.189" transform="translate(-180.304 -122.451)" fill="#fff"/>
            <path id="Trazado_267395" data-name="Trazado 267395" d="M276.758,283.123a1.515,1.515,0,0,1-.407-.05,9.636,9.636,0,0,1-1.086-.266,13.528,13.528,0,0,1-6.158-3.921,9.565,9.565,0,0,1-.7-.871,1.537,1.537,0,0,1-.218-.348c.03-.023.382.441,1.03,1.115a15.254,15.254,0,0,0,6.094,3.879c.885.3,1.454.424,1.446.461" transform="translate(-157.533 -163.101)" fill="#fff"/>
            <path id="Trazado_267396" data-name="Trazado 267396" d="M354.548,274.44a4.148,4.148,0,0,1-.352.583,6.541,6.541,0,0,1-.462.652c-.193.245-.4.536-.669.821a12.051,12.051,0,0,1-.888.928c-.323.331-.708.641-1.106.977a16.443,16.443,0,0,1-5.994,3.038c-.505.122-.983.249-1.441.314a11.972,11.972,0,0,1-1.274.167c-.39.05-.746.043-1.057.054a6.525,6.525,0,0,1-.8-.013,4.2,4.2,0,0,1-.678-.061,4.11,4.11,0,0,1,.68-.023,7.822,7.822,0,0,0,.793-.023c.309-.022.661-.026,1.046-.085s.81-.1,1.257-.191c.452-.072.923-.2,1.421-.33a17.072,17.072,0,0,0,5.924-3c.4-.327.781-.628,1.106-.951.342-.3.633-.614.9-.9s.487-.558.687-.793a7.723,7.723,0,0,0,.488-.626,4.156,4.156,0,0,1,.42-.535" transform="translate(-199.615 -161.206)" fill="#fff"/>
            <path id="Trazado_267397" data-name="Trazado 267397" d="M215.351,295.971c-.011,0-3.347,19.368-3.78,22.661s.458,10.792,3.144,13.046,4.947,2.821,6.853,2.474,7.887-6.587,10.14-9.1,13.567-22.868,13.567-22.868l-10.447-4.645-6.108,7.407,1.378-4.693Z" transform="translate(-124.215 -173.853)" fill="#ffbe9d"/>
            <path id="Trazado_267398" data-name="Trazado 267398" d="M235.012,317.159a4.059,4.059,0,0,1-.407.594l-1.174,1.571c-.5.659-1.1,1.44-1.806,2.283a27.147,27.147,0,0,1-2.433,2.618,16.994,16.994,0,0,1-2.929,2.054c-.941.56-1.783,1.065-2.447,1.552a13.03,13.03,0,0,0-1.968,1.789c-.007-.005.026-.061.1-.161a4.323,4.323,0,0,1,.326-.425,8.962,8.962,0,0,1,1.44-1.344,27.758,27.758,0,0,1,2.433-1.608,17.731,17.731,0,0,0,2.88-2.042,29.46,29.46,0,0,0,2.425-2.581c.707-.832,1.324-1.6,1.843-2.243l1.237-1.522a3.857,3.857,0,0,1,.484-.534" transform="translate(-130.314 -186.299)" fill="#eb996e"/>
            <path id="Trazado_267399" data-name="Trazado 267399" d="M264.684,283.041s3.259-2.739,4.285-1.942,1.087,1.533.659,2.084-2.893,3.681-2.893,3.681l1.821,1.72,3.24-1.057,1.389-.332s3.332.078,2.624,2.317c0,0,3.446-1.1,4.069-1.15.952-.079,3.351-.318,3.01.924a2.71,2.71,0,0,1-1.675,1.684,1.13,1.13,0,0,1,.614,1.839,4.028,4.028,0,0,1-2.185,1.642l-5.429,2.175a2.935,2.935,0,0,1-2.074.041l-1.714-.609-3.372,1.471s-6.8-1.961-7.786-7.908l.886-1.843.58-1.088s-.8-5.074-.812-5.761a24.067,24.067,0,0,0-1.558-3.955.778.778,0,0,1,.83-1.091,5.067,5.067,0,0,1,2.437,1.268,7.19,7.19,0,0,1,2.63,4.009l.495,2" transform="translate(-151.72 -162.047)" fill="#ffbe9d"/>
            <path id="Trazado_267400" data-name="Trazado 267400" d="M267.132,292.523c-.012-.016.228-.184.616-.539s.911-.907,1.582-1.578c.335-.337.733-.675,1.162-1.028a7.117,7.117,0,0,1,1.493-1,2.656,2.656,0,0,1,.961-.253,1.864,1.864,0,0,1,.522.044,1.056,1.056,0,0,1,.265.084,1.9,1.9,0,0,1,.231.141,1.466,1.466,0,0,1,.4.393.868.868,0,0,1,.1.275l.073.249a1.036,1.036,0,0,1,.05.585,4.341,4.341,0,0,1-.184.519,8.014,8.014,0,0,1-1.148,1.792,15.235,15.235,0,0,1-1.325,1.461,9.214,9.214,0,0,1-2.7,1.954,2.681,2.681,0,0,1-2.223-.033,1.693,1.693,0,0,1-.492-.371.554.554,0,0,1-.125-.174,2.381,2.381,0,0,0,2.778.423,9.369,9.369,0,0,0,2.613-1.955,15.647,15.647,0,0,0,1.3-1.449,7.958,7.958,0,0,0,1.112-1.741,4.241,4.241,0,0,0,.175-.493.836.836,0,0,0-.049-.454l-.074-.254a.627.627,0,0,0-.07-.214,1.256,1.256,0,0,0-.33-.326,1.666,1.666,0,0,0-.2-.124.851.851,0,0,0-.212-.066,1.624,1.624,0,0,0-.461-.041,2.454,2.454,0,0,0-.883.226,7.1,7.1,0,0,0-1.459.95c-.434.346-.831.671-1.169,1-.68.65-1.22,1.2-1.637,1.527-.206.168-.373.288-.49.365a.738.738,0,0,1-.186.1" transform="translate(-156.472 -169.245)" fill="#eb996e"/>
            <path id="Trazado_267401" data-name="Trazado 267401" d="M270.1,293.355a7.833,7.833,0,0,1-2.707,0,7.833,7.833,0,0,1,2.707,0" transform="translate(-157.067 -172.247)" fill="#eb996e"/>
            <path id="Trazado_267402" data-name="Trazado 267402" d="M274.048,305.651a1.17,1.17,0,0,1,.242-.12l.71-.3,2.627-1.063c.555-.219,1.161-.477,1.846-.674a5.161,5.161,0,0,1,2.264-.193,3.282,3.282,0,0,1,1.176.421,1.513,1.513,0,0,1,.8,1.051,1.45,1.45,0,0,1-.586,1.239,4.579,4.579,0,0,1-1.233.624l-4.794,1.874a14.118,14.118,0,0,1-2.146.708,4.368,4.368,0,0,1-1.98.016,2.034,2.034,0,0,1-1.311-.963,3,3,0,0,1-.344-1.185,5.7,5.7,0,0,1-.02-.774,1.071,1.071,0,0,1,.026-.269c.024,0,0,.373.085,1.031a3,3,0,0,0,.366,1.129,1.9,1.9,0,0,0,1.238.868,4.25,4.25,0,0,0,1.9-.045,14.349,14.349,0,0,0,2.108-.719l4.787-1.892a4.428,4.428,0,0,0,1.172-.587,1.225,1.225,0,0,0,.5-1.031,1.3,1.3,0,0,0-.691-.884,3.081,3.081,0,0,0-1.095-.4,5.014,5.014,0,0,0-2.176.167c-.671.185-1.278.431-1.838.641l-2.654.993-.726.259a1.181,1.181,0,0,1-.259.075" transform="translate(-159.36 -178.128)" fill="#eb996e"/>
            <path id="Trazado_267403" data-name="Trazado 267403" d="M289.311,307.074a1.035,1.035,0,0,1,.231-.111l.679-.272a16.556,16.556,0,0,1,2.574-.8,8.191,8.191,0,0,1,1.863-.175,5.5,5.5,0,0,1,1.05.114.967.967,0,0,1,.51.306.934.934,0,0,1,.2.581,1.42,1.42,0,0,1-.534,1.082,6.931,6.931,0,0,1-1.009.689,17.493,17.493,0,0,1-2.28,1.121,45.3,45.3,0,0,1-4.647,1.524l-2.047.588a18.3,18.3,0,0,1-1.806.463,3.454,3.454,0,0,1-1.551-.046,2.256,2.256,0,0,1-1-.611,1.539,1.539,0,0,1-.37-.64.738.738,0,0,1-.036-.255,1.838,1.838,0,0,0,.472.831,2.213,2.213,0,0,0,.97.548,3.379,3.379,0,0,0,1.485.008c.55-.1,1.14-.3,1.78-.487l2.041-.609c1.436-.43,3.024-.88,4.619-1.534a17.7,17.7,0,0,0,2.252-1.1,6.832,6.832,0,0,0,.976-.658,1.2,1.2,0,0,0,.467-.911.683.683,0,0,0-.55-.691,5.46,5.46,0,0,0-1-.118,8.2,8.2,0,0,0-1.825.143,19.188,19.188,0,0,0-2.575.722l-.694.23a1.058,1.058,0,0,1-.247.066" transform="translate(-165.141 -179.576)" fill="#eb996e"/>
            <path id="Trazado_267404" data-name="Trazado 267404" d="M360.418,302.542s11.913,30.064,18.64,30.851c7.166.84,14.119-5.511,12.814-16.476-.5-4.207-3.434-24.014-3.434-24.014l-14.916,6.414,3.964,8.215-5.877-9.174Z" transform="translate(-211.709 -172.052)" fill="#ffbe9d"/>
            <path id="Trazado_267405" data-name="Trazado 267405" d="M405.214,333.529c-.025,0-.01-.385-.046-1.076a11.975,11.975,0,0,0-.46-2.875,7.579,7.579,0,0,0-2.265-3.584c-.595-.535-1.364-.966-2.023-1.586a20.992,20.992,0,0,1-1.949-1.977,66.781,66.781,0,0,1-5.655-7.884c-.662-1.05-1.185-1.906-1.544-2.5l-.409-.686a1.176,1.176,0,0,1-.128-.248,1.135,1.135,0,0,1,.171.221l.449.661,1.611,2.456a75.56,75.56,0,0,0,5.695,7.814,21.3,21.3,0,0,0,1.922,1.958c.641.609,1.391,1.032,2.014,1.6a7.651,7.651,0,0,1,2.282,3.708,11.061,11.061,0,0,1,.387,2.922c0,.348-.007.618-.021.8a1.167,1.167,0,0,1-.031.278" transform="translate(-229.517 -182.747)" fill="#eb996e"/>
            <path id="Trazado_267406" data-name="Trazado 267406" d="M348.731,278.276c.637,1.061,2.082,4.329,2.082,4.329s3.876,5.554,3.687,9.22c-.037.711-2.273,2.167-2.273,2.167s-7.072,5.3-8.77,5.658-4.244-1.273-4.526-1.344-9.832-6.155-9.881-7.014a1.8,1.8,0,0,1,1.032-1.85l10.829-.614,5.148-4.031-.228-2.993" transform="translate(-193.282 -163.459)" fill="#ffbe9d"/>
            <path id="Trazado_267407" data-name="Trazado 267407" d="M355.171,304.062a4.29,4.29,0,0,1-.583.433l-1.635,1.107c-.7.463-1.5,1.01-2.457,1.616a1.949,1.949,0,0,1-.877.127c-.287,0-.58.018-.878.033-.6.032-1.214.085-1.848.137a32.478,32.478,0,0,1-3.593.16,3.7,3.7,0,0,1-1.563-.34,1.379,1.379,0,0,1-.8-1.137,1.619,1.619,0,0,1,.372-1.093,2.2,2.2,0,0,1,.678-.538,2.818,2.818,0,0,1,.5-.205.521.521,0,0,1,.185-.038c.008.021-.246.091-.642.323a2.234,2.234,0,0,0-.62.54,1.5,1.5,0,0,0-.309,1,1.2,1.2,0,0,0,.722.975,3.573,3.573,0,0,0,1.477.3c1.1.018,2.3-.068,3.569-.178.633-.053,1.254-.1,1.855-.133.3-.014.6-.025.887-.028a1.781,1.781,0,0,0,.784-.1l2.462-1.561,1.677-1.045a4.213,4.213,0,0,1,.632-.356" transform="translate(-200.267 -178.605)" fill="#eb996e"/>
            <path id="Trazado_267408" data-name="Trazado 267408" d="M349.5,309.988a.794.794,0,0,1-.213.061l-.62.129-2.288.43-3.4.609-2.008.352c-.349.056-.7.132-1.075.169a1.843,1.843,0,0,1-1.139-.224c-.342-.2-.62-.436-.922-.639s-.6-.406-.894-.591a11.966,11.966,0,0,0-1.794-.923c-.592-.244-1.2-.39-1.738-.621a4.762,4.762,0,0,1-1.365-.889c-.368-.335-.682-.643-.952-.935a1.438,1.438,0,0,1-.43-.922.829.829,0,0,1,.225-.6.39.39,0,0,1,.193-.115c.006.01-.068.04-.159.147a.811.811,0,0,0-.168.568c.007.559.688,1.088,1.4,1.735a4.686,4.686,0,0,0,1.331.834c.525.215,1.131.354,1.744.6a11.857,11.857,0,0,1,1.834.928c.3.186.607.385.908.6s.6.448.9.626c.617.383,1.369.129,2.059.033l2.011-.338,3.407-.559,2.3-.357.628-.085a.8.8,0,0,1,.222-.014" transform="translate(-194.229 -179.319)" fill="#eb996e"/>
            <path id="Trazado_267409" data-name="Trazado 267409" d="M359.4,324.868a3.882,3.882,0,0,1-.977.293,21.831,21.831,0,0,1-2.424.406,19.587,19.587,0,0,1-2.457.133,1.485,1.485,0,0,1-.987-.277,4.113,4.113,0,0,0,.988.11c.618-.028,1.484-.1,2.429-.2s1.8-.237,2.419-.335a5.027,5.027,0,0,1,1.008-.129" transform="translate(-207.091 -190.822)" fill="#eb996e"/>
            <path id="Trazado_267410" data-name="Trazado 267410" d="M368.188,313.548c.009,0,0,.058-.021.164a2.179,2.179,0,0,1-.165.444,3.287,3.287,0,0,1-1.208,1.244,5.359,5.359,0,0,1-1.091.51c-.2.07-.375.157-.428.335s-.066.446-.153.68a2.568,2.568,0,0,1-.911,1.259,4.093,4.093,0,0,1-1.539.607,6.835,6.835,0,0,0-1.518.449c-.436.239-.873.525-1.281.766-.208.124-.4.248-.619.359a2.009,2.009,0,0,1-.672.174,3.472,3.472,0,0,1-1.207-.132,9.719,9.719,0,0,1-1.609-.633,3.05,3.05,0,0,1-.557-.3,3.036,3.036,0,0,1,.6.209,12.387,12.387,0,0,0,1.613.55,3.381,3.381,0,0,0,1.143.1,1.819,1.819,0,0,0,.6-.166c.183-.095.386-.229.588-.354.415-.253.818-.525,1.3-.791a6.8,6.8,0,0,1,1.572-.474,3.92,3.92,0,0,0,1.449-.562,2.354,2.354,0,0,0,.837-1.133c.085-.217.085-.427.165-.683a.805.805,0,0,1,.567-.456,5.435,5.435,0,0,0,1.068-.465,3.4,3.4,0,0,0,1.215-1.14c.2-.345.25-.568.273-.561" transform="translate(-208.649 -184.178)" fill="#eb996e"/>
            <path id="Trazado_267411" data-name="Trazado 267411" d="M364.227,291.438a67.324,67.324,0,0,1-6.425,5.121,67.249,67.249,0,0,1,6.425-5.121" transform="translate(-210.172 -171.19)" fill="#eb996e"/>
          </g>
        </g>
        <g id="Grupo_873858" data-name="Grupo 873858">
          <g id="Grupo_873857" data-name="Grupo 873857" clip-path="url(#clip-path-2)">
            <path id="Trazado_267412" data-name="Trazado 267412" d="M561.413,222.755a29.246,29.246,0,1,1-29.246-29.246,29.246,29.246,0,0,1,29.246,29.246" transform="translate(-295.415 -113.667)" fill="#f5f5f5"/>
            <path id="Trazado_267413" data-name="Trazado 267413" d="M561.259,222.628s-.012-.161-.023-.474-.009-.781-.064-1.39a29.569,29.569,0,0,0-.837-5.275,29.086,29.086,0,0,0-1.2-3.668,28.256,28.256,0,0,0-2.036-4.112,29.55,29.55,0,0,0-7.42-8.29,29.111,29.111,0,0,0-12.282-5.444,29.642,29.642,0,0,0-11.425.135,31.091,31.091,0,0,0-3.9,1.112,29.232,29.232,0,0,0-13.55,10.165,28.746,28.746,0,0,0-2.376,3.825,27.218,27.218,0,0,0-1.782,4.214,29.141,29.141,0,0,0,0,18.4c.232.734.522,1.444.8,2.155.314.7.619,1.393.978,2.061a28.716,28.716,0,0,0,2.376,3.826,29.23,29.23,0,0,0,13.552,10.168,31.174,31.174,0,0,0,3.9,1.112,29.655,29.655,0,0,0,11.427.134,29.108,29.108,0,0,0,12.283-5.446,29.55,29.55,0,0,0,7.419-8.29,28.208,28.208,0,0,0,2.035-4.112,29.008,29.008,0,0,0,1.2-3.668,29.556,29.556,0,0,0,.837-5.274c.055-.609.045-1.077.064-1.39s.023-.474.023-.474.016.643-.044,1.866a28.549,28.549,0,0,1-1.986,8.977,28.2,28.2,0,0,1-2.028,4.136,29.6,29.6,0,0,1-7.43,8.349,29.238,29.238,0,0,1-12.342,5.5,29.8,29.8,0,0,1-11.5-.12,31.264,31.264,0,0,1-3.926-1.116,29.412,29.412,0,0,1-13.654-10.229,28.805,28.805,0,0,1-2.395-3.853c-.362-.673-.67-1.375-.986-2.076-.284-.715-.576-1.431-.81-2.17a29.331,29.331,0,0,1,0-18.534,27.334,27.334,0,0,1,1.8-4.245,28.9,28.9,0,0,1,2.395-3.852,29.41,29.41,0,0,1,13.652-10.226,31.253,31.253,0,0,1,3.925-1.116,29.8,29.8,0,0,1,11.5-.12,29.236,29.236,0,0,1,12.342,5.5,29.6,29.6,0,0,1,7.431,8.349,28.159,28.159,0,0,1,2.028,4.135,28.549,28.549,0,0,1,1.987,8.978c.06,1.223.044,1.867.044,1.867" transform="translate(-295.262 -113.54)" fill="#263238"/>
            <path id="Trazado_267414" data-name="Trazado 267414" d="M567.156,260.841H536.573a3,3,0,0,1-3-3V239.174a3,3,0,0,1,3-3h30.584a3,3,0,0,1,3,3v18.663a3,3,0,0,1-3,3" transform="translate(-313.418 -138.727)" fill="#636363"/>
            <g id="Grupo_873856" data-name="Grupo 873856" transform="translate(220.151 102.773)" opacity="0.3">
              <g id="Grupo_873855" data-name="Grupo 873855">
                <g id="Grupo_873854" data-name="Grupo 873854" clip-path="url(#clip-path-9)">
                  <rect id="Rectángulo_292344" data-name="Rectángulo 292344" width="36.591" height="5.17" fill="#fff"/>
                </g>
              </g>
            </g>
            <path id="Trazado_267415" data-name="Trazado 267415" d="M553.72,282.442c0,.059-2.983.107-6.661.107s-6.662-.048-6.662-.107,2.982-.107,6.662-.107,6.661.048,6.661.107" transform="translate(-317.428 -165.843)" fill="#263238"/>
            <path id="Trazado_267416" data-name="Trazado 267416" d="M556.526,279.578c0,.059-3.611.107-8.064.107s-8.066-.048-8.066-.107,3.61-.107,8.066-.107,8.064.048,8.064.107" transform="translate(-317.428 -164.161)" fill="#263238"/>
            <path id="Trazado_267417" data-name="Trazado 267417" d="M602.458,269.3a2.146,2.146,0,1,1-2.146-2.149,2.147,2.147,0,0,1,2.146,2.149" transform="translate(-351.362 -156.923)" fill="#fff"/>
            <path id="Trazado_267418" data-name="Trazado 267418" d="M607.22,271.531a2.172,2.172,0,1,1,2.168-2.172,2.172,2.172,0,0,1-2.168,2.172m0-3.93a1.759,1.759,0,1,0,1.756,1.759,1.759,1.759,0,0,0-1.756-1.759" transform="translate(-355.407 -156.946)" fill="#fff"/>
          </g>
        </g>
        <g id="Grupo_873872" data-name="Grupo 873872">
          <g id="Grupo_873871" data-name="Grupo 873871" clip-path="url(#clip-path-2)">
            <path id="Trazado_267419" data-name="Trazado 267419" d="M491.879,29.463A29.246,29.246,0,1,1,462.632.217a29.246,29.246,0,0,1,29.246,29.246" transform="translate(-254.571 -0.127)" fill="#f5f5f5"/>
            <path id="Trazado_267420" data-name="Trazado 267420" d="M491.725,29.336s-.012-.16-.023-.474-.009-.781-.064-1.39A29.521,29.521,0,0,0,490.8,22.2a29.08,29.08,0,0,0-1.2-3.668,28.211,28.211,0,0,0-2.036-4.112,29.547,29.547,0,0,0-7.42-8.29A29.1,29.1,0,0,0,467.862.683a29.641,29.641,0,0,0-11.425.135,31.093,31.093,0,0,0-3.9,1.112,29.232,29.232,0,0,0-13.55,10.165,28.7,28.7,0,0,0-2.376,3.825,27.239,27.239,0,0,0-1.782,4.214,29.14,29.14,0,0,0,0,18.4c.232.734.522,1.444.8,2.155.314.7.619,1.393.979,2.061a28.664,28.664,0,0,0,2.376,3.826,29.23,29.23,0,0,0,13.552,10.168,31.1,31.1,0,0,0,3.9,1.112,29.657,29.657,0,0,0,11.427.134,29.1,29.1,0,0,0,12.283-5.446,29.552,29.552,0,0,0,7.419-8.29,28.209,28.209,0,0,0,2.035-4.112,29.007,29.007,0,0,0,1.2-3.668,29.518,29.518,0,0,0,.837-5.274c.055-.609.045-1.077.064-1.39s.023-.474.023-.474.017.644-.044,1.866a28.556,28.556,0,0,1-1.986,8.977,28.209,28.209,0,0,1-2.028,4.135,29.6,29.6,0,0,1-7.43,8.349,29.238,29.238,0,0,1-12.342,5.5,29.8,29.8,0,0,1-11.5-.12,31.277,31.277,0,0,1-3.925-1.116A29.413,29.413,0,0,1,438.818,46.7a28.841,28.841,0,0,1-2.395-3.853c-.362-.673-.67-1.375-.986-2.076-.283-.715-.576-1.43-.81-2.17a29.331,29.331,0,0,1,0-18.534,27.428,27.428,0,0,1,1.8-4.245,28.89,28.89,0,0,1,2.395-3.852A29.41,29.41,0,0,1,452.471,1.744,31.319,31.319,0,0,1,456.4.628a29.794,29.794,0,0,1,11.5-.12,29.23,29.23,0,0,1,12.342,5.5,29.6,29.6,0,0,1,7.43,8.349,28.2,28.2,0,0,1,2.028,4.135,28.553,28.553,0,0,1,1.987,8.978c.06,1.223.044,1.867.044,1.867" transform="translate(-254.417 0)" fill="#263238"/>
            <path id="Trazado_267421" data-name="Trazado 267421" d="M499.188,38.345l-11.443.04v.078L486.067,67.3l24.441-.085-.061-17.639Z" transform="translate(-285.516 -22.524)" fill="#ff725e"/>
            <g id="Grupo_873861" data-name="Grupo 873861" transform="translate(200.552 15.821)" opacity="0.979">
              <g id="Grupo_873860" data-name="Grupo 873860">
                <g id="Grupo_873859" data-name="Grupo 873859" clip-path="url(#clip-path-11)">
                  <path id="Trazado_267422" data-name="Trazado 267422" d="M499.188,38.345l-11.443.04v.078L486.067,67.3l24.441-.085-.061-17.639Z" transform="translate(-486.067 -38.345)" fill="#c9c5c5"/>
                </g>
              </g>
            </g>
            <path id="Trazado_267423" data-name="Trazado 267423" d="M473.9,38.441,462.489,49.187l.063,18.2,22.886-.079L485.376,49.5Z" transform="translate(-271.666 -22.58)" fill="#d8d5d5"/>
            <g id="Grupo_873864" data-name="Grupo 873864" transform="translate(205.452 28.552)">
              <g id="Grupo_873863" data-name="Grupo 873863">
                <g id="Grupo_873862" data-name="Grupo 873862" clip-path="url(#clip-path-12)">
                  <rect id="Rectángulo_292348" data-name="Rectángulo 292348" width="4.877" height="4.877" transform="translate(0 0.017) rotate(-0.199)" fill="#538cbc"/>
                </g>
              </g>
            </g>
            <g id="Grupo_873867" data-name="Grupo 873867" transform="translate(193.554 28.593)">
              <g id="Grupo_873866" data-name="Grupo 873866">
                <g id="Grupo_873865" data-name="Grupo 873865" clip-path="url(#clip-path-13)">
                  <rect id="Rectángulo_292350" data-name="Rectángulo 292350" width="4.877" height="4.877" transform="translate(0 0.017) rotate(-0.199)" fill="#538cbc"/>
                </g>
              </g>
            </g>
            <rect id="Rectángulo_292352" data-name="Rectángulo 292352" width="2.438" height="7.234" transform="matrix(1, -0.003, 0.003, 1, 193.517, 17.84)" fill="#d8d5d5"/>
            <g id="Grupo_873870" data-name="Grupo 873870" transform="translate(198.456 35.804)">
              <g id="Grupo_873869" data-name="Grupo 873869">
                <g id="Grupo_873868" data-name="Grupo 873868" clip-path="url(#clip-path-14)">
                  <rect id="Rectángulo_292353" data-name="Rectángulo 292353" width="5.671" height="8.96" transform="translate(0 0.02) rotate(-0.198)" fill="#3b2626"/>
                </g>
              </g>
            </g>
            <path id="Trazado_267424" data-name="Trazado 267424" d="M484.335,38.212a.291.291,0,0,1,.058.047l.161.15.617.6,2.316,2.273,8.174,8.1.166.165-.235,0-11.221-.125h-.042l-.031-.03-1.965-1.891-9.509-9.17h.133l-8.781,8.226-2.495,2.315-.665.607-.174.153a.27.27,0,0,1-.062.048.307.307,0,0,1,.052-.059l.163-.164.645-.628,2.457-2.354,8.727-8.283.066-.063.066.064,9.524,9.154,1.964,1.892-.073-.03,11.221.149-.068.162-8.119-8.153-2.278-2.311-.6-.616-.15-.16a.284.284,0,0,1-.047-.058" transform="translate(-270.663 -22.39)" fill="#263238"/>
            <path id="Trazado_267425" data-name="Trazado 267425" d="M486.553,95.611a.637.637,0,0,1-.019-.173c0-.135-.01-.3-.017-.5-.008-.465-.018-1.094-.031-1.868-.009-1.621-.022-3.845-.038-6.4l.1.1-2.829,0-2.81,0,.1-.1c-.015,2.557-.028,4.787-.038,6.411-.013.776-.023,1.406-.031,1.872-.007.2-.013.366-.017.5a.648.648,0,0,1-.019.174.625.625,0,0,1-.019-.174c0-.136-.01-.3-.017-.5-.008-.466-.018-1.1-.031-1.872-.009-1.624-.023-3.854-.038-6.411v-.1h.1l2.81,0,2.829,0h.1v.1c-.015,2.552-.028,4.777-.038,6.4-.013.774-.023,1.4-.031,1.868-.007.2-.013.366-.017.5a.642.642,0,0,1-.019.173" transform="translate(-282.427 -50.848)" fill="#263238"/>
            <path id="Trazado_267426" data-name="Trazado 267426" d="M434.582,131.108c.051.031-4.932,8.4-11.128,18.7s-11.262,18.619-11.313,18.588,4.931-8.4,11.129-18.7,11.262-18.617,11.312-18.586" transform="translate(-242.091 -77.013)" fill="#263238"/>
          </g>
        </g>
        <g id="Grupo_873880" data-name="Grupo 873880">
          <g id="Grupo_873879" data-name="Grupo 873879" clip-path="url(#clip-path-2)">
            <path id="Trazado_267427" data-name="Trazado 267427" d="M133.511,31.763A29.246,29.246,0,1,1,104.264,2.517a29.246,29.246,0,0,1,29.246,29.246" transform="translate(-44.066 -1.478)" fill="#f5f5f5"/>
            <path id="Trazado_267428" data-name="Trazado 267428" d="M133.358,31.636s-.012-.161-.023-.474-.009-.781-.064-1.39a29.575,29.575,0,0,0-.837-5.275,29.087,29.087,0,0,0-1.2-3.668,28.259,28.259,0,0,0-2.036-4.112,29.55,29.55,0,0,0-7.42-8.29,29.109,29.109,0,0,0-12.282-5.444,29.641,29.641,0,0,0-11.425.135,31.094,31.094,0,0,0-3.9,1.112,29.232,29.232,0,0,0-13.55,10.165,28.7,28.7,0,0,0-2.376,3.825,27.22,27.22,0,0,0-1.782,4.214,29.14,29.14,0,0,0,0,18.4c.232.734.522,1.444.8,2.155.314.7.619,1.393.979,2.061a28.673,28.673,0,0,0,2.376,3.826A29.23,29.23,0,0,0,94.172,59.043a31.1,31.1,0,0,0,3.9,1.112,29.641,29.641,0,0,0,11.427.134,29.1,29.1,0,0,0,12.283-5.446,29.55,29.55,0,0,0,7.419-8.29,28.211,28.211,0,0,0,2.035-4.112,29.009,29.009,0,0,0,1.2-3.668,29.526,29.526,0,0,0,.837-5.274c.055-.609.045-1.077.064-1.39s.023-.474.023-.474.017.643-.044,1.866a28.551,28.551,0,0,1-1.986,8.977,28.159,28.159,0,0,1-2.028,4.136,29.6,29.6,0,0,1-7.43,8.349,29.238,29.238,0,0,1-12.342,5.5,29.8,29.8,0,0,1-11.5-.12A31.276,31.276,0,0,1,94.1,59.229,29.411,29.411,0,0,1,80.45,49a28.837,28.837,0,0,1-2.395-3.853c-.362-.673-.67-1.375-.986-2.076-.283-.715-.576-1.43-.81-2.17a29.339,29.339,0,0,1,0-18.534,27.413,27.413,0,0,1,1.8-4.245,28.889,28.889,0,0,1,2.395-3.852A29.41,29.41,0,0,1,94.1,4.043a31.253,31.253,0,0,1,3.925-1.116,29.8,29.8,0,0,1,11.5-.12,29.238,29.238,0,0,1,12.342,5.5,29.6,29.6,0,0,1,7.431,8.349,28.16,28.16,0,0,1,2.028,4.135,28.555,28.555,0,0,1,1.987,8.978c.06,1.223.044,1.867.044,1.867" transform="translate(-43.913 -1.351)" fill="#263238"/>
            <path id="Trazado_267429" data-name="Trazado 267429" d="M114.485,27.719V62.935h24.224a4.158,4.158,0,0,0,4.158-4.158V34.085L134.3,25.517H116.687a2.2,2.2,0,0,0-2.2,2.2" transform="translate(-67.248 -14.989)" fill="#fff"/>
            <path id="Trazado_267430" data-name="Trazado 267430" d="M114.347,27.6s0-.032,0-.094a1.631,1.631,0,0,1,.023-.279,2.164,2.164,0,0,1,.433-1,2.235,2.235,0,0,1,1.532-.85c.708-.025,1.514-.013,2.427-.021l15.4-.035h.033l.023.024L142.8,33.9l.028.028v.04c0,4.237.006,8.813.009,13.633q0,3.616,0,7.4c0,1.262.009,2.529-.008,3.821a4.278,4.278,0,0,1-.522,1.894,4.427,4.427,0,0,1-1.333,1.466,4.244,4.244,0,0,1-1.7.678,12.511,12.511,0,0,1-1.8.063h-3.524l-6.856,0-12.753-.008h-.1v-.1c.016-10.438.03-19.24.039-25.439.012-3.092.021-5.534.027-7.211.006-.831.012-1.47.015-1.91,0-.212.006-.374.008-.491s.008-.166.008-.166.005.056.008.166,0,.279.008.491c0,.439.009,1.079.015,1.91.007,1.676.016,4.118.027,7.211.009,6.2.023,15,.039,25.439l-.1-.1,12.753-.008,6.856,0h3.524a12.455,12.455,0,0,0,1.762-.06,4.019,4.019,0,0,0,1.611-.644,4.208,4.208,0,0,0,1.266-1.392,4.064,4.064,0,0,0,.5-1.8c.016-1.275,0-2.554.009-3.812q0-3.781,0-7.4c0-4.82.006-9.4.009-13.633l.028.067L134.1,25.459l.057.024-15.4-.036c-.91,0-1.725-.017-2.421,0a2.191,2.191,0,0,0-1.948,1.788c-.046.241-.035.37-.045.369" transform="translate(-67.11 -14.874)" fill="#263238"/>
            <path id="Trazado_267431" data-name="Trazado 267431" d="M162.508,25.517l8.568,8.568h-7.125a1.443,1.443,0,0,1-1.443-1.443Z" transform="translate(-95.457 -14.989)" fill="#e0e0e0"/>
            <path id="Trazado_267432" data-name="Trazado 267432" d="M103.53,103.737h0a5.144,5.144,0,0,0,5.144,5.144h23.715a5.573,5.573,0,0,1-3.14-4.867l-.007-.277Z" transform="translate(-60.813 -60.935)" fill="#e0e0e0"/>
            <path id="Trazado_267433" data-name="Trazado 267433" d="M128.886,43.917a21.929,21.929,0,0,1-3.063.107,21.934,21.934,0,0,1-3.064-.107,21.933,21.933,0,0,1,3.064-.107,21.929,21.929,0,0,1,3.063.107" transform="translate(-72.109 -25.734)" fill="#263238"/>
            <path id="Trazado_267434" data-name="Trazado 267434" d="M142.94,53.274c0,.059-4.108.107-9.175.107s-9.175-.048-9.175-.107,4.107-.107,9.175-.107,9.175.048,9.175.107" transform="translate(-73.184 -31.23)" fill="#263238"/>
            <path id="Trazado_267435" data-name="Trazado 267435" d="M142.94,61.514c0,.059-4.108.107-9.175.107s-9.175-.048-9.175-.107,4.107-.107,9.175-.107,9.175.048,9.175.107" transform="translate(-73.184 -36.07)" fill="#263238"/>
            <path id="Trazado_267436" data-name="Trazado 267436" d="M142.94,69.754c0,.059-4.108.107-9.175.107s-9.175-.048-9.175-.107,4.107-.107,9.175-.107,9.175.048,9.175.107" transform="translate(-73.184 -40.911)" fill="#263238"/>
            <path id="Trazado_267437" data-name="Trazado 267437" d="M142.94,77.994c0,.059-4.108.107-9.175.107s-9.175-.048-9.175-.107,4.107-.107,9.175-.107,9.175.048,9.175.107" transform="translate(-73.184 -45.751)" fill="#263238"/>
            <path id="Trazado_267438" data-name="Trazado 267438" d="M142.94,86.234c0,.059-4.108.107-9.175.107s-9.175-.048-9.175-.107,4.107-.107,9.175-.107,9.175.048,9.175.107" transform="translate(-73.184 -50.591)" fill="#263238"/>
            <path id="Trazado_267439" data-name="Trazado 267439" d="M142.94,94.475c0,.059-4.108.107-9.175.107s-9.175-.048-9.175-.107,4.107-.107,9.175-.107,9.175.048,9.175.107" transform="translate(-73.184 -55.432)" fill="#263238"/>
            <path id="Trazado_267440" data-name="Trazado 267440" d="M173.915,64.425a7.589,7.589,0,1,1-7.393-7.763,7.58,7.58,0,0,1,7.393,7.763" transform="translate(-93.244 -33.282)" fill="#ffc631"/>
            <g id="Grupo_873875" data-name="Grupo 873875" transform="translate(70.52 26.957)" opacity="0.3">
              <g id="Grupo_873874" data-name="Grupo 873874">
                <g id="Grupo_873873" data-name="Grupo 873873" clip-path="url(#clip-path-16)">
                  <path id="Trazado_267441" data-name="Trazado 267441" d="M174.046,72.792l-.011,1.008-.9-.01.011-.98a4.266,4.266,0,0,1-2.231-.745l.507-1.092a3.637,3.637,0,0,0,1.738.658l.017-1.5c-1-.254-2.107-.6-2.092-1.885.011-.954.712-1.764,2.135-1.91l.011-1,.9.01-.011.98a4.071,4.071,0,0,1,1.82.569l-.462,1.1a3.684,3.684,0,0,0-1.371-.484l-.017,1.529c1,.245,2.089.59,2.075,1.858-.011.935-.7,1.737-2.117,1.892m-.855-3.985.014-1.277c-.477.1-.669.361-.673.658,0,.314.265.489.659.619m1.523,2.185c0-.315-.255-.489-.641-.628l-.014,1.241c.451-.094.651-.326.654-.613" transform="translate(-170.915 -65.335)"/>
                </g>
              </g>
            </g>
            <g id="Grupo_873878" data-name="Grupo 873878" transform="translate(67.212 24.49)" opacity="0.3">
              <g id="Grupo_873877" data-name="Grupo 873877">
                <g id="Grupo_873876" data-name="Grupo 873876" clip-path="url(#clip-path-17)">
                  <path id="Trazado_267442" data-name="Trazado 267442" d="M174.515,65.313a3.422,3.422,0,0,1-.135-.7,6.133,6.133,0,0,0-.622-1.789,5.913,5.913,0,0,0-.738-1.07,5.8,5.8,0,0,0-1.114-.984,5.661,5.661,0,0,0-1.473-.712,5.619,5.619,0,0,0-.844-.2,6.152,6.152,0,0,0-.89-.066,6.252,6.252,0,0,0-.89.076,5.645,5.645,0,0,0-.842.206,5.662,5.662,0,0,0-1.465.729,5.775,5.775,0,0,0-1.1,1,5.933,5.933,0,0,0-.726,1.079,6.147,6.147,0,0,0-.6,1.8,3.4,3.4,0,0,1-.127.7,1.7,1.7,0,0,1-.045-.72,5.341,5.341,0,0,1,.49-1.913,5.79,5.79,0,0,1,1.872-2.27,5.885,5.885,0,0,1,1.564-.808,5.917,5.917,0,0,1,.907-.229,5.945,5.945,0,0,1,1.919-.011,5.942,5.942,0,0,1,.909.218,5.637,5.637,0,0,1,.833.345,5.557,5.557,0,0,1,.739.445,5.79,5.79,0,0,1,1.9,2.248,5.351,5.351,0,0,1,.513,1.907,1.7,1.7,0,0,1-.036.721" transform="translate(-162.898 -59.356)"/>
                </g>
              </g>
            </g>
            <path id="Trazado_267443" data-name="Trazado 267443" d="M174.585,66.443a.458.458,0,0,1-.009-.094c0-.07-.008-.162-.014-.277a3.039,3.039,0,0,0-.04-.448,4.455,4.455,0,0,0-.106-.6,5.692,5.692,0,0,0-.6-1.561,5.791,5.791,0,0,0-1.413-1.692,5.635,5.635,0,0,0-5.423-.974,5.14,5.14,0,0,0-1.469.762,5.464,5.464,0,0,0-1.234,1.207,5.738,5.738,0,0,0-.848,1.574,5.855,5.855,0,0,0-.093,3.637,5.722,5.722,0,0,0,.767,1.616,5.462,5.462,0,0,0,1.171,1.269,6.194,6.194,0,0,0,.689.481,6.077,6.077,0,0,0,.74.356,5.635,5.635,0,0,0,5.466-.7,5.793,5.793,0,0,0,1.5-1.617,5.682,5.682,0,0,0,.675-1.529,4.366,4.366,0,0,0,.137-.6,2.966,2.966,0,0,0,.063-.445c.012-.115.021-.206.028-.276a.463.463,0,0,1,.014-.094.47.47,0,0,1,0,.094c0,.07-.008.162-.014.278a2.8,2.8,0,0,1-.049.449,4.308,4.308,0,0,1-.125.605,5.642,5.642,0,0,1-.661,1.557,5.822,5.822,0,0,1-1.506,1.657,5.73,5.73,0,0,1-5.578.737,6.268,6.268,0,0,1-.758-.362,6.384,6.384,0,0,1-.707-.491,5.6,5.6,0,0,1-1.2-1.3,5.874,5.874,0,0,1-.787-1.655,5.986,5.986,0,0,1,.1-3.727,5.869,5.869,0,0,1,.871-1.612,5.588,5.588,0,0,1,1.266-1.234,6.341,6.341,0,0,1,.731-.453,6.222,6.222,0,0,1,.776-.323,5.79,5.79,0,0,1,6.951,2.753,5.639,5.639,0,0,1,.581,1.589,4.259,4.259,0,0,1,.094.611,2.767,2.767,0,0,1,.026.451c0,.116,0,.208,0,.278a.471.471,0,0,1-.005.094" transform="translate(-95.717 -35.455)" fill="#263238"/>
            <path id="Trazado_267444" data-name="Trazado 267444" d="M165.749,86.422a.737.737,0,0,1-.23-.043,4.667,4.667,0,0,1-.6-.2,6.61,6.61,0,0,1-3.149-2.693,4.641,4.641,0,0,1-.295-.564.728.728,0,0,1-.078-.22c.023-.011.166.288.46.73a7.429,7.429,0,0,0,3.1,2.654c.482.221.8.316.792.341" transform="translate(-94.801 -48.576)" fill="#fff"/>
            <path id="Trazado_267445" data-name="Trazado 267445" d="M174.023,92.316c-.009.039-.161.04-.34,0s-.318-.1-.309-.142.161-.04.34,0,.318.1.309.142" transform="translate(-101.839 -54.126)" fill="#fff"/>
            <path id="Trazado_267446" data-name="Trazado 267446" d="M132.389,108.728a.392.392,0,0,1-.106-.044l-.3-.152-.22-.116-.248-.168c-.088-.061-.186-.124-.286-.2l-.3-.259a5.22,5.22,0,0,1-1.21-1.619,5.7,5.7,0,0,1-.564-2.6l.085.092-9.662.022-11.349-.031-3.439-.034-.935-.02a1.879,1.879,0,0,1-.326-.021,1.846,1.846,0,0,1,.326-.022l.935-.02,3.439-.034,11.349-.032,9.662.022h.088l0,.092a5.622,5.622,0,0,0,.518,2.524A5.242,5.242,0,0,0,131,107.72a9.139,9.139,0,0,0,1.394,1.007" transform="translate(-60.813 -60.782)" fill="#263238"/>
            <path id="Trazado_267447" data-name="Trazado 267447" d="M162.355,25.517a3.767,3.767,0,0,1,.042.649c.009.456.021,1.052.034,1.77.007.76.014,1.647.023,2.625,0,.5,0,1.013.006,1.55a5.538,5.538,0,0,0,.028.8,1.34,1.34,0,0,0,1.043,1.044,5.6,5.6,0,0,0,.8.028l1.55.006,2.625.023,1.77.034a3.763,3.763,0,0,1,.649.042,3.732,3.732,0,0,1-.649.042l-1.77.034-2.625.023-1.55.006a5.377,5.377,0,0,1-.84-.029,1.548,1.548,0,0,1-1.211-1.211,5.425,5.425,0,0,1-.029-.839c0-.536,0-1.055.006-1.55.009-.978.017-1.865.023-2.625.014-.718.025-1.314.034-1.77a3.769,3.769,0,0,1,.042-.649" transform="translate(-95.304 -14.989)" fill="#263238"/>
            <path id="Trazado_267448" data-name="Trazado 267448" d="M205.61,166.713c-.049.034-5.089-7.345-11.254-16.476s-11.127-16.565-11.077-16.6,5.088,7.343,11.255,16.478,11.125,16.564,11.076,16.6" transform="translate(-107.657 -78.499)" fill="#263238"/>
          </g>
        </g>
        <g id="Grupo_873888" data-name="Grupo 873888">
          <g id="Grupo_873887" data-name="Grupo 873887" clip-path="url(#clip-path-2)">
            <path id="Trazado_267449" data-name="Trazado 267449" d="M58.754,224.43a29.246,29.246,0,1,1-29.246-29.246A29.246,29.246,0,0,1,58.754,224.43" transform="translate(-0.153 -114.651)" fill="#f5f5f5"/>
            <path id="Trazado_267450" data-name="Trazado 267450" d="M58.6,224.3s-.012-.16-.023-.474-.009-.781-.064-1.39a29.565,29.565,0,0,0-.837-5.274,29.065,29.065,0,0,0-1.2-3.668,28.259,28.259,0,0,0-2.036-4.112,29.548,29.548,0,0,0-7.42-8.29,29.1,29.1,0,0,0-12.282-5.445,29.64,29.64,0,0,0-11.425.135,31.1,31.1,0,0,0-3.9,1.112,29.232,29.232,0,0,0-13.55,10.165,28.7,28.7,0,0,0-2.376,3.825A27.239,27.239,0,0,0,1.706,215.1a29.14,29.14,0,0,0,0,18.4c.232.734.522,1.444.8,2.155.314.7.619,1.393.979,2.061a28.668,28.668,0,0,0,2.376,3.826A29.23,29.23,0,0,0,19.414,251.71a31.171,31.171,0,0,0,3.9,1.112,29.656,29.656,0,0,0,11.427.134,29.1,29.1,0,0,0,12.283-5.446,29.55,29.55,0,0,0,7.419-8.29,28.212,28.212,0,0,0,2.035-4.112,29.005,29.005,0,0,0,1.2-3.668,29.523,29.523,0,0,0,.837-5.274c.055-.609.045-1.077.064-1.39s.023-.474.023-.474.017.643-.044,1.866a28.552,28.552,0,0,1-1.986,8.977,28.158,28.158,0,0,1-2.028,4.135,29.6,29.6,0,0,1-7.43,8.349,29.232,29.232,0,0,1-12.342,5.5,29.8,29.8,0,0,1-11.5-.12,31.269,31.269,0,0,1-3.925-1.116A29.413,29.413,0,0,1,5.693,241.667,28.841,28.841,0,0,1,3.3,237.814c-.362-.673-.67-1.375-.986-2.076-.283-.715-.576-1.43-.81-2.17a29.331,29.331,0,0,1,0-18.534,27.429,27.429,0,0,1,1.8-4.245,28.892,28.892,0,0,1,2.395-3.852A29.41,29.41,0,0,1,19.346,196.71a31.338,31.338,0,0,1,3.925-1.116,29.8,29.8,0,0,1,11.5-.12,29.238,29.238,0,0,1,12.342,5.5,29.6,29.6,0,0,1,7.431,8.349,28.246,28.246,0,0,1,2.028,4.136,28.572,28.572,0,0,1,1.987,8.978c.06,1.223.044,1.867.044,1.867" transform="translate(0 -114.524)" fill="#263238"/>
            <rect id="Rectángulo_292359" data-name="Rectángulo 292359" width="46.385" height="6.806" transform="translate(4.957 109.147)" fill="#ff725e"/>
            <g id="Grupo_873883" data-name="Grupo 873883" transform="translate(4.957 109.147)">
              <g id="Grupo_873882" data-name="Grupo 873882">
                <g id="Grupo_873881" data-name="Grupo 873881" clip-path="url(#clip-path-19)">
                  <rect id="Rectángulo_292360" data-name="Rectángulo 292360" width="46.385" height="6.806" transform="translate(0 0)" fill="#02345d"/>
                </g>
              </g>
            </g>
            <path id="Trazado_267451" data-name="Trazado 267451" d="M16.279,274.486a4.473,4.473,0,1,0,4.537-4.408,4.473,4.473,0,0,0-4.537,4.408" transform="translate(-9.562 -158.644)" fill="#263238"/>
            <path id="Trazado_267452" data-name="Trazado 267452" d="M16.28,280.734v.012a4.473,4.473,0,0,0,8.945.129v-.012Z" transform="translate(-9.562 -164.903)" fill="#263238"/>
            <path id="Trazado_267453" data-name="Trazado 267453" d="M19.51,276.4a3.14,3.14,0,1,0,3.185-3.095A3.14,3.14,0,0,0,19.51,276.4" transform="translate(-11.46 -160.541)" fill="#fafafa"/>
            <path id="Trazado_267454" data-name="Trazado 267454" d="M22.694,273.309a3.14,3.14,0,0,0-3.185,3.095l6.28.091a3.14,3.14,0,0,0-3.095-3.185" transform="translate(-11.46 -160.541)" fill="#e0e0e0"/>
            <path id="Trazado_267455" data-name="Trazado 267455" d="M22.484,278.168a1.913,1.913,0,1,0,1.94-1.885,1.913,1.913,0,0,0-1.94,1.885" transform="translate(-13.207 -162.288)" fill="#263238"/>
            <path id="Trazado_267456" data-name="Trazado 267456" d="M99.175,274.486a4.473,4.473,0,1,0,4.537-4.408,4.473,4.473,0,0,0-4.537,4.408" transform="translate(-58.255 -158.644)" fill="#263238"/>
            <path id="Trazado_267457" data-name="Trazado 267457" d="M99.176,280.734v.012a4.473,4.473,0,0,0,8.945.129v-.012Z" transform="translate(-58.255 -164.903)" fill="#263238"/>
            <path id="Trazado_267458" data-name="Trazado 267458" d="M102.4,276.4a3.14,3.14,0,1,0,3.185-3.095A3.14,3.14,0,0,0,102.4,276.4" transform="translate(-60.152 -160.541)" fill="#fafafa"/>
            <path id="Trazado_267459" data-name="Trazado 267459" d="M105.591,273.309a3.14,3.14,0,0,0-3.185,3.095l6.279.091a3.14,3.14,0,0,0-3.095-3.185" transform="translate(-60.153 -160.541)" fill="#e0e0e0"/>
            <path id="Trazado_267460" data-name="Trazado 267460" d="M105.38,278.168a1.913,1.913,0,1,0,1.94-1.885,1.913,1.913,0,0,0-1.94,1.885" transform="translate(-61.9 -162.288)" fill="#263238"/>
            <path id="Trazado_267461" data-name="Trazado 267461" d="M19.972,247.7s-6.586.486-9.028,1.033c-1.721.386-5.038,1.052-5,3.139l.263,1.5a2.253,2.253,0,0,0-1.231,2c0,1.434-.3,3.659,2.572,3.748.474.014,1.373,0,1.373,0s-.552-6.118,5.069-6.3c5.718-.182,5.338,6.241,5.338,6.241H43.192s-.98-6.258,5.176-6.267,5.219,6.307,5.219,6.307A3.619,3.619,0,0,0,56.9,257.39a5.183,5.183,0,0,0,.779-3.257l-.035-1.2a.779.779,0,0,0-.748-.755s.411-3.029-.22-3.553-4.09-3.687-4.09-3.687l.165-.1a.388.388,0,0,0-.08-.7c-1.313-.451-3.91-1.345-4.52-1.559a1.111,1.111,0,0,0-.284-.059c-.364-.028-1.4-.093-3.289-.113-2.306-.025-11.465,0-11.465,0a19.624,19.624,0,0,0-4.907,1.032c-1.846.812-8.238,4.263-8.238,4.263" transform="translate(-2.919 -142.382)" fill="#033f71"/>
            <g id="Grupo_873886" data-name="Grupo 873886" transform="translate(2.726 112.787)" opacity="0.4">
              <g id="Grupo_873885" data-name="Grupo 873885">
                <g id="Grupo_873884" data-name="Grupo 873884" clip-path="url(#clip-path-20)">
                  <path id="Trazado_267462" data-name="Trazado 267462" d="M7.609,273.386a1.014,1.014,0,0,0-.787.109.754.754,0,0,0-.191.495,2.11,2.11,0,0,0,.017.741.905.905,0,0,0,.418.591.584.584,0,0,0,.688-.083.9.9,0,0,0,.169-.642,5.184,5.184,0,0,0-.039-.913A.445.445,0,0,0,7.8,273.5a.249.249,0,0,0-.191-.114" transform="translate(-6.606 -273.356)"/>
                </g>
              </g>
            </g>
            <path id="Trazado_267463" data-name="Trazado 267463" d="M7.6,266.59c.7,0,1.377-.038,2.075-.085a.337.337,0,0,0,.213-.064.342.342,0,0,0,.073-.255,1.318,1.318,0,0,0-.3-1.045,1.124,1.124,0,0,0-.64-.217,4.136,4.136,0,0,0-1.684.17Z" transform="translate(-4.309 -155.604)" fill="#fafafa"/>
            <path id="Trazado_267464" data-name="Trazado 267464" d="M43.473,260.116s0-.017,0-.05,0-.084-.005-.149c0-.132-.01-.325-.018-.578-.014-.507-.035-1.249-.062-2.193s-.057-2.09-.093-3.4q-.014-.493-.028-1.016a3.4,3.4,0,0,1,.023-.531q.019-.134.038-.269c.019-.09.037-.179.055-.27a5.46,5.46,0,0,1,.372-1.071,5.382,5.382,0,0,1,.612-1.017l0,0,0,0,4.133-2.6,1.116-.7A8.764,8.764,0,0,1,50.8,245.6a12.054,12.054,0,0,1,1.283-.512c.219-.077.444-.14.669-.207s.454-.122.686-.168a15.583,15.583,0,0,1,2.663-.336,24.971,24.971,0,0,1,2.579.009H58.7l-.005.024-1.111,4.967v0l0,0a5.429,5.429,0,0,0-.5,1.067,2.923,2.923,0,0,0-.169,1.1c.028.367.039.726.048,1.075s.014.687.02,1.015c.019,1.312.024,2.457.028,3.4s0,1.684,0,2.191c0,.252,0,.446,0,.578,0,.065,0,.114,0,.148s0,.05,0,.05,0-.017,0-.05,0-.083,0-.148c0-.132,0-.326,0-.578,0-.507-.007-1.248-.013-2.19s-.015-2.088-.037-3.4q-.011-.492-.022-1.015c-.01-.349-.021-.706-.05-1.073a2.949,2.949,0,0,1,.169-1.118,5.444,5.444,0,0,1,.5-1.076l0,.006c.34-1.53.712-3.2,1.106-4.969l.019.026a25.217,25.217,0,0,0-2.574-.007,15.553,15.553,0,0,0-2.656.336c-.231.046-.457.111-.684.168s-.448.13-.667.206a12.02,12.02,0,0,0-1.278.51,8.722,8.722,0,0,0-1.176.656l-1.116.7-4.136,2.6,0,0a5.33,5.33,0,0,0-.609,1.009,5.433,5.433,0,0,0-.371,1.063,7.766,7.766,0,0,0-.092,2.078c.033,1.313.061,2.458.084,3.4s.04,1.685.052,2.192c.005.253.009.446.012.578,0,.065,0,.114,0,.148s0,.05,0,.05" transform="translate(-25.411 -143.53)" fill="#263238"/>
            <path id="Trazado_267465" data-name="Trazado 267465" d="M70.456,261.287s.024,0,.066-.01a.458.458,0,0,0,.176-.07.451.451,0,0,0,.179-.233.508.508,0,0,0,.023-.184.454.454,0,0,0-.052-.2.443.443,0,0,0-.385-.235l-.564,0-1.292,0a.437.437,0,0,0-.434.388.488.488,0,0,0,.054.3.44.44,0,0,0,.214.19.672.672,0,0,0,.278.034h.274l.491,0,.711.007.194,0a.034.034,0,1,1,0,.009l-.194,0-.711.007-.491,0h-.274c-.048,0-.094,0-.144,0a.471.471,0,0,1-.149-.034.483.483,0,0,1-.235-.206.533.533,0,0,1-.06-.321.481.481,0,0,1,.477-.427l1.292,0,.564,0a.473.473,0,0,1,.464.469.521.521,0,0,1-.028.192.462.462,0,0,1-.193.239.436.436,0,0,1-.184.064.283.283,0,0,1-.068,0" transform="translate(-40.018 -152.91)" fill="#263238"/>
            <path id="Trazado_267466" data-name="Trazado 267466" d="M100.431,261.287s.024,0,.066-.01a.461.461,0,0,0,.176-.07.451.451,0,0,0,.179-.233.508.508,0,0,0,.023-.184.454.454,0,0,0-.052-.2.443.443,0,0,0-.385-.235l-.564,0-1.292,0a.437.437,0,0,0-.434.388.489.489,0,0,0,.054.3.44.44,0,0,0,.214.19.671.671,0,0,0,.278.034h.274l.491,0,.711.007.194,0a.034.034,0,1,1,0,.009l-.194,0-.711.007-.491,0h-.274c-.048,0-.094,0-.144,0a.471.471,0,0,1-.149-.034.483.483,0,0,1-.235-.206.533.533,0,0,1-.06-.321.481.481,0,0,1,.477-.427l1.292,0,.564,0a.473.473,0,0,1,.464.469.521.521,0,0,1-.028.192.462.462,0,0,1-.193.239.436.436,0,0,1-.184.064.283.283,0,0,1-.068,0" transform="translate(-57.626 -152.91)" fill="#263238"/>
            <path id="Trazado_267467" data-name="Trazado 267467" d="M125.21,257.777h-2.475a.913.913,0,0,0-.836,1.281l.971,2.2,2.478-.024s.527-2.794-.138-3.461" transform="translate(-71.558 -151.418)" fill="#fafafa"/>
            <path id="Trazado_267468" data-name="Trazado 267468" d="M46.733,249.481l12.769-.235,8.311-.153,2.74-1.582a.426.426,0,0,0,.126-.626l-1.706-2.242a.951.951,0,0,0-.748-.374l-9.295-.076a13.037,13.037,0,0,0-6.258,1.341,59.046,59.046,0,0,0-5.94,3.947" transform="translate(-27.451 -143.434)" fill="#263238"/>
            <path id="Trazado_267469" data-name="Trazado 267469" d="M49.314,244.768s.64.292.224.562-6.886,4.349-6.886,4.349l-1.487-.673c2.634-1.468,5.3-2.893,8.15-4.238" transform="translate(-24.18 -143.777)" fill="#455a64"/>
            <path id="Trazado_267470" data-name="Trazado 267470" d="M119.654,248.34s-.57.639-.346,1.107a16.564,16.564,0,0,0,2.54,2.108l1.681.315Z" transform="translate(-70.051 -145.875)" fill="#455a64"/>
            <path id="Trazado_267471" data-name="Trazado 267471" d="M80.94,245.572l-.378,4.083,6.765-.193,2.727-1.585-1.766-2.3Z" transform="translate(-47.322 -144.249)" fill="#455a64"/>
            <path id="Trazado_267472" data-name="Trazado 267472" d="M50.616,249.852a41.1,41.1,0,0,1,5.692-3.534,10.279,10.279,0,0,1,3.824-.748c1.4-.04,2.245,0,2.245,0L61.3,249.72Z" transform="translate(-29.732 -144.237)" fill="#455a64"/>
            <path id="Trazado_267473" data-name="Trazado 267473" d="M49.168,254.043h0a.715.715,0,0,1,.365-.623l.938-.527a1.789,1.789,0,0,1,1.432-.14,1.017,1.017,0,0,1,.683.933,1.033,1.033,0,0,1-1.032,1.072H49.883a.715.715,0,0,1-.715-.715" transform="translate(-28.881 -148.415)" fill="#033f71"/>
            <path id="Trazado_267474" data-name="Trazado 267474" d="M49.166,254.015s0,.032.011.09a.715.715,0,0,0,.37.528.708.708,0,0,0,.241.076,2.852,2.852,0,0,0,.288.005l1.43,0a1.089,1.089,0,0,0,.4-.065,1.019,1.019,0,0,0,.354-.225,1,1,0,0,0,.238-.362,1.033,1.033,0,0,0,.062-.442,1.012,1.012,0,0,0-.422-.748,1.07,1.07,0,0,0-.387-.163,1.772,1.772,0,0,0-1.139.109c-.108.048-.207.109-.3.162l-.279.156-.481.266a.713.713,0,0,0-.287.283.731.731,0,0,0-.083.244c-.009.059-.008.091-.01.091a.454.454,0,0,1,0-.092.7.7,0,0,1,.077-.252.723.723,0,0,1,.29-.3l.477-.272.278-.158c.1-.053.2-.115.306-.165a1.8,1.8,0,0,1,1.164-.117,1.114,1.114,0,0,1,.4.169,1.054,1.054,0,0,1,.441.78,1.076,1.076,0,0,1-.066.461,1.057,1.057,0,0,1-.618.611,1.133,1.133,0,0,1-.413.066l-1.43,0a2.7,2.7,0,0,1-.292-.009.727.727,0,0,1-.249-.082.748.748,0,0,1-.291-.3.7.7,0,0,1-.076-.252.531.531,0,0,1,0-.092" transform="translate(-28.879 -148.386)" fill="#263238"/>
            <path id="Trazado_267475" data-name="Trazado 267475" d="M71.3,260.037a12.267,12.267,0,0,1-1.465,0,12.284,12.284,0,0,1,1.465,0" transform="translate(-41.023 -152.733)" fill="#fff"/>
            <path id="Trazado_267476" data-name="Trazado 267476" d="M99.953,259.88c0,.012-.507.026-1.133.032s-1.133,0-1.133-.011.507-.026,1.133-.032,1.133,0,1.133.011" transform="translate(-57.381 -152.645)" fill="#fff"/>
            <path id="Trazado_267477" data-name="Trazado 267477" d="M51.89,253.294s-.025-.033-.08-.078a.556.556,0,0,0-.276-.111,1.206,1.206,0,0,0-.446.048,3.365,3.365,0,0,0-.526.179,3.447,3.447,0,0,0-.856.532c-.2.167-.3.29-.31.284a.581.581,0,0,1,.071-.089,2.7,2.7,0,0,1,.219-.219,3.181,3.181,0,0,1,.859-.549,3.219,3.219,0,0,1,.534-.178,1.191,1.191,0,0,1,.46-.04.546.546,0,0,1,.283.129.362.362,0,0,1,.056.064c.01.017.015.026.014.026" transform="translate(-29.014 -148.651)" fill="#fff"/>
            <path id="Trazado_267478" data-name="Trazado 267478" d="M168.829,258.849c0,.059-5.971.107-13.335.107s-13.337-.048-13.337-.107,5.97-.107,13.337-.107,13.335.048,13.335.107" transform="translate(-83.503 -151.985)" fill="#263238"/>
          </g>
        </g>
      </g>
    </g>
  </g>
</svg>
