<svg id="Grupo_873906" data-name="Grupo 873906" xmlns="http://www.w3.org/2000/svg" xmlns:xlink="http://www.w3.org/1999/xlink" width="200.07" height="198.88" viewBox="0 0 200.07 198.88">
  <defs>
    <clipPath id="clip-path">
      <rect id="Rectángulo_292388" data-name="Rectángulo 292388" width="200.07" height="198.88" fill="none"/>
    </clipPath>
    <clipPath id="clip-path-5">
      <rect id="Rectángulo_292385" data-name="Rectángulo 292385" width="30.171" height="53.661" fill="none"/>
    </clipPath>
    <clipPath id="clip-path-6">
      <rect id="Rectángulo_292386" data-name="Rectángulo 292386" width="34.245" height="2.678" fill="none"/>
    </clipPath>
  </defs>
  <g id="Grupo_873905" data-name="Grupo 873905" clip-path="url(#clip-path)">
    <path id="Trazado_267479" data-name="Trazado 267479" d="M257.987,370.5l-11.6-10.624,40.169-1.593,11.806,6.535Z" transform="translate(-120.714 -175.537)" fill="#455a64"/>
    <path id="Trazado_267480" data-name="Trazado 267480" d="M255.432,363.141l2.256,1.934-.01-1.379-2.386-1.783Z" transform="translate(-125.078 -177.316)" fill="#263238"/>
    <path id="Trazado_267481" data-name="Trazado 267481" d="M257.656,363.652l3.253-.11-2.618-1.9-3,.139Z" transform="translate(-125.078 -177.182)" fill="#ff725e"/>
    <path id="Trazado_267482" data-name="Trazado 267482" d="M259.926,365.478l.032,1.29,3.178-.206.043-1.195Z" transform="translate(-127.348 -179.008)" fill="#263238"/>
    <g id="Grupo_873894" data-name="Grupo 873894">
      <g id="Grupo_873893" data-name="Grupo 873893" clip-path="url(#clip-path)">
        <path id="Trazado_267483" data-name="Trazado 267483" d="M260.909,363.41a18.385,18.385,0,0,1-2.619-1.685l-.155-.109.083.024a16.865,16.865,0,0,1-2.926.009,16.872,16.872,0,0,1,2.913-.273l.045,0,.038.026.155.109a18.313,18.313,0,0,1,2.466,1.9" transform="translate(-125.078 -177.051)" fill="#263238"/>
        <path id="Trazado_267484" data-name="Trazado 267484" d="M259.823,366.884c-.073,0-.14-.283-.149-.636s.043-.642.116-.643.14.283.149.636-.043.641-.116.643" transform="translate(-127.224 -179.124)" fill="#455a64"/>
        <path id="Trazado_267485" data-name="Trazado 267485" d="M266.1,362.941l2.256,1.934-.01-1.379-2.386-1.784Z" transform="translate(-130.307 -177.217)" fill="#263238"/>
        <path id="Trazado_267486" data-name="Trazado 267486" d="M268.328,363.452l3.253-.11-2.618-1.9-3,.138Z" transform="translate(-130.307 -177.085)" fill="#e0e0e0"/>
        <path id="Trazado_267487" data-name="Trazado 267487" d="M270.6,365.277l.032,1.29,3.178-.206.043-1.195Z" transform="translate(-132.577 -178.91)" fill="#263238"/>
        <path id="Trazado_267488" data-name="Trazado 267488" d="M271.582,363.21a18.323,18.323,0,0,1-2.619-1.685l-.155-.109.083.024a16.866,16.866,0,0,1-2.926.009,16.874,16.874,0,0,1,2.913-.273l.045,0,.038.026.155.109a18.32,18.32,0,0,1,2.466,1.9" transform="translate(-130.307 -176.953)" fill="#263238"/>
        <path id="Trazado_267489" data-name="Trazado 267489" d="M270.5,366.684c-.073,0-.14-.283-.149-.636s.043-.642.116-.643.14.283.149.636-.043.641-.116.643" transform="translate(-132.453 -179.026)" fill="#455a64"/>
        <path id="Trazado_267490" data-name="Trazado 267490" d="M276.324,362.806l2.256,1.934-.01-1.379-2.386-1.783Z" transform="translate(-135.313 -177.151)" fill="#263238"/>
        <path id="Trazado_267491" data-name="Trazado 267491" d="M278.547,363.317l3.253-.11-2.618-1.9-3,.138Z" transform="translate(-135.313 -177.018)" fill="#455a64"/>
        <path id="Trazado_267492" data-name="Trazado 267492" d="M280.818,365.142l.032,1.29,3.178-.206.043-1.195Z" transform="translate(-137.584 -178.843)" fill="#263238"/>
        <path id="Trazado_267493" data-name="Trazado 267493" d="M281.8,363.074a18.382,18.382,0,0,1-2.619-1.685l-.155-.109.083.024a16.865,16.865,0,0,1-2.926.009,16.876,16.876,0,0,1,2.913-.273l.045,0,.038.026.155.109a18.317,18.317,0,0,1,2.466,1.9" transform="translate(-135.313 -176.886)" fill="#263238"/>
        <path id="Trazado_267494" data-name="Trazado 267494" d="M280.715,366.548c-.073,0-.14-.283-.149-.636s.043-.642.116-.643.14.283.149.636-.043.641-.116.643" transform="translate(-137.46 -178.96)" fill="#455a64"/>
        <path id="Trazado_267495" data-name="Trazado 267495" d="M286.964,362.5l2.256,1.934-.01-1.379-2.386-1.783Z" transform="translate(-140.527 -177.002)" fill="#263238"/>
        <path id="Trazado_267496" data-name="Trazado 267496" d="M289.188,363.012l3.253-.11-2.618-1.9-3,.138Z" transform="translate(-140.526 -176.869)" fill="#455a64"/>
        <path id="Trazado_267497" data-name="Trazado 267497" d="M291.458,364.837l.032,1.29,3.178-.206.043-1.195Z" transform="translate(-142.797 -178.694)" fill="#263238"/>
        <path id="Trazado_267498" data-name="Trazado 267498" d="M292.441,362.77a18.348,18.348,0,0,1-2.619-1.685l-.155-.11.083.024a16.861,16.861,0,0,1-2.926.009,16.876,16.876,0,0,1,2.913-.273l.045,0,.038.027.155.109a18.361,18.361,0,0,1,2.466,1.9" transform="translate(-140.526 -176.737)" fill="#263238"/>
        <path id="Trazado_267499" data-name="Trazado 267499" d="M291.355,366.244c-.073,0-.14-.283-.149-.636s.043-.642.116-.643.14.283.149.636-.043.641-.116.643" transform="translate(-142.673 -178.811)" fill="#455a64"/>
        <path id="Trazado_267500" data-name="Trazado 267500" d="M297.757,362.233l2.256,1.934-.01-1.379-2.386-1.784Z" transform="translate(-145.814 -176.87)" fill="#263238"/>
        <path id="Trazado_267501" data-name="Trazado 267501" d="M299.98,362.745l3.253-.11-2.618-1.9-3,.138Z" transform="translate(-145.814 -176.738)" fill="#455a64"/>
        <path id="Trazado_267502" data-name="Trazado 267502" d="M302.251,364.57l.032,1.29,3.178-.206.043-1.195Z" transform="translate(-148.084 -178.563)" fill="#263238"/>
        <path id="Trazado_267503" data-name="Trazado 267503" d="M303.234,362.5a18.347,18.347,0,0,1-2.619-1.685l-.155-.11.083.024a16.861,16.861,0,0,1-2.926.009,16.876,16.876,0,0,1,2.913-.273l.045,0,.038.027.155.109a18.366,18.366,0,0,1,2.466,1.9" transform="translate(-145.814 -176.606)" fill="#263238"/>
        <path id="Trazado_267504" data-name="Trazado 267504" d="M302.148,365.977c-.073,0-.14-.283-.149-.636s.043-.642.116-.643.14.283.149.636-.043.641-.116.643" transform="translate(-147.961 -178.68)" fill="#455a64"/>
        <path id="Trazado_267505" data-name="Trazado 267505" d="M308.062,361.751l2.256,1.934-.01-1.379-2.386-1.784Z" transform="translate(-150.863 -176.634)" fill="#263238"/>
        <path id="Trazado_267506" data-name="Trazado 267506" d="M310.286,362.263l3.253-.11-2.619-1.9-3,.138Z" transform="translate(-150.863 -176.502)" fill="#455a64"/>
        <path id="Trazado_267507" data-name="Trazado 267507" d="M312.556,364.088l.032,1.29,3.178-.206.043-1.195Z" transform="translate(-153.134 -178.327)" fill="#263238"/>
        <path id="Trazado_267508" data-name="Trazado 267508" d="M313.539,362.02a18.348,18.348,0,0,1-2.619-1.685l-.155-.11.083.024a16.861,16.861,0,0,1-2.926.009,16.875,16.875,0,0,1,2.913-.273l.045,0,.037.027.155.109a18.319,18.319,0,0,1,2.466,1.9" transform="translate(-150.863 -176.37)" fill="#263238"/>
        <path id="Trazado_267509" data-name="Trazado 267509" d="M312.453,365.494c-.073,0-.14-.283-.149-.636s.043-.642.116-.643.14.283.149.636-.043.641-.116.643" transform="translate(-153.009 -178.443)" fill="#455a64"/>
        <path id="Trazado_267510" data-name="Trazado 267510" d="M318.137,361.171l2.256,1.935-.01-1.379L318,359.943Z" transform="translate(-155.799 -176.35)" fill="#263238"/>
        <path id="Trazado_267511" data-name="Trazado 267511" d="M320.36,361.682l3.253-.11-2.618-1.9-3,.138Z" transform="translate(-155.799 -176.217)" fill="#455a64"/>
        <path id="Trazado_267512" data-name="Trazado 267512" d="M322.631,363.507l.032,1.29,3.178-.206.043-1.195Z" transform="translate(-158.069 -178.042)" fill="#263238"/>
        <path id="Trazado_267513" data-name="Trazado 267513" d="M323.614,361.44a18.4,18.4,0,0,1-2.619-1.685l-.155-.11.083.024a16.861,16.861,0,0,1-2.926.009,16.871,16.871,0,0,1,2.913-.273l.045,0,.037.026.155.109a18.321,18.321,0,0,1,2.466,1.9" transform="translate(-155.799 -176.086)" fill="#263238"/>
        <path id="Trazado_267514" data-name="Trazado 267514" d="M322.528,364.914c-.073,0-.14-.283-.149-.636s.043-.642.116-.643.14.283.149.636-.043.641-.116.643" transform="translate(-157.946 -178.159)" fill="#455a64"/>
        <path id="Trazado_267515" data-name="Trazado 267515" d="M262.552,370.261l2.256,1.934-.01-1.379-2.386-1.784Z" transform="translate(-128.566 -180.803)" fill="#263238"/>
        <path id="Trazado_267516" data-name="Trazado 267516" d="M264.776,370.772l3.253-.11-2.619-1.9-3,.138Z" transform="translate(-128.566 -180.671)" fill="#455a64"/>
        <path id="Trazado_267517" data-name="Trazado 267517" d="M267.046,372.6l.032,1.29,3.178-.206.043-1.195Z" transform="translate(-130.836 -182.496)" fill="#263238"/>
        <path id="Trazado_267518" data-name="Trazado 267518" d="M268.029,370.53a18.348,18.348,0,0,1-2.619-1.685l-.155-.11.083.024a16.863,16.863,0,0,1-2.926.009,16.876,16.876,0,0,1,2.913-.273l.045,0,.038.027.155.109a18.364,18.364,0,0,1,2.466,1.9" transform="translate(-128.566 -180.539)" fill="#263238"/>
        <path id="Trazado_267519" data-name="Trazado 267519" d="M266.943,374c-.073,0-.14-.283-.149-.636s.043-.642.116-.643.14.283.149.636-.043.641-.116.643" transform="translate(-130.712 -182.613)" fill="#455a64"/>
        <path id="Trazado_267520" data-name="Trazado 267520" d="M273.225,370.061,275.481,372l-.01-1.379-2.386-1.783Z" transform="translate(-133.795 -180.706)" fill="#263238"/>
        <path id="Trazado_267521" data-name="Trazado 267521" d="M275.448,370.572l3.253-.11-2.618-1.9-3,.138Z" transform="translate(-133.795 -180.573)" fill="#455a64"/>
        <path id="Trazado_267522" data-name="Trazado 267522" d="M277.719,372.4l.032,1.29,3.178-.206.043-1.195Z" transform="translate(-136.065 -182.398)" fill="#263238"/>
        <path id="Trazado_267523" data-name="Trazado 267523" d="M278.7,370.33a18.341,18.341,0,0,1-2.619-1.685l-.155-.11.083.024a16.863,16.863,0,0,1-2.926.009A16.872,16.872,0,0,1,276,368.3l.045,0,.038.027.155.109a18.37,18.37,0,0,1,2.466,1.9" transform="translate(-133.795 -180.441)" fill="#263238"/>
        <path id="Trazado_267524" data-name="Trazado 267524" d="M277.616,373.8c-.073,0-.14-.283-.149-.636s.043-.642.116-.643.14.283.149.636-.043.641-.116.643" transform="translate(-135.941 -182.515)" fill="#455a64"/>
        <path id="Trazado_267525" data-name="Trazado 267525" d="M283.444,369.925l2.256,1.934-.01-1.379L283.3,368.7Z" transform="translate(-138.802 -180.639)" fill="#263238"/>
        <path id="Trazado_267526" data-name="Trazado 267526" d="M285.667,370.437l3.253-.11-2.619-1.9-3,.138Z" transform="translate(-138.801 -180.507)" fill="#455a64"/>
        <path id="Trazado_267527" data-name="Trazado 267527" d="M287.938,372.262l.032,1.29,3.178-.206.043-1.195Z" transform="translate(-141.072 -182.332)" fill="#263238"/>
        <path id="Trazado_267528" data-name="Trazado 267528" d="M288.92,370.194a18.351,18.351,0,0,1-2.619-1.685l-.155-.11.083.024a16.866,16.866,0,0,1-2.926.009,16.872,16.872,0,0,1,2.913-.273l.045,0,.038.027.155.109a18.318,18.318,0,0,1,2.466,1.9" transform="translate(-138.801 -180.374)" fill="#263238"/>
        <path id="Trazado_267529" data-name="Trazado 267529" d="M287.835,373.668c-.073,0-.14-.283-.149-.636s.043-.642.116-.643.14.283.149.636-.043.641-.116.643" transform="translate(-140.948 -182.448)" fill="#455a64"/>
        <path id="Trazado_267530" data-name="Trazado 267530" d="M294.084,369.621l2.256,1.934-.01-1.379-2.386-1.784Z" transform="translate(-144.015 -180.49)" fill="#263238"/>
        <path id="Trazado_267531" data-name="Trazado 267531" d="M296.308,370.132l3.253-.11-2.618-1.9-3,.139Z" transform="translate(-144.015 -180.357)" fill="#455a64"/>
        <path id="Trazado_267532" data-name="Trazado 267532" d="M298.578,371.957l.032,1.29,3.178-.206.043-1.195Z" transform="translate(-146.285 -182.182)" fill="#263238"/>
        <path id="Trazado_267533" data-name="Trazado 267533" d="M299.561,369.89a18.32,18.32,0,0,1-2.619-1.685l-.155-.109.083.024a16.864,16.864,0,0,1-2.926.009,16.876,16.876,0,0,1,2.913-.273l.045,0,.038.026.155.109a18.368,18.368,0,0,1,2.466,1.9" transform="translate(-144.015 -180.226)" fill="#263238"/>
        <path id="Trazado_267534" data-name="Trazado 267534" d="M298.475,373.364c-.073,0-.14-.283-.149-.636s.043-.642.116-.643.14.283.149.636-.043.641-.116.643" transform="translate(-146.161 -182.299)" fill="#455a64"/>
        <path id="Trazado_267535" data-name="Trazado 267535" d="M304.877,369.353l2.256,1.934-.01-1.379-2.386-1.783Z" transform="translate(-149.303 -180.359)" fill="#263238"/>
        <path id="Trazado_267536" data-name="Trazado 267536" d="M307.1,369.865l3.253-.11-2.618-1.9-3,.138Z" transform="translate(-149.302 -180.226)" fill="#455a64"/>
        <path id="Trazado_267537" data-name="Trazado 267537" d="M309.371,371.69l.032,1.29,3.178-.206.043-1.195Z" transform="translate(-151.573 -182.051)" fill="#263238"/>
        <path id="Trazado_267538" data-name="Trazado 267538" d="M310.354,369.622a18.342,18.342,0,0,1-2.619-1.685l-.155-.11.083.024a16.863,16.863,0,0,1-2.926.009,16.87,16.87,0,0,1,2.913-.273l.045,0,.038.027.155.109a18.369,18.369,0,0,1,2.466,1.9" transform="translate(-149.303 -180.094)" fill="#263238"/>
        <path id="Trazado_267539" data-name="Trazado 267539" d="M309.268,373.1c-.073,0-.14-.283-.149-.636s.043-.642.116-.643.14.283.149.636-.043.641-.116.643" transform="translate(-151.449 -182.168)" fill="#455a64"/>
        <path id="Trazado_267540" data-name="Trazado 267540" d="M315.182,368.871l2.256,1.935-.01-1.379-2.386-1.783Z" transform="translate(-154.352 -180.123)" fill="#263238"/>
        <path id="Trazado_267541" data-name="Trazado 267541" d="M317.406,369.382l3.253-.11-2.618-1.9-3,.138Z" transform="translate(-154.351 -179.99)" fill="#455a64"/>
        <path id="Trazado_267542" data-name="Trazado 267542" d="M319.676,371.207l.032,1.29,3.178-.206.043-1.195Z" transform="translate(-156.622 -181.815)" fill="#263238"/>
        <path id="Trazado_267543" data-name="Trazado 267543" d="M320.659,369.14a18.4,18.4,0,0,1-2.619-1.685l-.155-.11.083.024a16.861,16.861,0,0,1-2.926.009,16.868,16.868,0,0,1,2.913-.273l.045,0,.037.026.155.109a18.319,18.319,0,0,1,2.466,1.9" transform="translate(-154.351 -179.858)" fill="#263238"/>
        <path id="Trazado_267544" data-name="Trazado 267544" d="M319.573,372.614c-.073,0-.14-.283-.149-.636s.043-.642.116-.643.14.283.149.636-.043.641-.116.643" transform="translate(-156.498 -181.931)" fill="#455a64"/>
        <path id="Trazado_267545" data-name="Trazado 267545" d="M325.257,368.29l2.256,1.934-.01-1.379-2.386-1.784Z" transform="translate(-159.288 -179.838)" fill="#263238"/>
        <path id="Trazado_267546" data-name="Trazado 267546" d="M327.48,368.8l3.253-.11-2.619-1.9-3,.138Z" transform="translate(-159.287 -179.706)" fill="#455a64"/>
        <path id="Trazado_267547" data-name="Trazado 267547" d="M329.751,370.627l.032,1.29,3.178-.206.043-1.195Z" transform="translate(-161.558 -181.531)" fill="#263238"/>
        <path id="Trazado_267548" data-name="Trazado 267548" d="M330.734,368.559a18.352,18.352,0,0,1-2.619-1.685l-.155-.11.083.024a16.809,16.809,0,0,1-2.926.009,16.875,16.875,0,0,1,2.913-.273l.045,0,.038.027.155.109a18.365,18.365,0,0,1,2.466,1.9" transform="translate(-159.288 -179.573)" fill="#263238"/>
        <path id="Trazado_267549" data-name="Trazado 267549" d="M329.648,372.034c-.073,0-.14-.283-.149-.636s.043-.642.116-.643.14.283.149.636-.043.641-.116.643" transform="translate(-161.434 -181.647)" fill="#455a64"/>
        <path id="Trazado_267550" data-name="Trazado 267550" d="M309.642,363.43l-45.551,2.478-6.048,5.719-11.658-10.221v2.965l12.076,11.574,6.667-6.483,45.209-2.7Z" transform="translate(-120.714 -177.068)" fill="#263238"/>
        <path id="Trazado_267551" data-name="Trazado 267551" d="M270.061,381.1l41.156-2.408,10.719-6.771-46.3,1.816Z" transform="translate(-132.313 -182.217)" fill="#263238"/>
        <path id="Trazado_267552" data-name="Trazado 267552" d="M321.937,371.912a.572.572,0,0,1-.14.022l-.412.038-1.586.12-5.837.39L294.7,373.669l-17.967,1.038.063-.028-4.9,4.708-1.347,1.273-.356.326a.684.684,0,0,1-.128.1.7.7,0,0,1,.108-.125l.336-.347,1.31-1.311,4.843-4.772.026-.026.038,0,17.963-1.1,19.267-1.11,5.842-.306,1.589-.07.414-.011a.567.567,0,0,1,.141.005" transform="translate(-132.313 -182.211)" fill="#455a64"/>
        <path id="Trazado_267553" data-name="Trazado 267553" d="M282.12,373.788a12.944,12.944,0,0,1-1.036-3.555,12.994,12.994,0,0,1,1.036,3.555" transform="translate(-137.706 -181.391)" fill="#455a64"/>
      </g>
    </g>
    <rect id="Rectángulo_292366" data-name="Rectángulo 292366" width="113.733" height="75.844" transform="translate(0.133 0.133)" fill="#fafafa"/>
    <rect id="Rectángulo_292367" data-name="Rectángulo 292367" width="18.712" height="7.506" transform="translate(21.239 27.268)" fill="#ff725e"/>
    <rect id="Rectángulo_292368" data-name="Rectángulo 292368" width="18.712" height="7.506" transform="translate(77.374 27.268)" fill="#ff725e"/>
    <rect id="Rectángulo_292369" data-name="Rectángulo 292369" width="18.712" height="7.506" transform="translate(77.374 42.177)" fill="#ff725e"/>
    <rect id="Rectángulo_292370" data-name="Rectángulo 292370" width="18.712" height="7.506" transform="translate(77.374 49.631)" fill="#ff725e"/>
    <rect id="Rectángulo_292371" data-name="Rectángulo 292371" width="18.712" height="7.506" transform="translate(39.951 42.312)" fill="#455a64"/>
    <rect id="Rectángulo_292372" data-name="Rectángulo 292372" width="18.712" height="7.506" transform="translate(58.631 49.908)" fill="#455a64"/>
    <rect id="Rectángulo_292373" data-name="Rectángulo 292373" width="18.712" height="7.81" transform="translate(39.951 64.799)" fill="#ebebeb"/>
    <rect id="Rectángulo_292374" data-name="Rectángulo 292374" width="18.712" height="7.506" transform="translate(77.374 64.903)" fill="#ff725e"/>
    <rect id="Rectángulo_292375" data-name="Rectángulo 292375" width="101.028" height="7.336" transform="translate(9.383 19.933)" fill="#e0e0e0"/>
    <rect id="Rectángulo_292376" data-name="Rectángulo 292376" width="17.712" height="52.833" transform="translate(3.527 19.933)" fill="#e0e0e0"/>
    <path id="Trazado_267554" data-name="Trazado 267554" d="M24.637,91.922H6.415V38.579H24.637Zm-17.712-.51h17.2V39.089H6.925Z" transform="translate(-3.143 -18.901)" fill="#e0e0e0"/>
    <rect id="Rectángulo_292377" data-name="Rectángulo 292377" width="113.733" height="8.605" transform="translate(0.133 0.133)" fill="#ff725e"/>
    <rect id="Rectángulo_292378" data-name="Rectángulo 292378" width="17.511" height="4.924" transform="translate(3.729 11.873)" fill="#ebebeb"/>
    <rect id="Rectángulo_292379" data-name="Rectángulo 292379" width="16.887" height="4.924" transform="translate(23.29 11.873)" fill="#ebebeb"/>
    <rect id="Rectángulo_292380" data-name="Rectángulo 292380" width="16.887" height="4.924" transform="translate(41.811 11.873)" fill="#ebebeb"/>
    <rect id="Rectángulo_292381" data-name="Rectángulo 292381" width="16.887" height="4.924" transform="translate(60.332 11.873)" fill="#ebebeb"/>
    <rect id="Rectángulo_292382" data-name="Rectángulo 292382" width="16.887" height="4.924" transform="translate(78.852 11.873)" fill="#ebebeb"/>
    <rect id="Rectángulo_292383" data-name="Rectángulo 292383" width="13.881" height="4.924" transform="translate(97.374 11.873)" fill="#ebebeb"/>
    <g id="Grupo_873896" data-name="Grupo 873896">
      <g id="Grupo_873895" data-name="Grupo 873895" clip-path="url(#clip-path)">
        <path id="Trazado_267555" data-name="Trazado 267555" d="M6.82,91.628s.179-.005.523-.008l1.527-.008,5.909-.015,22.138-.035L113.7,91.5l-.125.125c0-16.291-.005-34.11-.008-52.668v-.008l.133.133L6.82,39.051l.1-.1c-.022,16.235-.04,29.392-.053,38.5-.01,4.555-.019,8.1-.024,10.5,0,1.2-.008,2.117-.011,2.739s-.01.941-.01.941-.007-.309-.01-.92S6.8,89.18,6.8,87.987c-.006-2.4-.014-5.933-.025-10.479-.012-9.117-.03-22.295-.053-38.556v-.1h.1L113.7,38.82h.133v.14c0,18.558-.005,36.377-.008,52.668v.125H113.7l-76.872-.06-22.11-.034L8.84,91.643l-1.512-.008c-.339,0-.508-.008-.508-.008" transform="translate(-3.293 -19.019)" fill="#263238"/>
        <path id="Trazado_267556" data-name="Trazado 267556" d="M114.193,53.334c0,.073-23.928.133-53.44.133s-53.445-.059-53.445-.133S31.233,53.2,60.754,53.2s53.44.059,53.44.133" transform="translate(-3.581 -26.065)" fill="#263238"/>
        <path id="Trazado_267557" data-name="Trazado 267557" d="M114.193,68.05c0,.073-23.928.133-53.44.133S7.309,68.123,7.309,68.05s23.924-.133,53.445-.133,53.44.059,53.44.133" transform="translate(-3.581 -33.275)" fill="#263238"/>
        <path id="Trazado_267558" data-name="Trazado 267558" d="M114.193,82.766c0,.073-23.928.133-53.44.133s-53.445-.059-53.445-.133,23.924-.133,53.445-.133,53.44.059,53.44.133" transform="translate(-3.581 -40.485)" fill="#263238"/>
        <path id="Trazado_267559" data-name="Trazado 267559" d="M114.193,97.482c0,.073-23.928.133-53.44.133s-53.445-.059-53.445-.133,23.924-.133,53.445-.133,53.44.059,53.44.133" transform="translate(-3.581 -47.695)" fill="#263238"/>
        <path id="Trazado_267560" data-name="Trazado 267560" d="M114.193,112.2c0,.073-23.928.133-53.44.133s-53.445-.059-53.445-.133,23.924-.133,53.445-.133,53.44.059,53.44.133" transform="translate(-3.581 -54.905)" fill="#263238"/>
        <path id="Trazado_267561" data-name="Trazado 267561" d="M114.193,126.914c0,.073-23.928.133-53.44.133s-53.445-.059-53.445-.133,23.924-.133,53.445-.133,53.44.059,53.44.133" transform="translate(-3.581 -62.115)" fill="#263238"/>
        <path id="Trazado_267562" data-name="Trazado 267562" d="M41.514,92.2c-.073,0-.133-11.762-.133-26.268s.059-26.27.133-26.27.133,11.759.133,26.27S41.587,92.2,41.514,92.2" transform="translate(-20.274 -19.43)" fill="#263238"/>
        <path id="Trazado_267563" data-name="Trazado 267563" d="M78.2,92.039c-.073,0-.133-11.727-.133-26.189s.059-26.192.133-26.192.133,11.724.133,26.192-.059,26.189-.133,26.189" transform="translate(-38.248 -19.43)" fill="#263238"/>
        <path id="Trazado_267564" data-name="Trazado 267564" d="M114.883,92.2c-.073,0-.133-11.762-.133-26.268s.059-26.27.133-26.27.133,11.759.133,26.27-.059,26.268-.133,26.268" transform="translate(-56.221 -19.43)" fill="#263238"/>
        <path id="Trazado_267565" data-name="Trazado 267565" d="M151.568,92.2c-.073,0-.133-11.762-.133-26.268s.059-26.27.133-26.27.133,11.759.133,26.27-.059,26.268-.133,26.268" transform="translate(-74.194 -19.43)" fill="#263238"/>
        <path id="Trazado_267566" data-name="Trazado 267566" d="M188.253,92.2c-.073,0-.133-11.762-.133-26.268s.059-26.27.133-26.27.133,11.759.133,26.27-.059,26.268-.133,26.268" transform="translate(-92.167 -19.43)" fill="#263238"/>
        <path id="Trazado_267567" data-name="Trazado 267567" d="M11.212,7.622a1.085,1.085,0,1,1-1.085-1.117,1.1,1.1,0,0,1,1.085,1.117" transform="translate(-4.43 -3.187)" fill="#fff"/>
        <path id="Trazado_267568" data-name="Trazado 267568" d="M18.439,7.622a1.085,1.085,0,1,1-1.085-1.117,1.1,1.1,0,0,1,1.085,1.117" transform="translate(-7.971 -3.187)" fill="#fff"/>
        <path id="Trazado_267569" data-name="Trazado 267569" d="M25.665,7.622A1.086,1.086,0,1,1,24.58,6.505a1.1,1.1,0,0,1,1.085,1.117" transform="translate(-11.511 -3.187)" fill="#fff"/>
        <path id="Trazado_267570" data-name="Trazado 267570" d="M113.866,75.976c0-.866-.041-29.639-.106-75.844l.106.106L.142.265H.133L.266.132c0,27.01-.008,52.7-.011,75.844l-.122-.122,81.954.06,23.405.033,6.222.015,1.6.007c.361,0,.548.007.548.007s-.178,0-.534.007l-1.591.007-6.2.015-23.378.033L.133,76.1H.011v-.122C.008,52.832,0,27.142,0,.132V0H.142L113.866.026h.106V.132c-.065,46.2-.105,74.979-.106,75.844" transform="translate(0 0)" fill="#263238"/>
      </g>
    </g>
    <g id="Grupo_873904" data-name="Grupo 873904">
      <g id="Grupo_873903" data-name="Grupo 873903" clip-path="url(#clip-path)">
        <path id="Trazado_267571" data-name="Trazado 267571" d="M176.147,176.124l-5.9,7.329-24.6,6.849,3.674,39.735c1.133,15.575,2.727,19.393,3.825,29.748v8.443h69.87l9.754-80.664-24.094-5.541-5.183-5.9Z" transform="translate(-71.359 -86.29)" fill="#a6fbe8"/>
        <path id="Trazado_267572" data-name="Trazado 267572" d="M203.4,198.249l3.009,39.791,3.217,20.2,23.621-65.919L214.19,214.9Z" transform="translate(-99.652 -94.225)" fill="#fff"/>
        <path id="Trazado_267573" data-name="Trazado 267573" d="M214.935,258.81a1.277,1.277,0,0,1,.093-.193l.3-.554,1.159-2.118,4.306-7.768L235.083,222.6l7.792-13.879.028.154-3.391-2.865-.125-.106.14-.083,4.832-2.849-.05.1c-.528-4.705-.959-8.546-1.26-11.226-.142-1.323-.252-2.359-.33-3.078-.033-.343-.059-.61-.078-.8s-.017-.276-.017-.276.021.092.047.272l.108.8c.09.718.22,1.751.385,3.072.322,2.677.784,6.515,1.35,11.216l.008.066-.058.034-4.82,2.871.016-.188,3.4,2.854.078.065-.049.089-7.775,13.889-14.362,25.539-4.38,7.726-1.2,2.094-.319.541a1.269,1.269,0,0,1-.116.18" transform="translate(-105.305 -91.956)" fill="#263238"/>
        <path id="Trazado_267574" data-name="Trazado 267574" d="M200.737,260.184a1.05,1.05,0,0,1-.068-.187c-.043-.137-.1-.321-.173-.555-.15-.5-.366-1.224-.641-2.144-.549-1.88-1.338-4.574-2.31-7.9-.958-3.342-2.146-7.3-3.367-11.736-1.138-4.456-2.224-9.389-3.373-14.565-1.558-7.1-2.967-13.747-4.136-19.374l-.02-.1.094-.033,3.218-1.126-.014.193-3.918-2.077-.073-.039.03-.076,2.915-7.321.8-1.975.214-.51a.094.094,0,1,1,.025.009l-.19.52-.755,1.992-2.837,7.352-.043-.115,3.931,2.052.215.112-.229.081-3.213,1.141.073-.131c1.194,5.621,2.616,12.265,4.173,19.363,1.148,5.175,2.227,10.11,3.35,14.561,1.2,4.422,2.377,8.4,3.31,11.745s1.7,6.038,2.229,7.923l.594,2.158.147.563a1.073,1.073,0,0,1,.042.194" transform="translate(-91.107 -93.329)" fill="#263238"/>
        <path id="Trazado_267575" data-name="Trazado 267575" d="M104.209,203.919s-5.411,2.633-9.222,14.761c-2.77,8.812-14.034,39.156-14.034,39.156L68.478,254.2s-9.183,11.435-7.1,15.42S78.65,281.845,78.65,281.845h17.8a14.612,14.612,0,0,0,5.087-7.415l10.176-34.266Z" transform="translate(-29.92 -99.908)" fill="#a6fbe8"/>
        <path id="Trazado_267576" data-name="Trazado 267576" d="M306.516,198.552a21.923,21.923,0,0,1,7.832,8.045c3.108,5.525,27.909,45.889,29.965,55.461,3.069,14.294-3.063,17.144-3.063,17.144h-8.571l-21.213-.12-2.677-16.6,9.431-2.012L300.74,241.082l-1.158,1.977-3.419-27.67Z" transform="translate(-145.102 -97.278)" fill="#a6fbe8"/>
        <path id="Trazado_267577" data-name="Trazado 267577" d="M150.051,236.6c.073-.006.7,6.858,1.411,15.33s1.22,15.347,1.147,15.353-.7-6.857-1.412-15.331-1.22-15.346-1.147-15.352" transform="translate(-73.513 -115.918)" fill="#263238"/>
        <path id="Trazado_267578" data-name="Trazado 267578" d="M309.562,221.536c.073.009-.9,8.574-2.182,19.127s-2.374,19.106-2.446,19.1.9-8.572,2.183-19.129,2.373-19.1,2.446-19.1" transform="translate(-149.397 -108.539)" fill="#263238"/>
        <path id="Trazado_267579" data-name="Trazado 267579" d="M325.578,337.605c-.007-.007.083-.106.24-.3s.382-.5.637-.907a14.861,14.861,0,0,0,1.642-3.713,18.105,18.105,0,0,0,.591-2.746,12.886,12.886,0,0,0,.139-3.2,7.556,7.556,0,0,0-1.182-3.287,8.921,8.921,0,0,0-2.689-2.631c-.077-.048-.158-.1-.227-.133l-.284-.155.308-.09a66.678,66.678,0,0,1,13.1-2.445c1.7-.145,3.074-.209,4.025-.239.475-.017.845-.019,1.095-.022a2.188,2.188,0,0,1,.383.011,2.05,2.05,0,0,1-.381.042l-1.091.071c-.948.061-2.321.154-4.013.322a71.123,71.123,0,0,0-13.045,2.515l.024-.245c.082.045.162.092.244.143a9.12,9.12,0,0,1,2.768,2.716,7.757,7.757,0,0,1,1.207,3.4,12.907,12.907,0,0,1-.164,3.261,17.812,17.812,0,0,1-.629,2.769,14.1,14.1,0,0,1-1.735,3.716,8.441,8.441,0,0,1-.682.884,1.45,1.45,0,0,1-.281.27" transform="translate(-158.958 -155.668)" fill="#263238"/>
        <path id="Trazado_267580" data-name="Trazado 267580" d="M214.929,342.033c-.073,0-.133-3.418-.133-7.633s.059-7.634.133-7.634.133,3.417.133,7.634-.059,7.633-.133,7.633" transform="translate(-105.237 -160.096)" fill="#263238"/>
        <path id="Trazado_267581" data-name="Trazado 267581" d="M272.669,285.21a3.618,3.618,0,0,1-.016-.362c-.005-.25-.011-.589-.019-1.019-.01-.9-.025-2.178-.043-3.789l.079.079-21.138.054c.059-.059-.134.133.132-.133v1.32q0,.656,0,1.3,0,1.294,0,2.547l-.13-.13,15.045.059,4.456.037,1.208.017.317.008a.643.643,0,0,1,.113.009,3.387,3.387,0,0,1-.4.017l-1.179.017-4.426.037-15.137.059H251.4v-.131q0-1.252,0-2.547,0-.647,0-1.3v-1.32c.266-.265.074-.073.134-.133l21.138.054h.08v.079c-.018,1.63-.033,2.925-.043,3.836-.008.422-.014.755-.019,1a2.6,2.6,0,0,1-.016.333" transform="translate(-123.169 -137.131)" fill="#263238"/>
        <path id="Trazado_267582" data-name="Trazado 267582" d="M147.328,219.428c-.072.015-.765-2.933-1.548-6.585s-1.36-6.627-1.288-6.642.765,2.933,1.548,6.586,1.36,6.626,1.288,6.641" transform="translate(-70.789 -101.026)" fill="#263238"/>
        <g id="Grupo_873899" data-name="Grupo 873899" transform="translate(110.802 111.105)" opacity="0.3">
          <g id="Grupo_873898" data-name="Grupo 873898">
            <g id="Grupo_873897" data-name="Grupo 873897" clip-path="url(#clip-path-5)">
              <path id="Trazado_267583" data-name="Trazado 267583" d="M217.232,271.487,247.4,225.211,243.049,221l2.489-3.178-4.826,2.86,3.4,2.86Z" transform="translate(-217.232 -217.826)"/>
            </g>
          </g>
        </g>
        <g id="Grupo_873902" data-name="Grupo 873902" transform="translate(36.271 166.317)" opacity="0.3">
          <g id="Grupo_873901" data-name="Grupo 873901">
            <g id="Grupo_873900" data-name="Grupo 873900" clip-path="url(#clip-path-6)">
              <path id="Trazado_267584" data-name="Trazado 267584" d="M71.112,326.073v2.57l34.245.108v-2.678Z" transform="translate(-71.112 -326.073)"/>
            </g>
          </g>
        </g>
        <path id="Trazado_267585" data-name="Trazado 267585" d="M152.767,97.366a5.073,5.073,0,0,0,4.767-2.129,6.042,6.042,0,0,1-3.662-.2c-1.108-.565-1.735-2.2-.867-3.088.678-.695,1.8-.575,2.764-.646a5.977,5.977,0,0,0,5.084-3.9c.82-2.355.07-4.923-.224-7.4a20.379,20.379,0,0,1,8.531-18.808l15.509-8.965c5.625,7.2,7.379,16.9,6.213,25.963s-5.01,17.578-9.63,25.46a30.25,30.25,0,0,1-4.68,6.44,11.983,11.983,0,0,1-6.97,3.576,7.187,7.187,0,0,1,1.148-6.491,15.654,15.654,0,0,1-11.535-4.131l3.324-2.549a12.139,12.139,0,0,1-9.771-3.127" transform="translate(-74.763 -25.588)" fill="#263238"/>
        <path id="Trazado_267586" data-name="Trazado 267586" d="M225.608,72.558a14.532,14.532,0,0,0-10.547-13.689l-19.443-5.556c-8.438-1.156-14.388,9.095-15.185,17.575-.885,9.421-1.549,19.37-.647,26.447C181.6,111.567,192.4,113.7,192.4,113.7c0-.021-.36,12.825-.471,16.963l9.89,20.679,19.165-26.451,4.67-52.162c.012-.242-.031.15-.045-.173" transform="translate(-87.874 -26.077)" fill="#af7e69"/>
        <path id="Trazado_267587" data-name="Trazado 267587" d="M188.79,109.34a1.817,1.817,0,0,0,1.695,1.887,1.738,1.738,0,0,0,1.922-1.58,1.818,1.818,0,0,0-1.693-1.887,1.739,1.739,0,0,0-1.924,1.581" transform="translate(-92.494 -52.792)" fill="#263238"/>
        <path id="Trazado_267588" data-name="Trazado 267588" d="M185.3,97.123c.218.244,1.625-.732,3.58-.667,1.953.037,3.357,1.086,3.576.854.107-.1-.109-.538-.72-1.011a4.985,4.985,0,0,0-2.853-.977,4.781,4.781,0,0,0-2.858.826c-.616.443-.832.865-.725.974" transform="translate(-90.773 -46.701)" fill="#263238"/>
        <path id="Trazado_267589" data-name="Trazado 267589" d="M221.191,109.341a1.817,1.817,0,0,0,1.695,1.886,1.738,1.738,0,0,0,1.922-1.58,1.818,1.818,0,0,0-1.693-1.887,1.739,1.739,0,0,0-1.924,1.581" transform="translate(-108.369 -52.792)" fill="#263238"/>
        <path id="Trazado_267590" data-name="Trazado 267590" d="M221.693,98.162c.219.244,1.628-.732,3.581-.667,1.952.037,3.356,1.086,3.576.854.107-.1-.107-.537-.72-1.011a4.987,4.987,0,0,0-2.853-.977,4.793,4.793,0,0,0-2.858.827c-.614.443-.831.865-.725.974" transform="translate(-108.603 -47.21)" fill="#263238"/>
        <path id="Trazado_267591" data-name="Trazado 267591" d="M204.137,114.031a12.988,12.988,0,0,0-3.157-.67c-.5-.067-.967-.181-1.041-.523a2.54,2.54,0,0,1,.379-1.469q.76-1.79,1.592-3.755c2.216-5.347,3.837-9.751,3.621-9.838s-2.188,4.176-4.4,9.524q-.8,1.978-1.532,3.779a2.887,2.887,0,0,0-.319,1.951,1.251,1.251,0,0,0,.8.755,3.387,3.387,0,0,0,.844.144,12.7,12.7,0,0,0,3.217.1" transform="translate(-97.596 -47.903)" fill="#263238"/>
        <path id="Trazado_267592" data-name="Trazado 267592" d="M223.768,162.967s-4.887,9.6-19.02,7.835l.091-3.332a35.693,35.693,0,0,0,18.929-4.5" transform="translate(-100.314 -79.844)" fill="#7c5142"/>
        <path id="Trazado_267593" data-name="Trazado 267593" d="M223.308,86.233c.176.537,2.135.345,4.42.692,2.292.3,4.12,1.029,4.439.562.143-.224-.164-.734-.9-1.271a7.779,7.779,0,0,0-6.749-.956c-.852.314-1.288.718-1.213.973" transform="translate(-109.403 -41.586)" fill="#263238"/>
        <path id="Trazado_267594" data-name="Trazado 267594" d="M186.868,85.321c.33.454,1.691.035,3.31.063,1.62-.029,2.981.39,3.311-.064.145-.221-.057-.672-.643-1.111a4.792,4.792,0,0,0-5.335,0c-.587.439-.788.89-.643,1.111" transform="translate(-91.532 -40.86)" fill="#263238"/>
        <path id="Trazado_267595" data-name="Trazado 267595" d="M218.42,135.191a2.55,2.55,0,0,0-2.58-2.012,2.667,2.667,0,0,0-2.092,1.4,3.279,3.279,0,0,0-.189,2.548l.036.184a2.906,2.906,0,0,0,3.249.789,2.716,2.716,0,0,0,1.576-2.909" transform="translate(-104.547 -65.247)" fill="#7c5142"/>
        <path id="Trazado_267596" data-name="Trazado 267596" d="M211.012,136.083c.006-.3,1.98-.146,3.513-1.726s1.482-3.7,1.759-3.691c.126-.018.346.5.3,1.388a4.929,4.929,0,0,1-1.356,3.09,4.3,4.3,0,0,1-2.936,1.32c-.831.011-1.3-.248-1.281-.382" transform="translate(-103.383 -64.018)" fill="#263238"/>
        <path id="Trazado_267597" data-name="Trazado 267597" d="M212.117,39.107c-2.188-3.475-7.355-7.1-11.4-7.81-4.611-.806-7.39-.016-10.422,2.753,0,0-2.36,2.277-4.571,2.707s-4.06.065-6.7,1.415c-3.6,1.843-5.183,6.662-6.853,10.349-2.075,4.582-5.032,8.8-6.385,13.643s-.633,10.8,3.449,13.736c-.7-3.712-1.283-7.8.246-11.156a9.742,9.742,0,0,0,.247,4.021,16.677,16.677,0,0,1,3.152-6.113c1.493-1.587,3.557-2.536,5.095-4.079,2.26-2.268,3.3-5.724,6.046-7.37,2.856-1.712,6.469-.858,9.8-.842a18.775,18.775,0,0,0,14.6-7.033l-.828-.07a23.243,23.243,0,0,0,4.527-4.151" transform="translate(-80.92 -15.187)" fill="#263238"/>
        <path id="Trazado_267598" data-name="Trazado 267598" d="M267.554,80.483c-1.271-4.165-3.5-7.978-4.9-12.1-1.36-4.018-1.922-8.312-3.728-12.15-2.429-5.163-6.971-11.851-14.047-11.482l-.484.425a15.124,15.124,0,0,0-7.132.851l-.108,5.516L235.8,52.732c.569,1.095,1.107,2.153,1.629,3.193a34.844,34.844,0,0,0,1.8,6.071,15.735,15.735,0,0,0,3.395,5.162c12.189,29.181,1.133,31.025,6.625,47.75l3.454-9.575a17.068,17.068,0,0,0,6.832-7.359q.3,1.517.609,3.034a17.592,17.592,0,0,0,4.761-10.868l1.585,2.911c2.506-3.561,2.333-8.4,1.062-12.568" transform="translate(-115.527 -21.917)" fill="#263238"/>
        <path id="Trazado_267599" data-name="Trazado 267599" d="M256.953,111.965c.19-.475,9-3.373,8.851,5.9-.145,9.008-9.18,6.976-9.191,6.717s.34-12.616.34-12.616" transform="translate(-125.725 -54.464)" fill="#af7e69"/>
        <path id="Trazado_267600" data-name="Trazado 267600" d="M262.182,124.07c.04-.028.155.113.418.239a1.566,1.566,0,0,0,1.173.047c.958-.331,1.788-1.826,1.863-3.449a5.179,5.179,0,0,0-.4-2.254,1.812,1.812,0,0,0-1.157-1.227.8.8,0,0,0-.934.412c-.125.249-.072.43-.12.445-.026.022-.191-.155-.111-.525a1,1,0,0,1,.365-.557,1.181,1.181,0,0,1,.872-.213,2.2,2.2,0,0,1,1.612,1.428,5.323,5.323,0,0,1,.5,2.521c-.092,1.814-1.054,3.494-2.363,3.846a1.682,1.682,0,0,1-1.431-.266c-.274-.228-.318-.43-.287-.446" transform="translate(-128.449 -57.311)" fill="#7c5142"/>
        <path id="Trazado_267601" data-name="Trazado 267601" d="M262.677,134.043a1.772,1.772,0,1,1-.424.121" transform="translate(-127.966 -65.664)" fill="#fff"/>
        <path id="Trazado_267602" data-name="Trazado 267602" d="M262.1,134.1a2.426,2.426,0,0,0-.844,1.186,1.527,1.527,0,0,0,.311,1.424,1.575,1.575,0,0,0,2.795-.8,1.529,1.529,0,0,0-.492-1.372,2.42,2.42,0,0,0-1.346-.556c0-.022.141-.089.425-.088a1.839,1.839,0,0,1,1.112.425,1.8,1.8,0,0,1,.676,1.644,1.935,1.935,0,0,1-3.46.994,1.8,1.8,0,0,1-.3-1.753,1.844,1.844,0,0,1,.717-.951c.24-.152.4-.173.406-.151" transform="translate(-127.809 -65.598)" fill="#263238"/>
        <path id="Trazado_267603" data-name="Trazado 267603" d="M237.188,55.142c.179.071,1.011-2.982,3.52-5.815,2.469-2.87,5.382-4.106,5.287-4.274a5.027,5.027,0,0,0-1.9.761,14.6,14.6,0,0,0-6.41,7.343,5.021,5.021,0,0,0-.5,1.985" transform="translate(-116.199 -22.068)" fill="#455a64"/>
        <path id="Trazado_267604" data-name="Trazado 267604" d="M53.556,293.06l-6.722-7.9s-4.717,0-7.076-2.241-6.722-4.363-4.953-8.373a4.527,4.527,0,0,1-.412-5.189l.058-.708s-5.307-2.241-3.774-4.953a3.616,3.616,0,0,1,4.481-1.533s-5.8-3.916-6.84-4.988c-2.793-2.868.21-4.8,3.316-3.082,5.138,2.841,22.51,11.018,23.689,16.915v2.569s4.835,5.922,4.835,6.276-.353,9.552-6.6,13.208" transform="translate(-13.332 -124.173)" fill="#af7e69"/>
        <path id="Trazado_267605" data-name="Trazado 267605" d="M12.236,213.732c-.213-.266,26.38,42.6,26.38,42.6l1.207,14.382h41.5l-3.85-16.372s-7.175-19.23-7.093-19.455c.158-.437-13.425-21.807-13.425-21.807Z" transform="translate(-5.994 -104.396)" fill="#fff"/>
        <path id="Trazado_267606" data-name="Trazado 267606" d="M12.237,213.627s.278-.014.813-.027l2.364-.049,9.007-.16,32.533-.524h.06l.032.051c3.555,5.606,7.464,11.749,11.515,18.385.5.832,1.008,1.671,1.5,2.532.121.217.241.433.352.662a1.493,1.493,0,0,1,.08.189.217.217,0,0,1,.014.092c-.01.067,0,.043.007.048s.005,0,0,0l.013.043.11.349.49,1.41,2.08,5.721L77.6,254.191l0,.008,0,.008,3.641,15.476c.07.3.141.6.211.9l.038.163h-.168l-41.5-.011h-.112l-.009-.112q-.628-7.548-1.2-14.383l.016.05L19.4,225.353,14.083,216.7,12.7,214.419l-.349-.588a1.337,1.337,0,0,1-.11-.2l26.476,42.54.014.023,0,.027q.578,6.827,1.216,14.382l-.121-.112,41.5-.011-.129.163c-.069-.295-.14-.6-.211-.9l-3.638-15.476,0,.016-4.383-11.844q-1.052-2.9-2.076-5.725Q70.644,236,70.4,235.3l-.113-.361-.014-.046a.508.508,0,0,1-.011-.09v-.045c-.093-.04.136.031.08.013a.189.189,0,0,0-.071-.011c-.035,0-.008.021-.015.017l-.006-.016a1.4,1.4,0,0,0-.065-.154c-.105-.216-.225-.433-.344-.647-.484-.856-.988-1.7-1.489-2.527-4.041-6.636-7.943-12.786-11.487-18.4l.093.05-32.575.425-8.994.1-2.351.02c-.53,0-.8,0-.8,0" transform="translate(-5.995 -104.292)" fill="#263238"/>
        <path id="Trazado_267607" data-name="Trazado 267607" d="M83.971,257.3a1.919,1.919,0,0,1-.371.016l-1.062,0-3.9-.074c-3.3-.075-7.847-.2-12.875-.281s-9.583-.072-12.875.033c-1.646.044-2.978.113-3.9.165l-1.059.061a1.936,1.936,0,0,1-.371,0,1.91,1.91,0,0,1,.366-.057l1.056-.111c.919-.084,2.25-.181,3.9-.249,3.3-.153,7.854-.186,12.886-.111s9.583.236,12.876.359l3.9.158,1.06.055a1.97,1.97,0,0,1,.369.037" transform="translate(-23.3 -125.743)" fill="#263238"/>
        <path id="Trazado_267608" data-name="Trazado 267608" d="M103.8,292.334c-.009.073-5.878-.568-13.108-1.432S77.6,289.28,77.612,289.208s5.876.568,13.109,1.432,13.085,1.622,13.076,1.695" transform="translate(-38.025 -141.691)" fill="#263238"/>
        <path id="Trazado_267609" data-name="Trazado 267609" d="M53.982,295.026l7.765-.494a3.373,3.373,0,0,0,2.283-.728,2.073,2.073,0,0,0-.531-2.882l-8.9-2.144" transform="translate(-26.448 -141.483)" fill="#af7e69"/>
        <path id="Trazado_267610" data-name="Trazado 267610" d="M54.6,288.774a3.981,3.981,0,0,1,.688.118l1.879.413,6.361,1.486.018,0,.014.008a1.847,1.847,0,0,1,.746.859,2.515,2.515,0,0,1,.23,1.134,1.616,1.616,0,0,1-.459,1.139,2.31,2.31,0,0,1-1.043.549,12.756,12.756,0,0,1-2.138.219l-3.6.2-2.426.112a5.765,5.765,0,0,1-.892.005,5.673,5.673,0,0,1,.885-.108l2.421-.2,3.593-.258a13.039,13.039,0,0,0,2.087-.227,2.055,2.055,0,0,0,.926-.488,1.355,1.355,0,0,0,.376-.958,2,2,0,0,0-.835-1.756l.032.013-6.34-1.575-1.861-.488a3.981,3.981,0,0,1-.666-.208" transform="translate(-26.448 -141.48)" fill="#7c5142"/>
        <path id="Trazado_267611" data-name="Trazado 267611" d="M54.433,283.315a38.239,38.239,0,0,1,6.9,1.944,1.53,1.53,0,0,1,1.02,1.779,1.234,1.234,0,0,1-.511.949,2.457,2.457,0,0,1-1.088.3,28.126,28.126,0,0,1-6.6-.4,13.671,13.671,0,0,0-6.594.68" transform="translate(-23.3 -138.807)" fill="#af7e69"/>
        <path id="Trazado_267612" data-name="Trazado 267612" d="M47.557,288.563a.919.919,0,0,1,.219-.133,5.026,5.026,0,0,1,.684-.264,12.551,12.551,0,0,1,2.65-.458,16.593,16.593,0,0,1,1.86-.039,20.642,20.642,0,0,1,2.121.218,28.379,28.379,0,0,0,4.826.319,10.437,10.437,0,0,0,1.252-.115,1.177,1.177,0,0,0,.914-.574,1.587,1.587,0,0,0-.414-1.954,5.072,5.072,0,0,0-.973-.421l-.968-.346c-.627-.217-1.215-.4-1.756-.567-1.081-.322-1.969-.539-2.584-.683a8.488,8.488,0,0,1-.954-.237.914.914,0,0,1,.255.02c.166.021.409.06.72.116.623.113,1.522.3,2.615.6.547.15,1.142.329,1.775.538l.977.336a5.148,5.148,0,0,1,1.031.438,1.508,1.508,0,0,1,.656,1.02,2.165,2.165,0,0,1-.147,1.253,1.129,1.129,0,0,1-.468.5,2.1,2.1,0,0,1-.627.221,10.464,10.464,0,0,1-1.292.12,27.174,27.174,0,0,1-4.87-.342c-.744-.105-1.438-.214-2.1-.241a17.275,17.275,0,0,0-1.838.007,14.139,14.139,0,0,0-2.634.369c-.611.154-.92.319-.931.3" transform="translate(-23.3 -138.803)" fill="#7c5142"/>
        <path id="Trazado_267613" data-name="Trazado 267613" d="M42.645,270.7l6.121,3.414a6.232,6.232,0,0,1,2.442,1.973,2.142,2.142,0,0,1-.379,2.844,3.067,3.067,0,0,1-2.417.08,59.223,59.223,0,0,1-6.732-2.139" transform="translate(-20.421 -132.627)" fill="#af7e69"/>
        <path id="Trazado_267614" data-name="Trazado 267614" d="M41.68,276.871a6.366,6.366,0,0,1,.86.268c.549.184,1.342.453,2.33.757s2.171.646,3.5.977a3.778,3.778,0,0,0,2.043.115,1.42,1.42,0,0,0,.789-.644,1.955,1.955,0,0,0,.233-1.055,2.706,2.706,0,0,0-.984-1.9,9.489,9.489,0,0,0-1.758-1.175l-3.164-1.8-2.121-1.232a5.833,5.833,0,0,1-.761-.483,5.72,5.72,0,0,1,.81.393l2.163,1.158L48.81,274a9.512,9.512,0,0,1,1.814,1.2,3.605,3.605,0,0,1,.744.908,2.655,2.655,0,0,1,.331,1.176,2.2,2.2,0,0,1-.27,1.2,1.679,1.679,0,0,1-.934.758,3.959,3.959,0,0,1-2.187-.124c-1.328-.345-2.511-.706-3.494-1.035s-1.769-.624-2.309-.839c-.269-.108-.477-.195-.616-.258a.781.781,0,0,1-.208-.108" transform="translate(-20.421 -132.626)" fill="#7c5142"/>
        <path id="Trazado_267615" data-name="Trazado 267615" d="M314.65,339.168l-2.909-.823-9.244-.863-2.585-3.436,1.8-7.416,11.551-2.747c5.336,3.794,3.895,10.119,1.385,15.284" transform="translate(-146.939 -158.683)" fill="#af7e69"/>
        <path id="Trazado_267616" data-name="Trazado 267616" d="M269.973,317.3a7.962,7.962,0,0,0-3.245.254,4.307,4.307,0,0,0-2.57,3.366c-.3,2.378-.393,4.307-.563,6.521a1.908,1.908,0,0,0,3.4,1.34,6.938,6.938,0,0,0,1.451-2.726c.362-.974.745-3.306,1.31-3.509,1.609-.58,3.8,2.191,5.009.831l2.2-5.355c-3.4-.333-3.59-.39-6.991-.723" transform="translate(-129.143 -155.433)" fill="#af7e69"/>
        <path id="Trazado_267617" data-name="Trazado 267617" d="M269.856,317.262a.444.444,0,0,1,.125,0l.363.022,1.394.115,5.118.491.129.012-.049.121-2.173,5.363-.007.018-.014.016a1.251,1.251,0,0,1-1.054.411,3.332,3.332,0,0,1-1.086-.328,11.857,11.857,0,0,0-2.059-.9l-.272-.043-.27,0a2.1,2.1,0,0,0-.261.054c-.094.017-.115.054-.18.119a3.6,3.6,0,0,0-.454,1.047c-.24.764-.393,1.569-.682,2.369a9.657,9.657,0,0,1-.946,2.08,3.238,3.238,0,0,1-.788.834,2.646,2.646,0,0,1-1.048.44,2.025,2.025,0,0,1-1.123-.1,1.81,1.81,0,0,1-.828-.737,2.191,2.191,0,0,1-.339-1.023c-.008-.373.043-.68.06-1.018.1-1.317.185-2.571.3-3.743q.085-.878.187-1.693a4.552,4.552,0,0,1,.4-1.539,4.117,4.117,0,0,1,3.818-2.481,9.6,9.6,0,0,1,1.291.024c.147.013.259.025.334.037a.361.361,0,0,1,.112.023,3.723,3.723,0,0,1-.449-.007,11.928,11.928,0,0,0-1.282.025,4.39,4.39,0,0,0-1.921.516,4.266,4.266,0,0,0-1.733,1.94,4.385,4.385,0,0,0-.368,1.485q-.093.812-.171,1.689c-.1,1.169-.183,2.421-.275,3.74-.015.322-.065.681-.055.984a1.949,1.949,0,0,0,.3.9,1.556,1.556,0,0,0,.712.634,1.761,1.761,0,0,0,.979.079,2.524,2.524,0,0,0,1.662-1.165,9.5,9.5,0,0,0,.916-2.024c.277-.766.435-1.579.679-2.355a3.734,3.734,0,0,1,.507-1.137.622.622,0,0,1,.133-.125.437.437,0,0,1,.17-.076,2.368,2.368,0,0,1,.315-.063c.106,0,.212-.005.317,0l.3.049a11.792,11.792,0,0,1,2.108.92,3.128,3.128,0,0,0,1,.311,1,1,0,0,0,.856-.325l-.021.034,2.217-5.345.08.133c-2.16-.22-3.9-.437-5.11-.577l-1.388-.167-.361-.049a.415.415,0,0,1-.122-.026" transform="translate(-129.027 -155.392)" fill="#7c5142"/>
        <path id="Trazado_267618" data-name="Trazado 267618" d="M292.547,315.926a3.249,3.249,0,0,0-2.7.772s-.579-2.55-2.616-3.052c-1.478-.364-3.358,1.152-3.358,1.152s-1.276-2.551-4.677-1.488c-2.814.879-8.718,18.333-9.225,19.5-.58,1.339,1.807,3.018,3.123,1.666,1.38-1.417,6.018-9.17,6.018-9.17l-3.084,10.873a2.085,2.085,0,0,0,.031,1.074,2.267,2.267,0,0,0,4.046.318c1.914-2.593,3.864-7.935,3.864-7.935l1.881-4.1s-3.51,10.863-2.235,11.853,2.913.607,4.083-1.945,5.422-10.631,5.422-10.631l2.02-1.063L294.4,326.3s-3.868,2.02-3,3.827,2.7,1.271,4.485.425,3.351-5.042,4.307-6.769c.856-1.543.939-6.086-2.73-6.259a2.8,2.8,0,0,0-2.1.837l-.183.183a3.726,3.726,0,0,0-2.633-2.624" transform="translate(-132.227 -153.376)" fill="#af7e69"/>
        <path id="Trazado_267619" data-name="Trazado 267619" d="M292.443,315.856s.082.013.243.048a1.477,1.477,0,0,1,.3.09,2.248,2.248,0,0,1,.393.179,3.934,3.934,0,0,1,1.741,2.3l-.069-.019a3.015,3.015,0,0,1,1.88-1.027,3.412,3.412,0,0,1,2.49.763,4.1,4.1,0,0,1,1.211,2.8,6.407,6.407,0,0,1-.109,1.711,4.123,4.123,0,0,1-.27.863c-.125.287-.28.536-.411.819-.544,1.107-1.066,2.3-1.737,3.5a11.5,11.5,0,0,1-1.171,1.756,4.207,4.207,0,0,1-.8.756,6.547,6.547,0,0,1-1.009.493,4.924,4.924,0,0,1-2.255.466,1.919,1.919,0,0,1-1.108-.491,2.353,2.353,0,0,1-.394-.477l-.151-.27c-.037-.1-.068-.2-.1-.307a1.743,1.743,0,0,1,.247-1.232,4.36,4.36,0,0,1,.805-.968,10.572,10.572,0,0,1,2.084-1.469l-.055.066c.228-.784.483-1.662.741-2.552l.161.131-2.019,1.065.048-.048-3.127,6.033-1.6,3.178-.789,1.637a5.612,5.612,0,0,1-1.068,1.541,2.425,2.425,0,0,1-1.754.76,2.223,2.223,0,0,1-.95-.274,2.433,2.433,0,0,1-.416-.276.9.9,0,0,1-.244-.487,6.377,6.377,0,0,1,.037-1.944c.086-.639.2-1.274.337-1.908.546-2.535,1.274-5.073,2.079-7.632l.245.1-1.88,4.1,0-.01c-.428,1.153-.93,2.371-1.475,3.582-.4.892-.83,1.77-1.3,2.622q-.354.638-.749,1.25a4.954,4.954,0,0,1-.944,1.134,2.334,2.334,0,0,1-1.39.54,2.508,2.508,0,0,1-1.419-.429,2.117,2.117,0,0,1-.9-1.17,2.217,2.217,0,0,1-.061-.744,3.569,3.569,0,0,1,.161-.7l2.979-10.489.231.1q-1.771,2.938-3.546,5.7c-.6.916-1.194,1.816-1.83,2.678a3.916,3.916,0,0,1-1.143,1.156,1.91,1.91,0,0,1-1.612.014,2.3,2.3,0,0,1-1.178-1.073,1.439,1.439,0,0,1-.126-.811c.073-.286.174-.491.26-.733l1.023-2.788c.675-1.828,1.344-3.589,2.018-5.274s1.349-3.292,2.04-4.81a38,38,0,0,1,2.2-4.233,6.725,6.725,0,0,1,1.4-1.717,1.544,1.544,0,0,1,.488-.263l.512-.131a5.357,5.357,0,0,1,1.028-.11,3.588,3.588,0,0,1,3.173,1.789l-.1-.022a6.281,6.281,0,0,1,2.227-1.128,2.542,2.542,0,0,1,1.126-.036,2.832,2.832,0,0,1,.953.412,3.878,3.878,0,0,1,1.2,1.338,5.651,5.651,0,0,1,.544,1.358l-.054-.02a3.977,3.977,0,0,1,2.02-.8,1.713,1.713,0,0,1,.7.061s-.056-.011-.17-.024a2.545,2.545,0,0,0-.524,0,4.012,4.012,0,0,0-1.982.825l-.041.03-.013-.051a5.627,5.627,0,0,0-.552-1.33,3.8,3.8,0,0,0-1.181-1.3,2.74,2.74,0,0,0-.919-.389,2.437,2.437,0,0,0-1.076.043,6.19,6.19,0,0,0-2.17,1.117l-.063.048-.04-.07a3.448,3.448,0,0,0-3.052-1.694,5.209,5.209,0,0,0-1,.111l-.5.13a1.381,1.381,0,0,0-.437.239,6.613,6.613,0,0,0-1.355,1.678,38.093,38.093,0,0,0-2.174,4.22c-.684,1.516-1.355,3.123-2.021,4.807s-1.332,3.445-2,5.274l-1.017,2.791c-.083.233-.2.487-.247.693a1.209,1.209,0,0,0,.109.672,2.079,2.079,0,0,0,1.058.955,1.675,1.675,0,0,0,1.415-.009,3.75,3.75,0,0,0,1.057-1.088c.627-.853,1.223-1.753,1.816-2.668,1.184-1.833,2.358-3.738,3.535-5.694l.49-.815-.259.915c-.958,3.384-1.95,6.889-2.97,10.487a3.463,3.463,0,0,0-.153.662,1.956,1.956,0,0,0,.054.655,1.861,1.861,0,0,0,.8,1.017,2.249,2.249,0,0,0,1.265.385,2.069,2.069,0,0,0,1.231-.481,4.7,4.7,0,0,0,.89-1.074q.388-.6.739-1.233c.465-.843.888-1.716,1.29-2.6.541-1.2,1.043-2.42,1.468-3.563l0-.006,0,0,1.881-4.1.246.1c-.8,2.549-1.532,5.085-2.076,7.6-.132.63-.25,1.26-.336,1.889a6.2,6.2,0,0,0-.043,1.853.674.674,0,0,0,.162.351,2.172,2.172,0,0,0,.369.244,1.961,1.961,0,0,0,.841.245,2.175,2.175,0,0,0,1.568-.688,11.6,11.6,0,0,0,1.81-3.107l1.608-3.179,3.139-6.029.017-.032.032-.016,2.021-1.061.235-.123-.074.255-.747,2.55-.013.043-.042.023a10.416,10.416,0,0,0-2.04,1.43,4.149,4.149,0,0,0-.769.918,1.539,1.539,0,0,0-.228,1.082,1.866,1.866,0,0,0,1.577,1.392,4.756,4.756,0,0,0,2.161-.445,6.478,6.478,0,0,0,.977-.472,4.036,4.036,0,0,0,.77-.72,11.412,11.412,0,0,0,1.158-1.723c.669-1.185,1.2-2.378,1.747-3.487.13-.277.3-.549.413-.813a3.976,3.976,0,0,0,.264-.829,6.251,6.251,0,0,0,.115-1.67,3.972,3.972,0,0,0-1.152-2.718,3.309,3.309,0,0,0-2.4-.752,2.934,2.934,0,0,0-1.834.983l-.047.052-.022-.071a3.454,3.454,0,0,0-2.593-2.634" transform="translate(-132.123 -153.306)" fill="#7c5142"/>
        <path id="Trazado_267620" data-name="Trazado 267620" d="M302.63,327.127a12.61,12.61,0,0,1-.973,3.4c-.352.912-.7,1.723-.957,2.309a4.27,4.27,0,0,1-.463.929,22.315,22.315,0,0,1,1.173-3.333c.35-.907.652-1.733.857-2.336a5.02,5.02,0,0,1,.363-.97" transform="translate(-147.094 -160.272)" fill="#7c5142"/>
        <path id="Trazado_267621" data-name="Trazado 267621" d="M290.5,324.983c.07.034-.578,1.462-1.294,3.255a21.612,21.612,0,0,1-1.406,3.213,4.245,4.245,0,0,1,.294-.987c.21-.6.5-1.425.866-2.325s.729-1.7,1.018-2.267a3.783,3.783,0,0,1,.523-.89" transform="translate(-141.003 -159.221)" fill="#7c5142"/>
      </g>
    </g>
  </g>
</svg>
