<svg xmlns="http://www.w3.org/2000/svg" xmlns:xlink="http://www.w3.org/1999/xlink" width="63" height="63.196" viewBox="0 0 63 63.196">
  <defs>
    <radialGradient id="radial-gradient" cx="0.741" cy="0.152" r="0.5" gradientUnits="objectBoundingBox">
      <stop offset="0" stop-color="#fff"/>
      <stop offset="1" stop-color="#adc7db"/>
    </radialGradient>
  </defs>
  <g id="Grupo_877040" data-name="Grupo 877040" transform="translate(-622 -8708.711)">
    <g id="Grupo_870603" data-name="Grupo 870603" transform="translate(337 1388.711)">
      <circle id="Elipse_4720" data-name="Elipse 4720" cx="31.5" cy="31.5" r="31.5" transform="translate(285 7320)" fill="url(#radial-gradient)"/>
      <path id="Sustracción_8" data-name="Sustracción 8" d="M8407.5,11782a31.476,31.476,0,0,1-31.5-31.5,31.842,31.842,0,0,1,.514-5.7,38.533,38.533,0,0,0,51.173,29.878A31.38,31.38,0,0,1,8407.5,11782Z" transform="translate(-8091 -4398.805)" fill="#033f71" opacity="0.38"/>
    </g>
    <path id="Trazado_270207" data-name="Trazado 270207" d="M13.965-7.554a8.826,8.826,0,0,1-1.682,5.776A5.813,5.813,0,0,1,7.541.254,5.844,5.844,0,0,1,2.768-1.79,8.812,8.812,0,0,1,1.079-7.554v-3.377a8.826,8.826,0,0,1,1.682-5.776,5.827,5.827,0,0,1,4.754-2.031,5.83,5.83,0,0,1,4.761,2.044,8.834,8.834,0,0,1,1.688,5.776ZM9.687-11.477a6.593,6.593,0,0,0-.521-2.977,1.74,1.74,0,0,0-1.65-.984,1.7,1.7,0,0,0-1.606.914,6.21,6.21,0,0,0-.54,2.768v4.723a6.642,6.642,0,0,0,.521,3.028,1.746,1.746,0,0,0,1.65.958A1.723,1.723,0,0,0,9.153-3.98a6.341,6.341,0,0,0,.533-2.926ZM25.67,0H21.379V-13.66l-4.215,1.231v-3.25l8.112-2.806h.394Z" transform="translate(639 8749.508)" fill="#12263f"/>
  </g>
</svg>
