<svg xmlns="http://www.w3.org/2000/svg" xmlns:xlink="http://www.w3.org/1999/xlink" width="222.735" height="226.469" viewBox="0 0 222.735 226.469">
  <defs>
    <clipPath id="clip-path">
      <rect id="Rectángulo_291369" data-name="Rectángulo 291369" width="217.061" height="217.091" fill="#467eac"/>
    </clipPath>
    <clipPath id="clip-path-2">
      <rect id="Rectángulo_293074" data-name="Rectángulo 293074" width="135.792" height="221.391" fill="none"/>
    </clipPath>
  </defs>
  <g id="Grupo_875932" data-name="Grupo 875932" transform="translate(360.955 1718.002)">
    <g id="Grupo_875931" data-name="Grupo 875931" transform="translate(-360.955 -1718.002)">
      <g id="Grupo_870717" data-name="Grupo 870717" transform="translate(0)">
        <g id="Grupo_870714" data-name="Grupo 870714" clip-path="url(#clip-path)">
          <path id="Trazado_215321" data-name="Trazado 215321" d="M16.525,105.621C43.655,83.991-3.326,49.085,7.076,14.56s44.729.97,63.2,17.979S110.392,19.118,124.742,18.3s6.274,12.483,12.746,29.711,54.177,2.921,73.3,19.561-11.344,52.052-13.909,73.168,30.376,45.01,9.271,76.35l-104.846-.62c-10.55-3.243-17.432-5.813-17.432-5.813C-14.283,168.268-10.6,127.25,16.525,105.621" transform="translate(0 0)" fill="#467eac"/>
        </g>
      </g>
      <path id="Trazado_264543" data-name="Trazado 264543" d="M209.053,582.976c0,3.35-40.736,6.066-90.986,6.066s-90.986-2.716-90.986-6.066,40.759-3.741,91.01-3.741,90.963.391,90.963,3.741" transform="translate(13.683 -362.573)" fill="#033f71" opacity="0.4"/>
    </g>
    <g id="Grupo_875805" data-name="Grupo 875805" transform="translate(-309.117 -1718.002)">
      <g id="Grupo_875800" data-name="Grupo 875800">
        <g id="Grupo_875799" data-name="Grupo 875799" clip-path="url(#clip-path-2)">
          <path id="Trazado_268916" data-name="Trazado 268916" d="M105.986,44.858h-40.9A1.977,1.977,0,0,1,63.1,42.881V1.977A1.978,1.978,0,0,1,65.082,0h40.9a1.977,1.977,0,0,1,1.976,1.978v40.9a1.976,1.976,0,0,1-1.976,1.977" transform="translate(-39.249 0)" fill="#f0f0f0"/>
          <path id="Trazado_268917" data-name="Trazado 268917" d="M103.9,15.376h-.057a9.515,9.515,0,0,0-2.931.231,8.227,8.227,0,0,0,2.625.228c-.149.153-.36.381-.632.678l-2.322,2.6-7.643,8.8L89.707,25.76l-1.67-1.112-.17-.113-.132.155c-3.413,3.991-6.432,7.554-8.586,10.131l-2.524,3.053a9.129,9.129,0,0,0-.874,1.151,9.094,9.094,0,0,0,1-1.04l2.632-2.961c2.187-2.49,5.2-5.961,8.565-9.88l1.5,1,3.4,2.261.169.112.129-.153L100.8,19.31l2.218-2.693c.285-.353.487-.61.613-.781h.033a8.319,8.319,0,0,0,.228,2.643,9.252,9.252,0,0,0,.231-2.872v-.231Z" transform="translate(-42.79 -4.306)" fill="#504b4b"/>
        </g>
      </g>
      <g id="Grupo_875802" data-name="Grupo 875802">
        <g id="Grupo_875801" data-name="Grupo 875801" clip-path="url(#clip-path-2)">
          <path id="Trazado_268918" data-name="Trazado 268918" d="M117.244,34.953V85.612a2.038,2.038,0,0,0,2.038,2.038H186.76a2.037,2.037,0,0,0,2.038-2.038V33.193a2.038,2.038,0,0,0-2.091-2.037l-67.479,1.761a2.038,2.038,0,0,0-1.984,2.037" transform="translate(-53.006 -14.085)" fill="#e0e0e0"/>
          <path id="Trazado_268919" data-name="Trazado 268919" d="M186.149,52.618c-.025.053-.86-.431-2.5-.948a16.049,16.049,0,0,0-7.16-.531,15.643,15.643,0,0,0-4.722,1.517,22.262,22.262,0,0,0-4.643,3.339c-1.523,1.343-3.034,2.869-4.777,4.279a16.467,16.467,0,0,1-6.1,3.3,9.229,9.229,0,0,1-3.56.215,11.544,11.544,0,0,1-3.3-1.019,57.642,57.642,0,0,1-5.526-3.286,17.246,17.246,0,0,0-5.2-2.33,15.457,15.457,0,0,0-4.944-.379A15.917,15.917,0,0,0,126.9,59c-1.465.895-2.155,1.568-2.194,1.52a3.474,3.474,0,0,1,.5-.488,11.874,11.874,0,0,1,1.588-1.208,15.57,15.57,0,0,1,11.98-2.1,17.486,17.486,0,0,1,5.349,2.34,59.188,59.188,0,0,0,5.489,3.231,9.4,9.4,0,0,0,6.511.762,16.1,16.1,0,0,0,5.9-3.192c1.716-1.379,3.234-2.894,4.779-4.24a22.34,22.34,0,0,1,4.768-3.365,15.815,15.815,0,0,1,12.144-.79,12.675,12.675,0,0,1,1.834.789,3.426,3.426,0,0,1,.6.356" transform="translate(-56.382 -22.885)" fill="#455a64"/>
          <rect id="Rectángulo_293075" data-name="Rectángulo 293075" width="6.6" height="17.851" transform="translate(80.174 41.633)" fill="#455a64"/>
          <rect id="Rectángulo_293076" data-name="Rectángulo 293076" width="6.6" height="17.851" transform="translate(108.181 41.633)" fill="#455a64"/>
          <rect id="Rectángulo_293077" data-name="Rectángulo 293077" width="6.6" height="28.333" transform="translate(117.517 31.151)" fill="#455a64"/>
          <rect id="Rectángulo_293078" data-name="Rectángulo 293078" width="6.6" height="6.008" transform="translate(71.633 53.864)" fill="#455a64"/>
          <rect id="Rectángulo_293079" data-name="Rectángulo 293079" width="6.601" height="9.79" transform="translate(89.51 49.694)" fill="#455a64"/>
          <rect id="Rectángulo_293080" data-name="Rectángulo 293080" width="6.6" height="12.037" transform="translate(98.846 47.447)" fill="#455a64"/>
          <path id="Trazado_268920" data-name="Trazado 268920" d="M152.977,112.188a12.225,12.225,0,0,1-3.566.265,12.228,12.228,0,0,1-3.566-.265,12.205,12.205,0,0,1,3.566-.265,12.2,12.2,0,0,1,3.566.265" transform="translate(-65.937 -50.601)" fill="#263238"/>
          <path id="Trazado_268921" data-name="Trazado 268921" d="M137.987,112.188a12.228,12.228,0,0,1-3.566.265,12.225,12.225,0,0,1-3.566-.265,12.2,12.2,0,0,1,3.566-.265,12.206,12.206,0,0,1,3.566.265" transform="translate(-59.16 -50.601)" fill="#263238"/>
          <path id="Trazado_268922" data-name="Trazado 268922" d="M222.256,112.188a30.768,30.768,0,0,1-8.062,0,30.767,30.767,0,0,1,8.062,0" transform="translate(-96.837 -50.601)" fill="#263238"/>
          <path id="Trazado_268923" data-name="Trazado 268923" d="M204.359,112.188a15.559,15.559,0,0,1-4.031.265,15.561,15.561,0,0,1-4.031-.265,15.532,15.532,0,0,1,4.031-.265,15.53,15.53,0,0,1,4.031.265" transform="translate(-88.746 -50.601)" fill="#263238"/>
          <path id="Trazado_268924" data-name="Trazado 268924" d="M186.57,112.188a24.06,24.06,0,0,1-7.132,0,24.108,24.108,0,0,1,7.132,0" transform="translate(-81.124 -50.601)" fill="#263238"/>
          <path id="Trazado_268925" data-name="Trazado 268925" d="M168.965,112.188a12.194,12.194,0,0,1-3.566.266,12.193,12.193,0,0,1-3.566-.266,12.227,12.227,0,0,1,3.566-.265,12.228,12.228,0,0,1,3.566.265" transform="translate(-73.165 -50.601)" fill="#263238"/>
        </g>
      </g>
      <g id="Grupo_875804" data-name="Grupo 875804">
        <g id="Grupo_875803" data-name="Grupo 875803" clip-path="url(#clip-path-2)">
          <path id="Trazado_268926" data-name="Trazado 268926" d="M80.489,393.776v-5.659l-10.141-.067-.084,8.462.628.047c2.8.181,14.235.531,16.109-.049,2.09-.647-6.513-2.733-6.513-2.733" transform="translate(-31.767 -175.438)" fill="#efefef"/>
          <path id="Trazado_268927" data-name="Trazado 268927" d="M87.27,402.4c0,.1-3.793.173-8.472.173s-8.472-.078-8.472-.173,3.793-.172,8.472-.172,8.472.077,8.472.172" transform="translate(-31.795 -181.848)" fill="#263238"/>
          <path id="Trazado_268928" data-name="Trazado 268928" d="M89.224,399.751c-.083-.044-.012-.343.206-.637s.482-.453.548-.386-.072.317-.271.59-.4.479-.483.433" transform="translate(-40.323 -180.259)" fill="#263238"/>
          <path id="Trazado_268929" data-name="Trazado 268929" d="M90.4,400.267c-.088-.033-.043-.368.157-.72s.462-.567.536-.508-.052.348-.236.677-.368.586-.457.552" transform="translate(-40.849 -180.402)" fill="#263238"/>
          <path id="Trazado_268930" data-name="Trazado 268930" d="M73.489,400.834c-.039.028-.191-.121-.41-.37a6.643,6.643,0,0,0-.89-.89,2.324,2.324,0,0,0-1.1-.479c-.308-.041-.511.007-.528-.043s.17-.178.536-.2a2.016,2.016,0,0,1,1.3.449,3.7,3.7,0,0,1,.876,1.021c.173.292.251.487.213.513" transform="translate(-31.902 -180.32)" fill="#263238"/>
          <path id="Trazado_268931" data-name="Trazado 268931" d="M88.5,398.633c.049.08-.124.277-.414.382s-.55.07-.563-.024.19-.205.444-.3.483-.141.533-.059" transform="translate(-39.57 -180.204)" fill="#263238"/>
          <path id="Trazado_268932" data-name="Trazado 268932" d="M88.017,397.534c.009.095-.261.176-.6.181s-.615-.07-.608-.164.277-.176.6-.18.6.069.608.164" transform="translate(-39.245 -179.651)" fill="#263238"/>
          <path id="Trazado_268933" data-name="Trazado 268933" d="M141.9,81.277l.094-1.712a14.609,14.609,0,0,0,.216-2.875,4.218,4.218,0,0,0-.253-1.406,6.43,6.43,0,0,0-.77-1.606.553.553,0,0,1,.483-.927,4.539,4.539,0,0,1,1.918,2.979c.447,1.709,1.6-.821,2.035-1.736s1.919-3.681,2.307-3.77c.568-.13.812.455.355,1.358s-1.637,3.709-1.142,3.916a2.617,2.617,0,0,1,1.08-.046.284.284,0,0,1,.224.24,3.33,3.33,0,0,0,.16.786s.68-.218.85.071a2.987,2.987,0,0,1,.222.953s.517-.23.789-.053c.589.383-.045,1.188-.045,1.188a57.63,57.63,0,0,1-4.565,5.747l-3.984-3.206" transform="translate(-63.766 -31.739)" fill="#ffbe9d"/>
          <path id="Trazado_268934" data-name="Trazado 268934" d="M53.638,87.988l-.067,21.854,9.376.447.271-5.316s3.33.661,4.19-2.432c.549-1.976.411-17.243.411-17.243Z" transform="translate(-24.22 -38.563)" fill="#ffbe9d"/>
          <path id="Trazado_268935" data-name="Trazado 268935" d="M63.9,79.021c-2.852.924-3.541,1.232-4.819,1.335-1.227.1-9.964.106-10.756,5a3.6,3.6,0,0,1-.247-.719,12.4,12.4,0,0,1-.107-1.446A1.815,1.815,0,0,0,47.8,84.7a2.518,2.518,0,0,0,.094.316c-.056-.059-.112-.118-.176-.174a2.756,2.756,0,0,0-1.108-.589c-.314-.077-.516-.06-.52-.026a7.505,7.505,0,0,1,1.442.831,3.692,3.692,0,0,1,.737.874c0,.022,0,.043,0,.066,0,0-1.868-.821-1.377,2.566s2.7,6.261,2.975,11.805c0,0,7.745.924,9.121-2.053L60.136,94.9s-1.863-.3-1.646-1.8c.3-2.074,1.884-2.126,3.064-1.2l1.358-3.641s3.442-2.258,3.639-3.7.2-6.467-2.655-5.544" transform="translate(-20.835 -35.675)" fill="#263238"/>
          <path id="Trazado_268936" data-name="Trazado 268936" d="M5.223,390.781l-1.374,6.113,9.466,1.17.339-6.057Z" transform="translate(-1.74 -176.673)" fill="#efefef"/>
          <path id="Trazado_268937" data-name="Trazado 268937" d="M13.392,391.328a14.041,14.041,0,0,1-.311,2.806,14.031,14.031,0,0,1-.593,2.761,27.88,27.88,0,0,1,.9-5.567" transform="translate(-5.636 -176.92)" fill="#263238"/>
          <path id="Trazado_268938" data-name="Trazado 268938" d="M13.551,401.455a7.37,7.37,0,0,1-1.371-.172L8.9,400.75c-1.282-.214-2.441-.429-3.275-.615a6.139,6.139,0,0,1-1.333-.37,7.248,7.248,0,0,1,1.371.172l3.285.532c1.282.214,2.441.43,3.274.616a6.063,6.063,0,0,1,1.333.37" transform="translate(-1.939 -180.729)" fill="#263238"/>
          <path id="Trazado_268939" data-name="Trazado 268939" d="M17.516,214.337,0,312.781l15,.851s15.934-84.859,18.274-85.071c.98-.089,1.372,84.4,2.16,84.22s16.208.274,16.208.274-2.086-99.97-2.05-99.972l-32.079,1.254" transform="translate(0 -96.335)" fill="#263238"/>
          <path id="Trazado_268940" data-name="Trazado 268940" d="M62.787,237.554c.016.077-2.583.7-5.807,1.38s-5.849,1.177-5.866,1.1,2.583-.694,5.807-1.379,5.849-1.178,5.866-1.1" transform="translate(-23.109 -107.395)" fill="#455a64"/>
          <path id="Trazado_268941" data-name="Trazado 268941" d="M16.89,385.629c0,.078-3.393.037-7.573-.092s-7.567-.3-7.565-.378,3.393-.037,7.574.093,7.566.3,7.564.376" transform="translate(-0.793 -174.114)" fill="#455a64"/>
          <path id="Trazado_268942" data-name="Trazado 268942" d="M80.566,385.63c0,.079-3.663.034-8.176-.1s-8.17-.308-8.168-.387,3.663-.033,8.176.1,8.17.308,8.168.386" transform="translate(-29.035 -174.106)" fill="#455a64"/>
          <path id="Trazado_268943" data-name="Trazado 268943" d="M31.721,242.536c.077.016-3.634,17.579-8.289,39.221s-8.491,39.181-8.568,39.164S18.5,303.346,23.153,281.7s8.491-39.177,8.567-39.161" transform="translate(-6.72 -109.651)" fill="#455a64"/>
          <path id="Trazado_268944" data-name="Trazado 268944" d="M78.5,320.583a1.1,1.1,0,0,1-.021-.2c-.008-.149-.019-.346-.033-.6-.023-.541-.056-1.312-.1-2.295-.082-1.993-.179-4.878-.283-8.443-.208-7.13-.412-16.983-.466-27.866s.058-20.742.2-27.874c.07-3.566.14-6.451.2-8.445l.077-2.3c.012-.25.02-.448.027-.6a1.121,1.121,0,0,1,.019-.2,1.1,1.1,0,0,1,.01.2c0,.149,0,.346,0,.6-.005.542-.014,1.312-.024,2.3-.026,2.011-.065,4.892-.111,8.445-.088,7.131-.165,16.985-.114,27.87s.225,20.732.382,27.863c.081,3.553.147,6.433.192,8.444.02.984.035,1.754.045,2.3,0,.251,0,.448,0,.6a1.082,1.082,0,0,1-.008.2" transform="translate(-35.076 -109.302)" fill="#455a64"/>
          <path id="Trazado_268945" data-name="Trazado 268945" d="M81.311,89.513s-11.615,17.521-12.6,18.506-19.176,2.9-19.177,2.9c-5.584-1.261-23.642-.845-27.054,1.667-2.951,1.633-6.538,5.454-8.384,14.536-3.15,15.493-6.3,21.2,0,23.368a41.474,41.474,0,0,0,7.756,1.827l-.174,7.013L54.331,157.3,52.66,139.883c-.2-4.889-.287-9.987-.408-14.5,2.042-.774,21.032-7.962,22.336-8.148,1.378-.2,13.81-23.195,13.81-23.195.394-2.756-7.087-4.528-7.087-4.528" transform="translate(-4.729 -40.469)" fill="#d8a727"/>
          <path id="Trazado_268946" data-name="Trazado 268946" d="M31.987,147.39c.079,0-.1,8.535-.39,19.055s-.6,19.051-.676,19.049.1-8.533.391-19.057.6-19.049.676-19.047" transform="translate(-13.971 -66.635)" fill="#263238"/>
          <path id="Trazado_268947" data-name="Trazado 268947" d="M118.408,127.232a5.668,5.668,0,0,1-.951-1.922,14.382,14.382,0,0,1-.684-2.022,5.692,5.692,0,0,1,.951,1.922,14.357,14.357,0,0,1,.684,2.022" transform="translate(-52.79 -55.738)" fill="#263238"/>
          <path id="Trazado_268948" data-name="Trazado 268948" d="M119.713,125.739a9.756,9.756,0,0,1-1.557-1.114,4.935,4.935,0,0,1-1.38-1.339,9.752,9.752,0,0,1,1.557,1.115,4.954,4.954,0,0,1,1.381,1.339" transform="translate(-52.792 -55.736)" fill="#263238"/>
          <path id="Trazado_268949" data-name="Trazado 268949" d="M145.213,96.885a6.945,6.945,0,0,1-1.1-.662c-.666-.425-1.6-.994-2.656-1.563s-2.051-1.026-2.774-1.344a7.056,7.056,0,0,1-1.161-.549,4.941,4.941,0,0,1,1.237.362,23.12,23.12,0,0,1,5.469,2.928,4.954,4.954,0,0,1,.987.828" transform="translate(-62.173 -41.938)" fill="#263238"/>
          <path id="Trazado_268950" data-name="Trazado 268950" d="M28.912,181.6a6.433,6.433,0,0,1-2.02-.207,5.405,5.405,0,0,1-1.926-.648,11.209,11.209,0,0,1,1.984.368,8.419,8.419,0,0,1,1.961.487" transform="translate(-11.287 -81.71)" fill="#263238"/>
          <path id="Trazado_268951" data-name="Trazado 268951" d="M81.75,128.1a16.262,16.262,0,0,0-1.751.411,6.785,6.785,0,0,0-4.669,6.545,16.135,16.135,0,0,0,.181,1.789,1.415,1.415,0,0,1-.176-.459,5.849,5.849,0,0,1-.207-1.325,6.666,6.666,0,0,1,4.81-6.742,5.862,5.862,0,0,1,1.321-.237,1.438,1.438,0,0,1,.491.018" transform="translate(-33.961 -57.905)" fill="#263238"/>
          <path id="Trazado_268952" data-name="Trazado 268952" d="M63.59,213.222c0,.079-7.3.6-16.317,1.157s-16.331.951-16.336.872,7.3-.6,16.318-1.157,16.33-.951,16.334-.872" transform="translate(-13.987 -96.393)" fill="#263238"/>
          <path id="Trazado_268953" data-name="Trazado 268953" d="M44.3,127.495a2.235,2.235,0,0,1,.1.406c.024.135.066.3.09.5s.04.435.064.69a10.708,10.708,0,0,1-.707,4.337,10.251,10.251,0,0,1-4.068,5.038,6.468,6.468,0,0,1-.833.447,7.615,7.615,0,0,1-.89.369c-.608.22-1.238.405-1.862.627a8.421,8.421,0,0,0-1.809.845,6.509,6.509,0,0,0-1.483,1.4,37.911,37.911,0,0,0-2.159,3.5,7.4,7.4,0,0,1-2.682,2.792,6.188,6.188,0,0,1-3.446.638,8.244,8.244,0,0,1-2.938-.839,13.259,13.259,0,0,1-3.541-2.611c-.368-.367-.642-.663-.826-.865a2.281,2.281,0,0,1-.268-.32,2.32,2.32,0,0,1,.31.28l.862.825a13.836,13.836,0,0,0,3.55,2.509,8.11,8.11,0,0,0,2.871.785,5.973,5.973,0,0,0,3.3-.633,7.165,7.165,0,0,0,2.569-2.707,36.741,36.741,0,0,1,2.172-3.529,6.717,6.717,0,0,1,1.553-1.462,8.609,8.609,0,0,1,1.87-.872l1.863-.62a7.542,7.542,0,0,0,.87-.356,6.479,6.479,0,0,0,.808-.428,10.139,10.139,0,0,0,4.016-4.887,11.008,11.008,0,0,0,.783-4.26q-.02-.38-.037-.685c-.015-.2-.048-.363-.062-.5a2.292,2.292,0,0,1-.039-.416" transform="translate(-7.703 -57.641)" fill="#263238"/>
          <path id="Trazado_268954" data-name="Trazado 268954" d="M75.933,183.056c-.009.011-.125-.084-.365-.233a3.358,3.358,0,0,0-1.13-.463,16.238,16.238,0,0,0-1.951-.174c-.762-.061-1.633-.067-2.6-.1a12.84,12.84,0,0,1-3.146-.441,10.556,10.556,0,0,1-3.289-1.582,9.188,9.188,0,0,1-2.689-3.005,8.773,8.773,0,0,1-1.1-4.183,7.585,7.585,0,0,1,4.161-6.867,6.89,6.89,0,0,1,1.8-.6,10.938,10.938,0,0,1,1.772-.145,26.07,26.07,0,0,0,3.142-.093,4.55,4.55,0,0,0,3.664-2.283,3.475,3.475,0,0,0,.34-1.174c.033-.28.029-.43.043-.43a.306.306,0,0,1,.014.11,2.492,2.492,0,0,1,0,.325,3.3,3.3,0,0,1-.3,1.216,3.887,3.887,0,0,1-1.284,1.507,5.347,5.347,0,0,1-2.453.928,25.259,25.259,0,0,1-3.166.129,10.838,10.838,0,0,0-1.731.156,6.679,6.679,0,0,0-1.726.588,7.345,7.345,0,0,0-3.993,6.63,8.54,8.54,0,0,0,1.062,4.05,8.968,8.968,0,0,0,2.6,2.926,10.416,10.416,0,0,0,3.2,1.569,12.8,12.8,0,0,0,3.09.466c.962.048,1.838.068,2.605.146a14.922,14.922,0,0,1,1.961.225,3.2,3.2,0,0,1,1.137.523,2.879,2.879,0,0,1,.254.2c.055.048.082.075.078.079" transform="translate(-26.973 -72.915)" fill="#263238"/>
          <path id="Trazado_268955" data-name="Trazado 268955" d="M45.487,198.611a5.6,5.6,0,0,0-.064-1.174,4.11,4.11,0,0,0-1.687-2.6,3.826,3.826,0,0,0-.933-.455,5.779,5.779,0,0,0-1.12-.207,11.956,11.956,0,0,1-2.566-.348,3.265,3.265,0,0,1-1.23-.743,3.986,3.986,0,0,1-.834-1.239,5.741,5.741,0,0,1-.357-3.064c.306-2.107,1.231-3.922,1.393-5.707a5.63,5.63,0,0,0-.224-2.481,3.578,3.578,0,0,0-1.272-1.719,4.168,4.168,0,0,0-3-.768,6,6,0,0,0-1.131.317A2.721,2.721,0,0,1,33.573,178a4.2,4.2,0,0,1,3.139.715,3.763,3.763,0,0,1,1.376,1.8,5.813,5.813,0,0,1,.262,2.589c-.158,1.846-1.081,3.68-1.371,5.718a5.5,5.5,0,0,0,.331,2.915,3.716,3.716,0,0,0,.768,1.154,3.007,3.007,0,0,0,1.124.689,12.1,12.1,0,0,0,2.507.361,5.939,5.939,0,0,1,1.162.233,3.994,3.994,0,0,1,.982.5,4.144,4.144,0,0,1,1.681,2.743,3.356,3.356,0,0,1,.018.889,1.25,1.25,0,0,1-.064.3" transform="translate(-14.675 -80.446)" fill="#263238"/>
          <path id="Trazado_268956" data-name="Trazado 268956" d="M53.488,160.117c-.008-.011.113-.116.386-.2a1.891,1.891,0,0,1,1.874.561,1.663,1.663,0,0,1,.4.891,1.917,1.917,0,0,1-.948,1.915,1.9,1.9,0,0,1-2.111-.329,1.605,1.605,0,0,1-.483-.85,1.775,1.775,0,0,1,.039-.842,1.746,1.746,0,0,1,.683-.97c.238-.157.4-.178.4-.165s-.133.081-.334.253a1.765,1.765,0,0,0-.555.933,1.452,1.452,0,0,0,.427,1.448,1.654,1.654,0,0,0,1.8.27,1.675,1.675,0,0,0,.819-1.631,1.517,1.517,0,0,0-.907-1.219,1.865,1.865,0,0,0-1.079-.156c-.261.043-.4.112-.41.089" transform="translate(-23.767 -72.271)" fill="#263238"/>
          <path id="Trazado_268957" data-name="Trazado 268957" d="M19.334,190.346c-.061-.013.2-.963.257-2.53a11.114,11.114,0,0,0-.014-1.28,14.56,14.56,0,0,0-.145-1.461,16.67,16.67,0,0,0-.868-3.242A16.653,16.653,0,0,0,17,178.861a14.658,14.658,0,0,0-.883-1.173,11.18,11.18,0,0,0-.857-.951c-1.107-1.111-1.94-1.635-1.9-1.686a3.172,3.172,0,0,1,.588.357,5.551,5.551,0,0,1,.649.481,9.157,9.157,0,0,1,.808.7,10.565,10.565,0,0,1,.9.942,13.968,13.968,0,0,1,.919,1.177,15.86,15.86,0,0,1,1.608,3.018,15.883,15.883,0,0,1,.863,3.308,13.918,13.918,0,0,1,.122,1.488,10.482,10.482,0,0,1-.021,1.3,9.357,9.357,0,0,1-.116,1.065,5.647,5.647,0,0,1-.152.794,3.157,3.157,0,0,1-.191.661" transform="translate(-6.04 -79.141)" fill="#263238"/>
          <path id="Trazado_268958" data-name="Trazado 268958" d="M113.925,137.555a6.185,6.185,0,0,1-.816-.362c-.519-.241-1.275-.585-2.234-.936a16.714,16.714,0,0,0-3.464-.875,11.456,11.456,0,0,0-4.331.214,8.668,8.668,0,0,0-3.8,2.006,7.327,7.327,0,0,0-1.955,2.92,5.9,5.9,0,0,0-.33,2.358c.042.568.132.875.1.882a.724.724,0,0,1-.078-.219,4.2,4.2,0,0,1-.134-.653,5.632,5.632,0,0,1,.249-2.434A7.351,7.351,0,0,1,99.1,137.41a8.775,8.775,0,0,1,3.915-2.091,11.417,11.417,0,0,1,4.436-.2,15.923,15.923,0,0,1,3.5.946,20.735,20.735,0,0,1,2.213,1.026c.253.138.447.248.576.328s.2.124.191.133" transform="translate(-43.781 -61.03)" fill="#263238"/>
          <path id="Trazado_268959" data-name="Trazado 268959" d="M129.768,94.87c.007-.007.058.037.149.128a4.287,4.287,0,0,1,.377.418,6.391,6.391,0,0,1,1.015,1.808,7.35,7.35,0,0,1,.434,3.045,7.468,7.468,0,0,1-1.192,3.571,7.256,7.256,0,0,1-2.842,2.468,7.592,7.592,0,0,1-2.972.789,6.686,6.686,0,0,1-2.063-.19,4.219,4.219,0,0,1-.536-.171c-.121-.045-.182-.073-.179-.083a9.426,9.426,0,0,0,2.764.243,7.676,7.676,0,0,0,2.869-.823,7.153,7.153,0,0,0,2.722-2.39,7.412,7.412,0,0,0,.8-6.391,8.985,8.985,0,0,0-1.351-2.42" transform="translate(-55.138 -42.891)" fill="#263238"/>
          <path id="Trazado_268960" data-name="Trazado 268960" d="M63.065,127.271a39.891,39.891,0,0,1-4.758.18,39.89,39.89,0,0,1-4.761-.106,39.827,39.827,0,0,1,4.759-.179,39.839,39.839,0,0,1,4.761.106" transform="translate(-24.208 -57.489)" fill="#263238"/>
        </g>
      </g>
    </g>
  </g>
</svg>
