<svg xmlns="http://www.w3.org/2000/svg" width="71" height="71" viewBox="0 0 71 71">
  <g id="Grupo_877042" data-name="Grupo 877042" transform="translate(-194 -9668)">
    <circle id="Elipse_4788" data-name="Elipse 4788" cx="35.5" cy="35.5" r="35.5" transform="translate(194 9668)" fill="#fff"/>
    <g id="Grupo_875793" data-name="Grupo 875793" transform="translate(3007 12205.076)">
      <path id="Trazado_268872" data-name="Trazado 268872" d="M39.048,48.89c-.733-.156-1.47-.3-2.2-.472a14.217,14.217,0,0,1-3.483-1.361c-.471-.256-.619-.621-.428-1.008.206-.416.6-.522,1.094-.256a13.846,13.846,0,0,0,6.947,1.663A13.547,13.547,0,1,0,27.346,30.922,13.249,13.249,0,0,0,31.52,44.006c.081.076.17.144.246.225a.715.715,0,0,1,.05,1.023.707.707,0,0,1-1.022.017,11.439,11.439,0,0,1-1.967-2.063,1.1,1.1,0,0,0-1.026-.49q-8.385.023-16.77.01c-1.388,0-2-.614-2-2q0-19.271-.011-38.542A1.938,1.938,0,0,1,10.359.091H38.381A1.979,1.979,0,0,1,39.646,2.28c-.061.965-.009,1.937-.015,2.906,0,.53-.267.825-.709.824s-.712-.307-.716-.828c-.009-1.016-.026-2.034.008-3.049.016-.477-.12-.623-.61-.622q-10.078.023-20.156.01c-2.144,0-4.289.011-6.433-.009-.448,0-.565.143-.565.576q.014,19.321,0,38.642c0,.381.058.577.513.576q8.1-.02,16.2-.009c.09,0,.181-.013.318-.024a16.736,16.736,0,0,1-1.129-2.591c-.083-.271-.3-.18-.476-.18q-4.646-.006-9.292,0c-.747,0-1.493,0-2.239,0-.555,0-.879-.269-.882-.712s.315-.716.871-.716q5.5,0,11.007,0h.535c-.086-.592-.187-1.151-.24-1.715-.025-.269-.117-.364-.375-.327a2.039,2.039,0,0,1-.286,0q-5.218,0-10.435,0a2.349,2.349,0,0,1-.567-.043.637.637,0,0,1-.5-.71.628.628,0,0,1,.534-.639,2.953,2.953,0,0,1,.569-.034c3.494,0,6.989-.008,10.483.007.4,0,.582-.063.553-.509-.023-.36.179-.788.043-1.073s-.628-.065-.955-.183A1.686,1.686,0,0,1,23.5,30.5a3.484,3.484,0,0,1-.041-.616c0-2.843.026-5.686-.015-8.529a1.862,1.862,0,0,1,2.052-2.04c2.588.056,5.178.023,7.767.012a1.85,1.85,0,0,1,1.506.558c.12.135.219.12.371.061a13.719,13.719,0,0,1,2.786-.777c.224-.037.3-.118.281-.332a2.709,2.709,0,0,1,0-.286q0-5.075,0-10.149a2.012,2.012,0,0,1,.027-.473.705.705,0,0,1,1.4.1c.011.142.006.286.006.429,0,3.335.01,6.671-.012,10.006,0,.443.127.507.528.5a14.965,14.965,0,0,1,3.172,29.67,6.634,6.634,0,0,0-1.414.262h-.286c-.059-.064-.137-.045-.21-.049-.09.01-.189-.028-.266.049h-.763a.73.73,0,0,0-.572,0Z" transform="translate(-2807.872 -2524.097)" fill="#033f71"/>
      <path id="Trazado_268873" data-name="Trazado 268873" d="M251.222,383.18a.43.43,0,0,1,.572,0Z" transform="translate(-3019.283 -2858.387)" fill="#141414"/>
      <path id="Trazado_268874" data-name="Trazado 268874" d="M261.718,383.293c.073-.117.185-.094.294-.083.025.021.033.04.022.058s-.02.025-.03.025Z" transform="translate(-3028.445 -2858.5)" fill="#363636"/>
      <path id="Trazado_268875" data-name="Trazado 268875" d="M263.967,383.322a.458.458,0,0,1,.008-.083c.077-.007.157-.021.183.083Z" transform="translate(-3030.408 -2858.529)" fill="#606060"/>
      <path id="Trazado_268876" data-name="Trazado 268876" d="M54.813,96.313H45.432c-1.081,0-1.483-.407-1.486-1.5q0-.738,0-1.476c0-1.158.387-1.549,1.533-1.549H61.527c.937,0,1.873-.006,2.81,0a1.217,1.217,0,0,1,1.373,1.381c0,.571,0,1.143,0,1.714,0,.982-.445,1.428-1.42,1.429q-4.738,0-9.476,0" transform="translate(-2838.358 -2604.133)" fill="#033f71"/>
      <path id="Trazado_268877" data-name="Trazado 268877" d="M153.837,32.426c-.363.513-.686.981-1.021,1.44a.72.72,0,1,1-1.159-.826c.368-.535.738-1.069,1.125-1.59a.384.384,0,0,0,0-.541c-.325-.429-.633-.872-.932-1.319a.709.709,0,0,1,.133-1.046.718.718,0,0,1,1.032.232c.229.3.445.617.655.933.122.184.207.2.334,0,.207-.318.428-.629.655-.934a.716.716,0,1,1,1.171.813c-.29.435-.59.863-.908,1.278a.425.425,0,0,0-.009.61c.385.5.741,1.027,1.1,1.55a.728.728,0,0,1-.083,1.094c-.35.26-.778.154-1.1-.284s-.638-.9-1-1.411" transform="translate(-2932.204 -2548.816)" fill="#033f71"/>
      <path id="Trazado_268878" data-name="Trazado 268878" d="M107.848,33.6a.713.713,0,0,1-.526.678c-.364.094-.741-.019-.817-.381-.148-.716-.618-.715-1.16-.664a1.585,1.585,0,0,1-.38,0,.44.44,0,0,0-.577.384,1.069,1.069,0,0,1-.239.456.639.639,0,0,1-.86.139.667.667,0,0,1-.308-.895q.659-1.729,1.314-3.459c.118-.31.22-.628.359-.929a.757.757,0,0,1,.717-.462.714.714,0,0,1,.731.436c.586,1.5,1.147,3.015,1.715,4.524a.864.864,0,0,1,.03.174" transform="translate(-2889.833 -2548.867)" fill="#033f71"/>
      <path id="Trazado_268879" data-name="Trazado 268879" d="M72.807,31.818c0,.555.007,1.11,0,1.665a.7.7,0,0,1-.709.774.709.709,0,0,1-.714-.781q-.018-1.618,0-3.235c0-.289-.043-.414-.377-.4a.72.72,0,0,1-.833-.707c0-.432.306-.7.827-.71q1.118-.011,2.236,0a.709.709,0,0,1,.8.687.7.7,0,0,1-.807.726c-.392-.019-.442.133-.426.462.024.506.006,1.015.006,1.522" transform="translate(-2861.251 -2548.819)" fill="#033f71"/>
      <path id="Trazado_268880" data-name="Trazado 268880" d="M47.964,183.26c-1.016,0-2.032,0-3.048,0-.6,0-.913-.272-.9-.739.015-.442.324-.687.9-.688q3.1-.005,6.191,0c.568,0,.89.256.9.693.013.456-.315.731-.907.734-1.048.006-2.1,0-3.143,0" transform="translate(-2838.422 -2682.729)" fill="#033f71"/>
      <path id="Trazado_268881" data-name="Trazado 268881" d="M47.991,155.971c-1.048,0-2.1,0-3.145,0-.524,0-.831-.268-.835-.7s.308-.721.821-.722q3.169-.007,6.337,0c.513,0,.837.285.841.709s-.315.714-.828.717c-1.064.006-2.128,0-3.192,0" transform="translate(-2838.416 -2658.91)" fill="#033f71"/>
      <path id="Trazado_268882" data-name="Trazado 268882" d="M48.014,209.15c1.048,0,2.1,0,3.145,0,.554,0,.874.279.861.727-.012.42-.337.7-.854.7q-3.144.007-6.289,0c-.545,0-.865-.289-.854-.739s.306-.685.847-.688c1.048,0,2.1,0,3.145,0" transform="translate(-2838.426 -2706.576)" fill="#033f71"/>
      <path id="Trazado_268883" data-name="Trazado 268883" d="M47.992,237.755c-1.032,0-2.065,0-3.1,0-.569,0-.876-.255-.878-.706s.32-.72.872-.721q3.121-.005,6.241,0c.549,0,.882.279.884.716s-.315.709-.877.711c-1.048,0-2.1,0-3.144,0" transform="translate(-2838.421 -2730.296)" fill="#033f71"/>
      <path id="Trazado_268884" data-name="Trazado 268884" d="M174.391,171.311a12.034,12.034,0,0,1,7.648,2.727c.485.394.58.821.272,1.172s-.69.327-1.171-.062a10.607,10.607,0,1,0,3.866,7.4,10.336,10.336,0,0,0-1.8-5.145,1.042,1.042,0,0,1-.269-.6.681.681,0,0,1,.486-.687.7.7,0,0,1,.857.325,11.534,11.534,0,0,1,1.884,4.225,12.045,12.045,0,1,1-13.8-9.179,13.753,13.753,0,0,1,2.03-.176" transform="translate(-2941.742 -2673.549)" fill="#033f71"/>
      <path id="Trazado_268885" data-name="Trazado 268885" d="M252.745,225.13c.463-.267.853-.495,1.246-.717.482-.273.895-.207,1.12.173s.1.764-.395,1.056c-.723.426-1.448.849-2.18,1.259-.678.38-1.213.075-1.218-.7-.009-1.587-.006-3.175,0-4.762,0-.541.3-.876.738-.863.42.012.686.333.688.854,0,1.2,0,2.4,0,3.7" transform="translate(-3019.361 -2716.552)" fill="#033f71"/>
      <path id="Trazado_268886" data-name="Trazado 268886" d="M252.689,319.265c0,.174.009.348,0,.522a.7.7,0,0,1-.688.7.669.669,0,0,1-.715-.621,6.036,6.036,0,0,1-.007-1.183.7.7,0,0,1,.738-.656.715.715,0,0,1,.673.718c.01.173,0,.348,0,.522" transform="translate(-3019.308 -2801.61)" fill="#033f71"/>
      <path id="Trazado_268887" data-name="Trazado 268887" d="M252.694,196.1c0,.174.009.348,0,.521a.682.682,0,0,1-.68.7.66.66,0,0,1-.722-.609,5.76,5.76,0,0,1,0-1.228.666.666,0,0,1,.771-.6.659.659,0,0,1,.633.693c.009.173,0,.347,0,.521" transform="translate(-3019.313 -2694.124)" fill="#033f71"/>
      <path id="Trazado_268888" data-name="Trazado 268888" d="M310.23,261.674c-.19,0-.38.012-.569,0a.656.656,0,0,1-.654-.628.631.631,0,0,1,.514-.742,3.369,3.369,0,0,1,1.409,0,.633.633,0,0,1,.52.739.656.656,0,0,1-.652.632c-.189.014-.379,0-.569,0" transform="translate(-3069.718 -2751.159)" fill="#033f71"/>
      <path id="Trazado_268889" data-name="Trazado 268889" d="M187,261.67a5.37,5.37,0,0,1-.567,0,.7.7,0,0,1-.119-1.362,3.389,3.389,0,0,1,1.407-.009.629.629,0,0,1,.526.732.639.639,0,0,1-.632.642c-.2.019-.41,0-.615,0v0" transform="translate(-2962.194 -2751.159)" fill="#033f71"/>
      <path id="Trazado_268890" data-name="Trazado 268890" d="M142.128,162.652a17.233,17.233,0,0,0-4.352,3.821,14.1,14.1,0,0,0-2.745,5.477c-.142.588-.529.411-.865.415-.376,0-.342-.3-.342-.554q0-4.311,0-8.622c0-.283-.007-.542.406-.541,2.633.008,5.267,0,7.9,0" transform="translate(-2916.809 -2665.987)" fill="#fefefe"/>
      <path id="Trazado_268891" data-name="Trazado 268891" d="M64.559,104.652c-2.969,0-5.938-.011-8.907.012-.457,0-.545-.14-.535-.557.026-1.122.008-1.122,1.152-1.122q8.621,0,17.243-.009c.4,0,.547.063.533.509-.036,1.166-.011,1.166-1.2,1.166Z" transform="translate(-2848.109 -2613.902)" fill="#fdfdfd"/>
      <path id="Trazado_268892" data-name="Trazado 268892" d="M119.932,49.286l.307-.777.285.742a1.1,1.1,0,0,1-.592.036" transform="translate(-2904.685 -2566.359)" fill="#e5e5e5"/>
      <rect id="Rectángulo_293072" data-name="Rectángulo 293072" width="49" height="49" transform="translate(-2800 -2524.076)" fill="none"/>
    </g>
  </g>
</svg>
