<svg xmlns="http://www.w3.org/2000/svg" width="124.394" height="124.417" viewBox="0 0 124.394 124.417">
  <g id="Grupo_873636" data-name="Grupo 873636" transform="translate(7787.97 5180.976)">
    <path id="Trazado_266985" data-name="Trazado 266985" d="M6.03,203.078a3.066,3.066,0,0,1,2.731-1.125c5.385.036,10.77,0,16.156.031a2.714,2.714,0,0,0,1.87-.661c1.465-1.212,2.958-2.391,4.46-3.557a1.863,1.863,0,0,1,2.792.107,1.831,1.831,0,0,1-.514,2.739c-1.827,1.473-3.688,2.9-5.5,4.39a3.306,3.306,0,0,1-2.269.647c-4.94-.009-9.88.022-14.819-.027-.957-.009-1.29.148-1.284,1.215q.076,13.362,0,26.725c-.005,1.008.324,1.158,1.215,1.152,3.724-.028,7.453-.08,11.173.064a31.682,31.682,0,0,1,13.816,4.115c.924.5,1.891.912,2.812,1.414.579.316.821.322.878-.453A44.691,44.691,0,0,1,44.182,223.6c-.482-.239-.853.112-1.225.238a25.931,25.931,0,0,1-8.341,1.355c-1.317,0-2.113-.692-2.119-1.8s.773-1.822,2.1-1.84c5.941-.082,11.118-1.915,15.049-6.574a22.428,22.428,0,0,0,4.733-9.838c.543-2.481,1.213-2.878,3.627-2,3.829,1.393,7.651,2.807,11.491,4.171a7.725,7.725,0,0,0,8.926-2.512c.387-.518.5-.78-.206-1.142-6.467-3.311-12.837-6.825-19.392-9.95-6.471-3.085-12.8-2.337-18.719,1.722-.234.16-.45.348-.691.5a1.782,1.782,0,0,1-2.493-.36,1.817,1.817,0,0,1,.376-2.584,21.323,21.323,0,0,1,7.146-3.747,22.212,22.212,0,0,1,16.267,1.25,16.283,16.283,0,0,0-1.111-3.269c-1.429-3.82-.364-6.362,3.392-8.008.06-.027.092-.12.137-.182H91.549a5.972,5.972,0,0,1,4.109,3.72,5.621,5.621,0,0,1-.143,3.914c-.956,2.485-1.872,4.985-2.824,7.472-.173.453-.312.7.318,1,3.967,1.94,4.823,5.732,2.173,9.334a1.489,1.489,0,0,0-.112.244,56.532,56.532,0,0,1,12.423,13.355,45.976,45.976,0,0,1,7.876,21.749c1.016,12.354-5.318,19.409-15.24,23.02a11.4,11.4,0,0,1-1.378.457,1.764,1.764,0,0,1-2.191-1.235,1.66,1.66,0,0,1,1.026-2.174c1.142-.5,2.338-.888,3.481-1.391,7.6-3.345,11.241-9.236,10.71-17.515-.643-10.038-4.864-18.566-11.3-26.108a50.993,50.993,0,0,0-8.714-8.064,2.459,2.459,0,0,0-1.565-.5q-3.705.044-7.409,0a1.653,1.653,0,0,0-1.518.716,11.156,11.156,0,0,1-12.58,3.856c-2.222-.727-4.41-1.56-6.6-2.376a1.219,1.219,0,0,0-1.405.22C51.874,216.26,45.7,225.39,43.573,236.965a23.111,23.111,0,0,0,.251,10.935c1.694,5.681,5.849,8.926,11.087,11.05a49.437,49.437,0,0,0,15.133,3.13,92.25,92.25,0,0,0,20.465-.645c1.371-.2,2.3.409,2.462,1.536a1.848,1.848,0,0,1-1.759,2.059c-10.828,1.442-21.624,1.5-32.329-.968a29.666,29.666,0,0,1-12.015-5.5A18.578,18.578,0,0,1,39.794,246.4a2.628,2.628,0,0,0-1.684-2.312c-3.705-1.676-7.173-3.877-11.184-4.87a30.606,30.606,0,0,0-7.327-.873c-3.725-.007-7.45-.036-11.173.019a2.408,2.408,0,0,1-2.4-1.266Z" transform="translate(-7794 -5360.001)" fill="#00c298"/>
    <path id="Trazado_266986" data-name="Trazado 266986" d="M76.549,286.551c-6,.879-13.123-.78-20.224-2.881-5.805-1.718-11.688-3.167-17.531-4.754a3.6,3.6,0,0,0-4.136,1.192,3.426,3.426,0,0,0-.229,3.872,4.082,4.082,0,0,0,2.275,1.7c5.136,1.929,10.263,3.881,15.4,5.811a2.2,2.2,0,0,1,1.531,1.255,1.743,1.743,0,0,1-.4,1.912,1.938,1.938,0,0,1-2.246.312c-4.223-1.609-8.453-3.2-12.681-4.792-1.131-.428-2.272-.834-3.388-1.3a7.15,7.15,0,0,1,4.566-13.543q11.706,3.1,23.4,6.269c.775.21,1.112.306,1.32-.73a10.182,10.182,0,0,1,10.064-8.34c3.319-.061,6.64-.04,9.959,0a5.84,5.84,0,0,0,2.56-.557c3.077-1.407,6.076-3,9.468-3.616a23.818,23.818,0,0,1,17.017,3.074,6.788,6.788,0,0,1,1.21.8,10.959,10.959,0,0,0,9.337,2.86,33.249,33.249,0,0,1,4.248-.023c1.723.023,2.354.65,2.355,2.344q.009,9.171,0,18.341c0,1.729-.6,2.327-2.324,2.342-.689.005-1.379.039-2.065,0-6.275-.4-12.4.624-18.534,1.778-6,1.128-12.008,2.2-18.046,3.07a50.45,50.45,0,0,1-25.488-3.083c-1.734-.66-3.474-1.306-5.208-1.967-1.54-.587-2.088-1.458-1.651-2.6.414-1.078,1.478-1.359,2.992-.8a104.585,104.585,0,0,0,10.971,3.806,51.394,51.394,0,0,0,22.261.4c7.865-1.474,15.739-2.925,23.647-4.134a50.7,50.7,0,0,1,8.489-.092c1,.018,1.365-.138,1.344-1.275-.083-4.492-.056-8.988-.013-13.482.007-.815-.23-1.02-1.013-1-2.145.05-4.293-.032-6.437.036a5.171,5.171,0,0,1-3.373-1.037,42.575,42.575,0,0,0-5.964-3.936c-5.783-2.85-11.771-3.216-17.529-.338A24.346,24.346,0,0,1,79.21,276.2a44.7,44.7,0,0,0-5.342,0,6.675,6.675,0,0,0-6.134,5.46c-.143.878-.051,1.28,1.039,1.27,6.275-.056,12.551-.028,18.827-.027.364,0,.73-.016,1.092.013a1.809,1.809,0,1,1,.03,3.617c-.321.031-.647.013-.971.014h-11.2" transform="translate(-7794 -5360)" fill="#00c298"/>
    <path id="Trazado_266987" data-name="Trazado 266987" d="M79.157,225.676c0,1.639.028,3.218-.015,4.8a.825.825,0,0,0,.669.941c2.909,1.03,4.67,2.987,4.737,6.18a7.133,7.133,0,0,1-4.709,6.826.95.95,0,0,0-.7,1.046c-.007,1.464-.655,2.264-1.756,2.3s-1.853-.756-1.847-2.192c0-.707-.346-.8-.847-.869a8.272,8.272,0,0,1-3.333-1.374,1.824,1.824,0,1,1,1.89-3.1,5.254,5.254,0,0,0,2.26.884c0-2.381-.005-4.742,0-7.1,0-.626-.543-.64-.9-.822-2.162-1.094-3.671-2.636-3.7-5.228a6.084,6.084,0,0,1,3.794-5.826,1.093,1.093,0,0,0,.832-1.22,1.81,1.81,0,1,1,3.6,0c0,.674.268.889.836,1.034a6.361,6.361,0,0,1,2.361,1.2,1.828,1.828,0,1,1-2.091,2.991c-.3-.186-.534-.495-1.079-.457" transform="translate(-7794 -5360.001)" fill="#00c298"/>
    <path id="Trazado_266988" data-name="Trazado 266988" d="M77.536,182.669q6.189,0,12.378,0c2.055,0,2.806,1.071,2.09,2.979-1.034,2.755-2.107,5.5-3.12,8.258a1.084,1.084,0,0,1-1.217.846c-6.027-.031-12.055-.01-18.082-.023a5.425,5.425,0,0,1-4.367-3.019c-.775-2.034-1.563-4.064-2.32-6.1-.694-1.868.035-2.93,2.017-2.935,4.207-.012,8.414,0,12.621,0" transform="translate(-7794 -5360.001)" fill="#f6f6f6"/>
    <path id="Trazado_266989" data-name="Trazado 266989" d="M76.442,198.41c4.88,0,9.76-.028,14.639.02a2.1,2.1,0,0,1-.04,4.193c-2.706.052-5.413.026-8.119.028-.235,0-.513.06-.657-.194-1.068-1.884-3.17-2.245-4.815-3.276-.333-.208-.691-.376-1.037-.562.01-.07.019-.139.029-.209" transform="translate(-7794 -5360.001)" fill="#f6f6f6"/>
    <path id="Trazado_266990" data-name="Trazado 266990" d="M79.264,235.223c2.208.607,2.146,4.091,0,5.43Z" transform="translate(-7794 -5360.001)" fill="#fcfcfc"/>
    <path id="Trazado_266991" data-name="Trazado 266991" d="M75.411,229.309c-1.156-.9-1.173-1.853,0-3.408Z" transform="translate(-7794 -5360.001)" fill="#f1f1f1"/>
  </g>
</svg>
