<svg xmlns="http://www.w3.org/2000/svg" width="124.455" height="124.417" viewBox="0 0 124.455 124.417">
  <g id="Grupo_873638" data-name="Grupo 873638" transform="translate(7787.907 5352.848)">
    <path id="Trazado_266969" data-name="Trazado 266969" d="M122.5,19.163c-.689,0-1.665.031-2.639-.008a2.129,2.129,0,0,1-2.222-2.175,2.088,2.088,0,0,1,2.167-2.088c2.679-.052,5.362-.084,8.041-.028,1.917.04,2.624.722,2.665,2.6.06,2.726.028,5.451-.034,8.175a2.08,2.08,0,0,1-2.154,2.1,2.116,2.116,0,0,1-2.1-2.16c-.045-1.048-.009-2.1-.009-3.454-2.445,2.4-4.692,4.546-6.875,6.757A162.363,162.363,0,0,1,90.25,52.839,141.526,141.526,0,0,1,40.96,71.975a176.482,176.482,0,0,1-32.1,2.965A2.518,2.518,0,0,1,6.492,74a1.987,1.987,0,0,1-.152-2.152,2.181,2.181,0,0,1,2.074-1.205c3.216-.078,6.434-.109,9.645-.275,26.979-1.387,52.017-8.781,74.46-24.156a147.006,147.006,0,0,0,21.67-18.3c2.847-2.891,5.6-5.882,8.316-8.748" transform="translate(-7794 -5359.206)" fill="#00c298"/>
    <path id="Trazado_266970" data-name="Trazado 266970" d="M101.34,86.388q0-15.68,0-31.361c0-4.528,2.6-7.1,7.165-7.11,1.206,0,2.412-.019,3.618.007a6.372,6.372,0,0,1,6.356,6.287c.055,4.958.028,9.917.012,14.877a2.157,2.157,0,0,1-2.121,2.417c-1.308.013-2.154-.944-2.158-2.513-.012-4.512,0-9.025,0-13.536,0-2.715-.544-3.248-3.312-3.248-.982,0-1.966-.023-2.947.007a2.161,2.161,0,0,0-2.318,2.354c-.01.268,0,.536,0,.8q0,31.159,0,62.32c0,2.561.588,3.152,3.137,3.153.894,0,1.788,0,2.68,0,2.019-.011,2.757-.729,2.759-2.728q.01-8.308,0-16.618,0-6.1,0-12.2c0-1.8.787-2.789,2.171-2.769,1.342.02,2.114.985,2.115,2.694q.007,14.608,0,29.217a6.411,6.411,0,0,1-6.644,6.69c-1.205.011-2.412.006-3.618,0-4.191-.018-6.885-2.68-6.888-6.85q-.013-15.949,0-31.9" transform="translate(-7784.14 -5355.782)" fill="#00c298"/>
    <path id="Trazado_266971" data-name="Trazado 266971" d="M95.174,93.7q0,12.4,0,24.8c0,4.9-2.5,7.375-7.441,7.376-1.072,0-2.144.013-3.217,0a6.381,6.381,0,0,1-6.489-6.435q-.035-25.736,0-51.474a6.375,6.375,0,0,1,6.49-6.431q2.077-.03,4.155,0a6.39,6.39,0,0,1,6.494,6.566c.023,8.534.008,17.068.008,25.6" transform="translate(-7786.555 -5354.374)" fill="#00c298"/>
    <path id="Trazado_266972" data-name="Trazado 266972" d="M58.711,28.549c0,12.128-9.529,21.456-21.846,21.393A21.26,21.26,0,0,1,15.837,28.4,21.04,21.04,0,0,1,37.089,7.153c12.342-.03,21.626,9.158,21.622,21.4" transform="translate(-7792.991 -5360.001)" fill="#00c298"/>
    <path id="Trazado_266973" data-name="Trazado 266973" d="M71.849,98.925c0,5.541-.214,11.091.056,16.619.323,6.587-2.472,9.694-9.24,9.126-.533-.044-1.073,0-1.608-.01a6.391,6.391,0,0,1-6.355-6.435q-.038-19.3,0-38.606a6.378,6.378,0,0,1,6.357-6.427q2.21-.045,4.423,0a6.382,6.382,0,0,1,6.355,6.429c.035,6.435.01,12.868.011,19.3" transform="translate(-7788.97 -5353.167)" fill="#00c298"/>
    <path id="Trazado_266974" data-name="Trazado 266974" d="M31.367,104.124c0-4.156-.01-8.311,0-12.466a6.433,6.433,0,0,1,6.793-6.809c1.341-.007,2.682-.024,4.021.007a6.359,6.359,0,0,1,6.324,6.32q.063,13,0,26a6.352,6.352,0,0,1-6.24,6.265c-1.473.042-2.949.03-4.423.007a6.4,6.4,0,0,1-6.466-6.459c-.034-4.289-.008-8.579-.009-12.868" transform="translate(-7791.385 -5351.958)" fill="#00c298"/>
    <path id="Trazado_266975" data-name="Trazado 266975" d="M25.2,109.348c0,2.144.026,4.289,0,6.434a6.415,6.415,0,0,1-6.464,6.463c-1.429.023-2.859.028-4.288,0a6.392,6.392,0,0,1-6.388-6.4q-.061-6.434,0-12.868a6.4,6.4,0,0,1,6.461-6.461c1.474-.022,2.95-.034,4.423.006a6.4,6.4,0,0,1,6.251,6.259c.051,2.187.009,4.378.011,6.567" transform="translate(-7793.8 -5350.752)" fill="#00c298"/>
    <path id="Trazado_266976" data-name="Trazado 266976" d="M117.293,76.376c0,2.2-.643,3.195-2.09,3.236-1.492.041-2.2-1.008-2.2-3.255,0-.088,0-.178,0-.266.006-1.911.745-2.907,2.153-2.9s2.132,1,2.138,2.919v.267" transform="translate(-7782.933 -5353.165)" fill="#00c298"/>
    <path id="Trazado_266977" data-name="Trazado 266977" d="M90.482,93.446q0,12.39,0,24.781c0,2.281-.667,2.948-2.935,2.952q-1.339,0-2.679,0c-2.292,0-2.963-.66-2.963-2.922q0-21.9,0-43.8c0-2.188-.014-4.375.006-6.564a2.186,2.186,0,0,1,2.46-2.477c1.072-.019,2.143-.006,3.215,0,2.2.006,2.9.683,2.9,2.853q0,12.592,0,25.182" transform="translate(-7786.153 -5353.971)" fill="#f6f6f6"/>
    <path id="Trazado_266978" data-name="Trazado 266978" d="M54.072,28.287a17.161,17.161,0,1,1-16.9-17.3,17.122,17.122,0,0,1,16.9,17.3" transform="translate(-7792.586 -5359.604)" fill="#f6f6f6"/>
    <path id="Trazado_266979" data-name="Trazado 266979" d="M67.158,98.671q0,9.24,0,18.481c0,2.1-.715,2.811-2.8,2.819-1.116,0-2.232.018-3.348,0a2.157,2.157,0,0,1-2.423-2.378q-.02-19.084,0-38.167a2.127,2.127,0,0,1,2.321-2.342c1.116-.03,2.232-.009,3.348-.007,2.2.006,2.9.684,2.9,2.849q0,9.374,0,18.749" transform="translate(-7788.567 -5352.764)" fill="#f6f6f6"/>
    <path id="Trazado_266980" data-name="Trazado 266980" d="M43.833,103.833q0,6.091,0,12.183c0,2.01-.733,2.737-2.732,2.748-1.16.007-2.321.023-3.48,0a2.13,2.13,0,0,1-2.354-2.309q-.028-12.718,0-25.436a2.092,2.092,0,0,1,2.252-2.269c1.292-.038,2.588-.026,3.882,0a2.184,2.184,0,0,1,2.428,2.507c.015,4.2.006,8.39.006,12.585" transform="translate(-7790.981 -5351.557)" fill="#f6f6f6"/>
    <path id="Trazado_266981" data-name="Trazado 266981" d="M11.93,108.976c0-2.006-.012-4.014,0-6.02.013-1.755.782-2.533,2.513-2.556,1.2-.017,2.409-.019,3.612,0a2.157,2.157,0,0,1,2.443,2.354q.036,6.221,0,12.441a2.135,2.135,0,0,1-2.309,2.352c-1.337.033-2.677.039-4.013,0a2.107,2.107,0,0,1-2.238-2.283c-.034-2.094-.009-4.191-.01-6.287" transform="translate(-7793.396 -5350.349)" fill="#f6f6f6"/>
    <path id="Trazado_266982" data-name="Trazado 266982" d="M37.6,23.453q-1.339,0-2.678,0c-.751,0-1.209.374-1.179,1.13A1.016,1.016,0,0,0,34.909,25.6c.714,0,1.429-.015,2.142.008a5.387,5.387,0,0,1,5.171,4.409,5.266,5.266,0,0,1-3.215,5.842c-.8.317-1.143.671-1.019,1.521a4.26,4.26,0,0,1-.017,1.334,2.069,2.069,0,0,1-2.085,1.886,2.115,2.115,0,0,1-2.163-1.951c-.006-.044,0-.089-.008-.134-.085-.7.322-1.643-.177-2.032-.454-.353-1.357-.109-2.058-.17a2.134,2.134,0,0,1-2.053-2.2,2.081,2.081,0,0,1,2.061-2.05c1.649-.06,3.3-.034,4.953-.015.8.009,1.5-.149,1.525-1.076.022-.977-.767-1.054-1.514-1.092a13.585,13.585,0,0,1-2.93-.141,5.373,5.373,0,0,1-4.091-4.737,5.2,5.2,0,0,1,3.339-5.4c.8-.3,1.032-.669.946-1.43a6.361,6.361,0,0,1,0-1.2A2.13,2.13,0,0,1,35.9,14.879,2.165,2.165,0,0,1,38,16.912c.088.736-.35,1.712.226,2.145.462.348,1.376.06,2.082.125a2.128,2.128,0,0,1-.028,4.246c-.888.064-1.784.013-2.677.013v.012" transform="translate(-7791.586 -5359.201)" fill="#00c298"/>
  </g>
</svg>
