<svg xmlns="http://www.w3.org/2000/svg" width="82" height="82" viewBox="0 0 82 82">
  <g id="Grupo_873621" data-name="Grupo 873621" transform="translate(-561.5 -2799)">
    <path id="Trazado_266814" data-name="Trazado 266814" d="M47.638,81.956A9.982,9.982,0,0,1,39.179,72.3c-.018-1.15-.017-1.125-1.169-1.1-.394.01-.5.162-.542.5a3.561,3.561,0,0,1-.9,2c-.282.311-.154.462.037.716a4.135,4.135,0,0,1,.453,4.644,4.231,4.231,0,0,1-4.035,2.373q-10.863.007-21.725.009A10.927,10.927,0,0,1,.511,71.679C.082,65.6,3.927,60.6,9.714,59.735c.383-.057.558-.12.5-.572a3.887,3.887,0,0,1,.905-3.045c.274-.329.2-.491-.027-.787a4.325,4.325,0,0,1,3.484-6.97c1.514-.01,1.514-.018,1.514-1.551q0-19.21-.008-38.419A7.6,7.6,0,0,1,20.429,1.01,6.738,6.738,0,0,1,23.507.293Q37.564.286,51.621.3A7.249,7.249,0,0,1,56.993,2.73q3.545,3.738,7.077,7.487a7.564,7.564,0,0,1,2.108,5.353c.009,3.541.019,7.082-.014,10.623-.006.637.11.846.8.84a57.225,57.225,0,0,1,6.145.068,10.019,10.019,0,0,1,8.893,8.66c.021.164-.086.387.163.478v.479a1.4,1.4,0,0,0-.079.781q-.006,17.036,0,34.072a1.4,1.4,0,0,0,.079.781v.8a9.406,9.406,0,0,1-1.8,4.861A9.553,9.553,0,0,1,73.381,82.1H48.455c-.247-.192-.564.015-.817-.143" transform="translate(561.317 2798.891)"/>
    <path id="Trazado_266816" data-name="Trazado 266816" d="M132.843,95c-.3-.186-.152-.483-.152-.723q-.013-17.094,0-34.188c0-.239-.152-.536.152-.721Z" transform="translate(510.643 2776.238)" fill="#8b8b8b"/>
    <path id="Trazado_266817" data-name="Trazado 266817" d="M76.96,132.712a.879.879,0,0,1,.817.143h-.8a.125.125,0,0,0-.018-.143" transform="translate(531.995 2748.134)" fill="#5f5f5f"/>
    <path id="Trazado_266818" data-name="Trazado 266818" d="M29.969,29.189c0-6.417.074-12.835-.03-19.25a5.27,5.27,0,0,1,5.577-5.548c9.265.089,18.531.039,27.8.016.679,0,.9.125.884.855-.05,2.9-.022,5.8-.02,8.706,0,1.445.355,1.805,1.771,1.806,2.716,0,5.432.017,8.147-.014.549-.006.771.171.778.692.009.825.036,1.649.037,2.474,0,2.9-.041,5.805.024,8.706.02.856-.256.975-1.015.969q-6.589-.053-13.179-.012a10.08,10.08,0,0,0-10.021,7.771,11.043,11.043,0,0,0-.249,2.615q.007,14.777,0,29.554c0,1.722,0,1.7-1.757,1.713a1.018,1.018,0,0,1-.921-.466.341.341,0,0,1,.026-.527,4.287,4.287,0,0,0-.009-5.564c-.233-.262-.1-.383.046-.589a4.218,4.218,0,0,0,.01-5.439c-.237-.319-.168-.459.034-.723a4.339,4.339,0,0,0-3.505-7c-4.552.009-9.106-.01-13.658.019-.643,0-.782-.182-.781-.8.022-6.656.014-13.313.014-19.969" transform="translate(550.022 2797.316)" fill="#92bfb1"/>
    <path id="Trazado_266819" data-name="Trazado 266819" d="M105.215,72.724c0,5.725.01,11.45,0,17.175a7.559,7.559,0,0,1-5.734,7.669,8.334,8.334,0,0,1-2.132.252q-11.143,0-22.287,0a7.606,7.606,0,0,1-7.921-7.949q-.007-17.175,0-34.35a7.587,7.587,0,0,1,7.913-7.951q11.1-.02,22.207,0a7.571,7.571,0,0,1,7.956,7.985c.012,5.725,0,11.45,0,17.175" transform="translate(535.762 2780.768)" fill="#92bfb1"/>
    <path id="Trazado_266820" data-name="Trazado 266820" d="M20,117.405a8.539,8.539,0,1,1,8.52-8.619A8.548,8.548,0,0,1,20,117.405" transform="translate(557.106 2760.536)" fill="#92bfb1"/>
    <path id="Trazado_266821" data-name="Trazado 266821" d="M31.486,82.415q4.511,0,9.022,0c1.3,0,2.113.688,2.108,1.764s-.824,1.76-2.121,1.761q-9.022,0-18.043,0c-1.346,0-2.161-.8-2.037-1.973a1.731,1.731,0,0,1,1.89-1.55c3.06-.009,6.121,0,9.181,0" transform="translate(553.678 2767.404)" fill="#92bfb1"/>
    <path id="Trazado_266822" data-name="Trazado 266822" d="M31.568,92.29c3.032,0,6.064-.01,9.1,0a1.761,1.761,0,0,1,1.863,2.242,1.654,1.654,0,0,1-1.634,1.27c-4.255.017-8.511.011-12.766.011a.765.765,0,0,1-.314-.038,13.731,13.731,0,0,0-6.565-.9c-.786.033-.9-.339-.847-.954a1.788,1.788,0,0,1,1.992-1.631c3.058-.007,6.117,0,9.175,0" transform="translate(553.682 2763.619)" fill="#92bfb1"/>
    <path id="Trazado_266823" data-name="Trazado 266823" d="M36.75,125.546a11.392,11.392,0,0,0,2.559-3.18.6.6,0,0,1,.63-.355c2.392.01,4.786-.009,7.178.02a1.726,1.726,0,0,1,1.766,1.69,1.752,1.752,0,0,1-1.741,1.813c-3.4.032-6.791.012-10.392.012" transform="translate(547.411 2752.223)" fill="#92bfb1"/>
    <path id="Trazado_266824" data-name="Trazado 266824" d="M38.353,102.174c3.2,0,6.2-.012,9.195.006a1.814,1.814,0,0,1,1.952,1.776,1.776,1.776,0,0,1-1.951,1.752c-2.178.016-4.356.006-6.534,0-.227,0-.464.054-.589-.26a11.2,11.2,0,0,0-2.072-3.277" transform="translate(546.796 2759.829)" fill="#92bfb1"/>
    <path id="Trazado_266825" data-name="Trazado 266825" d="M46.226,115.638c-.957,0-1.915-.022-2.872.01-.477.016-.694-.081-.581-.612a7.967,7.967,0,0,0,.112-2.462c-.041-.41.121-.5.488-.495,1.968.013,3.936-.016,5.9.017a1.776,1.776,0,0,1,1.9,1.735,1.8,1.8,0,0,1-1.922,1.8c-1.01.026-2.021.006-3.031.006" transform="translate(545.112 2756.03)" fill="#92bfb1"/>
    <path id="Trazado_266826" data-name="Trazado 266826" d="M96.058,14.476c-2.139,0-4.075,0-6.01,0-.29,0-.428-.058-.425-.39.012-2.069.006-4.138.006-6.4l6.429,6.787" transform="translate(527.14 2796.053)" fill="#92bfb1"/>
    <path id="Trazado_266827" data-name="Trazado 266827" d="M6.9,118.459c-.158.009-.316.024-.473.026-1.371.018-1.6-.2-1.768-1.573-.045-.366.054-.5.406-.459a.493.493,0,0,0,.08,0c1.487-.068,1.5-.049,1.756,2.006" transform="translate(559.719 2754.361)" fill="#92bfb1"/>
    <path id="Trazado_266828" data-name="Trazado 266828" d="M5.344,111.308c-.195-.239-.839.414-.834-.345.008-1.221.352-1.6,1.374-1.557.271.012.825-.351.812.337-.027,1.4-.178,1.566-1.352,1.566" transform="translate(559.771 2757.088)" fill="#92bfb1"/>
    <path id="Trazado_266829" data-name="Trazado 266829" d="M10.02,102.032c.11-.06.215-.166.346-.022.146.16-.021.229-.086.321q-.554.778-1.119,1.548c-.409.555-.99.126-1.507.218" transform="translate(558.565 2759.919)" fill="#92bfb1"/>
    <path id="Trazado_266830" data-name="Trazado 266830" d="M10.883,125.444a5.64,5.64,0,0,1-2.6-1.719c.791-.191,1.375-.118,1.761.634a7.222,7.222,0,0,0,.837,1.085" transform="translate(558.324 2751.6)" fill="#92bfb1"/>
    <path id="Trazado_266831" data-name="Trazado 266831" d="M49.434,56.645a2.3,2.3,0,0,0-1.563-2.156c-.893-.406-1.829-.719-2.709-1.15a3.872,3.872,0,0,1-2.188-4.832,3.321,3.321,0,0,1,2.214-2.428.918.918,0,0,0,.735-1.073c-.021-1.1.9-1.708,1.723-1.2a1.129,1.129,0,0,1,.553,1.161c-.089.617.2.783.731.831a3.993,3.993,0,0,1,1.727.57,1.064,1.064,0,0,1,.47,1.556.977.977,0,0,1-1.491.369,4.382,4.382,0,0,0-3.243-.414A1.584,1.584,0,0,0,45.073,49.2a1.775,1.775,0,0,0,.791,1.939,10.1,10.1,0,0,0,1.667.75c.514.216,1.045.4,1.543.642a4.838,4.838,0,0,1,1.816,7.022A3.513,3.513,0,0,1,48.941,61c-.519.147-.866.34-.729.951a.481.481,0,0,1,0,.16,1.131,1.131,0,0,1-1.118,1.131,1.062,1.062,0,0,1-1.154-1.149c.034-.715-.25-.951-.886-1.084A4.043,4.043,0,0,1,43.177,60a2.1,2.1,0,0,1-.615-.823,1.181,1.181,0,0,1,.468-1.474c.505-.351.911-.1,1.249.294a3.3,3.3,0,0,0,3.144,1.156c1.4-.189,2.01-.879,2.012-2.5" transform="translate(545.218 2782.275)"/>
    <path id="Trazado_266832" data-name="Trazado 266832" d="M66.241,39.1H56.494a2.084,2.084,0,0,1-1.091-.166,1.134,1.134,0,0,1-.609-1.131,1.091,1.091,0,0,1,.85-1.04,4.242,4.242,0,0,1,.95-.08q9.665-.006,19.333,0c.133,0,.267,0,.4,0,.9.036,1.4.457,1.421,1.18.019.759-.5,1.231-1.439,1.234-3.356.01-6.711,0-10.066,0" transform="translate(540.496 2784.938)" fill="#010101"/>
    <path id="Trazado_266833" data-name="Trazado 266833" d="M52.622,29.389H42.566a5.669,5.669,0,0,1-.717-.014A1.124,1.124,0,0,1,40.773,28.2,1.144,1.144,0,0,1,41.824,27a3.165,3.165,0,0,1,.557-.014h20.51a3.427,3.427,0,0,1,.557.012,1.192,1.192,0,0,1-.054,2.378c-.583.035-1.17.012-1.756.013H52.622" transform="translate(545.868 2788.656)"/>
    <path id="Trazado_266834" data-name="Trazado 266834" d="M43.859,36.683c.636,0,1.274-.031,1.908.008a1.2,1.2,0,1,1-.017,2.391c-1.245.034-2.492.031-3.737,0a1.21,1.21,0,0,1-1.265-1.165,1.232,1.232,0,0,1,1.283-1.231c.609-.031,1.219-.006,1.829-.006v0" transform="translate(545.878 2784.941)" fill="#020202"/>
    <path id="Trazado_266835" data-name="Trazado 266835" d="M85.939,26.986c.477,0,.955-.014,1.431,0a1.2,1.2,0,0,1,1.277,1.222,1.18,1.18,0,0,1-1.241,1.17q-1.47.033-2.941,0a1.194,1.194,0,0,1-1.244-1.173,1.218,1.218,0,0,1,1.207-1.22c.052,0,.106,0,.159,0h1.352" transform="translate(529.594 2788.656)"/>
    <path id="Trazado_266836" data-name="Trazado 266836" d="M88.451,52q5.432,0,10.864,0c2.93,0,4.536,1.612,4.543,4.543,0,1.225.016,2.45,0,3.674a4.072,4.072,0,0,1-4.33,4.284c-4.181.006-8.361,0-12.542.006a1.341,1.341,0,0,1-1.435-.776,1.157,1.157,0,0,1,1.086-1.619c.983-.041,1.97-.016,2.955-.017q4.833,0,9.665,0c1.649,0,2.18-.54,2.183-2.212,0-1.2.015-2.4,0-3.595-.02-1.281-.591-1.87-1.86-1.871q-11.143-.014-22.288,0a1.61,1.61,0,0,0-1.822,1.818q-.016,2,0,3.994a1.667,1.667,0,0,0,1.881,1.862c1.278.015,2.556,0,3.834.006.936.007,1.48.453,1.481,1.188s-.549,1.209-1.469,1.215c-1.358.01-2.716.023-4.074,0a4.009,4.009,0,0,1-4.056-4.051c-.022-1.384-.012-2.769,0-4.154A4,4,0,0,1,77.347,52c3.7-.019,7.4,0,11.1,0" transform="translate(533.494 2779.066)"/>
    <path id="Trazado_266837" data-name="Trazado 266837" d="M117.5,102.735c0,2.024.009,4.047,0,6.071a3.452,3.452,0,0,1-3.731,3.729,12.076,12.076,0,0,1-2.706-.1,3.368,3.368,0,0,1-2.7-3.238q-.044-6.51,0-13.02a3.046,3.046,0,0,1,2.7-2.986,15.93,15.93,0,0,1,3.587-.02,3.026,3.026,0,0,1,2.838,3.092c.036,2.156.009,4.314.009,6.471Z" transform="translate(519.965 2763.314)"/>
    <path id="Trazado_266838" data-name="Trazado 266838" d="M99.752,97.712c0,.665.015,1.329,0,1.994a2.541,2.541,0,0,1-2.552,2.609q-2.032.051-4.067,0A2.471,2.471,0,0,1,90.6,99.865c-.054-1.407-.049-2.819,0-4.226a2.4,2.4,0,0,1,2.333-2.46,39.431,39.431,0,0,1,4.461.012,2.433,2.433,0,0,1,2.355,2.528c.023.663,0,1.329,0,1.994" transform="translate(526.779 2763.299)"/>
    <path id="Trazado_266839" data-name="Trazado 266839" d="M90.627,114.361c0-.8-.057-1.6.013-2.389A2.318,2.318,0,0,1,92.8,109.79a30.2,30.2,0,0,1,4.7,0,2.432,2.432,0,0,1,2.248,2.466c.035,1.382.038,2.766,0,4.147a2.508,2.508,0,0,1-2.486,2.5c-1.381.039-2.766.034-4.147,0a2.5,2.5,0,0,1-2.513-2.47c-.038-.689-.006-1.382-.006-2.073h.028" transform="translate(526.771 2756.944)"/>
    <path id="Trazado_266840" data-name="Trazado 266840" d="M73.061,97.679c0-.691-.016-1.383,0-2.074a2.387,2.387,0,0,1,2.185-2.425,25.589,25.589,0,0,1,4.776,0,2.4,2.4,0,0,1,2.166,2.446q.033,2.073,0,4.147a2.486,2.486,0,0,1-2.468,2.511c-1.407.045-2.819.048-4.226,0a2.486,2.486,0,0,1-2.437-2.536c-.016-.691,0-1.382,0-2.074" transform="translate(533.492 2763.318)"/>
    <path id="Trazado_266841" data-name="Trazado 266841" d="M73.068,114.327c0-.744-.03-1.49.006-2.233a2.354,2.354,0,0,1,2.136-2.3,27.3,27.3,0,0,1,4.857,0,2.35,2.35,0,0,1,2.116,2.319q.062,2.191,0,4.386a2.467,2.467,0,0,1-2.42,2.39c-1.434.047-2.873.051-4.306,0a2.476,2.476,0,0,1-2.4-2.492c-.019-.691,0-1.382,0-2.074h.007" transform="translate(533.492 2756.946)"/>
    <path id="Trazado_266842" data-name="Trazado 266842" d="M95.171,84.838c-.744,0-1.49.034-2.232-.007a2.351,2.351,0,0,1-2.3-2.215c-.078-1.537-.078-3.084-.007-4.621a2.416,2.416,0,0,1,2.421-2.288q2.112-.051,4.226,0a2.489,2.489,0,0,1,2.467,2.434c.049,1.407.046,2.818,0,4.226a2.472,2.472,0,0,1-2.5,2.473c-.69.031-1.382.006-2.073.006v-.007" transform="translate(526.775 2769.984)"/>
    <path id="Trazado_266843" data-name="Trazado 266843" d="M112.958,84.842c-.744,0-1.49.032-2.232-.007a2.466,2.466,0,0,1-2.374-2.427q-.052-2.112,0-4.226a2.5,2.5,0,0,1,2.506-2.478q2.072-.042,4.146,0a2.456,2.456,0,0,1,2.473,2.408q.066,2.15,0,4.305a2.426,2.426,0,0,1-2.447,2.423c-.69.03-1.382,0-2.073,0v0" transform="translate(519.969 2769.983)"/>
    <path id="Trazado_266844" data-name="Trazado 266844" d="M82.193,80.314c0,.691.017,1.383,0,2.074a2.428,2.428,0,0,1-2.353,2.437c-1.486.051-2.978.051-4.464,0a2.388,2.388,0,0,1-2.307-2.388q-.046-2.152,0-4.306a2.457,2.457,0,0,1,2.38-2.417c1.461-.044,2.925-.049,4.385,0a2.477,2.477,0,0,1,2.357,2.449c.022.717,0,1.435,0,2.153" transform="translate(533.497 2769.987)"/>
    <path id="Trazado_266845" data-name="Trazado 266845" d="M23.273,116.647a1.147,1.147,0,0,1-1.155-.834c-.095-.451-.356-.581-.707-.723a2.369,2.369,0,0,1-1.3-1.117,1.184,1.184,0,0,1,.326-1.574,1,1,0,0,1,1.49.134,1.624,1.624,0,0,0,1.175.591c.408,0,.848-.036.982-.5a.939.939,0,0,0-.453-1.228c-.453-.219-.918-.414-1.387-.6a2.835,2.835,0,0,1-2.076-2.557,2.756,2.756,0,0,1,1.574-2.882.514.514,0,0,0,.3-.493,1.134,1.134,0,0,1,1.1-1.07,1.105,1.105,0,0,1,1.255.877.61.61,0,0,0,.568.525,1.99,1.99,0,0,1,.913.467,1.1,1.1,0,0,1,.265,1.5,1.068,1.068,0,0,1-1.438.487,2.826,2.826,0,0,0-1.538-.3c-.28.041-.54.117-.6.431a.585.585,0,0,0,.376.641c.454.216.921.406,1.385.6a3.142,3.142,0,0,1,2.181,2.778,3.087,3.087,0,0,1-1.747,3.359c-.274.128-.292.313-.351.548a1.242,1.242,0,0,1-1.145.938" transform="translate(553.854 2759.208)"/>
    <path id="Trazado_266846" data-name="Trazado 266846" d="M116.587,104.269c0,2,0,3.991,0,5.987,0,1.088-.332,1.406-1.437,1.414-.585,0-1.172.02-1.756-.006a1.065,1.065,0,0,1-1.136-1.165q-.011-6.266,0-12.533a.786.786,0,0,1,.895-.876c.8,0,1.6.019,2.394-.006.738-.023,1.062.279,1.054,1.039-.025,2.048-.009,4.1-.009,6.146" transform="translate(518.465 2761.78)" fill="#92bfb1"/>
    <path id="Trazado_266847" data-name="Trazado 266847" d="M96.848,97.043c.557.071,1.437-.3,1.87.141s.1,1.313.132,2c.022.557-.018,1.116.012,1.672.023.431-.154.549-.559.541-1.088-.02-2.178-.024-3.266,0-.435.01-.541-.163-.535-.562.019-1.088.025-2.178,0-3.266-.01-.429.143-.553.551-.532.556.029,1.115.007,1.8.007" transform="translate(525.27 2761.826)" fill="#92bfb1"/>
    <path id="Trazado_266848" data-name="Trazado 266848" d="M98.811,115.825c-.1.682.316,1.585-.174,2.04-.44.408-1.319.12-2,.1-.705-.017-1.64.345-2.049-.15-.345-.417-.139-1.318-.12-2,.019-.7-.319-1.643.152-2.047.4-.346,1.313-.131,2-.11.706.021,1.609-.312,2.064.149.419.425.06,1.315.13,2.018" transform="translate(525.321 2755.463)" fill="#92bfb1"/>
    <path id="Trazado_266849" data-name="Trazado 266849" d="M76.974,99.181c0-.686-.27-1.611.07-2,.4-.454,1.345-.127,2.052-.143.686-.015,1.612-.232,2,.118.453.41.126,1.351.141,2.061.015.686.223,1.578-.12,2-.368.457-1.3.14-1.979.144-.71,0-1.627.306-2.079-.121s-.076-1.36-.085-2.068" transform="translate(532.043 2761.834)" fill="#92bfb1"/>
    <path id="Trazado_266850" data-name="Trazado 266850" d="M81.286,115.757c0,.53-.017,1.061.006,1.591.021.483-.1.724-.663.7-1.032-.043-2.068-.018-3.1,0-.368,0-.593-.046-.581-.511.03-1.113.019-2.227,0-3.341,0-.363.094-.512.49-.5,1.113.025,2.228.029,3.341,0,.446-.012.536.164.513.558-.03.5-.007,1.008-.007,1.511" transform="translate(532 2755.414)" fill="#92bfb1"/>
    <path id="Trazado_266851" data-name="Trazado 266851" d="M98.819,81.884c-.071.582.314,1.523-.16,1.931-.405.348-1.318.135-2,.118-.708-.017-1.646.314-2.056-.146-.349-.392-.109-1.311-.123-2q-.011-.519,0-1.037c.027-1.334-.22-1.138,1.2-1.153.85-.009,1.7.018,2.552-.01.439-.015.633.1.6.576-.035.529-.008,1.062-.008,1.718" transform="translate(525.306 2768.486)" fill="#92bfb1"/>
    <path id="Trazado_266852" data-name="Trazado 266852" d="M112.242,81.817c0-.559.018-1.118-.006-1.675-.018-.408.114-.562.543-.552q1.634.041,3.271,0c.426-.011.547.135.539.546-.023,1.117-.019,2.234,0,3.351.006.342-.1.467-.45.461-1.143-.018-2.287-.021-3.43,0-.416.008-.48-.187-.466-.535.02-.532,0-1.064,0-1.6Z" transform="translate(518.471 2768.486)" fill="#92bfb1"/>
    <path id="Trazado_266853" data-name="Trazado 266853" d="M79.059,83.832c-.688,0-1.612.271-2-.07-.458-.4-.127-1.348-.145-2.056-.017-.688-.235-1.6.113-2.005.406-.467,1.348-.137,2.055-.148.686-.01,1.587-.3,2,.109.455.447.126,1.36.144,2.068.018.686.232,1.6-.115,2-.409.472-1.349.08-2.055.1" transform="translate(532.051 2768.543)" fill="#92bfb1"/>
    <rect id="Rectángulo_292277" data-name="Rectángulo 292277" width="82" height="82" transform="translate(561.5 2799)" fill="none"/>
  </g>
</svg>
