<svg xmlns="http://www.w3.org/2000/svg" xmlns:xlink="http://www.w3.org/1999/xlink" width="231.556" height="226.469" viewBox="0 0 231.556 226.469">
  <defs>
    <clipPath id="clip-path">
      <rect id="Rectángulo_291369" data-name="Rectángulo 291369" width="217.061" height="217.091" fill="#5d8fb8"/>
    </clipPath>
    <clipPath id="clip-path-2">
      <rect id="Rectángulo_292394" data-name="Rectángulo 292394" width="200.304" height="211.459" fill="none"/>
    </clipPath>
    <clipPath id="clip-path-4">
      <rect id="Rectángulo_292389" data-name="Rectángulo 292389" width="74.424" height="25.589" fill="none"/>
    </clipPath>
    <clipPath id="clip-path-7">
      <rect id="Rectángulo_292392" data-name="Rectángulo 292392" width="21.25" height="4.313" fill="none"/>
    </clipPath>
  </defs>
  <g id="Grupo_873920" data-name="Grupo 873920" transform="translate(4013.955 10830.002)">
    <g id="Grupo_873907" data-name="Grupo 873907">
      <g id="Grupo_870717" data-name="Grupo 870717" transform="translate(-4013.955 -10830.002)">
        <g id="Grupo_870714" data-name="Grupo 870714" clip-path="url(#clip-path)">
          <path id="Trazado_215321" data-name="Trazado 215321" d="M16.525,105.621c27.129-21.63-19.852-56.536-9.449-91.06s44.729.97,63.2,17.979S110.392,19.118,124.742,18.3s6.274,12.483,12.746,29.711,54.177,2.921,73.3,19.561-11.344,52.052-13.909,73.168,30.376,45.01,9.271,76.35l-104.846-.62c-10.55-3.243-17.432-5.813-17.432-5.813C-14.283,168.268-10.6,127.25,16.525,105.621" transform="translate(0 0)" fill="#5d8fb8"/>
        </g>
      </g>
      <path id="Trazado_264543" data-name="Trazado 264543" d="M209.053,582.976c0,3.35-40.736,6.066-90.986,6.066s-90.986-2.716-90.986-6.066,40.759-3.741,91.01-3.741,90.963.391,90.963,3.741" transform="translate(-4000.272 -11192.575)" fill="#033f71" opacity="0.4"/>
    </g>
    <g id="Grupo_873908" data-name="Grupo 873908" transform="translate(-3982.703 -10820.708)">
      <g id="Grupo_873919" data-name="Grupo 873919" clip-path="url(#clip-path-2)">
        <g id="Grupo_873911" data-name="Grupo 873911">
          <g id="Grupo_873910" data-name="Grupo 873910" clip-path="url(#clip-path-2)">
            <path id="Trazado_267622" data-name="Trazado 267622" d="M168.726,292.733a24.071,24.071,0,0,0-20.419-12.826c5.119-5.663,6.126-14.423,3.175-21.462s-9.449-12.287-16.739-14.551-15.269-1.732-22.534.61c.843-5.5-4.662-11-10.164-10.143a5.3,5.3,0,0,0-5.2-9.183l.322-40.343H73.182l.322,40.343a5.3,5.3,0,0,0-5.2,9.183C62.8,233.507,57.3,239,58.139,244.5c-7.265-2.342-15.244-2.875-22.534-.61s-13.787,7.512-16.739,14.551-1.944,15.8,3.175,21.462A24.071,24.071,0,0,0,1.622,292.733c-2.233,4.364-2.438,10.811,1.9,13.094h163.3c4.338-2.283,4.133-8.73,1.9-13.094" transform="translate(-0.034 -94.368)" fill="#ebebeb"/>
            <path id="Trazado_267623" data-name="Trazado 267623" d="M3.488,305.694s-.2-.115-.582-.351a6.079,6.079,0,0,1-1.45-1.377,7.469,7.469,0,0,1-1.267-3.013,11.984,11.984,0,0,1,.051-4.5,15.293,15.293,0,0,1,2.086-5.277,23.2,23.2,0,0,1,4.36-5.236,24.353,24.353,0,0,1,6.631-4.273l.981-.415,1.02-.356a10.552,10.552,0,0,1,1.048-.323c.356-.094.711-.206,1.075-.286a24.753,24.753,0,0,1,4.564-.593l-.055.129a18.858,18.858,0,0,1-3.562-5.948,21.6,21.6,0,0,1,2.056-18.858,23.154,23.154,0,0,1,2.575-3.414,28.493,28.493,0,0,1,15.617-8.731,35.75,35.75,0,0,1,9.653-.566,43.438,43.438,0,0,1,9.85,1.954l-.148.126a8.1,8.1,0,0,1,.419-3.943,9.836,9.836,0,0,1,2.178-3.463,9.969,9.969,0,0,1,3.469-2.352,8.114,8.114,0,0,1,4.23-.52l-.086.216a5.42,5.42,0,0,1,5.32-9.393l-.173.113c-.1-12.849-.214-26.393-.326-40.343v-.128H97.26v.128c-.113,13.916-.222,27.421-.326,40.343l-.173-.113a5.42,5.42,0,0,1,5.32,9.393l-.086-.216a8.091,8.091,0,0,1,4.182.5,10.087,10.087,0,0,1,5.671,5.761,8.078,8.078,0,0,1,.442,4.018l-.148-.126a43.4,43.4,0,0,1,9.846-1.953,35.747,35.747,0,0,1,9.645.563,28.492,28.492,0,0,1,15.608,8.709,23.286,23.286,0,0,1,2.578,3.408A21.69,21.69,0,0,1,151.7,258.7a21.134,21.134,0,0,1,1.113,3.89,23.014,23.014,0,0,1,.364,3.911,21.479,21.479,0,0,1-1.272,7.353,18.884,18.884,0,0,1-3.571,5.971l-.055-.129a24.808,24.808,0,0,1,4.57.594c.365.082.72.193,1.077.287a10.455,10.455,0,0,1,1.049.324l1.021.356.981.415a24.365,24.365,0,0,1,6.633,4.28,23.2,23.2,0,0,1,4.358,5.239,15.267,15.267,0,0,1,2.078,5.278,11.942,11.942,0,0,1,.046,4.493,7.48,7.48,0,0,1-1.267,3.007,6.087,6.087,0,0,1-1.449,1.373c-.384.235-.581.35-.581.35s.19-.127.569-.368a6.191,6.191,0,0,0,1.427-1.38,7.468,7.468,0,0,0,1.24-2.993,11.929,11.929,0,0,0-.066-4.466,15.209,15.209,0,0,0-2.084-5.24,23.136,23.136,0,0,0-4.351-5.2,24.275,24.275,0,0,0-6.608-4.243l-.977-.412-1.016-.352a10.291,10.291,0,0,0-1.044-.319c-.354-.093-.707-.2-1.07-.284a24.7,24.7,0,0,0-4.542-.582l-.164-.006.109-.123a18.725,18.725,0,0,0,3.529-5.924A21.3,21.3,0,0,0,153,266.5a22.849,22.849,0,0,0-.367-3.879,20.947,20.947,0,0,0-1.109-3.854,21.47,21.47,0,0,0-1.867-3.679,23.079,23.079,0,0,0-2.561-3.378,28.3,28.3,0,0,0-15.5-8.631,35.543,35.543,0,0,0-9.585-.552,43.228,43.228,0,0,0-9.792,1.95l-.176.057.028-.183a7.856,7.856,0,0,0-.434-3.9,9.858,9.858,0,0,0-5.539-5.621,7.86,7.86,0,0,0-4.06-.484l-.514.081.428-.3a5.178,5.178,0,0,0-5.083-8.974l-.175.079v-.191c.1-12.923.208-26.427.318-40.343l.127.128H73.149l.127-.128c.11,13.949.216,27.494.318,40.343v.191l-.175-.079a5.178,5.178,0,0,0-5.083,8.974l.43.3-.516-.08a7.882,7.882,0,0,0-4.106.5,9.735,9.735,0,0,0-3.387,2.3,8.7,8.7,0,0,0-2.539,7.209l.028.183-.177-.057a43.223,43.223,0,0,0-9.8-1.95,35.552,35.552,0,0,0-9.595.555,28.3,28.3,0,0,0-15.513,8.653,22.909,22.909,0,0,0-2.558,3.384,21.255,21.255,0,0,0-1.861,3.684,21.4,21.4,0,0,0-.2,15.015,18.7,18.7,0,0,0,3.521,5.9l.11.123-.165.006a24.644,24.644,0,0,0-4.535.581c-.362.079-.715.19-1.069.282a10.426,10.426,0,0,0-1.042.319l-1.016.351-.975.411a24.272,24.272,0,0,0-6.606,4.236,23.146,23.146,0,0,0-4.354,5.2,15.227,15.227,0,0,0-2.091,5.24,11.958,11.958,0,0,0-.07,4.47,7.464,7.464,0,0,0,1.239,3,6.174,6.174,0,0,0,1.428,1.384c.379.241.57.369.57.369" transform="translate(0 -94.235)" fill="#263238"/>
            <path id="Trazado_267624" data-name="Trazado 267624" d="M110.384,35.16,140.589,0l29.025,35.16H158.287V92.5h-35.16V35.22Z" transform="translate(-56.357 0)" fill="#a6fbe8"/>
            <path id="Trazado_267625" data-name="Trazado 267625" d="M381.176,188.566l-21.382,6.571,5.192,3.277,14.384,8.951L384,210.256Z" transform="translate(-183.694 -96.273)" fill="#009272"/>
            <path id="Trazado_267626" data-name="Trazado 267626" d="M192.881,304.34,180,297.9l30.564-47.243,12.41,11.9L247.25,223.99l12.119,8.89,21.775-35.519,7.32,3.423-26.776,48-13.564-12.663-23.156,43.2-12.191-14.258Z" transform="translate(-91.898 -100.763)" fill="#009272"/>
            <g id="Grupo_873909" data-name="Grupo 873909" transform="translate(42.924 176.166)" opacity="0.3">
              <g id="Grupo_873908-2" data-name="Grupo 873908">
                <g id="Grupo_873907-2" data-name="Grupo 873907" clip-path="url(#clip-path-4)">
                  <path id="Trazado_267627" data-name="Trazado 267627" d="M158.371,375.164c-2.931-1.943-6.725-2.155-10.176-1.474-1.14.225-2.4.521-3.4-.076s-1.329-1.831-1.723-2.915c-2.018-5.541-7.548-9.338-13.365-10.306s-10.489-.5-15.762,2.138a22.683,22.683,0,0,0-9.16,7.893c-.792,1.18-2.226,3.581-2.226,3.581a8.356,8.356,0,0,1-3.741,1.04A13.994,13.994,0,0,0,87.7,385.518l73.936-1.2c1.388-3.231-.332-7.21-3.263-9.153" transform="translate(-87.698 -359.929)"/>
                </g>
              </g>
            </g>
            <path id="Trazado_267628" data-name="Trazado 267628" d="M79.42,392.608c2.311-8.185,11.423-13.8,19.774-12.191a19.914,19.914,0,0,1,39.009-.3c5.017-1.155,10.413-2.015,15.2-.128s8.459,7.5,6.477,12.254" transform="translate(-40.548 -186.028)" fill="#ebebeb"/>
            <path id="Trazado_267629" data-name="Trazado 267629" d="M159.884,392.125a.845.845,0,0,1,.038-.141l.129-.407a3.542,3.542,0,0,0,.175-.674,5.463,5.463,0,0,0,.133-.948,9.074,9.074,0,0,0-1.782-5.863,12.02,12.02,0,0,0-3.171-3.069,12.808,12.808,0,0,0-4.829-1.857,21.763,21.763,0,0,0-5.9-.179,48.961,48.961,0,0,0-6.451,1.123l-.112.026-.025-.114a19.8,19.8,0,0,0-5.653-9.884,20.621,20.621,0,0,0-11.187-5.558,17.924,17.924,0,0,0-7.948.638,21.005,21.005,0,0,0-6.744,3.58,20.774,20.774,0,0,0-4.8,5.355,18.908,18.908,0,0,0-2.463,6.171l-.021.1-.1-.02a16.1,16.1,0,0,0-5.41-.069,18.217,18.217,0,0,0-2.459.551l-1.141.4c-.379.12-.723.311-1.078.459a20.875,20.875,0,0,0-1.977,1.033l-.88.589-.427.287c-.136.1-.264.21-.394.313l-.762.612c-.246.2-.46.431-.684.638s-.442.41-.638.624l-.559.639a17.038,17.038,0,0,0-2.709,4.316c-.238.54-.357.979-.47,1.262s-.165.433-.165.433.16-.611.575-1.72a16.676,16.676,0,0,1,2.674-4.372l.558-.648c.2-.217.421-.417.638-.633s.438-.442.685-.648l.764-.622c.131-.1.259-.215.4-.318l.429-.292.883-.6a20.728,20.728,0,0,1,1.99-1.053c.357-.151.7-.346,1.086-.469l1.151-.408a18.369,18.369,0,0,1,2.483-.567,16.265,16.265,0,0,1,5.481.052l-.125.084a19.067,19.067,0,0,1,2.476-6.252,20.966,20.966,0,0,1,4.842-5.425,21.214,21.214,0,0,1,6.822-3.629,18.144,18.144,0,0,1,8.058-.65,20.832,20.832,0,0,1,11.323,5.632,19.99,19.99,0,0,1,5.705,10.016l-.138-.088a48.824,48.824,0,0,1,6.483-1.11,21.862,21.862,0,0,1,5.951.2,12.939,12.939,0,0,1,4.885,1.906,12.111,12.111,0,0,1,3.192,3.129,9.078,9.078,0,0,1,1.742,5.946,5.376,5.376,0,0,1-.151.954,3.4,3.4,0,0,1-.193.674l-.147.4a.835.835,0,0,1-.055.134" transform="translate(-40.548 -185.915)" fill="#263238"/>
          </g>
        </g>
        <g id="Grupo_873913" data-name="Grupo 873913">
          <g id="Grupo_873912" data-name="Grupo 873912" clip-path="url(#clip-path-2)">
            <path id="Trazado_267630" data-name="Trazado 267630" d="M75.716,128.057A35.494,35.494,0,1,1,39.657,92.976a35.623,35.623,0,0,1,36.059,35.081m-52.458.847a16.971,16.971,0,1,0,16.7-17.321,17.027,17.027,0,0,0-16.7,17.321" transform="translate(-2.416 -47.467)" fill="#e0e0e0"/>
            <path id="Trazado_267631" data-name="Trazado 267631" d="M112.146,128.057a35.623,35.623,0,0,1-34.919,36.226l-.3-18.606a17.05,17.05,0,0,0-.545-34.094l-.3-18.606a35.61,35.61,0,0,1,36.059,35.08" transform="translate(-38.847 -47.467)" fill="#455a64"/>
            <path id="Trazado_267632" data-name="Trazado 267632" d="M76.727,164.276l-.305-19.095.245,0a16.815,16.815,0,0,0,11.362-28.869,16.586,16.586,0,0,0-11.9-4.735l-.245,0-.3-19.1.244,0A35.855,35.855,0,0,1,112.132,127.8a35.867,35.867,0,0,1-35.16,36.474Zm.192-18.615.29,18.117a35.434,35.434,0,0,0,23.7-60.832,34.931,34.931,0,0,0-24.832-9.983l.29,18.117A17.273,17.273,0,0,1,93.611,128.1a17.28,17.28,0,0,1-16.693,17.564" transform="translate(-38.587 -47.212)" fill="#455a64"/>
            <path id="Trazado_267633" data-name="Trazado 267633" d="M41.611,202.011a40.554,40.554,0,0,1-41.525-40.4l21.668-.349c.176,11,8.543,17.921,19.49,17.744Z" transform="translate(-0.044 -82.334)" fill="#92bfb1"/>
            <path id="Trazado_267634" data-name="Trazado 267634" d="M15.447,162.742c.138.095-1.911,3.306-4.574,7.172s-4.936,6.925-5.074,6.83,1.911-3.306,4.575-7.173,4.935-6.924,5.073-6.829" transform="translate(-2.957 -83.087)" fill="#263238"/>
            <path id="Trazado_267635" data-name="Trazado 267635" d="M30.122,166.446c.138.095-2.892,4.731-6.766,10.353S16.229,186.9,16.091,186.81s2.892-4.73,6.767-10.354,7.127-10.1,7.264-10.01" transform="translate(-8.213 -84.979)" fill="#263238"/>
            <path id="Trazado_267636" data-name="Trazado 267636" d="M40.9,186.13c.138.095-2.59,4.291-6.091,9.373s-6.452,9.125-6.59,9.031,2.589-4.291,6.092-9.374,6.451-9.125,6.589-9.03" transform="translate(-14.403 -95.029)" fill="#263238"/>
            <path id="Trazado_267637" data-name="Trazado 267637" d="M57.194,197.017c.138.095-2.59,4.291-6.091,9.373s-6.452,9.125-6.59,9.031,2.589-4.291,6.092-9.374,6.451-9.125,6.589-9.03" transform="translate(-22.724 -100.587)" fill="#263238"/>
            <path id="Trazado_267638" data-name="Trazado 267638" d="M73.479,210.836c.138.095-2.091,3.568-4.977,7.756S63.164,226.1,63.027,226s2.09-3.567,4.977-7.756,5.337-7.507,5.475-7.413" transform="translate(-32.175 -107.642)" fill="#263238"/>
          </g>
        </g>
        <g id="Grupo_873918" data-name="Grupo 873918">
          <g id="Grupo_873917" data-name="Grupo 873917" clip-path="url(#clip-path-2)">
            <path id="Trazado_267639" data-name="Trazado 267639" d="M308.989,14.763s2.137-4.924,2.242-5.7-.112-2.482-.665-2.95a1.5,1.5,0,0,0-1.762-.239,1.444,1.444,0,0,0-1.172-1.28.8.8,0,0,0-1.063.809.938.938,0,0,0-.744-.951,1.4,1.4,0,0,0-.832.125s-1.045-.931-1.74-.353.106,9.547.106,9.547Z" transform="translate(-154.682 -2.061)" fill="#ffc09d"/>
            <path id="Trazado_267640" data-name="Trazado 267640" d="M301.5,13.325s-1.908-3.287-1.9-4.183a5.419,5.419,0,0,1,1.678-3.182c.6-.255,2.954-.786,2.954-.786s.962.9-.462,1.8l-1.643.926a3.785,3.785,0,0,1,2.541,3.558" transform="translate(-152.96 -2.641)" fill="#ffc09d"/>
            <path id="Trazado_267641" data-name="Trazado 267641" d="M304.555,11.312a6.659,6.659,0,0,0-.243-1.24,3.5,3.5,0,0,0-.771-1.207,4.345,4.345,0,0,0-1.561-1.009l-.217-.081.2-.114,1.667-.957A1.529,1.529,0,0,0,304.269,6a.866.866,0,0,0-.236-.877l.115.031-1.261.3c-.336.083-.668.168-.991.259-.162.046-.322.092-.476.144a1.947,1.947,0,0,0-.219.083.81.81,0,0,0-.17.122,5.44,5.44,0,0,0-1,1.53,6.148,6.148,0,0,0-.317.8,1.768,1.768,0,0,0-.1.766,7.1,7.1,0,0,0,.49,1.374c.371.827.712,1.48.942,1.933a5.471,5.471,0,0,1,.344.713,4.156,4.156,0,0,1-.431-.665c-.257-.44-.623-1.081-1.019-1.906a6.952,6.952,0,0,1-.535-1.414,1.951,1.951,0,0,1,.1-.866,6.224,6.224,0,0,1,.318-.836,5.539,5.539,0,0,1,1.048-1.618,1.014,1.014,0,0,1,.23-.163,2.165,2.165,0,0,1,.245-.1c.162-.055.324-.1.488-.149.327-.093.661-.179,1-.263l1.267-.3.068-.016.047.047a1.113,1.113,0,0,1,.3,1.143,1.75,1.75,0,0,1-.748.828l-1.687.94-.019-.2a4.418,4.418,0,0,1,1.62,1.092,3.5,3.5,0,0,1,.762,1.287,2.976,2.976,0,0,1,.118.54,2.006,2.006,0,0,1,.03.4,1.3,1.3,0,0,1-.023.335" transform="translate(-152.851 -2.496)" fill="#ff9b6c"/>
            <path id="Trazado_267642" data-name="Trazado 267642" d="M309.605,6.921a8.438,8.438,0,0,0-.282,2.939,1.491,1.491,0,0,0,.317.934.983.983,0,0,0,.884.253,1.6,1.6,0,0,0,.819-.468" transform="translate(-157.912 -3.534)" fill="#ffc09d"/>
            <path id="Trazado_267643" data-name="Trazado 267643" d="M311.213,10.579c.019.007-.158.337-.7.534a1.108,1.108,0,0,1-.986-.147,1.463,1.463,0,0,1-.46-1.118,5.762,5.762,0,0,1,.411-2.926,16.754,16.754,0,0,0-.157,2.906,1.292,1.292,0,0,0,.35.952.953.953,0,0,0,.795.159,3.8,3.8,0,0,0,.749-.36" transform="translate(-157.782 -3.534)" fill="#ff9b6c"/>
            <path id="Trazado_267644" data-name="Trazado 267644" d="M305.518,10.544a2.027,2.027,0,0,0-.08,1.072,1.107,1.107,0,0,0,.748,1.042c.372.09.854-.408,1.072-.925" transform="translate(-155.926 -5.383)" fill="#ffc09d"/>
            <path id="Trazado_267645" data-name="Trazado 267645" d="M307.162,11.733c.028.009-.012.243-.229.553a1.327,1.327,0,0,1-.508.448.6.6,0,0,1-.448.021.969.969,0,0,1-.383-.243,1.319,1.319,0,0,1-.355-.756,6.25,6.25,0,0,1-.019-.646c.025-.388.181-.58.2-.567.042.014-.046.229-.022.565.025.213.048.415.071.612a1.186,1.186,0,0,0,.3.612.761.761,0,0,0,.283.186.363.363,0,0,0,.277,0,1.333,1.333,0,0,0,.457-.344c.233-.255.332-.456.369-.44" transform="translate(-155.83 -5.383)" fill="#ff9b6c"/>
            <path id="Trazado_267646" data-name="Trazado 267646" d="M313.979,7.913a4.989,4.989,0,0,0-1.139,2.054A1.16,1.16,0,0,0,313,11.136a1.039,1.039,0,0,0,1.212-.046A2.42,2.42,0,0,0,315.3,9.5" transform="translate(-159.681 -4.04)" fill="#ffc09d"/>
            <path id="Trazado_267647" data-name="Trazado 267647" d="M315.166,9.5a1.539,1.539,0,0,1-.316.974,2.355,2.355,0,0,1-.825.78,1.439,1.439,0,0,1-.675.181.815.815,0,0,1-.7-.359,1.15,1.15,0,0,1-.142-.751,2.914,2.914,0,0,1,.162-.652,4.687,4.687,0,0,1,.492-1,2.256,2.256,0,0,1,.681-.76c.031.027-.228.317-.526.853a5.474,5.474,0,0,0-.424.982,2.92,2.92,0,0,0-.136.6.927.927,0,0,0,.107.587c.219.346.723.28,1.05.109a2.369,2.369,0,0,0,.785-.674,5.728,5.728,0,0,0,.464-.871" transform="translate(-159.55 -4.039)" fill="#ff9b6c"/>
            <path id="Trazado_267648" data-name="Trazado 267648" d="M260.975,55.073a33.223,33.223,0,0,1,3.7-3.5c1.045-.642,7.95-8.867,8.679-11.032s7.5-19.546,7.361-19.311c-.116.2,8.6,1.84,8.6,1.84s-6.487,20.043-7.276,22.336c-1.43,4.154-8.512,12.569-12.548,17.616-1.719,2.148-4.1,9.028-4.1,9.028Z" transform="translate(-133.242 -10.836)" fill="#263238"/>
            <path id="Trazado_267649" data-name="Trazado 267649" d="M273.378,101.152a8.452,8.452,0,0,1-.252-1.571c-.111-.975-.213-2.33-.24-3.829s.031-2.857.108-3.837a8.452,8.452,0,0,1,.2-1.578,11.676,11.676,0,0,1-.018,1.588c-.03.978-.058,2.33-.033,3.823s.1,2.841.164,3.818a11.59,11.59,0,0,1,.072,1.586" transform="translate(-139.32 -46.122)" fill="#455a64"/>
            <path id="Trazado_267650" data-name="Trazado 267650" d="M169.546,315.472l-3.729,7.6-.476,1.861s2.488,11.294.933,12.408l-11.1-17.917,2.86-1.8,3.554-7.6Z" transform="translate(-79.225 -158.286)" fill="#455a64"/>
            <path id="Trazado_267651" data-name="Trazado 267651" d="M155.174,328.385l1.405-.806,10.116,17.48s.166,1-.422,1.243Z" transform="translate(-79.225 -167.247)" fill="#263238"/>
            <path id="Trazado_267652" data-name="Trazado 267652" d="M174.437,339.778c-.085.049-.393-.366-.926-.63s-1.023-.278-1.041-.378c-.034-.091.542-.268,1.182.064s.872.916.784.945" transform="translate(-88.055 -172.894)" fill="#263238"/>
            <path id="Trazado_267653" data-name="Trazado 267653" d="M175.287,345.042c-.068.07-.443-.221-.978-.3-.533-.095-.958.066-1.008-.023-.064-.074.383-.437,1.047-.326s1.017.6.939.65" transform="translate(-88.476 -175.82)" fill="#263238"/>
            <path id="Trazado_267654" data-name="Trazado 267654" d="M174.356,350.094c-.067-.069.272-.448.864-.506s1.027.239.981.319-.445-.022-.931.033-.852.235-.914.154" transform="translate(-89.014 -178.479)" fill="#263238"/>
            <path id="Trazado_267655" data-name="Trazado 267655" d="M209.191,184.663c-.366.865-19.092,29.532-22.934,32.717S169.3,246.714,169.3,246.714s-10.713-5.2-10.951-4.632,7.513-18.458,12.137-26.269,6.782-10.833,6.782-10.833l9.2-24.532s.191-8.082,1.374-11.226,4.645-5.875,4.645-5.875Z" transform="translate(-80.845 -83.397)" fill="#263238"/>
            <path id="Trazado_267656" data-name="Trazado 267656" d="M210.517,267.1l-9.956.715s-2.559,10.913-4.385,11.234l-2.19-20.31,15.464-1.785Z" transform="translate(-99.04 -131.186)" fill="#455a64"/>
            <path id="Trazado_267657" data-name="Trazado 267657" d="M206.231,265.586a.787.787,0,0,0-.959-.475.807.807,0,0,0-.446.993.829.829,0,0,0,1.018.5.847.847,0,0,0,.355-1.089" transform="translate(-104.553 -135.334)" fill="#e0e0e0"/>
            <path id="Trazado_267658" data-name="Trazado 267658" d="M193.985,260.476l1.566-.116,1.514,19.516s-.276.946-.89.909Z" transform="translate(-99.04 -132.928)" fill="#263238"/>
            <path id="Trazado_267659" data-name="Trazado 267659" d="M206.339,277.977c-.094.007-.19-.484-.545-.939s-.778-.672-.751-.766c.009-.094.586-.007,1.007.551s.377,1.166.289,1.154" transform="translate(-104.685 -141.035)" fill="#263238"/>
            <path id="Trazado_267660" data-name="Trazado 267660" d="M204.785,283.064c-.089.033-.295-.379-.729-.672s-.865-.344-.871-.443c-.025-.092.518-.221,1.051.154s.638.95.549.961" transform="translate(-103.737 -143.9)" fill="#263238"/>
            <path id="Trazado_267661" data-name="Trazado 267661" d="M201.783,287.171c-.03-.088.425-.278.967-.08s.8.639.723.69-.38-.206-.827-.362-.843-.151-.863-.249" transform="translate(-103.02 -146.531)" fill="#263238"/>
            <path id="Trazado_267662" data-name="Trazado 267662" d="M211.915,276.724c-.09-.032-.01-.5-.106-1.058s-.311-.976-.236-1.036.456.323.56.979-.139,1.155-.218,1.114" transform="translate(-108.012 -140.21)" fill="#263238"/>
            <path id="Trazado_267663" data-name="Trazado 267663" d="M209.611,185.964s-.027,9.551,4.308,12.778S233.293,214.1,233.293,214.1l-24,4.1,1.794,11.131s32.406-3.27,36.372-4.6,6.819-8.036,3.714-12.7c-1.559-2.342-17.691-25.275-17.691-25.275l-.484-6.156L212.655,181.9Z" transform="translate(-106.853 -92.211)" fill="#263238"/>
            <path id="Trazado_267664" data-name="Trazado 267664" d="M210.967,242.1a1.056,1.056,0,0,1-.046-.195c-.026-.143-.062-.333-.106-.575-.091-.522-.219-1.265-.383-2.214-.323-1.939-.785-4.715-1.353-8.132l-.016-.092.093-.016,21.917-3.78,2.082-.355-.059.223c-3.382-2.795-6.6-5.425-9.532-7.791l-4.172-3.329c-1.305-1.034-2.561-1.958-3.6-2.93a24.906,24.906,0,0,1-4.276-5.132,15.8,15.8,0,0,1-.866-1.592c-.089-.187-.148-.333-.187-.432a.623.623,0,0,1-.05-.152.965.965,0,0,1,.073.142c.047.095.113.237.209.42.189.366.478.9.9,1.563a25.722,25.722,0,0,0,4.313,5.054c1.038.955,2.292,1.866,3.608,2.9s2.719,2.133,4.189,3.312c2.941,2.356,6.165,4.979,9.55,7.774l.214.176-.274.047-2.082.356-21.929,3.716.078-.109c.534,3.423.967,6.2,1.27,8.145l.332,2.222.079.579a1.049,1.049,0,0,1,.018.2" transform="translate(-106.738 -104.972)" fill="#455a64"/>
            <path id="Trazado_267665" data-name="Trazado 267665" d="M264.832,249.555c-.022.075-1.426-.34-3.209-.524s-3.241-.085-3.247-.163a3.082,3.082,0,0,1,.952-.143,13.907,13.907,0,0,1,4.6.489,3.056,3.056,0,0,1,.9.34" transform="translate(-131.915 -126.974)" fill="#455a64"/>
            <path id="Trazado_267666" data-name="Trazado 267666" d="M241.189,24.9a2.228,2.228,0,0,1,2.078-1.538,3.037,3.037,0,0,1,3.71-.6,2.754,2.754,0,0,1,2.624-.529,2.785,2.785,0,0,1,1.8,1.994,2.327,2.327,0,0,1,2.547.76,2.355,2.355,0,0,1,.09,2.668,2.193,2.193,0,0,1-.142,4.36l-11.852-4.663a2.255,2.255,0,0,1-.858-2.451" transform="translate(-123.095 -11.283)" fill="#263238"/>
            <path id="Trazado_267667" data-name="Trazado 267667" d="M251.221,35.638a9.271,9.271,0,0,0-10.6-6.771l-.471.086c-5.028,1.222-5.776,6.219-4.412,11.242l3.893,18.883,9.348,5.552,1.124-4.122-.012-6.727S254.836,52.129,254,47.2c-.4-2.378-1.625-7.209-2.783-11.567" transform="translate(-120.049 -14.662)" fill="#ffc09d"/>
            <path id="Trazado_267668" data-name="Trazado 267668" d="M258.736,79.142a11.99,11.99,0,0,1-6.743-.721s1.912,3.534,6.706,2.206Z" transform="translate(-128.656 -40.038)" fill="#ff9b6c"/>
            <path id="Trazado_267669" data-name="Trazado 267669" d="M265.315,51.766a.711.711,0,0,1-.544.83.679.679,0,0,1-.834-.5.711.711,0,0,1,.543-.83.68.68,0,0,1,.835.5" transform="translate(-134.746 -26.163)" fill="#263238"/>
            <path id="Trazado_267670" data-name="Trazado 267670" d="M264.068,48.1c-.069.107-.67-.19-1.42-.052s-1.232.616-1.33.538c-.047-.034.011-.215.219-.434a1.938,1.938,0,0,1,1.044-.544,1.863,1.863,0,0,1,1.151.156c.263.136.371.287.336.336" transform="translate(-133.409 -24.293)" fill="#263238"/>
            <path id="Trazado_267671" data-name="Trazado 267671" d="M251.921,54.791a.712.712,0,0,1-.544.83.68.68,0,0,1-.834-.5.712.712,0,0,1,.544-.83.68.68,0,0,1,.835.5" transform="translate(-127.908 -27.707)" fill="#263238"/>
            <path id="Trazado_267672" data-name="Trazado 267672" d="M249.356,50.554c-.07.107-.671-.19-1.42-.051s-1.231.616-1.33.538c-.047-.033.01-.214.219-.434a1.937,1.937,0,0,1,1.044-.544,1.864,1.864,0,0,1,1.151.155c.262.137.371.288.336.336" transform="translate(-125.898 -25.544)" fill="#263238"/>
            <path id="Trazado_267673" data-name="Trazado 267673" d="M257.813,55.115a5.021,5.021,0,0,1,1.179-.443c.188-.054.363-.125.371-.263a1,1,0,0,0-.232-.548L258.3,52.5a25.829,25.829,0,0,1-1.97-3.608,25.7,25.7,0,0,1,2.254,3.441q.425.721.811,1.378a1.144,1.144,0,0,1,.237.739.491.491,0,0,1-.264.339,1.285,1.285,0,0,1-.317.1,4.907,4.907,0,0,1-1.235.226" transform="translate(-130.866 -24.959)" fill="#263238"/>
            <path id="Trazado_267674" data-name="Trazado 267674" d="M254.978,63.5c.121-.029.271.79,1.074,1.245s1.654.208,1.681.321c.021.049-.164.194-.53.271a2.055,2.055,0,0,1-1.395-.221,1.81,1.81,0,0,1-.848-1.053c-.093-.337-.04-.556.017-.562" transform="translate(-130.146 -32.419)" fill="#263238"/>
            <path id="Trazado_267675" data-name="Trazado 267675" d="M248.276,46.166c-.054.212-.732.154-1.515.309-.787.138-1.407.439-1.524.259-.052-.087.047-.29.292-.507a2.379,2.379,0,0,1,1.109-.521,2.282,2.282,0,0,1,1.206.088c.3.116.454.271.432.371" transform="translate(-125.2 -23.314)" fill="#263238"/>
            <path id="Trazado_267676" data-name="Trazado 267676" d="M263.175,43.968c-.085.2-.639.164-1.252.32-.618.134-1.1.416-1.263.272-.075-.071-.039-.262.144-.482a1.861,1.861,0,0,1,2.026-.477c.262.115.379.27.344.367" transform="translate(-133.062 -22.198)" fill="#263238"/>
            <path id="Trazado_267677" data-name="Trazado 267677" d="M248.043,32.661s-1.847-2.843-3.453-3.293c-1.944-.545-2.354,1.567-4.143,1.4s-3.645-.694-5.144.945c-1.641,1.794-.564,2.648-.286,4.85,1.128,8.925-.022,11.715-1.235,7.635-.133-.447-1.457-.581-1.994-2.474-.7-2.455-1.342-5.472-1.11-7.346a7.108,7.108,0,0,1,2.168-4.18c2.072-2.233,5.359-2.87,7.638-3.05s7.061,1.626,7.557,5.516" transform="translate(-117.75 -13.853)" fill="#263238"/>
            <path id="Trazado_267678" data-name="Trazado 267678" d="M235.613,60.256a1.35,1.35,0,0,0-1.665-1.025c-.895.253-1.814.957-1.41,2.839.717,3.34,3.9,1.934,3.887,1.837-.01-.066-.5-2.257-.812-3.652" transform="translate(-118.673 -30.216)" fill="#ffc09d"/>
            <path id="Trazado_267679" data-name="Trazado 267679" d="M236.682,63.959c-.017-.008-.05.053-.138.119a.59.59,0,0,1-.43.1,1.473,1.473,0,0,1-.94-1.149,1.985,1.985,0,0,1-.017-.868.687.687,0,0,1,.339-.54.3.3,0,0,1,.375.086c.065.084.058.155.077.157s.058-.071,0-.2a.376.376,0,0,0-.176-.181.444.444,0,0,0-.338-.017.833.833,0,0,0-.493.648,2.037,2.037,0,0,0,0,.974,1.545,1.545,0,0,0,1.153,1.261.632.632,0,0,0,.511-.2c.085-.1.086-.184.074-.187" transform="translate(-119.922 -31.369)" fill="#ff9b6c"/>
            <path id="Trazado_267680" data-name="Trazado 267680" d="M231.524,36.428a3.209,3.209,0,0,0,1.533.4,1.106,1.106,0,0,0,1.068-.99c0-.241-.109-.5.011-.71.143-.249.492-.242.777-.263a2.168,2.168,0,0,0,1.933-1.939.906.906,0,0,0,1.221-.1,4.889,4.889,0,0,0,.732-1.144,1.393,1.393,0,0,1,1.042-.785,3.329,3.329,0,0,0,.755.029c.432-.119.552-.674.539-1.124s-.054-.97.274-1.275a1.763,1.763,0,0,1,1.188-.25c.415-.014.918-.2.95-.62a.814.814,0,0,0-.26-.582,2.192,2.192,0,0,0-2.7-.36,2.973,2.973,0,0,0-5.49.407,3.015,3.015,0,0,0-4.558,1.955,2.238,2.238,0,0,0-2.113,1.178,2.268,2.268,0,0,0,.255,2.418,2.1,2.1,0,0,0-.829,1.845,1.194,1.194,0,0,0,1.547.964,1.27,1.27,0,0,0,.758,1.493,1.255,1.255,0,0,0,1.525-.67" transform="translate(-116.32 -12.795)" fill="#263238"/>
            <path id="Trazado_267681" data-name="Trazado 267681" d="M230.524,46.014a.821.821,0,0,0,.326.608,1.089,1.089,0,0,0,.742.28,1.173,1.173,0,0,0,.9-.451l-.145,0a3.425,3.425,0,0,0,.819.717,1.954,1.954,0,0,0,.677.27,1.316,1.316,0,0,0,.684-.059,1.335,1.335,0,0,0,.863-.731,1.986,1.986,0,0,0,.143-.748.687.687,0,0,0-.023-.276c-.015,0-.026.1-.052.27a2.326,2.326,0,0,1-.192.7,1.379,1.379,0,0,1-2,.412,3.423,3.423,0,0,1-.778-.67l-.077-.088-.069.093a1.025,1.025,0,0,1-.758.4,1,1,0,0,1-.663-.21,1.661,1.661,0,0,1-.4-.518" transform="translate(-117.693 -23.295)" fill="#455a64"/>
            <path id="Trazado_267682" data-name="Trazado 267682" d="M240.573,26.321c0,.012.092.008.252.044a1.169,1.169,0,0,1,.6.349l.052.057.035-.071a4.239,4.239,0,0,1,1.376-1.608,3.29,3.29,0,0,1,1.262-.529,2.746,2.746,0,0,1,1.488.15,2.806,2.806,0,0,1,.988.65,2.317,2.317,0,0,1,.551.946l.03.1.1-.046a1.9,1.9,0,0,1,1.419-.082,1.866,1.866,0,0,1,.908.68,2.566,2.566,0,0,1,.389.957.691.691,0,0,0-.009-.282,1.912,1.912,0,0,0-.289-.738,1.94,1.94,0,0,0-.948-.762,2.03,2.03,0,0,0-1.547.062l.126.058a2.475,2.475,0,0,0-.587-1.032,2.959,2.959,0,0,0-1.056-.7,2.889,2.889,0,0,0-1.593-.153,3.383,3.383,0,0,0-1.325.575,4.137,4.137,0,0,0-1.374,1.7l.086-.014a1.15,1.15,0,0,0-.666-.332.51.51,0,0,0-.262.011" transform="translate(-122.825 -12.42)" fill="#455a64"/>
            <path id="Trazado_267683" data-name="Trazado 267683" d="M251.969,173.012c.467.044,2.056.6,4.122-3.217s4.049-17.957,4.049-17.957Z" transform="translate(-128.644 -77.521)" fill="#e0e0e0"/>
            <path id="Trazado_267684" data-name="Trazado 267684" d="M254.971,107.591l.234-13.682-2.749-10.472a20.1,20.1,0,0,0-4.025-4.544,12.812,12.812,0,0,0-4.558-2.23l-3.149-.763-.339,2.611L249.531,89Z" transform="translate(-122.73 -38.751)" fill="#e0e0e0"/>
            <path id="Trazado_267685" data-name="Trazado 267685" d="M219.028,77.756s7.53.647,11.172,9.742c1.955,4.884,3.146,17.99,3.374,20.034s-.535,6.742-1.933,13.063c-.272,1.229-1.255,4.461-3.94,12.3-2.872,8.379-5.162,14.566-5.162,14.566l-24.068-9.312,11.969-21s-.632-6.468-.6-7.089c.23-4.808-.7-7.518.885-16.762a22.924,22.924,0,0,1,2.866-7.828c1.514-2.549,2.638-3.31,5.21-5.23Z" transform="translate(-101.33 -39.699)" fill="#263238"/>
            <path id="Trazado_267686" data-name="Trazado 267686" d="M232.273,184.825l.635-5.078-11.476-4.654-2.1,4.851Z" transform="translate(-111.983 -89.394)" fill="#263238"/>
            <path id="Trazado_267687" data-name="Trazado 267687" d="M232.1,184.648a2.482,2.482,0,0,0-.262-.114l-.733-.292-2.706-1.059-9.191-3.536.071.169,1.78-4.11.319-.739-.169.069,11.49,4.617-.056-.1c-.171,1.546-.31,2.8-.41,3.7-.044.423-.079.762-.106,1.021a3.7,3.7,0,0,0-.029.371,2.5,2.5,0,0,0,.058-.329c.037-.251.085-.58.146-.992.126-.91.3-2.18.521-3.747l.009-.069-.065-.026L221.3,174.794l-.118-.048-.051.118-.32.739-1.772,4.113-.053.123.125.046,9.328,3.453,2.7.981.715.254a1.575,1.575,0,0,0,.239.075" transform="translate(-111.807 -89.217)" fill="#455a64"/>
            <path id="Trazado_267688" data-name="Trazado 267688" d="M231.131,168.75a.545.545,0,0,1-.031.132l-.116.38-.47,1.453-1.776,5.327-5.951,17.543-.127.372-.043.126-.124-.048-17.021-6.626-5.134-2.03-1.39-.563-.359-.152a.557.557,0,0,1-.119-.06.5.5,0,0,1,.129.036l.368.129,1.407.519,5.163,1.954,17.048,6.555-.166.077.127-.372c2.349-6.833,4.475-13.019,6.021-17.518l1.853-5.3.516-1.437.14-.371a.537.537,0,0,1,.056-.124" transform="translate(-101.329 -86.156)" fill="#455a64"/>
            <path id="Trazado_267689" data-name="Trazado 267689" d="M192.914,212.788s2.846-9.269,5.264-9.9,5.624-.729,6.191.849a17.105,17.105,0,0,1,.929,6.209,36.657,36.657,0,0,1-.955,5.753l-2.472-.765s1.933-9.411,1.433-10.953-4.6-1.167-5.353.431-3.128,8.96-3.128,8.96Z" transform="translate(-98.493 -103.369)" fill="#455a64"/>
            <path id="Trazado_267690" data-name="Trazado 267690" d="M169.658,228.936c.867-3.883,2.891-12.419,3.784-16.173a1.957,1.957,0,0,1,2.285-1.467l23.192,4.591a1.958,1.958,0,0,1,1.552,2.235l-2.621,16.122a1.957,1.957,0,0,1-2.293,1.61l-24.35-4.567a1.958,1.958,0,0,1-1.55-2.351" transform="translate(-86.596 -107.859)" fill="#455a64"/>
            <path id="Trazado_267691" data-name="Trazado 267691" d="M201.427,227.711s-.007.057-.028.173-.056.3-.1.517c-.09.464-.222,1.137-.39,2l-1.465,7.4q-.059.294-.118.594a1.168,1.168,0,0,1-.254.589,1.071,1.071,0,0,1-.563.347,1.4,1.4,0,0,1-.665-.029l-2.654-.512-5.856-1.134-6.47-1.256-3.422-.666-1.75-.341-.441-.086a2.05,2.05,0,0,1-.455-.117,1.09,1.09,0,0,1-.636-1.15c.023-.14.053-.257.079-.387l.162-.758.322-1.5.629-2.943c.415-1.932.815-3.8,1.2-5.585l.018-.085.084.022c6.593,1.686,12.294,2.894,16.342,3.688,2.023.4,3.633.7,4.736.9l1.27.235.323.062a.766.766,0,0,1,.1.023s-.041,0-.116-.015l-.33-.05-1.261-.2c-1.106-.186-2.719-.467-4.746-.851-4.054-.766-9.763-1.953-16.363-3.628l.1-.063-1.19,5.586-.628,2.943q-.159.747-.321,1.5-.081.378-.162.758a1.5,1.5,0,0,0-.058.728.915.915,0,0,0,.514.61,1.876,1.876,0,0,0,.417.106l.441.086,1.75.342,3.422.668,6.468,1.267,5.853,1.149,2.652.523a1.268,1.268,0,0,0,.607.033.942.942,0,0,0,.494-.3,1.035,1.035,0,0,0,.228-.529l.12-.588c.643-3.1,1.164-5.609,1.525-7.352.183-.867.325-1.543.423-2.01.049-.226.087-.4.114-.526s.044-.183.044-.183" transform="translate(-89.934 -113.742)" fill="#263238"/>
            <path id="Trazado_267692" data-name="Trazado 267692" d="M198.411,240.359c0-.012.144.024.417.023a2.08,2.08,0,0,0,1.113-.364,2.151,2.151,0,0,0,.889-1.579c.142-.73.3-1.558.484-2.473q.136-.687.283-1.438a2.082,2.082,0,0,0-.141-1.5,1.955,1.955,0,0,0-1.239-1c-.561-.125-1.16-.234-1.763-.357L190.58,230.1a1.96,1.96,0,0,0-1.832.6,1.92,1.92,0,0,0-.454.865l-.2.993L187.7,234.5l-.19.94a8.037,8.037,0,0,0-.16.91,1.965,1.965,0,0,0,1.351,1.965c.257.078.544.12.809.179l2.992.613,4.329.9,1.176.254.3.07a.478.478,0,0,1,.1.03.467.467,0,0,1-.106-.012l-.308-.053-1.182-.221-4.341-.845-3-.592c-.271-.059-.539-.094-.826-.179a2.118,2.118,0,0,1-1.468-2.117,8.092,8.092,0,0,1,.16-.934l.187-.941q.19-.95.388-1.939.1-.495.2-1a2.1,2.1,0,0,1,.494-.944,2.136,2.136,0,0,1,2-.66l7.871,1.591c.606.126,1.191.235,1.771.367a2.1,2.1,0,0,1,1.329,1.08,2.221,2.221,0,0,1,.144,1.593q-.153.748-.3,1.435l-.51,2.468c-.037.181-.072.357-.122.527a2.123,2.123,0,0,1-.214.459,2.05,2.05,0,0,1-1.762.974,1.566,1.566,0,0,1-.417-.058" transform="translate(-95.566 -117.368)" fill="#263238"/>
            <g id="Grupo_873916" data-name="Grupo 873916" transform="translate(86.775 121.35)" opacity="0.3">
              <g id="Grupo_873915" data-name="Grupo 873915">
                <g id="Grupo_873914" data-name="Grupo 873914" clip-path="url(#clip-path-7)">
                  <path id="Trazado_267693" data-name="Trazado 267693" d="M177.293,247.933a37.778,37.778,0,0,0,21.25,4.127Z" transform="translate(-177.293 -247.933)"/>
                </g>
              </g>
            </g>
            <path id="Trazado_267694" data-name="Trazado 267694" d="M203.543,235.844l-2.736-.551a.792.792,0,1,1,.312-1.552l2.736.551a.792.792,0,1,1-.312,1.552" transform="translate(-102.199 -119.33)" fill="#e0e0e0"/>
            <path id="Trazado_267695" data-name="Trazado 267695" d="M215.284,199.083a8.241,8.241,0,0,1,.874,1.749,22.855,22.855,0,0,1,.061,3.313s-.575.29-1.039-1.251a12.6,12.6,0,0,1-.523-2.267Z" transform="translate(-109.594 -101.643)" fill="#ffc09d"/>
            <path id="Trazado_267696" data-name="Trazado 267696" d="M207.547,200.214l.11-4.852-1.868-3.585-5.933-.113-.212,5.876a17.984,17.984,0,0,0,1.286,3c.416.476,1.247.123,1.247.123.449.7,1.678.444,1.678.444.6.718,1.542.042,1.542.042s.823.755,1.2.706a.733.733,0,0,0,.4-.254,2.086,2.086,0,0,0,.548-1.386" transform="translate(-101.93 -97.855)" fill="#ffc09d"/>
            <path id="Trazado_267697" data-name="Trazado 267697" d="M203.868,207.47c.056-.019.2.24.31.579s.162.629.107.648-.2-.24-.31-.579-.163-.629-.107-.649" transform="translate(-104.074 -105.924)" fill="#ff9b6c"/>
            <path id="Trazado_267698" data-name="Trazado 267698" d="M207,207.327a11.116,11.116,0,0,1,.538,1.825,2.681,2.681,0,0,1-.538-1.825" transform="translate(-105.668 -105.851)" fill="#ff9b6c"/>
            <path id="Trazado_267699" data-name="Trazado 267699" d="M210.547,207.649c.061,0,.109.37.193.815s.171.808.114.83-.239-.322-.325-.79a1.341,1.341,0,0,1,.019-.855" transform="translate(-107.462 -106.016)" fill="#ff9b6c"/>
            <path id="Trazado_267700" data-name="Trazado 267700" d="M215.731,202.332a15.8,15.8,0,0,1-.049,3.683,15.8,15.8,0,0,1,.049-3.683" transform="translate(-110.074 -103.301)" fill="#ff9b6c"/>
            <path id="Trazado_267701" data-name="Trazado 267701" d="M202.609,205.248c.017.022-.021.092-.126.155a.674.674,0,0,1-.87-.183c-.07-.1-.078-.18-.053-.193.051-.03.215.181.5.237s.516-.065.551-.017" transform="translate(-102.901 -104.676)" fill="#ff9b6c"/>
            <path id="Trazado_267702" data-name="Trazado 267702" d="M206.129,205.825c.014.023-.036.091-.156.148a.85.85,0,0,1-.948-.192c-.088-.1-.108-.181-.086-.2.049-.035.248.17.573.23s.584-.041.616.011" transform="translate(-104.629 -104.96)" fill="#ff9b6c"/>
            <path id="Trazado_267703" data-name="Trazado 267703" d="M212.584,205.346c.021-.027.137.132,0,.339a1.03,1.03,0,0,1-.725.348,1.256,1.256,0,0,1-.773-.178c-.173-.112-.241-.224-.222-.242a2.485,2.485,0,0,0,.976.207,1.16,1.16,0,0,0,.628-.231c.118-.11.092-.232.118-.242" transform="translate(-107.655 -104.839)" fill="#ff9b6c"/>
            <path id="Trazado_267704" data-name="Trazado 267704" d="M223.561,99.85c-2.331,2.426-16.8,16.63-16.8,16.63s-.839,22.951-1.258,23.051-8.737-.584-8.737-.584-1.165-24.332-.2-27.107,13.345-19,13.613-19.339,1.686-2.822,6.422-4.037c5.545-1.423,7.872,1.234,8.8,3.963.8,2.348-.729,6-1.473,6.982a4.831,4.831,0,0,1-.376.442" transform="translate(-100.164 -44.963)" fill="#263238"/>
            <path id="Trazado_267705" data-name="Trazado 267705" d="M223.431,99.77s.069-.094.212-.27a4,4,0,0,0,.541-.84,12.237,12.237,0,0,0,1.178-3.655,5.684,5.684,0,0,0-.176-2.735,6.8,6.8,0,0,0-1.749-2.752,5.363,5.363,0,0,0-1.533-.973,6.506,6.506,0,0,0-1.886-.448,11.848,11.848,0,0,0-4.192.564,12,12,0,0,0-4.138,2.116,8.68,8.68,0,0,0-1.659,1.841L208.46,94.7c-2.121,2.824-4.374,5.853-6.685,9.081-1.154,1.615-2.33,3.276-3.47,5.011a24.927,24.927,0,0,0-1.6,2.689c-.051.118-.115.233-.156.354l-.077.379a4.614,4.614,0,0,0-.11.778l-.071.8-.037.805c-.155,4.312-.029,8.79.093,13.369.11,3.72.252,7.368.414,10.9l-.116-.119,4.468.35,2.191.154,1.084.065.537.023.266,0,.114,0c0,.008.077-.022-.008.02-.022.034,0-.013,0-.013a19.535,19.535,0,0,0,.23-2.093q.071-1.055.141-2.092.115-2.078.225-4.082c.267-5.345.469-10.28.642-14.677v-.039l.027-.027,12.3-12.119,3.371-3.3.884-.856c.2-.191.308-.285.308-.285s-.094.107-.288.3l-.864.875-3.334,3.338L206.7,116.469l.029-.066c-.159,4.4-.348,9.334-.606,14.681q-.107,2-.218,4.085-.069,1.04-.138,2.1a19.019,19.019,0,0,1-.237,2.145.308.308,0,0,1-.053.108.143.143,0,0,1-.091.052l-.039,0-.155.009-.274,0-.543-.023-1.087-.064-2.194-.152-4.47-.347-.11-.009,0-.111c-.164-3.537-.307-7.186-.417-10.907-.123-4.583-.247-9.059-.088-13.388l.038-.81.073-.807a4.845,4.845,0,0,1,.116-.807l.085-.4c.043-.129.11-.249.164-.373a24.92,24.92,0,0,1,1.619-2.724c1.145-1.739,2.325-3.4,3.482-5.015,2.319-3.227,4.578-6.252,6.707-9.072l1.578-2.073c.252-.329.5-.694.785-1a8.755,8.755,0,0,1,.91-.865,12.168,12.168,0,0,1,4.211-2.137,11.985,11.985,0,0,1,4.257-.553,6.673,6.673,0,0,1,1.932.468,5.526,5.526,0,0,1,1.571,1.009,6.915,6.915,0,0,1,1.767,2.817,5.759,5.759,0,0,1,.159,2.789,11.962,11.962,0,0,1-1.23,3.664,3.786,3.786,0,0,1-.566.834c-.151.17-.232.253-.232.253" transform="translate(-100.034 -44.883)" fill="#455a64"/>
            <path id="Trazado_267706" data-name="Trazado 267706" d="M254.138,107.678a1.322,1.322,0,0,1-.1-.274l-.24-.8-.846-2.968L250.2,93.662l-.015-.054.031-.047.852-1.323.222-.345.1.2-1.621-.151-.083-.008-.026-.081c-.3-.94-.638-1.847-1.007-2.694a12.12,12.12,0,0,0-1.258-2.317,5.807,5.807,0,0,0-1.833-1.446c-.647-.367-1.268-.673-1.837-.947-1.142-.536-2.079-.927-2.724-1.2l-.742-.308a1.362,1.362,0,0,1-.254-.119,1.2,1.2,0,0,1,.27.074c.174.057.43.146.759.267.657.243,1.6.61,2.761,1.128.576.264,1.206.562,1.865.926a5.963,5.963,0,0,1,1.914,1.485,12.157,12.157,0,0,1,1.3,2.355,28.351,28.351,0,0,1,1.025,2.716l-.109-.089,1.622.149.209.019-.114.177-.223.345L250.43,93.7l.016-.1c1.052,3.937,1.989,7.441,2.671,10l.771,2.989.2.811a1.331,1.331,0,0,1,.053.286" transform="translate(-122.534 -42.284)" fill="#455a64"/>
            <path id="Trazado_267707" data-name="Trazado 267707" d="M228.763,102.505c-2.838,1.675-5.142,1.663-9.88,1.261-3.284-.278-6.163-1.22-9.457-1.321-4.748-.145-8.3,1.3-12.631,3.263l-3.188,3.771,5.986,1.81a26.23,26.23,0,0,1,13.105-2.864c7.363.4,14.235-1.6,16.67-3.463l.835-2.324-.318-1.21-1.008-.093Z" transform="translate(-98.847 -51.737)" fill="#ff725e"/>
            <path id="Trazado_267708" data-name="Trazado 267708" d="M228.531,102.471s0-.106.015-.3.04-.5.07-.87l0-.03.031,0,1.009.083.028,0,.008.028.327,1.207,0,.015-.005.016-.821,2.329-.006.019-.016.012a10.8,10.8,0,0,1-2.32,1.279,23.434,23.434,0,0,1-2.9,1,35.81,35.81,0,0,1-7.135,1.2,36.616,36.616,0,0,1-4.11.049,27.036,27.036,0,0,0-4.351.135,26.327,26.327,0,0,0-4.5.934,24.322,24.322,0,0,0-4.445,1.782l-.049.026-.05-.015-3.505-1.06-2.481-.75-.186-.056.125-.148,3.19-3.77.018-.022.026-.012a45.564,45.564,0,0,1,6.341-2.466,20.471,20.471,0,0,1,6.21-.794,34.438,34.438,0,0,1,5.559.734,39.616,39.616,0,0,0,4.771.676,36.058,36.058,0,0,0,3.939.168,11.073,11.073,0,0,0,2.908-.428,10.873,10.873,0,0,0,1.718-.687l.422-.22a1.2,1.2,0,0,1,.152-.072.881.881,0,0,1-.134.087c-.092.055-.232.142-.419.246a9.963,9.963,0,0,1-1.714.731,10.934,10.934,0,0,1-2.929.471,35.009,35.009,0,0,1-3.956-.133,39.119,39.119,0,0,1-4.793-.648,34.641,34.641,0,0,0-5.529-.706,20.33,20.33,0,0,0-6.14.8,45.7,45.7,0,0,0-6.3,2.465l.044-.033-3.186,3.772-.06-.2,2.482.75,3.5,1.06-.1.011a24.416,24.416,0,0,1,4.5-1.8,26.419,26.419,0,0,1,4.539-.936,27.113,27.113,0,0,1,4.389-.125,36.607,36.607,0,0,0,4.085-.035,36.007,36.007,0,0,0,7.1-1.159,23.638,23.638,0,0,0,2.883-.975,10.76,10.76,0,0,0,2.3-1.24l-.022.03.85-2.319v.03l-.308-1.213.036.03-1.007-.1.033-.027c-.044.376-.078.668-.1.878s-.043.29-.043.29" transform="translate(-98.615 -51.703)" fill="#263238"/>
            <path id="Trazado_267709" data-name="Trazado 267709" d="M232.539,162.55c-.024.066-2.186-.648-4.828-1.594s-4.767-1.768-4.743-1.834a50.7,50.7,0,0,1,4.829,1.594c2.643.947,4.766,1.768,4.742,1.834" transform="translate(-113.837 -81.238)" fill="#455a64"/>
          </g>
        </g>
      </g>
    </g>
  </g>
</svg>
