<svg xmlns="http://www.w3.org/2000/svg" width="81.943" height="82" viewBox="0 0 81.943 82">
  <g id="Grupo_877039" data-name="Grupo 877039" transform="translate(-796.199 -2799)">
    <path id="Trazado_266854" data-name="Trazado 266854" d="M20.7.034h1.6c2.788.534,4.171,2.2,4.236,5.086.023,1.027.057,1.068,1.1,1.069q11.613,0,23.226,0c1.042,0,1.078-.042,1.1-1.069a6.66,6.66,0,0,1,.073-1.034A4.617,4.617,0,0,1,56.2.034h1.6c2.8.541,4.18,2.2,4.24,5.089.022,1.029.045,1.059,1.1,1.061,3.276,0,6.552,0,9.829,0A5.168,5.168,0,0,1,78.5,11.731q.006,21.774-.014,43.547a4.052,4.052,0,0,0,.856,2.561,11.9,11.9,0,0,1,2.674,7.046.459.459,0,0,0,.079.22v3.678a13.332,13.332,0,0,1-3.086,7.561,14.059,14.059,0,0,1-8.788,5.417c-5.827.932-10.955-.468-14.886-5.136a2.347,2.347,0,0,0-2-.889c-4.237.028-8.474.014-12.71.012a4.751,4.751,0,0,1-1.35-.107,1.792,1.792,0,0,1,0-3.484,4.484,4.484,0,0,1,1.27-.107q5.476,0,10.952,0c1.125,0,1.137-.019.858-1.13q-.232-.931-.387-1.878c-.143-.874-.231-.944-1.144-.964-.267-.006-.533,0-.8,0H10.611c-2.451,0-2.952-.5-2.952-2.947q0-17.785,0-35.571c0-2.384.528-2.912,2.91-2.913h57.4c.133,0,.266,0,.4,0,1.794.02,2.466.675,2.468,2.47q.015,10.711,0,21.423c0,.32-.007.639.019.959a.638.638,0,0,0,.4.637A22.212,22.212,0,0,1,74.667,53.6a1.365,1.365,0,0,0,.144-.875q0-14.309,0-28.617c0-.186-.014-.374,0-.56.048-.661-.278-.918-.91-.881-.292.017-.586,0-.879,0q-28.619,0-57.237,0a7.11,7.11,0,0,1-1.435-.065,1.806,1.806,0,0,1,.011-3.571A7.342,7.342,0,0,1,15.8,18.97l57.4,0c1.724,0,1.615.084,1.617-1.6,0-1.839.011-3.678,0-5.516-.011-1.443-.536-1.965-2-1.97-3.224-.012-6.449-.007-9.673,0-1.037,0-1.08.045-1.1,1.081a5.051,5.051,0,0,1-1.991,4.252,4.85,4.85,0,0,1-5.209.544,4.782,4.782,0,0,1-2.864-4.3c-.107-1.62.162-1.584-1.747-1.584q-10.992,0-21.983,0c-.24,0-.48,0-.719,0-.882.023-.958.091-.979.961a6.836,6.836,0,0,1-.157,1.506,5.021,5.021,0,0,1-9.911-.848c-.089-1.694.129-1.622-1.791-1.622-2.985,0-5.969,0-8.953,0-1.551,0-2.053.509-2.053,2.073q0,28.976,0,57.953c0,1.659.484,2.14,2.149,2.142q10.032.006,20.065,0a6.3,6.3,0,0,1,1.275.06,1.812,1.812,0,0,1-.029,3.586,4.2,4.2,0,0,1-.8.051q-10.552,0-21.1,0a5.162,5.162,0,0,1-4.4-2.329,4.33,4.33,0,0,1-.682-2.656q-.007-6.036,0-12.07V11.449C.157,8.2,2.163,6.192,5.44,6.181s6.555,0,9.833,0c1.141,0,1.154-.019,1.18-1.157a6.041,6.041,0,0,1,.091-1.033C16.99,1.725,18.234.541,20.7.034" transform="translate(796.043 2798.966)"/>
    <path id="Trazado_266858" data-name="Trazado 266858" d="M101.271,89.17a11.831,11.831,0,1,1-11.846,11.814A11.847,11.847,0,0,1,101.271,89.17" transform="translate(761.856 2764.83)" fill="#fefefe"/>
    <path id="Trazado_266859" data-name="Trazado 266859" d="M45.879,53.519c0,1.357-.015,2.714.009,4.071.007.429-.085.6-.559.593q-3.791-.034-7.583,0c-.427,0-.6-.077-.6-.558.023-2.767.02-5.534,0-8.3,0-.433.093-.6.565-.593,2.527.023,5.055.028,7.583,0,.533-.007.6.19.592.644-.027,1.383-.01,2.767-.01,4.15" transform="translate(781.877 2780.319)" fill="#fefefe"/>
    <path id="Trazado_266860" data-name="Trazado 266860" d="M75.715,53.393c0-1.33.02-2.661-.01-3.99-.011-.493.085-.686.638-.678,2.474.032,4.949.026,7.424,0,.489,0,.691.076.684.638-.032,2.74-.023,5.481-.006,8.221,0,.43-.088.6-.563.595-2.527-.023-5.055-.028-7.583,0-.53.006-.6-.184-.594-.642.027-1.383.01-2.767.01-4.15" transform="translate(767.111 2780.319)" fill="#fefefe"/>
    <path id="Trazado_266861" data-name="Trazado 266861" d="M45.877,94.2c0,1.33-.02,2.661.01,3.99.012.494-.086.685-.639.678-2.474-.032-4.949-.026-7.424,0-.49,0-.69-.078-.684-.639.032-2.74.023-5.481.006-8.221,0-.431.089-.6.563-.594,2.527.023,5.055.028,7.583,0,.531-.006.6.186.593.643-.027,1.383-.01,2.767-.01,4.15" transform="translate(781.879 2764.739)" fill="#fefefe"/>
    <path id="Trazado_266862" data-name="Trazado 266862" d="M45.88,73.847c0,1.357-.018,2.714.01,4.071.009.452-.123.581-.575.577q-3.792-.031-7.583,0c-.449,0-.586-.117-.583-.575q.031-4.071,0-8.141c0-.456.13-.581.582-.577q3.791.031,7.583,0c.45,0,.586.121.577.575-.029,1.356-.01,2.714-.01,4.071" transform="translate(781.876 2772.478)" fill="#fefefe"/>
    <path id="Trazado_266863" data-name="Trazado 266863" d="M75.715,73.827c0-1.33.018-2.661-.01-3.99-.01-.459.065-.648.594-.642,2.527.031,5.055.026,7.583,0,.475,0,.565.166.562.6-.017,2.714-.02,5.427,0,8.141,0,.486-.18.558-.6.556-2.527-.017-5.055-.021-7.583,0-.478,0-.563-.17-.556-.6.023-1.357.009-2.714.009-4.071" transform="translate(767.111 2772.479)" fill="#fefefe"/>
    <path id="Trazado_266864" data-name="Trazado 266864" d="M26.585,53.539c0,1.356-.019,2.713.01,4.069.01.45-.111.581-.568.577q-3.789-.033-7.58,0c-.466,0-.562-.146-.56-.581q.029-4.148,0-8.3c0-.441.1-.581.563-.577q3.79.034,7.58,0c.463,0,.574.136.565.581-.028,1.409-.01,2.819-.01,4.229" transform="translate(789.252 2780.317)" fill="#fefefe"/>
    <path id="Trazado_266865" data-name="Trazado 266865" d="M65.151,53.457c0,1.385-.019,2.77.01,4.154.01.453-.12.576-.571.573q-3.8-.032-7.591,0c-.419,0-.534-.114-.531-.531q.027-4.2,0-8.39c0-.416.11-.535.53-.532q3.8.03,7.591,0c.45,0,.582.118.573.572-.029,1.384-.01,2.769-.01,4.154" transform="translate(774.478 2780.316)" fill="#fefefe"/>
    <path id="Trazado_266866" data-name="Trazado 266866" d="M95.032,53.437c0-1.356.015-2.713-.009-4.069-.008-.443.042-.652.582-.644,2.526.033,5.054.022,7.58.007.392,0,.549.069.545.513q-.032,4.229,0,8.457c0,.4-.13.48-.5.478-2.553-.014-5.107-.021-7.659,0-.488,0-.554-.178-.547-.6.023-1.383.009-2.766.009-4.149" transform="translate(759.712 2780.319)" fill="#fefefe"/>
    <path id="Trazado_266867" data-name="Trazado 266867" d="M26.584,94.151c0,1.383-.02,2.766.011,4.148.01.465-.14.568-.58.565-2.526-.019-5.053-.023-7.58,0-.484,0-.55-.172-.547-.593q.025-4.148,0-8.3c0-.458.132-.569.576-.565q3.789.031,7.58,0c.48,0,.56.164.552.592-.025,1.382-.009,2.766-.009,4.148" transform="translate(789.253 2764.738)" fill="#fefefe"/>
    <path id="Trazado_266868" data-name="Trazado 266868" d="M56.476,94.1c0-1.385.017-2.77-.01-4.155-.008-.42.109-.536.531-.533q3.835.03,7.671,0c.383,0,.493.1.491.489q-.023,4.234,0,8.469c0,.383-.1.494-.489.491q-3.835-.024-7.671,0c-.418,0-.539-.112-.531-.531.025-1.411.009-2.823.009-4.235" transform="translate(774.479 2764.736)" fill="#fefefe"/>
    <path id="Trazado_266869" data-name="Trazado 266869" d="M17.9,73.783c0-1.3.017-2.606-.009-3.909-.009-.473.048-.691.622-.682,2.5.037,5,.025,7.5.007.43,0,.59.086.586.558q-.034,4.109,0,8.218c0,.441-.155.516-.547.515-2.527-.015-5.054-.027-7.58.007-.545.007-.587-.2-.579-.644.023-1.356.009-2.712.009-4.069" transform="translate(789.252 2772.48)" fill="#fefefe"/>
    <path id="Trazado_266870" data-name="Trazado 266870" d="M65.149,73.9c0,1.332-.015,2.664.009,3.995.007.418-.049.606-.544.6q-3.8-.041-7.591,0c-.473,0-.56-.154-.557-.587q.028-4.074,0-8.15c0-.473.156-.56.586-.557,2.5.019,5.008.026,7.511,0,.518-.007.61.16.6.629-.031,1.358-.011,2.717-.011,4.075" transform="translate(774.479 2772.479)" fill="#fefefe"/>
    <path id="Trazado_266871" data-name="Trazado 266871" d="M103.718,73.765c0,1.33-.018,2.661.01,3.99.009.44-.11.553-.56.589-2.5.2-5,.107-7.494.151-.517.009-.663-.126-.657-.652.028-2.687.023-5.373,0-8.06,0-.439.091-.589.56-.585q3.79.036,7.582,0c.458,0,.575.131.566.576-.029,1.329-.01,2.659-.01,3.99" transform="translate(759.714 2772.479)" fill="#fefefe"/>
    <path id="Trazado_266872" data-name="Trazado 266872" d="M75.715,94.14c0-1.385.019-2.769-.01-4.153-.009-.457.13-.578.578-.574q3.794.031,7.588,0c.46,0,.562.141.58.583a3.57,3.57,0,0,1-.727,2.5,12.957,12.957,0,0,0-2.452,5.731c-.079.454-.228.66-.754.643-1.409-.046-2.822-.033-4.233-.006-.447.009-.59-.114-.58-.573.029-1.383.01-2.768.01-4.153" transform="translate(767.111 2764.737)" fill="#fefefe"/>
    <path id="Trazado_266873" data-name="Trazado 266873" d="M32.154,10.015c0-1.01-.01-2.021,0-3.031a1.6,1.6,0,1,1,3.192,0q.018,3.031,0,6.062a1.6,1.6,0,1,1-3.192,0c-.012-1.01,0-2.021,0-3.031" transform="translate(783.791 2796.979)" fill="#fefefe"/>
    <path id="Trazado_266874" data-name="Trazado 266874" d="M92.877,10.047c0,1.01.012,2.021,0,3.031a1.6,1.6,0,1,1-3.189.016q-.022-3.071,0-6.142a1.6,1.6,0,1,1,3.189-.015c.017,1.037,0,2.073,0,3.11" transform="translate(761.761 2796.979)" fill="#fefefe"/>
    <path id="Trazado_266875" data-name="Trazado 266875" d="M12.273,31.134a1.595,1.595,0,1,1-1.618,1.531,1.612,1.612,0,0,1,1.618-1.531" transform="translate(792.023 2787.056)" fill="#010101"/>
    <path id="Trazado_266876" data-name="Trazado 266876" d="M51.309,118.73a1.58,1.58,0,0,1,1.566-1.57,1.595,1.595,0,1,1,.03,3.189,1.58,1.58,0,0,1-1.6-1.62" transform="translate(776.454 2754.11)" fill="#010101"/>
    <path id="Trazado_266877" data-name="Trazado 266877" d="M105.057,110.586a1.718,1.718,0,0,1-1.216-.524c-1.075-1.07-2.159-2.131-3.215-3.22a1.552,1.552,0,0,1-.041-2.336,1.571,1.571,0,0,1,2.284.074c.6.563,1.193,1.14,1.747,1.751.319.352.5.3.811-.015,1.433-1.463,2.9-2.9,4.337-4.354a1.684,1.684,0,0,1,1.866-.549,1.583,1.583,0,0,1,.479,2.723c-1.525,1.56-3.08,3.091-4.622,4.635q-.649.649-1.3,1.3a1.783,1.783,0,0,1-1.131.521" transform="translate(757.777 2760.18)"/>
  </g>
</svg>
