<svg xmlns="http://www.w3.org/2000/svg" xmlns:xlink="http://www.w3.org/1999/xlink" width="217.061" height="243.6" viewBox="0 0 217.061 243.6">
  <defs>
    <clipPath id="clip-path">
      <rect id="Rectángulo_291369" data-name="Rectángulo 291369" width="217.061" height="222.333" fill="#a9d4c6"/>
    </clipPath>
    <clipPath id="clip-path-2">
      <rect id="Rectángulo_293070" data-name="Rectángulo 293070" width="168.002" height="243.6" fill="none"/>
    </clipPath>
    <clipPath id="clip-path-4">
      <rect id="Rectángulo_292978" data-name="Rectángulo 292978" width="47.938" height="107.581" fill="#033f71"/>
    </clipPath>
    <clipPath id="clip-path-5">
      <rect id="Rectángulo_292979" data-name="Rectángulo 292979" width="37.095" height="98.804" fill="#033f71"/>
    </clipPath>
    <clipPath id="clip-path-6">
      <rect id="Rectángulo_292980" data-name="Rectángulo 292980" width="10.034" height="8.499" fill="none"/>
    </clipPath>
    <clipPath id="clip-path-7">
      <rect id="Rectángulo_292981" data-name="Rectángulo 292981" width="10.113" height="5.559" fill="none"/>
    </clipPath>
    <clipPath id="clip-path-8">
      <rect id="Rectángulo_292982" data-name="Rectángulo 292982" width="14.535" height="9.058" fill="none"/>
    </clipPath>
    <clipPath id="clip-path-9">
      <rect id="Rectángulo_292983" data-name="Rectángulo 292983" width="12.785" height="9.509" fill="none"/>
    </clipPath>
    <clipPath id="clip-path-10">
      <rect id="Rectángulo_292984" data-name="Rectángulo 292984" width="26.6" height="33.231" fill="#ffc631"/>
    </clipPath>
    <clipPath id="clip-path-11">
      <rect id="Rectángulo_292985" data-name="Rectángulo 292985" width="19.035" height="18.915" fill="#ffc631"/>
    </clipPath>
    <clipPath id="clip-path-12">
      <rect id="Rectángulo_292986" data-name="Rectángulo 292986" width="9.188" height="8.004" fill="none"/>
    </clipPath>
    <clipPath id="clip-path-13">
      <rect id="Rectángulo_292987" data-name="Rectángulo 292987" width="27.521" height="39.996" fill="#ffc631"/>
    </clipPath>
    <clipPath id="clip-path-14">
      <rect id="Rectángulo_292988" data-name="Rectángulo 292988" width="15.322" height="17.456" fill="none"/>
    </clipPath>
    <clipPath id="clip-path-15">
      <rect id="Rectángulo_292989" data-name="Rectángulo 292989" width="6.407" height="6.407" fill="none"/>
    </clipPath>
    <clipPath id="clip-path-16">
      <rect id="Rectángulo_292990" data-name="Rectángulo 292990" width="18.291" height="19.474" fill="none"/>
    </clipPath>
    <clipPath id="clip-path-17">
      <rect id="Rectángulo_292991" data-name="Rectángulo 292991" width="19.295" height="20.579" fill="none"/>
    </clipPath>
    <clipPath id="clip-path-18">
      <rect id="Rectángulo_292992" data-name="Rectángulo 292992" width="17.602" height="18.27" fill="none"/>
    </clipPath>
    <clipPath id="clip-path-19">
      <rect id="Rectángulo_292993" data-name="Rectángulo 292993" width="10.46" height="10.751" fill="none"/>
    </clipPath>
    <clipPath id="clip-path-20">
      <rect id="Rectángulo_292994" data-name="Rectángulo 292994" width="20.508" height="29.804" fill="#c49927"/>
    </clipPath>
    <clipPath id="clip-path-21">
      <rect id="Rectángulo_292995" data-name="Rectángulo 292995" width="19.595" height="28.479" fill="#dbab2d"/>
    </clipPath>
    <clipPath id="clip-path-22">
      <rect id="Rectángulo_292996" data-name="Rectángulo 292996" width="17.969" height="27.532" fill="#ffc631"/>
    </clipPath>
    <clipPath id="clip-path-23">
      <rect id="Rectángulo_292997" data-name="Rectángulo 292997" width="2.745" height="1.668" fill="#c49927"/>
    </clipPath>
    <clipPath id="clip-path-24">
      <rect id="Rectángulo_292998" data-name="Rectángulo 292998" width="7.054" height="5.279" fill="#c49927"/>
    </clipPath>
    <clipPath id="clip-path-25">
      <rect id="Rectángulo_292999" data-name="Rectángulo 292999" width="2.325" height="2.311" fill="none"/>
    </clipPath>
    <clipPath id="clip-path-26">
      <rect id="Rectángulo_293000" data-name="Rectángulo 293000" width="9.535" height="11.722" fill="#c49927"/>
    </clipPath>
    <clipPath id="clip-path-27">
      <rect id="Rectángulo_293001" data-name="Rectángulo 293001" width="4.038" height="5.076" fill="none"/>
    </clipPath>
    <clipPath id="clip-path-28">
      <rect id="Rectángulo_293002" data-name="Rectángulo 293002" width="9.562" height="14.153" fill="#c49927"/>
    </clipPath>
    <clipPath id="clip-path-29">
      <rect id="Rectángulo_293003" data-name="Rectángulo 293003" width="5.59" height="2.13" fill="#c49927"/>
    </clipPath>
    <clipPath id="clip-path-30">
      <rect id="Rectángulo_293004" data-name="Rectángulo 293004" width="2.33" height="2.318" fill="#c49927"/>
    </clipPath>
    <clipPath id="clip-path-31">
      <rect id="Rectángulo_293005" data-name="Rectángulo 293005" width="11.171" height="22.397" fill="#ffc631"/>
    </clipPath>
    <clipPath id="clip-path-32">
      <rect id="Rectángulo_293006" data-name="Rectángulo 293006" width="2.324" height="3.614" fill="#c49927"/>
    </clipPath>
    <clipPath id="clip-path-33">
      <rect id="Rectángulo_293007" data-name="Rectángulo 293007" width="1.33" height="1.249" fill="none"/>
    </clipPath>
    <clipPath id="clip-path-34">
      <rect id="Rectángulo_293008" data-name="Rectángulo 293008" width="6.449" height="7.953" fill="none"/>
    </clipPath>
    <clipPath id="clip-path-35">
      <rect id="Rectángulo_293009" data-name="Rectángulo 293009" width="6.438" height="6.849" fill="none"/>
    </clipPath>
    <clipPath id="clip-path-36">
      <rect id="Rectángulo_293010" data-name="Rectángulo 293010" width="7.638" height="8.123" fill="none"/>
    </clipPath>
    <clipPath id="clip-path-38">
      <rect id="Rectángulo_293012" data-name="Rectángulo 293012" width="31.903" height="5.594" fill="none"/>
    </clipPath>
    <clipPath id="clip-path-39">
      <rect id="Rectángulo_293013" data-name="Rectángulo 293013" width="3.791" height="3.79" fill="none"/>
    </clipPath>
    <clipPath id="clip-path-40">
      <rect id="Rectángulo_293014" data-name="Rectángulo 293014" width="3.79" height="3.79" fill="none"/>
    </clipPath>
    <clipPath id="clip-path-42">
      <rect id="Rectángulo_293032" data-name="Rectángulo 293032" width="37.137" height="28.524" fill="none"/>
    </clipPath>
    <clipPath id="clip-path-43">
      <rect id="Rectángulo_293033" data-name="Rectángulo 293033" width="3.791" height="3.792" fill="none"/>
    </clipPath>
    <clipPath id="clip-path-44">
      <rect id="Rectángulo_293034" data-name="Rectángulo 293034" width="3.791" height="3.791" fill="none"/>
    </clipPath>
    <clipPath id="clip-path-47">
      <rect id="Rectángulo_293053" data-name="Rectángulo 293053" width="16.051" height="2.288" fill="none"/>
    </clipPath>
    <clipPath id="clip-path-48">
      <rect id="Rectángulo_293054" data-name="Rectángulo 293054" width="18.475" height="18.492" fill="none"/>
    </clipPath>
    <clipPath id="clip-path-49">
      <rect id="Rectángulo_293055" data-name="Rectángulo 293055" width="23.13" height="2.386" fill="none"/>
    </clipPath>
    <clipPath id="clip-path-50">
      <rect id="Rectángulo_293056" data-name="Rectángulo 293056" width="10.303" height="9.934" fill="none"/>
    </clipPath>
    <clipPath id="clip-path-51">
      <rect id="Rectángulo_293059" data-name="Rectángulo 293059" width="6.741" height="8.618" fill="none"/>
    </clipPath>
    <clipPath id="clip-path-53">
      <rect id="Rectángulo_293065" data-name="Rectángulo 293065" width="10.348" height="7.468" fill="none"/>
    </clipPath>
    <clipPath id="clip-path-54">
      <rect id="Rectángulo_293068" data-name="Rectángulo 293068" width="1.67" height="7.981" fill="none"/>
    </clipPath>
  </defs>
  <g id="Grupo_875778" data-name="Grupo 875778" transform="translate(-945.969 -2394.231)">
    <g id="Grupo_875777" data-name="Grupo 875777">
      <g id="Grupo_870715" data-name="Grupo 870715" transform="translate(945.969 2399.362)">
        <g id="Grupo_870714" data-name="Grupo 870714" clip-path="url(#clip-path)">
          <path id="Trazado_215321" data-name="Trazado 215321" d="M16.525,108.171C43.655,86.019-3.326,50.27,7.076,14.912s44.729.993,63.2,18.413,40.116-13.746,54.465-14.583,6.274,12.785,12.746,30.429,54.177,2.991,73.3,20.033-11.344,53.309-13.909,74.935,30.376,46.1,9.271,78.194L101.3,221.7c-10.55-3.321-17.432-5.953-17.432-5.953C-14.283,172.331-10.6,130.323,16.525,108.171" transform="translate(0 0)" fill="#a9d4c6"/>
        </g>
      </g>
      <path id="Trazado_265650" data-name="Trazado 265650" d="M219.189,582.957c0,3.333-43.005,6.035-96.055,6.035s-96.054-2.7-96.054-6.035,43.03-3.722,96.079-3.722,96.03.389,96.03,3.722" transform="translate(941.057 2041.84)" fill="#c8dfd8" opacity="0.915"/>
    </g>
    <g id="Grupo_875776" data-name="Grupo 875776" transform="translate(995.028 2394.231)">
      <g id="Grupo_875775" data-name="Grupo 875775" clip-path="url(#clip-path-2)">
        <g id="Grupo_875722" data-name="Grupo 875722">
          <g id="Grupo_875721" data-name="Grupo 875721" clip-path="url(#clip-path-2)">
            <path id="Trazado_268720" data-name="Trazado 268720" d="M12.346,293.356c.625-8.594-.341-15.181.375-28.6.064-3.439.188-7.124.418-10.4.776-11.013,2.474-14.78,2.632-16.9,0,0,.291-17.137,1.011-41.236.338-11.337,3.623-14.771,6.249-20.788H54.918c3.486,14.849,3.791,47.23,3.687,62.534-.052,7.8-3.2,49.539-3.265,50.5-.223,3.406.074,4.75,1.409,6.182,2.8,3,6.848,5.855,10.352,8.47-.507,1.34-4.721,1.291-6.806.271a53.185,53.185,0,0,1-7.776-4.957c-2.878-2.131-6.557-3.84-6.6-7.083a3.38,3.38,0,0,0-.1-.579c-.055-1.893-4.468-29.812-4.835-36.291-.316-5.57.362-15.024.362-15.024l-3.594-23.6s-2.215,13.946-4.457,23.47c-1.825,7.752-4.834,20.979-6.887,30.52-1.972,10.99-4.87,18.813-5.37,24.315-.151,1.313-1.638,14.206-2.253,17.159s-7.051,3.031-7.463-2.048c-.275-3.381.909-14.3,1.026-15.913" transform="translate(-5.052 -78.583)" fill="#b16668"/>
            <path id="Trazado_268721" data-name="Trazado 268721" d="M99.872,407.213a2.778,2.778,0,0,1-.491,2.8,11.933,11.933,0,0,1-8.705,2.078c-4.338-.514-6.7-1.829-8.447-3.261s-4.2-3.453-6.165-3.864a11.844,11.844,0,0,1-4.4-1.742c-.588-.556-.534-3.058-.534-3.058Z" transform="translate(-31.863 -179.256)" fill="#263238"/>
            <path id="Trazado_268722" data-name="Trazado 268722" d="M72.527,382.7s-.327.014-.432.594c-.126.691-.249,2.7-.523,3.831a20.235,20.235,0,0,0-.36,6.082c.252,1.279,3.229,2.138,5.133,2.84a24.115,24.115,0,0,1,6.185,3.814,17.873,17.873,0,0,0,9.177,3.306c4.311.017,7.09-1.182,7.935-2.74,1.046-1.928.2-3.029-4.78-5.272-.942-.424-4.257-2.338-5.387-3.032a25.46,25.46,0,0,1-3.4-2.473,19.425,19.425,0,0,1-1.528-1.48,6.8,6.8,0,0,1-1.271-1.588c-.058-.13-.1-.283-.15-.418A7.147,7.147,0,0,1,82.793,385c-.084-.411-.141-1.01-.535-1.253a3.312,3.312,0,0,0-1.773-.19,13.383,13.383,0,0,0-1.907.291c-.727.171-1.57.245-1.995.935a3.635,3.635,0,0,0-.389,1.8c-.009.289,0,.58,0,.869,0,.124.055.346-.118.3s-.354-.477-.418-.623c-.141-.322-.232-.668-.386-.985a5.226,5.226,0,0,0-.627-1.042,4.839,4.839,0,0,0-.793-.791,8.409,8.409,0,0,1-.854-.54,2,2,0,0,1-.471-1.07" transform="translate(-31.852 -171.428)" fill="#37474f"/>
            <path id="Trazado_268723" data-name="Trazado 268723" d="M108.777,405.924c-6.235.5-8.159,4.372-8.4,6.759a14.72,14.72,0,0,0,4.441.884c4.31.017,7.267-1.182,8.112-2.741.987-1.818.288-3.27-4.154-4.9" transform="translate(-44.964 -181.833)" fill="#fafafa"/>
            <path id="Trazado_268724" data-name="Trazado 268724" d="M98.4,403.946a.3.3,0,0,1-.194-.067.305.305,0,0,1-.047-.428,7.337,7.337,0,0,1,5.618-2.285.3.3,0,1,1-.059.606,6.8,6.8,0,0,0-5.084,2.06.3.3,0,0,1-.235.114" transform="translate(-43.94 -179.692)" fill="#f0f0f0"/>
            <path id="Trazado_268725" data-name="Trazado 268725" d="M93.5,401.162a.3.3,0,0,1-.194-.067.3.3,0,0,1-.047-.428,7.322,7.322,0,0,1,5.618-2.285.3.3,0,0,1-.059.607,6.786,6.786,0,0,0-5.084,2.059.3.3,0,0,1-.235.114" transform="translate(-41.745 -178.444)" fill="#f0f0f0"/>
            <path id="Trazado_268726" data-name="Trazado 268726" d="M88.955,397.971a.3.3,0,0,1-.241-.5,7.342,7.342,0,0,1,5.618-2.285.3.3,0,1,1-.059.606,6.8,6.8,0,0,0-5.083,2.06.3.3,0,0,1-.235.114" transform="translate(-39.709 -177.015)" fill="#f0f0f0"/>
            <path id="Trazado_268727" data-name="Trazado 268727" d="M84.5,394.746a.3.3,0,0,1-.244-.491,7.478,7.478,0,0,1,6.137-2.322.3.3,0,1,1-.059.607,6.935,6.935,0,0,0-5.6,2.088.3.3,0,0,1-.237.118" transform="translate(-37.715 -175.552)" fill="#f0f0f0"/>
            <path id="Trazado_268728" data-name="Trazado 268728" d="M18.417,423.3a13.65,13.65,0,0,1-1.674,6.621,4.336,4.336,0,0,1-5.009,1.763c-2-.506-4.551-1.857-5.123-4.4a16.074,16.074,0,0,1-.452-7.009Z" transform="translate(-2.665 -188.262)" fill="#263238"/>
            <path id="Trazado_268729" data-name="Trazado 268729" d="M10.14,387.142c-.822.065-1.064,4.016-1.539,7.973-.508,4.241-1.774,6-2.228,9.473-.519,3.973.139,5.748,1.531,8.15s6.32,4.759,8.749,1.318c1.98-2.8,2.061-5.915,1.881-9.882a88.365,88.365,0,0,1,.264-10.053c.161-2.975.819-5.974.1-6.306-.055.437-.109.992-.167,1.42a7.085,7.085,0,0,1-.266,1.586c-.084.221-.267.453-.342.093a2.361,2.361,0,0,1,0-.74c.12-1.1-.432-1.185-.73-1.27a36.138,36.138,0,0,0-3.814-.54c-.628-.043-2.8-.137-3.077.22a2.452,2.452,0,0,0-.277,1.149c-.07.6-.208,1.036-.225.848-.04-.428.044-1.541.054-1.81s.052-.609.056-.868.006-.509.023-.763" transform="translate(-2.776 -173.42)" fill="#37474f"/>
            <path id="Trazado_268730" data-name="Trazado 268730" d="M6.087,421.944a9.908,9.908,0,0,0,1.537,6.037c1.392,2.4,6.717,4.766,9.145,1.326a11.282,11.282,0,0,0,1.7-5.8c-1.456-2.652-10.085-3.82-12.381-1.563" transform="translate(-2.717 -188.473)" fill="#fafafa"/>
            <path id="Trazado_268731" data-name="Trazado 268731" d="M18.78,416.6a.321.321,0,0,1-.1-.028,13.983,13.983,0,0,0-7.54-.731.305.305,0,0,1-.137-.6,14.34,14.34,0,0,1,7.94.776.3.3,0,0,1-.162.579" transform="translate(-4.822 -185.885)" fill="#f0f0f0"/>
            <path id="Trazado_268732" data-name="Trazado 268732" d="M11.553,410.353a.3.3,0,0,1-.068-.592c3.685-1.249,7.776.625,7.93.706a.3.3,0,0,1,.128.411.309.309,0,0,1-.411.128c-.034-.017-4.021-1.834-7.45-.667a.312.312,0,0,1-.129.014" transform="translate(-5.052 -183.36)" fill="#f0f0f0"/>
            <path id="Trazado_268733" data-name="Trazado 268733" d="M11.789,405.223a.3.3,0,0,1-.073-.59,10.78,10.78,0,0,1,8.08.683.3.3,0,1,1-.316.521,10.378,10.378,0,0,0-7.558-.63.3.3,0,0,1-.134.017" transform="translate(-5.158 -181.022)" fill="#f0f0f0"/>
            <path id="Trazado_268734" data-name="Trazado 268734" d="M12.153,400.265a.3.3,0,0,1-.077-.588c3.8-1.423,7.978.677,8.134.768a.3.3,0,1,1-.3.527c-.036-.02-4.089-2.046-7.617-.725a.312.312,0,0,1-.137.018" transform="translate(-5.321 -178.814)" fill="#ebebeb"/>
            <path id="Trazado_268735" data-name="Trazado 268735" d="M22.6,175.428c-3.7,6.741-6.439,12.35-6.813,32.393s-.314,25.658-.392,28.075-1.485,6.737-2.72,18.642.226,26.09.226,26.09.852,1.916,5.4,2.324c4.2.376,6.279-1.2,6.279-1.2s5.758-23.183,7.352-30.354,6.221-30.748,6.221-30.748L40.9,239.772s-1.281,6.57,0,17.01,3.538,21.134,3.538,21.134a18.946,18.946,0,0,0,6.449,1.054,10.9,10.9,0,0,0,5.661-1.478s3.567-31.063,3.567-42.9-.313-41.647-4.037-59.167Z" transform="translate(-5.454 -78.583)" fill="#ba68c8"/>
            <g id="Grupo_875624" data-name="Grupo 875624" transform="translate(6.721 96.845)" opacity="0.862">
              <g id="Grupo_875623" data-name="Grupo 875623">
                <g id="Grupo_875622" data-name="Grupo 875622" clip-path="url(#clip-path-4)">
                  <path id="Trazado_268736" data-name="Trazado 268736" d="M22.6,175.428c-3.7,6.741-6.439,12.35-6.813,32.393s-.314,25.658-.392,28.075-1.485,6.737-2.72,18.642.226,26.09.226,26.09.852,1.916,5.4,2.324c4.2.376,6.279-1.2,6.279-1.2s5.758-23.183,7.352-30.354,6.221-30.748,6.221-30.748L40.9,239.772s-1.281,6.57,0,17.01,3.538,21.134,3.538,21.134a18.946,18.946,0,0,0,6.449,1.054,10.9,10.9,0,0,0,5.661-1.478s3.567-31.063,3.567-42.9-.313-41.647-4.037-59.167Z" transform="translate(-12.175 -175.428)" fill="#033f71"/>
                </g>
              </g>
            </g>
            <g id="Grupo_875627" data-name="Grupo 875627" transform="translate(14.635 100.282)">
              <g id="Grupo_875626" data-name="Grupo 875626">
                <g id="Grupo_875625" data-name="Grupo 875625" clip-path="url(#clip-path-5)">
                  <path id="Trazado_268737" data-name="Trazado 268737" d="M48.323,200.682l-3.749,22.755L47.32,242.56l-1.166-19.379L49.5,204.51c2.853-.685,9.346-4.106,11.13-8.993-4.4,4.6-12.311,5.165-12.311,5.165m-13.336-13.3c.5-1.912,1.036-3.814,1.633-5.727a28.279,28.279,0,0,0-2.569,5.433,52.934,52.934,0,0,0-1.711,5.758c-.452,1.949-.826,3.915-1.084,5.9a39.02,39.02,0,0,0-.4,5.988c.478-1.947.922-3.879,1.364-5.813s.874-3.863,1.343-5.784c.444-1.926.927-3.84,1.42-5.754m-2.866-1.434c.644-1.168,1.292-2.338,1.884-3.569a21.378,21.378,0,0,0-2.707,3.036,29.321,29.321,0,0,0-2.2,3.419,26.007,26.007,0,0,0-1.669,3.717,16.033,16.033,0,0,0-.917,3.975l1.821-3.584c.617-1.174,1.228-2.347,1.872-3.5.624-1.169,1.281-2.319,1.918-3.49m-2.375,75.982q-1.664,9.244-3.085,18.53,2.146-9.151,4.052-18.34c1.288-6.13,2.5-12.248,3.7-18.416,1.125-6.183,1.887-12.413,2.491-18.648s1.068-12.48,1.445-18.732c-.863,6.2-1.638,12.417-2.42,18.622-.8,6.2-1.615,12.4-2.756,18.53C32,249.6,30.836,255.768,29.746,261.928M62.1,230.8c.124,2.714.285,5.443.241,8.127s-.221,5.426-.358,8.143l-.411,8.164q-.418,8.166-.649,16.348.961-8.129,1.631-16.283c.446-5.442.863-10.862,1.048-16.352-.017-5.517-.484-10.936-.972-16.378-.5-5.434-1.159-10.855-2-16.247l1.022,16.322c.15,2.72.325,5.437.449,8.156" transform="translate(-26.51 -181.653)" fill="#033f71"/>
                </g>
              </g>
            </g>
            <path id="Trazado_268738" data-name="Trazado 268738" d="M78.82,111.573c5.641.523,8.066,4.043,10.516,7.42,2.216,3.056,9.744,12.793,9.744,12.793,1.051-.662,9.665-6.177,11.831-8.44,2.29-2.393,1.732-3.721,1.954-5.534s1.027-3.141,1-6.021c-.013-1.374,1.414-.909,1.9-.049.989,1.734.508,4.612,1.3,4.567a6.928,6.928,0,0,0,2.34-2.009c1.7-2.039,2.235-4.026,3.692-6.225.559-.845,1.285-1.765,2.425-1.6a2.72,2.72,0,0,1,.34.093.425.425,0,0,1,.269.388,4.3,4.3,0,0,1-.116.924c-.052.216-.237.84-.237.84s1.009.285,1.115.743a3.369,3.369,0,0,1-.294,2.08c.393.354.968,1.2.092,2.743.372.213,1.064,1.416.122,3.532a28.273,28.273,0,0,1-3.3,5.485c-2,2.489-3.732,3.286-6.336,5.829s-7.544,8.216-11.838,12.076c-4.981,4.478-6.907,5.57-10.881,2.722-2.059-1.475-14.975-15.015-14.975-15.015Z" transform="translate(-35.307 -47.688)" fill="#b16668"/>
            <path id="Trazado_268739" data-name="Trazado 268739" d="M148.077,125.671c.942,1.609.522,4.554-1.962,6.506,2.728-.825,4.153-4.628,1.962-6.506" transform="translate(-65.452 -56.294)" fill="#9a4a4d"/>
            <path id="Trazado_268740" data-name="Trazado 268740" d="M20.756,160.4c1.229-6.229,2.873-11.579,2.968-14.575.2-6.273-1.3-11.021-1.829-14.539-1.146-7.662-.3-14.437,1.482-15.946,0,0,5.195-1.2,6.9-1.5,1.349-.242,2.387-.4,4.165-.832a25.091,25.091,0,0,1,9.154-.585c.83.084,3.746.635,5.249.986,1.191.278,3.966.755,3.969.758a41.136,41.136,0,0,1,4.536,6.774c1.944,3.474,3.535,6,3.777,12.878.381,10.9.741,20.281,1.153,26.06-7.845,4.823-31.392,6.429-41.519.526" transform="translate(-9.298 -50.277)" fill="#37474f"/>
            <path id="Trazado_268741" data-name="Trazado 268741" d="M34.05,55.364c-4.481.92-5.453,7.992-2.91,12.356,4.2,7.216,8.34,8.3,8.868,11.721,4.782-3.382,9.479-6.9,14.294-10.226,3.173-1.391,6.98-4.341,5.311-8.231a1.952,1.952,0,0,0,3.565-1.3,1.341,1.341,0,0,1-2.464.4c-.552-.979-.19-2.224.014-3.329.559-3.02-2.094-6.628-5.281-6.435-6.509-4.859-19.045-3.576-21.4,5.042" transform="translate(-13.331 -21.282)" fill="#263238"/>
            <path id="Trazado_268742" data-name="Trazado 268742" d="M32.641,93.156a2.122,2.122,0,0,1,.81-.543,4.247,4.247,0,0,1,1.212-.111,5.043,5.043,0,0,0,2.844-1.042,11.978,11.978,0,0,0,1.846-2.187,3.759,3.759,0,0,0,.45-2.54,10.657,10.657,0,0,0-2.285-6.254A7.21,7.21,0,0,0,36.1,79.2a13.424,13.424,0,0,0-1.617-.826,2.449,2.449,0,0,0-.655-.238,16.285,16.285,0,0,0-1.988-.271,2.523,2.523,0,0,1-.364-.047,1.51,1.51,0,0,1-.459-.2,5.507,5.507,0,0,0-1.343-.574,9.187,9.187,0,0,0-3.422-.332A5.538,5.538,0,0,0,22.984,78a3.127,3.127,0,0,0-.945,3.237,3.015,3.015,0,0,1,.375,1.275,2.322,2.322,0,0,1-.6,1.074,3.7,3.7,0,0,0-.091,4.581,10.028,10.028,0,0,1,1.325,1.317c.472.768.31,1.762.58,2.622a3.652,3.652,0,0,0,1.595,2.152,3.74,3.74,0,0,0,2.287.569c-1.322-.561-1.666-2.017-1.356-3.418a4.183,4.183,0,0,0,1.665,2.661,3.616,3.616,0,0,0,3.616.291,8.844,8.844,0,0,0,1.206-1.208" transform="translate(-9.394 -34.348)" fill="#263238"/>
            <path id="Trazado_268743" data-name="Trazado 268743" d="M40.812,88.618l-.257-7.039a3.277,3.277,0,0,1-4.041-.735c-2.28-2.285-2.544-4.815-1.349-6.461,1.321-1.82,4.318-1.19,5.649.978,1.958.433,2.7-2.367,1.173-5.2,0,0,3.935-2.379,3.11-6.545,3.4,2.052,11.243,2.916,13.052-.609,1.115,1.616,2.639,3.5,2.764,12.316.114,8.056-1.433,9.989-3.61,10.994a10.8,10.8,0,0,1-5.386.6L52.06,89c.06,1.042.188,1.7,1.072,1.891.806.173,2.247.548,2.247.548s2.688,2.619-3.758,3.569c-9.625,1.418-14.77-3.3-14.77-3.3s.641-.153,2.256-.511c1.7-.377,1.786-1.293,1.7-2.584" transform="translate(-15.439 -28.224)" fill="#b16668"/>
            <path id="Trazado_268744" data-name="Trazado 268744" d="M39.987,92.794a.976.976,0,1,0,.939-1.012.977.977,0,0,0-.939,1.012" transform="translate(-17.912 -41.113)" fill="#ba68c8"/>
            <path id="Trazado_268745" data-name="Trazado 268745" d="M61.4,92.751l3.5,1.065a1.8,1.8,0,0,1-2.249,1.28,1.915,1.915,0,0,1-1.25-2.345" transform="translate(-27.472 -41.548)" fill="#9a4a4d"/>
            <path id="Trazado_268746" data-name="Trazado 268746" d="M61.657,94.2a2.012,2.012,0,0,1,2.032,1.542,1.74,1.74,0,0,1-1.015,0,1.879,1.879,0,0,1-1.287-1.5,1.965,1.965,0,0,1,.269-.038" transform="translate(-27.499 -42.197)" fill="#f28f8f"/>
            <path id="Trazado_268747" data-name="Trazado 268747" d="M76.934,74.23l-2.586-1.1a1.35,1.35,0,0,1,1.8-.773,1.478,1.478,0,0,1,.786,1.875" transform="translate(-33.304 -32.362)" fill="#263238"/>
            <path id="Trazado_268748" data-name="Trazado 268748" d="M56.547,75.528l2.478-1.4a1.366,1.366,0,0,0-1.9-.574,1.5,1.5,0,0,0-.579,1.976" transform="translate(-25.256 -32.867)" fill="#263238"/>
            <path id="Trazado_268749" data-name="Trazado 268749" d="M68.081,77.713l.482,7.39,3.775-1.618Z" transform="translate(-30.497 -34.812)" fill="#9a4a4d"/>
            <path id="Trazado_268750" data-name="Trazado 268750" d="M73.993,79.148a1.205,1.205,0,0,0,1.1,1.263,1.129,1.129,0,0,0,1.243-1.052,1.2,1.2,0,0,0-1.1-1.263,1.129,1.129,0,0,0-1.243,1.051" transform="translate(-33.144 -34.981)" fill="#263238"/>
            <path id="Trazado_268751" data-name="Trazado 268751" d="M58.617,79.724a1.205,1.205,0,0,0,1.1,1.263,1.129,1.129,0,0,0,1.243-1.051,1.2,1.2,0,0,0-1.1-1.263,1.13,1.13,0,0,0-1.243,1.051" transform="translate(-26.256 -35.239)" fill="#263238"/>
            <path id="Trazado_268752" data-name="Trazado 268752" d="M58.147,103.228c-4.461-.391-8.742-1.795-9.77-3.812a4.015,4.015,0,0,0,1.834,3.255c2.553,1.455,8.045,2.132,8.045,2.132Z" transform="translate(-21.67 -44.533)" fill="#9a4a4d"/>
            <path id="Trazado_268753" data-name="Trazado 268753" d="M14.079,117.855c-4.941.823-6.6,2.353-8.644,7.7-1.972,5.172-6.541,16.812-5.189,24.624.825,4.769,12.857-7.209,12.857-7.209l5.76-13.276s-.613-11.843-4.784-11.843" transform="translate(0 -52.793)" fill="#9a4a4d"/>
            <path id="Trazado_268754" data-name="Trazado 268754" d="M27.989,116.816a14.964,14.964,0,0,0,2.708-5.261c.554-2.231,2.315-4.282,2.913-5.128s1.891-2.087,2.877-3.273,1.276-1.515,2.694-1.755c1.948-.33,3.476-.637,4.239-.4s.74.733.078,1.408a5.8,5.8,0,0,1-2.492.97c-.434.132-1.383.544-1.383.544l-1.8,2.656a26.548,26.548,0,0,1,3.658.892,2.958,2.958,0,0,1,.848,2.732,1.655,1.655,0,0,1,.682,1.864s.686.893.216,1.626a11.992,11.992,0,0,1-1.82,2.022,4.971,4.971,0,0,1-1.846.4,13.486,13.486,0,0,1-2.306,2.677c-1.049.778-1.737.728-2.887,2.354Z" transform="translate(-12.538 -45.204)" fill="#b16668"/>
            <path id="Trazado_268755" data-name="Trazado 268755" d="M48.29,111.163c.723-.312.883-.8,1.568-.543s.421,1.04.421,1.04Z" transform="translate(-21.631 -49.52)" fill="#9a4a4d"/>
            <path id="Trazado_268756" data-name="Trazado 268756" d="M51.462,116.578a6.916,6.916,0,0,0-1.487-.961c-.5-.243-1.545-.613-1.545-.613a7.5,7.5,0,0,1,2.122.5,6.134,6.134,0,0,1,1,.5,1.789,1.789,0,0,1-.069.5Z" transform="translate(-21.694 -51.516)" fill="#9a4a4d"/>
            <path id="Trazado_268757" data-name="Trazado 268757" d="M53.016,119.435a5.451,5.451,0,0,1,.7.354,2.005,2.005,0,0,1-.117.492,6.08,6.08,0,0,0-1.922-1.2,6.12,6.12,0,0,1,1.337.351" transform="translate(-23.15 -53.344)" fill="#9a4a4d"/>
            <path id="Trazado_268758" data-name="Trazado 268758" d="M48.447,126.913a15.09,15.09,0,0,1,1.494-2.4,1.1,1.1,0,0,1,1.494-.14c.193.291-.8.254-1.089.381a9.529,9.529,0,0,0-1.9,2.163" transform="translate(-21.702 -55.608)" fill="#9a4a4d"/>
            <path id="Trazado_268759" data-name="Trazado 268759" d="M44.278,107.44s.56-.791,1.562-2.048.941-1.074,1.915-1.268c.909-.181,2.816-.517,3.317-1.1a2.915,2.915,0,0,1-.278.326,5.809,5.809,0,0,1-2.492.97c-.435.131-1.383.544-1.383.544l-1.854,2.733Z" transform="translate(-19.834 -46.149)" fill="#9a4a4d"/>
            <path id="Trazado_268760" data-name="Trazado 268760" d="M15.522,129.72c-3.27,3.944-12.081,13.428-14.119,17.2-1.41,2.61-1.762,8.68-.326,10.885s5.551,1.279,8.881-1.645c2.873-2.524,5.269-8.6,7.355-12.917s4.585-9.2,4.585-9.2Z" transform="translate(-0.07 -58.108)" fill="#b16668"/>
            <path id="Trazado_268761" data-name="Trazado 268761" d="M27.989,116.746a20.472,20.472,0,0,0,1.943-3.186,11.044,11.044,0,0,0,.64-1.749,9.588,9.588,0,0,1,.6-1.776,17.174,17.174,0,0,1,1.992-3.17,26.43,26.43,0,0,1,2.422-2.853c.423-.459.818-.934,1.22-1.414a3.265,3.265,0,0,1,1.5-1.139,15.492,15.492,0,0,1,1.843-.375c.614-.105,1.23-.212,1.854-.28a6.135,6.135,0,0,1,.947-.039,1.616,1.616,0,0,1,.931.295.541.541,0,0,1,.2.491,1.074,1.074,0,0,1-.2.468,2.308,2.308,0,0,1-.694.673,5.961,5.961,0,0,1-1.789.619,9.829,9.829,0,0,0-1.739.625l.04-.033-1.809,2.652-.056-.134c1.11.22,2.219.431,3.31.762a1.988,1.988,0,0,1,.406.171,1.22,1.22,0,0,1,.322.314,3.026,3.026,0,0,1,.388.775,3,3,0,0,1,.132,1.708l-.028-.079a2.123,2.123,0,0,1,.694.852,1.392,1.392,0,0,1,.114.547,1.5,1.5,0,0,1-.1.548l-.009-.064a1.635,1.635,0,0,1,.29,1.562,7.136,7.136,0,0,1-.992,1.267c-.182.195-.369.386-.561.571a1.83,1.83,0,0,1-.653.482,6.6,6.6,0,0,1-1.584.257l.039-.023a18.148,18.148,0,0,1-1.107,1.46,7.335,7.335,0,0,1-1.316,1.274c-.5.359-1.07.59-1.561.95a5.774,5.774,0,0,0-1.251,1.319,5.763,5.763,0,0,1,1.236-1.34c.489-.369,1.059-.608,1.547-.972a7.282,7.282,0,0,0,1.286-1.281c.385-.47.744-.962,1.083-1.466l.014-.02.025,0a6.531,6.531,0,0,0,1.553-.259,1.715,1.715,0,0,0,.612-.461c.189-.184.374-.375.554-.569a7.135,7.135,0,0,0,.964-1.24,1.513,1.513,0,0,0-.282-1.431l-.02-.029.012-.035a1.386,1.386,0,0,0,.093-.5,1.26,1.26,0,0,0-.106-.5,1.993,1.993,0,0,0-.648-.788l-.041-.03.013-.049a2.869,2.869,0,0,0-.139-1.618c-.19-.511-.456-1.054-1.024-1.159-1.072-.32-2.188-.527-3.292-.74l-.13-.025.073-.109,1.8-2.66.016-.024.025-.01a9.824,9.824,0,0,1,1.772-.644,5.8,5.8,0,0,0,1.733-.587,2.124,2.124,0,0,0,.641-.616c.173-.237.259-.55.029-.719a2.619,2.619,0,0,0-1.744-.222c-.616.065-1.23.168-1.844.27a15.581,15.581,0,0,0-1.821.36,3.124,3.124,0,0,0-1.439,1.088c-.4.474-.8.956-1.229,1.412a26.246,26.246,0,0,0-2.429,2.833,17.175,17.175,0,0,0-2,3.14,9.524,9.524,0,0,0-.616,1.756,11.117,11.117,0,0,1-.666,1.751,20.446,20.446,0,0,1-1.986,3.166" transform="translate(-12.538 -45.134)" fill="#9a4a4d"/>
            <path id="Trazado_268762" data-name="Trazado 268762" d="M110.321,27.166l-1-2.084,4.371-2.521a6.866,6.866,0,0,1,1.648-.688c.2-.053.405-.1.612-.134a8.131,8.131,0,0,1,3.075.084,10.251,10.251,0,0,1,1.11.3,11.3,11.3,0,0,1,1.146.44,14.2,14.2,0,0,1,1.472.754,17.772,17.772,0,0,1,1.535,1.007q.567.416,1.122.884c5.425,4.579,9.693,12.741,10.777,20.591q.113.8.176,1.6c.064.758.1,1.512.093,2.256q0,.913-.072,1.768-.06.74-.166,1.43t-.258,1.329v0a12.921,12.921,0,0,1-1.269,3.367c-.117.208-.238.411-.365.6a8.132,8.132,0,0,1-1.936,2.093,7.059,7.059,0,0,1-.713.466l-4.13,2.385-.915-1.908q-.363-.08-.735-.191a13.363,13.363,0,0,1-2.875-1.275,17.862,17.862,0,0,1-1.689-1.122,21.574,21.574,0,0,1-2.074-1.768,35.125,35.125,0,0,1-9.4-17.961,30.188,30.188,0,0,1-.428-3.013c-.075-.832-.113-1.659-.11-2.473a21.2,21.2,0,0,1,.289-3.509,15.171,15.171,0,0,1,.71-2.711" transform="translate(-48.97 -9.69)" fill="#ba68c8"/>
            <g id="Grupo_875630" data-name="Grupo 875630" transform="translate(76.188 28.089)" opacity="0.25">
              <g id="Grupo_875629" data-name="Grupo 875629">
                <g id="Grupo_875628" data-name="Grupo 875628" clip-path="url(#clip-path-6)">
                  <path id="Trazado_268763" data-name="Trazado 268763" d="M148.043,54.26l-8.865,5.12-1.168-3.373,8.875-5.126c.441,1.109.829,2.239,1.158,3.379" transform="translate(-138.009 -50.881)" fill="#fff"/>
                </g>
              </g>
            </g>
            <g id="Grupo_875633" data-name="Grupo 875633" transform="translate(60.351 11.941)" opacity="0.25">
              <g id="Grupo_875632" data-name="Grupo 875632">
                <g id="Grupo_875631" data-name="Grupo 875631" clip-path="url(#clip-path-7)">
                  <path id="Trazado_268764" data-name="Trazado 268764" d="M113.692,22.563h0a6.857,6.857,0,0,1,1.649-.688c.2-.054.4-.1.612-.134a8.119,8.119,0,0,1,3.075.084c.135.028.271.062.407.1l-9.122,5.268.008-.023-1-2.085Z" transform="translate(-109.322 -21.631)" fill="#fff"/>
                </g>
              </g>
            </g>
            <g id="Grupo_875636" data-name="Grupo 875636" transform="translate(64.503 16.762)" opacity="0.25">
              <g id="Grupo_875635" data-name="Grupo 875635">
                <g id="Grupo_875634" data-name="Grupo 875634" clip-path="url(#clip-path-8)">
                  <path id="Trazado_268765" data-name="Trazado 268765" d="M118.012,39.421l-1.169-1.4,13.3-7.654q.633.628,1.24,1.317Z" transform="translate(-116.843 -30.363)" fill="#fff"/>
                </g>
              </g>
            </g>
            <g id="Grupo_875639" data-name="Grupo 875639" transform="translate(69.077 18.983)" opacity="0.25">
              <g id="Grupo_875638" data-name="Grupo 875638">
                <g id="Grupo_875637" data-name="Grupo 875637" clip-path="url(#clip-path-9)">
                  <path id="Trazado_268766" data-name="Trazado 268766" d="M137.913,37.246,126.4,43.9l-1.269-3.315,10.725-6.193a32.2,32.2,0,0,1,2.06,2.858" transform="translate(-125.128 -34.387)" fill="#fff"/>
                </g>
              </g>
            </g>
            <g id="Grupo_875642" data-name="Grupo 875642" transform="translate(60.351 11.942)">
              <g id="Grupo_875641" data-name="Grupo 875641">
                <g id="Grupo_875640" data-name="Grupo 875640" clip-path="url(#clip-path-10)">
                  <path id="Trazado_268767" data-name="Trazado 268767" d="M113.692,22.563h0a6.857,6.857,0,0,1,1.649-.688c.2-.054.4-.1.612-.134a8.119,8.119,0,0,1,3.075.084,10.089,10.089,0,0,1,1.11.3,11.427,11.427,0,0,1,1.146.44,14.361,14.361,0,0,1,1.472.754,17.814,17.814,0,0,1,1.534,1.008q.569.415,1.123.884c5.053,4.265,9.1,11.638,10.508,18.973l-18.5,10.681a36.078,36.078,0,0,1-7.563-15.991,30.4,30.4,0,0,1-.428-3.013c-.075-.832-.113-1.659-.11-2.473a21.193,21.193,0,0,1,.289-3.509,15.241,15.241,0,0,1,.71-2.711l-1-2.085Z" transform="translate(-109.321 -21.632)" fill="#ffc631"/>
                </g>
              </g>
            </g>
            <g id="Grupo_875645" data-name="Grupo 875645" transform="translate(68.453 34.492)">
              <g id="Grupo_875644" data-name="Grupo 875644">
                <g id="Grupo_875643" data-name="Grupo 875643" clip-path="url(#clip-path-11)">
                  <path id="Trazado_268768" data-name="Trazado 268768" d="M134.121,81.395l-.915-1.907q-.364-.08-.735-.191a13.355,13.355,0,0,1-2.876-1.275,17.9,17.9,0,0,1-1.689-1.122,21.645,21.645,0,0,1-2.074-1.768A26.625,26.625,0,0,1,124,73.162l18.5-10.682c.1.54.194,1.08.268,1.618s.134,1.067.176,1.6c.064.758.1,1.512.093,2.256q0,.913-.072,1.768-.06.74-.166,1.43t-.258,1.329v0a12.891,12.891,0,0,1-1.269,3.366c-.117.209-.238.411-.365.605a8.142,8.142,0,0,1-1.936,2.093,7.061,7.061,0,0,1-.713.466Z" transform="translate(-123.997 -62.48)" fill="#ffc631"/>
                </g>
              </g>
            </g>
            <g id="Grupo_875648" data-name="Grupo 875648" transform="translate(77.56 45.403)" opacity="0.1">
              <g id="Grupo_875647" data-name="Grupo 875647">
                <g id="Grupo_875646" data-name="Grupo 875646" clip-path="url(#clip-path-12)">
                  <path id="Trazado_268769" data-name="Trazado 268769" d="M148.657,84.7q-.176.313-.365.605a8.141,8.141,0,0,1-1.936,2.093,7.05,7.05,0,0,1-.713.466l-4.13,2.386-.915-1.908-.036-.009-.066-.782,9.188-5.306a12.269,12.269,0,0,1-1.025,2.455" transform="translate(-140.494 -82.244)"/>
                </g>
              </g>
            </g>
            <path id="Trazado_268770" data-name="Trazado 268770" d="M100.856,38.094c0,.814.035,1.641.11,2.473a30.235,30.235,0,0,0,.428,3.013,35.131,35.131,0,0,0,9.4,17.961,21.492,21.492,0,0,0,2.074,1.768,17.728,17.728,0,0,0,1.689,1.122,13.321,13.321,0,0,0,2.875,1.275,8.9,8.9,0,0,0,3.056.4,6.881,6.881,0,0,0,3.822-1.371,8.153,8.153,0,0,0,1.937-2.093c.126-.194.248-.4.365-.605a12.9,12.9,0,0,0,1.269-3.366v0q.152-.64.258-1.328t.166-1.43q.07-.854.072-1.768c0-.743-.029-1.5-.093-2.256q-.063-.794-.176-1.6c-1.084-7.85-5.352-16.012-10.777-20.59q-.554-.47-1.123-.884a17.814,17.814,0,0,0-1.534-1.008,14.241,14.241,0,0,0-1.472-.753,11.3,11.3,0,0,0-1.146-.441,10.089,10.089,0,0,0-1.11-.3,8.119,8.119,0,0,0-3.075-.084c-.207.036-.411.08-.612.134a6.882,6.882,0,0,0-2.408,1.192,8.962,8.962,0,0,0-2.684,3.547,14.55,14.55,0,0,0-1.023,3.485,21.2,21.2,0,0,0-.289,3.509" transform="translate(-45.178 -11.7)" fill="#ba68c8"/>
            <g id="Grupo_875651" data-name="Grupo 875651" transform="translate(55.678 14.418)">
              <g id="Grupo_875650" data-name="Grupo 875650">
                <g id="Grupo_875649" data-name="Grupo 875649" clip-path="url(#clip-path-13)">
                  <path id="Trazado_268771" data-name="Trazado 268771" d="M100.856,38.094c0,.814.035,1.641.11,2.473a30.235,30.235,0,0,0,.428,3.013,35.131,35.131,0,0,0,9.4,17.961,21.492,21.492,0,0,0,2.074,1.768,17.728,17.728,0,0,0,1.689,1.122,13.321,13.321,0,0,0,2.875,1.275,8.9,8.9,0,0,0,3.056.4,6.881,6.881,0,0,0,3.822-1.371,8.153,8.153,0,0,0,1.937-2.093c.126-.194.248-.4.365-.605a12.9,12.9,0,0,0,1.269-3.366v0q.152-.64.258-1.328t.166-1.43q.07-.854.072-1.768c0-.743-.029-1.5-.093-2.256q-.063-.794-.176-1.6c-1.084-7.85-5.352-16.012-10.777-20.59q-.554-.47-1.123-.884a17.814,17.814,0,0,0-1.534-1.008,14.241,14.241,0,0,0-1.472-.753,11.3,11.3,0,0,0-1.146-.441,10.089,10.089,0,0,0-1.11-.3,8.119,8.119,0,0,0-3.075-.084c-.207.036-.411.08-.612.134a6.882,6.882,0,0,0-2.408,1.192,8.962,8.962,0,0,0-2.684,3.547,14.55,14.55,0,0,0-1.023,3.485,21.2,21.2,0,0,0-.289,3.509" transform="translate(-100.856 -26.118)" fill="#ffc631"/>
                </g>
              </g>
            </g>
            <g id="Grupo_875654" data-name="Grupo 875654" transform="translate(67.877 36.958)" opacity="0.05">
              <g id="Grupo_875653" data-name="Grupo 875653">
                <g id="Grupo_875652" data-name="Grupo 875652" clip-path="url(#clip-path-14)">
                  <path id="Trazado_268772" data-name="Trazado 268772" d="M137.737,66.947c.1.544.2,1.087.27,1.629s.134,1.067.176,1.6c.064.759.095,1.513.092,2.256q0,.913-.072,1.768-.06.739-.166,1.43t-.258,1.328v0a12.916,12.916,0,0,1-1.269,3.366c-.118.209-.238.411-.365.605a8.143,8.143,0,0,1-1.937,2.093,6.877,6.877,0,0,1-3.822,1.371,8.9,8.9,0,0,1-3.055-.4,13.336,13.336,0,0,1-2.876-1.275,17.765,17.765,0,0,1-1.5-.99Z" transform="translate(-122.954 -66.947)"/>
                </g>
              </g>
            </g>
            <g id="Grupo_875657" data-name="Grupo 875657" transform="translate(76.04 47.918)" opacity="0.05">
              <g id="Grupo_875656" data-name="Grupo 875656">
                <g id="Grupo_875655" data-name="Grupo 875655" clip-path="url(#clip-path-15)">
                  <path id="Trazado_268773" data-name="Trazado 268773" d="M144.148,86.8a12.282,12.282,0,0,1-1.013,2.417c-.118.208-.238.411-.365.6a8.134,8.134,0,0,1-1.937,2.093,6.832,6.832,0,0,1-3.092,1.292Z" transform="translate(-137.741 -86.799)"/>
                </g>
              </g>
            </g>
            <g id="Grupo_875660" data-name="Grupo 875660" transform="translate(63.644 30.571)" opacity="0.25">
              <g id="Grupo_875659" data-name="Grupo 875659">
                <g id="Grupo_875658" data-name="Grupo 875658" clip-path="url(#clip-path-16)">
                  <path id="Trazado_268774" data-name="Trazado 268774" d="M132.421,55.378c.441,1.107.827,2.236,1.155,3.375l-16.1,16.1c-.073-.068-.147-.135-.219-.2a26.732,26.732,0,0,1-1.972-2.134Z" transform="translate(-115.286 -55.378)" fill="#fff"/>
                </g>
              </g>
            </g>
            <g id="Grupo_875663" data-name="Grupo 875663" transform="translate(58.28 21.46)" opacity="0.25">
              <g id="Grupo_875662" data-name="Grupo 875662">
                <g id="Grupo_875661" data-name="Grupo 875661" clip-path="url(#clip-path-17)">
                  <path id="Trazado_268775" data-name="Trazado 268775" d="M122.8,38.874a32.1,32.1,0,0,1,2.06,2.859l-17.72,17.72c-.577-1.08-1.1-2.2-1.575-3.343Z" transform="translate(-105.569 -38.874)" fill="#fff"/>
                </g>
              </g>
            </g>
            <g id="Grupo_875666" data-name="Grupo 875666" transform="translate(57.152 19.235)" opacity="0.25">
              <g id="Grupo_875665" data-name="Grupo 875665">
                <g id="Grupo_875664" data-name="Grupo 875664" clip-path="url(#clip-path-18)">
                  <path id="Trazado_268776" data-name="Trazado 268776" d="M119.879,34.843q.638.632,1.25,1.327L104.187,53.113c-.236-.634-.459-1.273-.66-1.917Z" transform="translate(-103.527 -34.843)" fill="#fff"/>
                </g>
              </g>
            </g>
            <g id="Grupo_875669" data-name="Grupo 875669" transform="translate(55.717 14.418)" opacity="0.25">
              <g id="Grupo_875668" data-name="Grupo 875668">
                <g id="Grupo_875667" data-name="Grupo 875667" clip-path="url(#clip-path-19)">
                  <path id="Trazado_268777" data-name="Trazado 268777" d="M100.928,36.87h0c.018-.328.044-.648.075-.963.011-.1.021-.21.033-.314s.025-.214.039-.319c.031-.233.063-.464.1-.688A14.537,14.537,0,0,1,102.2,31.1a8.959,8.959,0,0,1,2.683-3.547,6.886,6.886,0,0,1,2.408-1.192c.2-.054.405-.1.612-.134a8.119,8.119,0,0,1,3.075.084c.135.028.272.063.409.1Z" transform="translate(-100.928 -26.118)" fill="#fff"/>
                </g>
              </g>
            </g>
            <path id="Trazado_268778" data-name="Trazado 268778" d="M107.208,44.333c0,7.243,4.223,15.605,9.566,19.162.226.151.457.3.688.428,5.663,3.27,10.252-.2,10.252-7.751s-4.589-16.323-10.252-19.592c-.231-.133-.462-.255-.688-.366-5.343-2.613-9.566.876-9.566,8.118" transform="translate(-48.024 -15.835)" fill="#ba68c8"/>
            <g id="Grupo_875672" data-name="Grupo 875672" transform="translate(59.184 19.516)">
              <g id="Grupo_875671" data-name="Grupo 875671">
                <g id="Grupo_875670" data-name="Grupo 875670" clip-path="url(#clip-path-20)">
                  <path id="Trazado_268779" data-name="Trazado 268779" d="M107.208,44.333c0,7.243,4.223,15.605,9.566,19.162.226.151.457.3.688.428,5.663,3.27,10.252-.2,10.252-7.751s-4.589-16.323-10.252-19.592c-.231-.133-.462-.255-.688-.366-5.343-2.613-9.566.876-9.566,8.118" transform="translate(-107.208 -35.351)" fill="#c49927"/>
                </g>
              </g>
            </g>
            <path id="Trazado_268780" data-name="Trazado 268780" d="M108.035,45.135c0,.232,0,.468.015.7.259,6.751,4.192,14.32,9.127,17.6l.134.088q.259.169.523.322a8.491,8.491,0,0,0,3.078,1.12,5.186,5.186,0,0,0,5.413-2.756,10.742,10.742,0,0,0,1.269-4.671q.037-.532.037-1.1c0-.347-.009-.694-.03-1.046a20.622,20.622,0,0,0-.25-2.226,24.811,24.811,0,0,0-7.186-13.73,14.274,14.274,0,0,0-1.562-1.234c-.253-.173-.511-.335-.77-.485-.221-.127-.442-.244-.657-.35-.061-.03-.123-.06-.184-.086a6.624,6.624,0,0,0-4.052-.646c-2.064.4-3.652,2.041-4.413,4.668a13.774,13.774,0,0,0-.494,3.821" transform="translate(-48.394 -16.373)" fill="#ba68c8"/>
            <g id="Grupo_875675" data-name="Grupo 875675" transform="translate(59.641 20.179)">
              <g id="Grupo_875674" data-name="Grupo 875674">
                <g id="Grupo_875673" data-name="Grupo 875673" clip-path="url(#clip-path-21)">
                  <path id="Trazado_268781" data-name="Trazado 268781" d="M108.035,45.135c0,.232,0,.468.015.7.259,6.751,4.192,14.32,9.127,17.6l.134.088q.259.169.523.322a8.491,8.491,0,0,0,3.078,1.12,5.186,5.186,0,0,0,5.413-2.756,10.742,10.742,0,0,0,1.269-4.671q.037-.532.037-1.1c0-.347-.009-.694-.03-1.046a20.622,20.622,0,0,0-.25-2.226,24.811,24.811,0,0,0-7.186-13.73,14.274,14.274,0,0,0-1.562-1.234c-.253-.173-.511-.335-.77-.485-.221-.127-.442-.244-.657-.35-.061-.03-.123-.06-.184-.086a6.624,6.624,0,0,0-4.052-.646c-2.064.4-3.652,2.041-4.413,4.668a13.774,13.774,0,0,0-.494,3.821" transform="translate(-108.035 -36.552)" fill="#dbab2d"/>
                </g>
              </g>
            </g>
            <path id="Trazado_268782" data-name="Trazado 268782" d="M110.995,44.895c-.011-.237-.015-.472-.015-.7a13.778,13.778,0,0,1,.494-3.822,7.243,7.243,0,0,1,2.108-3.539,4.909,4.909,0,0,1,.678-.184,6.628,6.628,0,0,1,4.052.646c.061.026.123.056.184.086.215.106.436.223.656.35.259.15.517.311.77.485a14.327,14.327,0,0,1,1.562,1.234,24.814,24.814,0,0,1,7.186,13.73,20.488,20.488,0,0,1,.25,2.226c.02.352.03.7.03,1.046q0,.567-.037,1.1a10.742,10.742,0,0,1-1.269,4.671,6.174,6.174,0,0,1-1.29,1.588,5.356,5.356,0,0,1-2.5.224,8.512,8.512,0,0,1-3.078-1.12c-.176-.1-.351-.21-.523-.322l-.134-.088c-4.935-3.285-8.868-10.854-9.127-17.6" transform="translate(-49.713 -16.373)" fill="#ba68c8"/>
            <g id="Grupo_875678" data-name="Grupo 875678" transform="translate(61.267 20.179)">
              <g id="Grupo_875677" data-name="Grupo 875677">
                <g id="Grupo_875676" data-name="Grupo 875676" clip-path="url(#clip-path-22)">
                  <path id="Trazado_268783" data-name="Trazado 268783" d="M110.995,44.895c-.011-.237-.015-.472-.015-.7a13.778,13.778,0,0,1,.494-3.822,7.243,7.243,0,0,1,2.108-3.539,4.909,4.909,0,0,1,.678-.184,6.628,6.628,0,0,1,4.052.646c.061.026.123.056.184.086.215.106.436.223.656.35.259.15.517.311.77.485a14.327,14.327,0,0,1,1.562,1.234,24.814,24.814,0,0,1,7.186,13.73,20.488,20.488,0,0,1,.25,2.226c.02.352.03.7.03,1.046q0,.567-.037,1.1a10.742,10.742,0,0,1-1.269,4.671,6.174,6.174,0,0,1-1.29,1.588,5.356,5.356,0,0,1-2.5.224,8.512,8.512,0,0,1-3.078-1.12c-.176-.1-.351-.21-.523-.322l-.134-.088c-4.935-3.285-8.868-10.854-9.127-17.6" transform="translate(-110.98 -36.552)" fill="#ffc631"/>
                </g>
              </g>
            </g>
            <path id="Trazado_268784" data-name="Trazado 268784" d="M113.564,26.264c5.922-.669,10.737,4.236,13.953,8.646,4.643,6.843,7.584,15.509,5.979,23.8l0-.018a10.391,10.391,0,0,1-3.5,6.082A10.364,10.364,0,0,0,133.65,58.7v.014c1.478-6.782-.381-13.908-3.485-19.977-3.322-6.005-8.956-13.294-16.6-12.477" transform="translate(-50.871 -11.737)" fill="#f5f5f5"/>
            <path id="Trazado_268785" data-name="Trazado 268785" d="M128.18,58.548a8.522,8.522,0,0,0-3.085-6l.776.2,2.24-1.293a10.066,10.066,0,0,0-.4-1.432,9.749,9.749,0,0,0-1.165-2.221,11.936,11.936,0,0,0-2.87-2.852l-.084-2.321-2.772-1.6-2.24,1.293.018.59,0,.128a2.605,2.605,0,0,0-.548.25c-.063.038-.116.078-.17.118-.261.192-1.552.865-2.07,1.175a2,2,0,0,0-.17.118,2.856,2.856,0,0,0-.861,2.563l-.006,0a7.262,7.262,0,0,0,1.125,3.584c.054.087.116.176.17.262l.018.029.189.267c.056.078.112.156.173.23.027.031.049.066.072.091.045.06.09.12.137.172a15.07,15.07,0,0,0,1.243,1.324c.192.182.39.36.588.533l-1.021-.255-2.24,1.293a10.7,10.7,0,0,0,4.221,6.057l.091,2.318,2.8,1.549,2.24-1.293-.028-.725a1.675,1.675,0,0,0,.45-.189l.017-.01c.338-.22,1.837-1.042,2.223-1.283l.017-.01c.641-.417.974-1.282.921-2.655" transform="translate(-51.413 -18.376)" fill="#ba68c8"/>
            <g id="Grupo_875681" data-name="Grupo 875681" transform="translate(64.502 24.656)">
              <g id="Grupo_875680" data-name="Grupo 875680">
                <g id="Grupo_875679" data-name="Grupo 875679" clip-path="url(#clip-path-23)">
                  <path id="Trazado_268786" data-name="Trazado 268786" d="M116.84,46.147c.571-.335,1.721-.939,1.964-1.116.059-.04.112-.079.171-.118a2.537,2.537,0,0,1,.552-.25l.06,1.668a2.686,2.686,0,0,0-2.745-.184" transform="translate(-116.84 -44.663)" fill="#c49927"/>
                </g>
              </g>
            </g>
            <g id="Grupo_875684" data-name="Grupo 875684" transform="translate(63.819 35.124)">
              <g id="Grupo_875683" data-name="Grupo 875683">
                <g id="Grupo_875682" data-name="Grupo 875682" clip-path="url(#clip-path-24)">
                  <path id="Trazado_268787" data-name="Trazado 268787" d="M122.656,68.163c.027.7-.374,1.044-1.537.407a4.142,4.142,0,0,1-2.167-2.817l-3.349-.84,2.24-1.287,1.017.25c.02.02.04.033.059.052.309.276.618.539.913.788.125.1.243.2.354.3a13.349,13.349,0,0,1,1.865,1.721,2.524,2.524,0,0,1,.519.913,1.937,1.937,0,0,1,.086.519" transform="translate(-115.603 -63.625)" fill="#c49927"/>
                </g>
              </g>
            </g>
            <g id="Grupo_875687" data-name="Grupo 875687" transform="translate(70.839 44.022)" opacity="0.2">
              <g id="Grupo_875686" data-name="Grupo 875686">
                <g id="Grupo_875685" data-name="Grupo 875685" clip-path="url(#clip-path-25)">
                  <path id="Trazado_268788" data-name="Trazado 268788" d="M130.618,80.045l.027.723-2.24,1.287-.085-2.311a3.816,3.816,0,0,0,2.3.3" transform="translate(-128.319 -79.743)"/>
                </g>
              </g>
            </g>
            <g id="Grupo_875690" data-name="Grupo 875690" transform="translate(67.161 22.647)">
              <g id="Grupo_875689" data-name="Grupo 875689">
                <g id="Grupo_875688" data-name="Grupo 875688" clip-path="url(#clip-path-26)">
                  <path id="Trazado_268789" data-name="Trazado 268789" d="M124.429,43.919l-2.771-1.6,2.239-1.293,2.778,1.6.079,2.319a11.83,11.83,0,0,1,2.87,2.856,9.78,9.78,0,0,1,1.169,2.22,10.3,10.3,0,0,1,.4,1.431l-2.239,1.294a10.057,10.057,0,0,0-.4-1.432,9.639,9.639,0,0,0-1.169-2.219,11.84,11.84,0,0,0-2.87-2.857Z" transform="translate(-121.658 -41.023)" fill="#c49927"/>
                </g>
              </g>
            </g>
            <g id="Grupo_875693" data-name="Grupo 875693" transform="translate(72.257 26.567)" opacity="0.2">
              <g id="Grupo_875692" data-name="Grupo 875692">
                <g id="Grupo_875691" data-name="Grupo 875691" clip-path="url(#clip-path-27)">
                  <path id="Trazado_268790" data-name="Trazado 268790" d="M130.889,48.125a8.981,8.981,0,0,1,2.52,2.141,7.786,7.786,0,0,1,1.519,2.935,14.52,14.52,0,0,0-1.752-2.746,16.067,16.067,0,0,0-1.088-1.209c-.382-.388-.789-.752-1.2-1.121" transform="translate(-130.889 -48.125)"/>
                </g>
              </g>
            </g>
            <g id="Grupo_875696" data-name="Grupo 875696" transform="translate(67.213 29.968)">
              <g id="Grupo_875695" data-name="Grupo 875695">
                <g id="Grupo_875694" data-name="Grupo 875694" clip-path="url(#clip-path-28)">
                  <path id="Trazado_268791" data-name="Trazado 268791" d="M130.381,67.144l-.013.007c-.387.243-1.885,1.064-2.226,1.287.643-.42.978-1.28.926-2.653-.118-3.054-1.937-5.044-3.868-6.712-1.8-1.543-3.388-2.5-3.448-3.98-.033-.926.571-1,1.484-.5a4.557,4.557,0,0,1,2.226,3.179l2.758.709.007.007a8.537,8.537,0,0,1,3.08,6c.052,1.372-.283,2.233-.926,2.653" transform="translate(-121.751 -54.285)" fill="#c49927"/>
                </g>
              </g>
            </g>
            <path id="Trazado_268792" data-name="Trazado 268792" d="M121.191,64.457l-2.24,1.293-3.35-.837,2.24-1.293Z" transform="translate(-51.783 -28.498)" fill="#ba68c8"/>
            <g id="Grupo_875699" data-name="Grupo 875699" transform="translate(63.818 35.121)">
              <g id="Grupo_875698" data-name="Grupo 875698">
                <g id="Grupo_875697" data-name="Grupo 875697" clip-path="url(#clip-path-29)">
                  <path id="Trazado_268793" data-name="Trazado 268793" d="M121.191,64.457l-2.24,1.293-3.35-.837,2.24-1.293Z" transform="translate(-115.601 -63.619)" fill="#c49927"/>
                </g>
              </g>
            </g>
            <path id="Trazado_268794" data-name="Trazado 268794" d="M128.406,82.056l-.09-2.318,2.3.3.028.726Z" transform="translate(-57.479 -35.719)" fill="#ba68c8"/>
            <g id="Grupo_875702" data-name="Grupo 875702" transform="translate(70.837 44.019)">
              <g id="Grupo_875701" data-name="Grupo 875701">
                <g id="Grupo_875700" data-name="Grupo 875700" clip-path="url(#clip-path-30)">
                  <path id="Trazado_268795" data-name="Trazado 268795" d="M128.406,82.056l-.09-2.318,2.3.3.028.726Z" transform="translate(-128.316 -79.738)" fill="#c49927"/>
                </g>
              </g>
            </g>
            <path id="Trazado_268796" data-name="Trazado 268796" d="M118.594,43.955l.063,1.794a2.675,2.675,0,0,0-2.846-.124,1.992,1.992,0,0,0-.17.118,2.857,2.857,0,0,0-.861,2.563l-.006,0a7.268,7.268,0,0,0,1.125,3.584c.054.087.117.176.171.262l.018.029.189.267c.056.077.112.155.173.229.027.031.049.066.072.092a2,2,0,0,0,.137.171,15.07,15.07,0,0,0,1.243,1.324c.21.2.425.4.642.582.311.274.623.538.919.788.125.1.24.2.355.3a13.8,13.8,0,0,1,1.864,1.721,2.577,2.577,0,0,1,.517.911,2.186,2.186,0,0,1,.087.519c.025.7-.375,1.049-1.539.408a4.11,4.11,0,0,1-2.167-2.816l-3.35-.837a10.7,10.7,0,0,0,4.221,6.057l.09,2.317,2.8,1.549-.09-2.318a3.121,3.121,0,0,0,2.751.11l.017-.01c.642-.417.974-1.282.921-2.655-.113-3.05-1.934-5.041-3.865-6.706-1.8-1.544-3.389-2.5-3.445-3.984-.033-.924.569-1,1.485-.494a4.568,4.568,0,0,1,2.226,3.177l3.529.911a10,10,0,0,0-.4-1.432A9.755,9.755,0,0,0,124.3,50.14a11.923,11.923,0,0,0-2.87-2.852l-.084-2.321-2.772-1.6Z" transform="translate(-51.413 -19.425)" fill="#ba68c8"/>
            <g id="Grupo_875705" data-name="Grupo 875705" transform="translate(63.362 23.94)">
              <g id="Grupo_875704" data-name="Grupo 875704">
                <g id="Grupo_875703" data-name="Grupo 875703" clip-path="url(#clip-path-31)">
                  <path id="Trazado_268797" data-name="Trazado 268797" d="M118.594,43.955l.063,1.794a2.675,2.675,0,0,0-2.846-.124,1.992,1.992,0,0,0-.17.118,2.857,2.857,0,0,0-.861,2.563l-.006,0a7.268,7.268,0,0,0,1.125,3.584c.054.087.117.176.171.262l.018.029.189.267c.056.077.112.155.173.229.027.031.049.066.072.092a2,2,0,0,0,.137.171,15.07,15.07,0,0,0,1.243,1.324c.21.2.425.4.642.582.311.274.623.538.919.788.125.1.24.2.355.3a13.8,13.8,0,0,1,1.864,1.721,2.577,2.577,0,0,1,.517.911,2.186,2.186,0,0,1,.087.519c.025.7-.375,1.049-1.539.408a4.11,4.11,0,0,1-2.167-2.816l-3.35-.837a10.7,10.7,0,0,0,4.221,6.057l.09,2.317,2.8,1.549-.09-2.318a3.121,3.121,0,0,0,2.751.11l.017-.01c.642-.417.974-1.282.921-2.655-.113-3.05-1.934-5.041-3.865-6.706-1.8-1.544-3.389-2.5-3.445-3.984-.033-.924.569-1,1.485-.494a4.568,4.568,0,0,1,2.226,3.177l3.529.911a10,10,0,0,0-.4-1.432A9.755,9.755,0,0,0,124.3,50.14a11.923,11.923,0,0,0-2.87-2.852l-.084-2.321-2.772-1.6Z" transform="translate(-114.775 -43.365)" fill="#ffc631"/>
                </g>
              </g>
            </g>
            <path id="Trazado_268798" data-name="Trazado 268798" d="M129.068,66.436a7.645,7.645,0,0,0-.918-3.178,10.7,10.7,0,0,0-2.053-2.6c-.789-.784-1.672-1.468-2.525-2.192a9.723,9.723,0,0,1-1.2-1.181,2.585,2.585,0,0,1-.616-1.537,2.549,2.549,0,0,0,.678,1.487,9.678,9.678,0,0,0,1.217,1.134c.866.7,1.752,1.39,2.558,2.171a10.451,10.451,0,0,1,2.05,2.66,7.5,7.5,0,0,1,.6,1.573,8.188,8.188,0,0,1,.208,1.664" transform="translate(-54.541 -24.971)" fill="#fff"/>
            <path id="Trazado_268799" data-name="Trazado 268799" d="M126.683,45.218l2.24-1.293.084,2.32-2.24,1.293Z" transform="translate(-56.748 -19.676)" fill="#ba68c8"/>
            <g id="Grupo_875708" data-name="Grupo 875708" transform="translate(69.936 24.249)">
              <g id="Grupo_875707" data-name="Grupo 875707">
                <g id="Grupo_875706" data-name="Grupo 875706" clip-path="url(#clip-path-32)">
                  <path id="Trazado_268800" data-name="Trazado 268800" d="M126.683,45.218l2.24-1.293.084,2.32-2.24,1.293Z" transform="translate(-126.683 -43.925)" fill="#c49927"/>
                </g>
              </g>
            </g>
            <path id="Trazado_268801" data-name="Trazado 268801" d="M121.661,43.365l2.517,1.738.34,2.185-.084-2.321Z" transform="translate(-54.498 -19.425)" fill="#fafafa"/>
            <path id="Trazado_268802" data-name="Trazado 268802" d="M123.247,76.933l.317,2.172,2.571,1.695-2.8-1.549Z" transform="translate(-55.209 -34.462)" fill="#fafafa"/>
            <g id="Grupo_875711" data-name="Grupo 875711" transform="translate(63.818 36.414)" opacity="0.25">
              <g id="Grupo_875710" data-name="Grupo 875710">
                <g id="Grupo_875709" data-name="Grupo 875709" clip-path="url(#clip-path-33)">
                  <path id="Trazado_268803" data-name="Trazado 268803" d="M115.6,65.962a10,10,0,0,0,.412,1.249l.918-.917Z" transform="translate(-115.601 -65.962)" fill="#fff"/>
                </g>
              </g>
            </g>
            <g id="Grupo_875714" data-name="Grupo 875714" transform="translate(68.07 37.891)" opacity="0.25">
              <g id="Grupo_875713" data-name="Grupo 875713">
                <g id="Grupo_875712" data-name="Grupo 875712" clip-path="url(#clip-path-34)">
                  <path id="Trazado_268804" data-name="Trazado 268804" d="M129.753,72.107a7.361,7.361,0,0,0-1.06-3.47L123.3,74.026l.059,1.508,1.908,1.056.839-.839-.038-.986a6.313,6.313,0,0,0,.774.25Z" transform="translate(-123.304 -68.637)" fill="#fff"/>
                </g>
              </g>
            </g>
            <g id="Grupo_875717" data-name="Grupo 875717" transform="translate(63.396 24.539)" opacity="0.25">
              <g id="Grupo_875716" data-name="Grupo 875716">
                <g id="Grupo_875715" data-name="Grupo 875715" clip-path="url(#clip-path-35)">
                  <path id="Trazado_268805" data-name="Trazado 268805" d="M114.837,49.255a7.086,7.086,0,0,0,.532,2.045l5.905-5.906-1.634-.944-.984.985.028.8a2.681,2.681,0,0,0-.543-.285Z" transform="translate(-114.837 -44.451)" fill="#fff"/>
                </g>
              </g>
            </g>
            <g id="Grupo_875720" data-name="Grupo 875720" transform="translate(64.494 26.987)" opacity="0.25">
              <g id="Grupo_875719" data-name="Grupo 875719">
                <g id="Grupo_875718" data-name="Grupo 875718" clip-path="url(#clip-path-36)">
                  <path id="Trazado_268806" data-name="Trazado 268806" d="M117.008,54.657l.189.267c.056.078.112.155.173.229.028.031.049.066.072.092.045.06.091.12.137.171a15.078,15.078,0,0,0,1.243,1.324c.1.092.2.178.295.267l1.952-1.952a3.518,3.518,0,0,1-1.52-2.383c-.033-.925.57-1,1.485-.495a4.279,4.279,0,0,1,1.507,1.407l1.924-1.925a12.438,12.438,0,0,0-2.112-1.9l-.031-.876-5.493,5.493c.052.083.111.167.162.25Z" transform="translate(-116.827 -48.885)" fill="#fff"/>
                </g>
              </g>
            </g>
            <path id="Trazado_268807" data-name="Trazado 268807" d="M15.292,59.14a.875.875,0,0,1-1.138.486L6.3,56.475A.875.875,0,0,1,6.95,54.85L14.806,58a.875.875,0,0,1,.486,1.138" transform="translate(-2.575 -24.542)" fill="#e0e0e0"/>
            <path id="Trazado_268808" data-name="Trazado 268808" d="M41.626,34.668a.875.875,0,0,1-1.691-.041L37.95,26.4a.876.876,0,1,1,1.7-.411l1.985,8.228a.873.873,0,0,1-.012.452" transform="translate(-16.989 -11.341)" fill="#e0e0e0"/>
            <path id="Trazado_268809" data-name="Trazado 268809" d="M26.088,43.068a.875.875,0,0,1-1.473.359l-5.849-6.118A.876.876,0,0,1,20.032,36.1l5.849,6.118a.876.876,0,0,1,.207.851" transform="translate(-8.298 -16.049)" fill="#e0e0e0"/>
          </g>
        </g>
        <g id="Grupo_875748" data-name="Grupo 875748">
          <g id="Grupo_875747" data-name="Grupo 875747" clip-path="url(#clip-path-2)">
            <path id="Trazado_268810" data-name="Trazado 268810" d="M209.135,227.336l-37.323-37.322a1.42,1.42,0,0,0-1.011-.418H161.8v-.716H170.8a2.133,2.133,0,0,1,1.518.629l37.321,37.321Z" transform="translate(-72.476 -84.609)" fill="#455a64"/>
            <path id="Trazado_268811" data-name="Trazado 268811" d="M158.463,188.035a1.84,1.84,0,1,0,1.84-1.84,1.84,1.84,0,0,0-1.84,1.84" transform="translate(-70.983 -83.406)" fill="#455a64"/>
            <path id="Trazado_268812" data-name="Trazado 268812" d="M192.338,233.146a30.732,30.732,0,1,0,30.732-30.732,30.732,30.732,0,0,0-30.732,30.732" transform="translate(-86.158 -90.671)" fill="#fff"/>
            <path id="Trazado_268813" data-name="Trazado 268813" d="M222.779,263.947a31.09,31.09,0,1,1,31.09-31.09,31.125,31.125,0,0,1-31.09,31.09m0-61.464a30.374,30.374,0,1,0,30.374,30.374,30.408,30.408,0,0,0-30.374-30.374" transform="translate(-85.867 -90.381)" fill="#ba68c8"/>
            <path id="Trazado_268814" data-name="Trazado 268814" d="M243.538,248.942h-31.46a.826.826,0,0,1-.826-.826v-18.6a.826.826,0,0,1,.826-.826h31.46a.826.826,0,0,1,.826.826v18.6a.826.826,0,0,1-.826.826" transform="translate(-94.63 -102.441)" fill="#fafafa"/>
            <g id="Grupo_875725" data-name="Grupo 875725" transform="translate(117.831 126.248)" opacity="0.3">
              <g id="Grupo_875724" data-name="Grupo 875724">
                <g id="Grupo_875723" data-name="Grupo 875723" clip-path="url(#clip-path-38)">
                  <path id="Trazado_268815" data-name="Trazado 268815" d="M244.52,228.689H213.443v5.594h31.9v-4.768a.826.826,0,0,0-.826-.826" transform="translate(-213.443 -228.689)" fill="#ba68c8"/>
                </g>
              </g>
            </g>
            <path id="Trazado_268816" data-name="Trazado 268816" d="M243.392,248.976h-31.46a1.007,1.007,0,0,1-1.005-1.006v-18.6a1.006,1.006,0,0,1,1.005-1.005h31.46a1.006,1.006,0,0,1,1.005,1.005v18.6a1.007,1.007,0,0,1-1.005,1.006m-31.46-20.253a.649.649,0,0,0-.648.648v18.6a.649.649,0,0,0,.648.648h31.46a.648.648,0,0,0,.648-.648v-18.6a.648.648,0,0,0-.648-.648Z" transform="translate(-94.484 -102.296)" fill="#455a64"/>
            <path id="Trazado_268817" data-name="Trazado 268817" d="M244.24,240.814H211.153a.179.179,0,1,1,0-.358H244.24a.179.179,0,1,1,0,.358" transform="translate(-94.506 -107.712)" fill="#455a64"/>
            <g id="Grupo_875728" data-name="Grupo 875728" transform="translate(141.593 140.91)" opacity="0.3">
              <g id="Grupo_875727" data-name="Grupo 875727">
                <g id="Grupo_875726" data-name="Grupo 875726" clip-path="url(#clip-path-39)">
                  <path id="Trazado_268818" data-name="Trazado 268818" d="M260.277,257.143a1.9,1.9,0,1,1-1.9-1.9,1.9,1.9,0,0,1,1.9,1.9" transform="translate(-256.486 -255.248)" fill="#ba68c8"/>
                </g>
              </g>
            </g>
            <g id="Grupo_875731" data-name="Grupo 875731" transform="translate(144.297 140.91)" opacity="0.3">
              <g id="Grupo_875730" data-name="Grupo 875730">
                <g id="Grupo_875729" data-name="Grupo 875729" clip-path="url(#clip-path-40)">
                  <path id="Trazado_268819" data-name="Trazado 268819" d="M265.174,257.143a1.9,1.9,0,1,1-1.9-1.9,1.9,1.9,0,0,1,1.9,1.9" transform="translate(-261.384 -255.248)" fill="#ba68c8"/>
                </g>
              </g>
            </g>
            <g id="Grupo_875734" data-name="Grupo 875734" transform="translate(142.91 138.562)" opacity="0.3">
              <g id="Grupo_875733" data-name="Grupo 875733">
                <g id="Grupo_875732" data-name="Grupo 875732" clip-path="url(#clip-path-39)">
                  <path id="Trazado_268820" data-name="Trazado 268820" d="M262.661,252.89a1.9,1.9,0,1,1-1.9-1.9,1.9,1.9,0,0,1,1.9,1.9" transform="translate(-258.87 -250.995)" fill="#ba68c8"/>
                </g>
              </g>
            </g>
            <rect id="Rectángulo_293016" data-name="Rectángulo 293016" width="0.754" height="2.094" transform="translate(118.184 138.562)" fill="#455a64"/>
            <rect id="Rectángulo_293017" data-name="Rectángulo 293017" width="0.754" height="2.094" transform="translate(119.428 138.562)" fill="#455a64"/>
            <rect id="Rectángulo_293018" data-name="Rectángulo 293018" width="0.754" height="2.094" transform="translate(120.671 138.562)" fill="#455a64"/>
            <rect id="Rectángulo_293019" data-name="Rectángulo 293019" width="0.754" height="2.094" transform="translate(121.915 138.562)" fill="#455a64"/>
            <rect id="Rectángulo_293020" data-name="Rectángulo 293020" width="0.754" height="2.094" transform="translate(124.069 138.562)" fill="#455a64"/>
            <rect id="Rectángulo_293021" data-name="Rectángulo 293021" width="0.754" height="2.094" transform="translate(125.312 138.562)" fill="#455a64"/>
            <rect id="Rectángulo_293022" data-name="Rectángulo 293022" width="0.754" height="2.094" transform="translate(126.556 138.562)" fill="#455a64"/>
            <rect id="Rectángulo_293023" data-name="Rectángulo 293023" width="0.754" height="2.094" transform="translate(127.799 138.562)" fill="#455a64"/>
            <rect id="Rectángulo_293024" data-name="Rectángulo 293024" width="0.754" height="2.094" transform="translate(129.953 138.562)" fill="#455a64"/>
            <rect id="Rectángulo_293025" data-name="Rectángulo 293025" width="0.754" height="2.094" transform="translate(131.196 138.562)" fill="#455a64"/>
            <rect id="Rectángulo_293026" data-name="Rectángulo 293026" width="0.754" height="2.094" transform="translate(132.44 138.562)" fill="#455a64"/>
            <rect id="Rectángulo_293027" data-name="Rectángulo 293027" width="0.754" height="2.094" transform="translate(133.683 138.562)" fill="#455a64"/>
            <rect id="Rectángulo_293028" data-name="Rectángulo 293028" width="0.754" height="2.094" transform="translate(135.837 138.562)" fill="#455a64"/>
            <rect id="Rectángulo_293029" data-name="Rectángulo 293029" width="0.754" height="2.094" transform="translate(137.08 138.562)" fill="#455a64"/>
            <rect id="Rectángulo_293030" data-name="Rectángulo 293030" width="0.754" height="2.094" transform="translate(138.324 138.562)" fill="#455a64"/>
            <rect id="Rectángulo_293031" data-name="Rectángulo 293031" width="0.754" height="2.094" transform="translate(139.567 138.562)" fill="#455a64"/>
            <path id="Trazado_268821" data-name="Trazado 268821" d="M228.193,258.715H213.938a.179.179,0,0,1,0-.358h14.255a.179.179,0,1,1,0,.358" transform="translate(-95.753 -115.731)" fill="#455a64"/>
            <path id="Trazado_268822" data-name="Trazado 268822" d="M252.81,272.2l-30.128-9.059a.826.826,0,0,1-.553-1.03l5.355-17.812a.826.826,0,0,1,1.03-.553l30.128,9.059a.827.827,0,0,1,.553,1.03l-5.355,17.811a.827.827,0,0,1-1.03.554" transform="translate(-99.487 -109.17)" fill="#ba68c8"/>
            <g id="Grupo_875737" data-name="Grupo 875737" transform="translate(122.607 134.54)" opacity="0.5">
              <g id="Grupo_875736" data-name="Grupo 875736">
                <g id="Grupo_875735" data-name="Grupo 875735" clip-path="url(#clip-path-42)">
                  <path id="Trazado_268823" data-name="Trazado 268823" d="M252.81,272.2l-30.128-9.059a.826.826,0,0,1-.553-1.03l5.355-17.812a.826.826,0,0,1,1.03-.553l30.128,9.059a.827.827,0,0,1,.553,1.03l-5.355,17.811a.827.827,0,0,1-1.03.554" transform="translate(-222.094 -243.711)" fill="#fff"/>
                </g>
              </g>
            </g>
            <path id="Trazado_268824" data-name="Trazado 268824" d="M262.842,252.923l-29.761-8.949-1.611,5.358,30.552,9.186,1.373-4.565a.827.827,0,0,0-.554-1.03" transform="translate(-103.687 -109.288)" fill="#fafafa"/>
            <path id="Trazado_268825" data-name="Trazado 268825" d="M252.9,272.268a1.028,1.028,0,0,1-.289-.042l-30.128-9.059a1.006,1.006,0,0,1-.673-1.253l5.356-17.812a1.005,1.005,0,0,1,1.252-.672l30.128,9.059a1.006,1.006,0,0,1,.672,1.252l-5.355,17.812a1.008,1.008,0,0,1-.963.715M228.13,243.744a.649.649,0,0,0-.619.461l-5.356,17.813a.646.646,0,0,0,.434.805l30.127,9.059a.648.648,0,0,0,.807-.433l5.355-17.812a.647.647,0,0,0-.433-.806l-30.128-9.059a.641.641,0,0,0-.187-.028" transform="translate(-99.341 -109.025)" fill="#455a64"/>
            <path id="Trazado_268826" data-name="Trazado 268826" d="M260.394,264.5a.19.19,0,0,1-.052-.008l-31.686-9.527a.18.18,0,0,1-.12-.224.182.182,0,0,1,.223-.12l31.686,9.527a.179.179,0,0,1-.052.351" transform="translate(-102.369 -114.053)" fill="#455a64"/>
            <g id="Grupo_875740" data-name="Grupo 875740" transform="translate(147.302 156.034)" opacity="0.5">
              <g id="Grupo_875739" data-name="Grupo 875739">
                <g id="Grupo_875738" data-name="Grupo 875738" clip-path="url(#clip-path-43)">
                  <path id="Trazado_268827" data-name="Trazado 268827" d="M270.538,285.086a1.9,1.9,0,1,1-1.269-2.361,1.9,1.9,0,0,1,1.269,2.361" transform="translate(-266.827 -282.644)" fill="#fff"/>
                </g>
              </g>
            </g>
            <g id="Grupo_875743" data-name="Grupo 875743" transform="translate(149.891 156.813)" opacity="0.5">
              <g id="Grupo_875742" data-name="Grupo 875742">
                <g id="Grupo_875741" data-name="Grupo 875741" clip-path="url(#clip-path-44)">
                  <path id="Trazado_268828" data-name="Trazado 268828" d="M275.228,286.5a1.9,1.9,0,1,1-1.269-2.361,1.9,1.9,0,0,1,1.269,2.361" transform="translate(-271.517 -284.055)" fill="#fff"/>
                </g>
              </g>
            </g>
            <g id="Grupo_875746" data-name="Grupo 875746" transform="translate(149.239 154.165)" opacity="0.5">
              <g id="Grupo_875745" data-name="Grupo 875745">
                <g id="Grupo_875744" data-name="Grupo 875744" clip-path="url(#clip-path-44)">
                  <path id="Trazado_268829" data-name="Trazado 268829" d="M274.046,281.7a1.9,1.9,0,1,1-1.269-2.361,1.9,1.9,0,0,1,1.269,2.361" transform="translate(-270.335 -279.258)" fill="#fff"/>
                </g>
              </g>
            </g>
            <rect id="Rectángulo_293036" data-name="Rectángulo 293036" width="2.094" height="0.754" transform="translate(125.584 148.586) rotate(-73.277)" fill="#455a64"/>
            <rect id="Rectángulo_293037" data-name="Rectángulo 293037" width="2.094" height="0.754" transform="translate(126.775 148.944) rotate(-73.277)" fill="#455a64"/>
            <rect id="Rectángulo_293038" data-name="Rectángulo 293038" width="2.094" height="0.754" transform="translate(127.966 149.302) rotate(-73.277)" fill="#455a64"/>
            <rect id="Rectángulo_293039" data-name="Rectángulo 293039" width="2.094" height="0.754" transform="translate(129.157 149.66) rotate(-73.277)" fill="#455a64"/>
            <rect id="Rectángulo_293040" data-name="Rectángulo 293040" width="2.094" height="0.754" transform="translate(131.219 150.28) rotate(-73.277)" fill="#455a64"/>
            <rect id="Rectángulo_293041" data-name="Rectángulo 293041" width="2.094" height="0.754" transform="translate(132.41 150.638) rotate(-73.277)" fill="#455a64"/>
            <rect id="Rectángulo_293042" data-name="Rectángulo 293042" width="2.094" height="0.754" transform="translate(133.601 150.997) rotate(-73.277)" fill="#455a64"/>
            <rect id="Rectángulo_293043" data-name="Rectángulo 293043" width="2.094" height="0.754" transform="translate(134.792 151.355) rotate(-73.277)" fill="#455a64"/>
            <rect id="Rectángulo_293044" data-name="Rectángulo 293044" width="2.094" height="0.754" transform="translate(136.854 151.975) rotate(-73.277)" fill="#455a64"/>
            <rect id="Rectángulo_293045" data-name="Rectángulo 293045" width="2.094" height="0.754" transform="translate(138.045 152.333) rotate(-73.277)" fill="#455a64"/>
            <rect id="Rectángulo_293046" data-name="Rectángulo 293046" width="2.094" height="0.754" transform="translate(139.236 152.691) rotate(-73.277)" fill="#455a64"/>
            <rect id="Rectángulo_293047" data-name="Rectángulo 293047" width="2.094" height="0.754" transform="translate(140.427 153.049) rotate(-73.277)" fill="#455a64"/>
            <rect id="Rectángulo_293048" data-name="Rectángulo 293048" width="2.094" height="0.754" transform="translate(142.489 153.669) rotate(-73.277)" fill="#455a64"/>
            <rect id="Rectángulo_293049" data-name="Rectángulo 293049" width="2.094" height="0.754" transform="translate(143.68 154.027) rotate(-73.277)" fill="#455a64"/>
            <rect id="Rectángulo_293050" data-name="Rectángulo 293050" width="2.094" height="0.754" transform="translate(144.871 154.385) rotate(-73.277)" fill="#455a64"/>
            <rect id="Rectángulo_293051" data-name="Rectángulo 293051" width="2.094" height="0.754" transform="translate(146.062 154.743) rotate(-73.277)" fill="#455a64"/>
            <path id="Trazado_268830" data-name="Trazado 268830" d="M239.872,277.019a.191.191,0,0,1-.052-.008l-13.651-4.1a.179.179,0,1,1,.1-.343l13.652,4.1a.179.179,0,0,1-.052.351" transform="translate(-101.255 -122.092)" fill="#455a64"/>
          </g>
        </g>
        <g id="Grupo_875774" data-name="Grupo 875774">
          <g id="Grupo_875773" data-name="Grupo 875773" clip-path="url(#clip-path-2)">
            <path id="Trazado_268831" data-name="Trazado 268831" d="M178.571,102.118h-8.455v-.588h8.455a1.49,1.49,0,0,0,1.24-.66l30.2-44.849.487.328L180.3,101.2a2.078,2.078,0,0,1-1.727.92" transform="translate(-76.203 -25.095)" fill="#455a64"/>
            <path id="Trazado_268832" data-name="Trazado 268832" d="M166.783,137.5a1.84,1.84,0,1,0,1.84-1.84,1.84,1.84,0,0,0-1.84,1.84" transform="translate(-74.71 -60.767)" fill="#455a64"/>
            <path id="Trazado_268833" data-name="Trazado 268833" d="M187.156,31.38A30.732,30.732,0,1,0,217.888.648,30.732,30.732,0,0,0,187.156,31.38" transform="translate(-83.836 -0.29)" fill="#fff"/>
            <path id="Trazado_268834" data-name="Trazado 268834" d="M217.6,62.18a31.09,31.09,0,1,1,31.089-31.09A31.125,31.125,0,0,1,217.6,62.18m0-61.464A30.374,30.374,0,1,0,247.972,31.09,30.409,30.409,0,0,0,217.6.716" transform="translate(-83.546)" fill="#ba68c8"/>
            <g id="Grupo_875751" data-name="Grupo 875751" transform="translate(135.817 31.278)" opacity="0.3">
              <g id="Grupo_875750" data-name="Grupo 875750">
                <g id="Grupo_875749" data-name="Grupo 875749" clip-path="url(#clip-path-47)">
                  <path id="Trazado_268835" data-name="Trazado 268835" d="M246.023,56.657h16.051v2.288H248.736Z" transform="translate(-246.023 -56.657)" fill="#ba68c8"/>
                </g>
              </g>
            </g>
            <g id="Grupo_875754" data-name="Grupo 875754" transform="translate(110.245 21.214)" opacity="0.3">
              <g id="Grupo_875753" data-name="Grupo 875753">
                <g id="Grupo_875752" data-name="Grupo 875752" clip-path="url(#clip-path-48)">
                  <path id="Trazado_268836" data-name="Trazado 268836" d="M210.547,53.571v1.7l1.537-1.295-.025,2.41A9.254,9.254,0,0,1,199.7,47.67a9.005,9.005,0,0,1,.089-1.275,6.67,6.67,0,1,0,6.783-7.654,8.97,8.97,0,0,1,2.378-.313,9.24,9.24,0,0,1,9.226,8.7Z" transform="translate(-199.701 -38.427)" fill="#ba68c8"/>
                </g>
              </g>
            </g>
            <g id="Grupo_875757" data-name="Grupo 875757" transform="translate(128.738 14.553)" opacity="0.3">
              <g id="Grupo_875756" data-name="Grupo 875756">
                <g id="Grupo_875755" data-name="Grupo 875755" clip-path="url(#clip-path-49)">
                  <path id="Trazado_268837" data-name="Trazado 268837" d="M256.329,28.748h-2.723v-.561h-6.741v.561h-4.2v-.561h-6.741v.561H233.2V26.362h23.13Z" transform="translate(-233.2 -26.362)" fill="#ba68c8"/>
                </g>
              </g>
            </g>
            <g id="Grupo_875760" data-name="Grupo 875760" transform="translate(122.628 29.306)" opacity="0.3">
              <g id="Grupo_875759" data-name="Grupo 875759">
                <g id="Grupo_875758" data-name="Grupo 875758" clip-path="url(#clip-path-50)">
                  <path id="Trazado_268838" data-name="Trazado 268838" d="M222.132,63.019l10.3-8.688-1.466-1.246-8.837,7.454Z" transform="translate(-222.132 -53.085)" fill="#ba68c8"/>
                </g>
              </g>
            </g>
            <rect id="Rectángulo_293057" data-name="Rectángulo 293057" width="6.741" height="8.619" transform="translate(142.404 16.875)" fill="#ba68c8"/>
            <g id="Grupo_875763" data-name="Grupo 875763" transform="translate(142.404 16.875)" opacity="0.5">
              <g id="Grupo_875762" data-name="Grupo 875762">
                <g id="Grupo_875761" data-name="Grupo 875761" clip-path="url(#clip-path-51)">
                  <rect id="Rectángulo_293058" data-name="Rectángulo 293058" width="6.741" height="8.619" transform="translate(0 -0.001)" fill="#fff"/>
                </g>
              </g>
            </g>
            <path id="Trazado_268839" data-name="Trazado 268839" d="M257.954,38.817v2.3h.958l5.783-3.374V34.885Z" transform="translate(-115.55 -15.627)" fill="#fff"/>
            <path id="Trazado_268840" data-name="Trazado 268840" d="M266.673,41.632l-4.3,2.51h1.7l2.605-1.52Z" transform="translate(-117.528 -18.649)" fill="#fff"/>
            <path id="Trazado_268841" data-name="Trazado 268841" d="M264.55,38.817h-6.741a.18.18,0,0,1-.179-.179V29.522a.179.179,0,0,1,.179-.179h6.741a.179.179,0,0,1,.179.179v9.116a.18.18,0,0,1-.179.179m-6.562-.358h6.383V29.7h-6.383Z" transform="translate(-115.405 -13.144)" fill="#455a64"/>
            <path id="Trazado_268842" data-name="Trazado 268842" d="M264.55,32.985h-6.741a.179.179,0,1,1,0-.358h6.741a.179.179,0,1,1,0,.358" transform="translate(-115.405 -14.615)" fill="#455a64"/>
            <rect id="Rectángulo_293060" data-name="Rectángulo 293060" width="6.741" height="8.619" transform="translate(131.461 16.875)" fill="#ba68c8"/>
            <g id="Grupo_875766" data-name="Grupo 875766" transform="translate(131.461 16.875)" opacity="0.5">
              <g id="Grupo_875765" data-name="Grupo 875765">
                <g id="Grupo_875764" data-name="Grupo 875764" clip-path="url(#clip-path-51)">
                  <rect id="Rectángulo_293061" data-name="Rectángulo 293061" width="6.741" height="8.619" transform="translate(0 -0.001)" fill="#fff"/>
                </g>
              </g>
            </g>
            <path id="Trazado_268843" data-name="Trazado 268843" d="M238.132,38.817v2.3h.958l5.783-3.374V34.885Z" transform="translate(-106.671 -15.627)" fill="#fff"/>
            <path id="Trazado_268844" data-name="Trazado 268844" d="M246.851,41.632l-4.3,2.51h1.7l2.605-1.52Z" transform="translate(-108.649 -18.649)" fill="#fff"/>
            <path id="Trazado_268845" data-name="Trazado 268845" d="M244.728,38.817h-6.741a.179.179,0,0,1-.179-.179V29.522a.179.179,0,0,1,.179-.179h6.741a.179.179,0,0,1,.179.179v9.116a.179.179,0,0,1-.179.179m-6.562-.358h6.383V29.7h-6.383Z" transform="translate(-106.526 -13.144)" fill="#455a64"/>
            <path id="Trazado_268846" data-name="Trazado 268846" d="M244.728,32.985h-6.741a.179.179,0,1,1,0-.358h6.741a.179.179,0,1,1,0,.358" transform="translate(-106.526 -14.615)" fill="#455a64"/>
            <rect id="Rectángulo_293063" data-name="Rectángulo 293063" width="10.348" height="7.467" transform="translate(126.305 37.399)" fill="#ba68c8"/>
            <g id="Grupo_875769" data-name="Grupo 875769" transform="translate(126.305 37.399)" opacity="0.5">
              <g id="Grupo_875768" data-name="Grupo 875768">
                <g id="Grupo_875767" data-name="Grupo 875767" clip-path="url(#clip-path-53)">
                  <rect id="Rectángulo_293064" data-name="Rectángulo 293064" width="10.348" height="7.467" transform="translate(0 0.001)" fill="#fff"/>
                </g>
              </g>
            </g>
            <path id="Trazado_268847" data-name="Trazado 268847" d="M237.125,67.745l-8.334,5.487v1.98h.759L239.14,68.9V67.745Z" transform="translate(-102.487 -30.346)" fill="#fff"/>
            <path id="Trazado_268848" data-name="Trazado 268848" d="M240.676,72.047v-.858l-8.454,5.566h1.3Z" transform="translate(-104.024 -31.889)" fill="#fff"/>
            <path id="Trazado_268849" data-name="Trazado 268849" d="M238.995,74.9H228.647a.18.18,0,0,1-.179-.179v-7.9a.179.179,0,0,1,.179-.179h10.348a.179.179,0,0,1,.179.179v7.9a.18.18,0,0,1-.179.179m-10.168-.358h9.99V67h-9.99Z" transform="translate(-102.342 -29.852)" fill="#455a64"/>
            <path id="Trazado_268850" data-name="Trazado 268850" d="M238.973,69.845H228.6a.179.179,0,1,1,0-.358h10.375a.179.179,0,1,1,0,.358" transform="translate(-102.32 -31.127)" fill="#455a64"/>
            <path id="Trazado_268851" data-name="Trazado 268851" d="M238.041,74.9a.179.179,0,0,1-.179-.179v-7.9a.179.179,0,1,1,.358,0v7.9a.179.179,0,0,1-.179.179" transform="translate(-106.55 -29.852)" fill="#455a64"/>
            <rect id="Rectángulo_293066" data-name="Rectángulo 293066" width="1.669" height="7.981" transform="translate(145.833 37.229)" fill="#ba68c8"/>
            <g id="Grupo_875772" data-name="Grupo 875772" transform="translate(145.833 37.229)" opacity="0.5">
              <g id="Grupo_875771" data-name="Grupo 875771">
                <g id="Grupo_875770" data-name="Grupo 875770" clip-path="url(#clip-path-54)">
                  <rect id="Rectángulo_293067" data-name="Rectángulo 293067" width="1.669" height="7.981" fill="#fff"/>
                </g>
              </g>
            </g>
            <path id="Trazado_268852" data-name="Trazado 268852" d="M264.166,73.96v2.289l1.669-1.1V72.861Z" transform="translate(-118.333 -32.638)" fill="#fff"/>
            <path id="Trazado_268853" data-name="Trazado 268853" d="M264.166,79.356v.792l1.669-1.1v-.792Z" transform="translate(-118.333 -35.055)" fill="#fff"/>
            <path id="Trazado_268854" data-name="Trazado 268854" d="M265.455,75.13h-2.464a.179.179,0,0,1-.179-.179V66.572a.179.179,0,0,1,.179-.179h2.464a.179.179,0,0,1,.179.179V74.95a.179.179,0,0,1-.179.179m-2.285-.358h2.106V66.751H263.17Z" transform="translate(-117.726 -29.741)" fill="#455a64"/>
            <path id="Trazado_268855" data-name="Trazado 268855" d="M265.855,84.539h-6.708a.18.18,0,0,1-.179-.179v-.735a.18.18,0,0,1,.179-.179h6.708a.18.18,0,0,1,.179.179v.735a.18.18,0,0,1-.179.179m-6.529-.358h6.35V83.8h-6.35Z" transform="translate(-116.004 -37.38)" fill="#455a64"/>
            <path id="Trazado_268856" data-name="Trazado 268856" d="M265.762,75.325h-5.725a.179.179,0,0,1-.179-.179V64.7a.179.179,0,0,1,.179-.179h5.725a.179.179,0,0,1,.179.179v10.45a.179.179,0,0,1-.179.179m-5.546-.358h5.368V64.875h-5.368Z" transform="translate(-116.403 -28.9)" fill="#455a64"/>
            <path id="Trazado_268857" data-name="Trazado 268857" d="M256.184,72.394h-23.13a.179.179,0,1,1,0-.358h22.951V56.512a.179.179,0,0,1,.358,0v15.7a.179.179,0,0,1-.179.179" transform="translate(-104.316 -25.234)" fill="#455a64"/>
            <path id="Trazado_268858" data-name="Trazado 268858" d="M233.054,41.751a.179.179,0,0,1-.179-.179V26.217a.179.179,0,0,1,.179-.179h23.13a.18.18,0,0,1,.179.179V41.3a.179.179,0,1,1-.358,0V26.4H233.233V41.572a.179.179,0,0,1-.179.179" transform="translate(-104.316 -11.664)" fill="#455a64"/>
            <path id="Trazado_268859" data-name="Trazado 268859" d="M256.46,25.068H230.408a.179.179,0,0,1-.179-.179V23.252a.179.179,0,0,1,.179-.179H256.46a.18.18,0,0,1,.179.179v1.637a.179.179,0,0,1-.179.179m-25.873-.358h25.694V23.431H230.587Z" transform="translate(-103.131 -10.336)" fill="#455a64"/>
            <path id="Trazado_268860" data-name="Trazado 268860" d="M261.833,55.363H244.321a.176.176,0,0,1-.116-.043l-1.919-1.637a.179.179,0,0,1,.116-.315h19.431a.18.18,0,0,1,.179.179v1.637a.179.179,0,0,1-.179.179M244.387,55h17.267V53.726H242.887Z" transform="translate(-108.504 -23.906)" fill="#455a64"/>
            <path id="Trazado_268861" data-name="Trazado 268861" d="M239.661,70.793H221.986a.179.179,0,0,1-.179-.179V60.393a.177.177,0,0,1,.063-.137l8.838-7.454a.178.178,0,0,1,.23,0l8.838,7.454a.177.177,0,0,1,.064.137V70.614a.179.179,0,0,1-.179.179m-17.5-.358h17.317V60.476l-8.658-7.3-8.659,7.3Z" transform="translate(-99.358 -23.634)" fill="#455a64"/>
            <path id="Trazado_268862" data-name="Trazado 268862" d="M219.2,60.49a.183.183,0,0,1-.076-.017.18.18,0,0,1-.1-.162v-1.7a.178.178,0,0,1,.063-.137l10.374-8.748a.179.179,0,0,1,.294.137v1.7a.178.178,0,0,1-.063.137l-10.374,8.748a.18.18,0,0,1-.115.042m.179-1.793v1.229L229.4,51.48V50.25Z" transform="translate(-98.112 -22.257)" fill="#455a64"/>
            <path id="Trazado_268863" data-name="Trazado 268863" d="M248.37,60.49a.178.178,0,0,1-.115-.042L237.88,51.7a.176.176,0,0,1-.063-.137v-1.7a.179.179,0,0,1,.294-.137l10.375,8.748a.178.178,0,0,1,.063.137v1.7a.179.179,0,0,1-.179.179m-10.2-9.01,10.017,8.446V58.7l-10.017-8.446Z" transform="translate(-106.529 -22.257)" fill="#455a64"/>
            <path id="Trazado_268864" data-name="Trazado 268864" d="M216.32,76.36a.179.179,0,0,1-.179-.179V65.365a.179.179,0,1,1,.358,0V76.181a.179.179,0,0,1-.179.179" transform="translate(-96.82 -29.2)" fill="#455a64"/>
            <path id="Trazado_268865" data-name="Trazado 268865" d="M216.32,72.545a.179.179,0,0,1,0-.358,3.3,3.3,0,0,0,2.968-1.878.179.179,0,0,1,.324.153,3.66,3.66,0,0,1-3.292,2.082" transform="translate(-96.82 -31.449)" fill="#455a64"/>
            <path id="Trazado_268866" data-name="Trazado 268866" d="M213.2,73.8a4.033,4.033,0,0,1-4.029-4.029V69.3a.179.179,0,0,1,.358,0v.475a3.675,3.675,0,0,0,3.671,3.671.179.179,0,0,1,0,.358" transform="translate(-93.696 -30.963)" fill="#455a64"/>
            <path id="Trazado_268867" data-name="Trazado 268867" d="M210.88,71.6a.179.179,0,0,1-.073-.342c.022-.011,1.346-.658,1.346-3.657a.179.179,0,0,1,.358,0c0,3.268-1.5,3.957-1.56,3.985a.181.181,0,0,1-.071.015" transform="translate(-94.383 -30.201)" fill="#455a64"/>
            <path id="Trazado_268868" data-name="Trazado 268868" d="M208.824,56.946a9.417,9.417,0,1,1,9.4-9.974.178.178,0,0,1-.168.188c-.1.025-.183-.07-.189-.168a9.05,9.05,0,1,0-5.976,9.064.177.177,0,0,1,.229.108.179.179,0,0,1-.108.229,9.392,9.392,0,0,1-3.189.554" transform="translate(-89.324 -17.072)" fill="#455a64"/>
            <path id="Trazado_268869" data-name="Trazado 268869" d="M246.253,86.343H205.727a.179.179,0,0,1-.179-.179V84.956a.18.18,0,0,1,.179-.179h40.526a.18.18,0,0,1,.179.179v1.208a.179.179,0,0,1-.179.179m-40.347-.358h40.168v-.85H205.906Z" transform="translate(-92.075 -37.976)" fill="#455a64"/>
          </g>
        </g>
      </g>
    </g>
  </g>
</svg>
