<svg xmlns="http://www.w3.org/2000/svg" width="78.744" height="78.8" viewBox="0 0 78.744 78.8">
  <g id="Grupo_873624" data-name="Grupo 873624" transform="translate(6669.342 8744.965)">
    <path id="Trazado_266900" data-name="Trazado 266900" d="M57.7.035a2.588,2.588,0,0,1,1.386,2.627c-.027,13.083-.013,26.165-.032,39.248,0,.614.128.849.774.974A14.764,14.764,0,0,1,71.29,52.339c.338.825.113,1.5-.537,1.746-.675.259-1.256-.055-1.6-.9a12.538,12.538,0,0,0-8.428-7.757A12.729,12.729,0,0,0,44.6,59.12a12.724,12.724,0,0,0,25,1.7,14.906,14.906,0,0,0,.369-2.5c.058-.816.544-1.319,1.224-1.27a1.2,1.2,0,0,1,1.07,1.42,14.712,14.712,0,0,1-1.581,5.954.638.638,0,0,0,.186.94c1.925,1.687,3.8,3.428,5.753,5.087A6.222,6.222,0,0,1,78.9,73.777v1.536a3.526,3.526,0,0,1-2.547,3.232,4.783,4.783,0,0,1-4.777-.812c-2.062-1.8-4.113-3.618-6.11-5.489a1.876,1.876,0,0,0-2.362-.444,15.01,15.01,0,0,1-16.532-3.224,2.493,2.493,0,0,0-2.095-.877c-.79.054-1.587.008-2.381.012-1.017.006-1.061.052-1.068,1.1-.006.819.014,1.639-.008,2.458A2.23,2.23,0,0,1,38.577,73.7q-18.089.012-36.179,0C.85,73.7.159,72.978.159,71.426q0-28.61,0-57.219A1.994,1.994,0,0,1,2.23,11.964c.944-.071,1.894-.009,2.84-.028.83-.017.905-.1.92-.943.011-.666,0-1.331,0-2a5.73,5.73,0,0,1,.156-1.37A1.976,1.976,0,0,1,8.156,5.959c.9-.033,1.792-.008,2.689-.011,1.29,0,1.29,0,1.294-1.258,0-.819-.014-1.639,0-2.458a1.994,1.994,0,0,1,1.611-2.2Z" transform="translate(-6669.5 -8745)"/>
    <path id="Trazado_266902" data-name="Trazado 266902" d="M89.687,100.358a9.849,9.849,0,1,1,9.82-9.81,9.854,9.854,0,0,1-9.82,9.81" transform="translate(-6701.94 -8777.818)"/>
    <path id="Trazado_266903" data-name="Trazado 266903" d="M36.206,60.612A8.5,8.5,0,0,0,38.741,54c-.037-.7.181-.836.835-.818,1.74.049,3.482.025,5.223.012.913-.007,1.443-.519,1.345-1.286A1.054,1.054,0,0,0,45,50.9c-2.458-.009-4.917-.015-7.374,0a1.107,1.107,0,0,0-1.175,1.221,24.918,24.918,0,0,1-.123,3.6,5.948,5.948,0,0,1-5.781,4.881c-1.741.023-3.483-.02-5.223.02-.56.012-.722-.11-.717-.7.031-3.763.016-7.527.016-11.29q0-21.966-.019-43.931c0-.7.2-.809.841-.809q20.2.029,40.4,0c.67,0,.883.128.881.853q-.038,19.315,0,38.632c0,.669-.183.835-.821.894A14.734,14.734,0,0,0,55,50.472a.942.942,0,0,1-.885.43c-1.28-.023-2.56-.014-3.841-.006-.922.006-1.4.413-1.392,1.155s.508,1.136,1.422,1.145c.87.009,1.741.012,2.612,0,.371-.007.5.04.33.462a14.392,14.392,0,0,0-1.062,6.527c.044.629-.363.423-.634.423q-5.761.014-11.522.007Z" transform="translate(-6679.452 -8746.572)" fill="#fefefe"/>
    <path id="Trazado_266904" data-name="Trazado 266904" d="M45.76,70.9h-12.8c-7.3,0-14.595-.009-21.892.015-.65,0-.86-.118-.855-.824.037-4.761.02-9.523.018-14.285a5.3,5.3,0,0,0-.037-.841,1.036,1.036,0,0,0-1.1-.958,1.035,1.035,0,0,0-1.124.932,4.262,4.262,0,0,0-.041.764q0,7.488,0,14.976c0,1.877.656,2.525,2.548,2.525q14.4,0,28.8-.015c.654,0,.906.12.84.822a14.275,14.275,0,0,0,0,2.3c.038.566-.18.663-.693.66-3.686-.021-7.374-.011-11.061-.011-7.809,0-15.618-.009-23.427.017-.645,0-.786-.158-.785-.792q.028-27.571,0-55.143c0-.612.1-.867.775-.81a16.5,16.5,0,0,0,2.379,0c.535-.032.687.175.624.658a3.608,3.608,0,0,0,0,.46q0,14.093,0,28.186a6.043,6.043,0,0,0,.027.843A1.057,1.057,0,0,0,9.09,51.4a1.063,1.063,0,0,0,1.116-1.039,6.766,6.766,0,0,0,.025-.843q0-17.241-.016-34.483c0-.709.183-.924.881-.869a21.387,21.387,0,0,0,2.38.007c.382-.012.583.072.522.5a3.862,3.862,0,0,0,0,.537V65.361c0,1.45.286,1.733,1.752,1.733q13.864,0,27.729-.016c.624,0,.891.152,1.031.776A15.055,15.055,0,0,0,45.76,70.9" transform="translate(-6671.124 -8750.75)" fill="#fefefe"/>
    <path id="Trazado_266905" data-name="Trazado 266905" d="M122.144,120.5a1.822,1.822,0,0,1-1.084,1.7,2.012,2.012,0,0,1-2.28-.374c-1.024-.885-2.023-1.8-3.031-2.7-1.161-1.041-2.311-2.092-3.485-3.117-.294-.256-.291-.386.013-.623a11.948,11.948,0,0,0,2.111-2.106c.275-.356.439-.261.71-.018q3.109,2.79,6.237,5.558a2.261,2.261,0,0,1,.81,1.684" transform="translate(-6715.044 -8790.998)" fill="#fefefe"/>
    <path id="Trazado_266906" data-name="Trazado 266906" d="M91.244,99.63a7.541,7.541,0,1,1,7.542-7.492,7.54,7.54,0,0,1-7.542,7.492" transform="translate(-6703.524 -8779.401)" fill="#fefefe"/>
    <path id="Trazado_266907" data-name="Trazado 266907" d="M80.049,19.894c0,1.944.008,3.889,0,5.833-.008,1.5-.711,2.19-2.223,2.192q-5.757.008-11.515,0a1.981,1.981,0,0,1-2.262-2.25q-.009-1.573,0-3.147c.006-.9.425-1.416,1.141-1.426.734-.01,1.153.485,1.16,1.389.007.87.02,1.74-.007,2.61-.011.388.079.532.5.531q5.22-.024,10.441,0c.375,0,.469-.117.468-.478q-.019-5.22,0-10.439c0-.386-.082-.528-.5-.526q-5.182.025-10.364,0c-.449,0-.565.148-.545.569.031.638.024,1.28,0,1.918a1.1,1.1,0,0,1-1.084,1.153,1.121,1.121,0,0,1-1.2-1.127c-.036-1-.047-2,.007-2.992a1.835,1.835,0,0,1,1.915-1.8q6.064-.031,12.129,0a1.836,1.836,0,0,1,1.934,2.008c.021,2,.005,3.991.006,5.987" transform="translate(-6695.499 -8749.823)"/>
    <path id="Trazado_266908" data-name="Trazado 266908" d="M42.1,72.149q-5.57,0-11.139,0a4.208,4.208,0,0,1-.916-.06,1.125,1.125,0,0,1-.06-2.155,3.408,3.408,0,0,1,.911-.084q11.255-.006,22.509,0a4.374,4.374,0,0,1,.764.041,1.129,1.129,0,0,1-.011,2.227,4.775,4.775,0,0,1-.765.034q-5.647,0-11.293,0" transform="translate(-6681.325 -8773.416)" fill="#010101"/>
    <path id="Trazado_266909" data-name="Trazado 266909" d="M39.721,58.994q4.489,0,8.978,0a1.352,1.352,0,0,1,1.286.512,1.12,1.12,0,0,1-.64,1.715,3.686,3.686,0,0,1-.913.076q-8.748.006-17.5,0c-.154,0-.308.006-.461,0-.832-.053-1.312-.511-1.28-1.214.031-.668.5-1.079,1.316-1.083,2.507-.012,5.013,0,7.52,0h1.688" transform="translate(-6681.319 -8768.998)" fill="#010101"/>
    <path id="Trazado_266910" data-name="Trazado 266910" d="M53.849,50.644q-3.681,0-7.363,0a3.751,3.751,0,0,1-.763-.048,1.125,1.125,0,0,1-.078-2.173,3.035,3.035,0,0,1,.835-.079q7.44-.006,14.88,0a3.093,3.093,0,0,1,.76.068,1.122,1.122,0,0,1-.067,2.19,4.1,4.1,0,0,1-.764.042q-3.72,0-7.44,0" transform="translate(-6687.691 -8764.662)" fill="#010101"/>
    <path id="Trazado_266911" data-name="Trazado 266911" d="M38.208,34.216q-3.76,0-7.522,0c-.972,0-1.491-.4-1.495-1.141s.531-1.161,1.485-1.162q7.522,0,15.044,0c.933,0,1.491.463,1.466,1.19-.025.7-.548,1.111-1.456,1.112q-3.76.005-7.522,0" transform="translate(-6681.318 -8757.976)"/>
    <path id="Trazado_266912" data-name="Trazado 266912" d="M38.173,17.332H30.805a2.019,2.019,0,0,1-.9-.111,1.085,1.085,0,0,1-.675-1.239,1.039,1.039,0,0,1,.964-.937,5.7,5.7,0,0,1,.767-.017H45.384c.179,0,.359,0,.537,0a1.166,1.166,0,0,1,1.273,1.139,1.182,1.182,0,0,1-1.27,1.157c-1.253.021-2.507.007-3.76.007H38.173" transform="translate(-6681.325 -8751.102)"/>
    <path id="Trazado_266913" data-name="Trazado 266913" d="M38.156,25.771q-3.644,0-7.288,0a3.584,3.584,0,0,1-.838-.063,1.127,1.127,0,0,1-.043-2.158,3.127,3.127,0,0,1,.834-.079q7.365-.006,14.73,0a3.5,3.5,0,0,1,.761.058,1.124,1.124,0,0,1-.028,2.194,4.657,4.657,0,0,1-.84.05q-3.644.005-7.288,0" transform="translate(-6681.325 -8754.538)" fill="#010101"/>
    <path id="Trazado_266914" data-name="Trazado 266914" d="M75.73,58.994c1.686,0,3.373-.006,5.06,0,.894,0,1.43.436,1.438,1.129s-.532,1.166-1.413,1.169q-5.137.016-10.272,0c-.919,0-1.391-.439-1.377-1.181S69.643,59,70.594,59c1.712-.008,3.424,0,5.136,0" transform="translate(-6697.589 -8768.998)" fill="#010101"/>
  </g>
</svg>
