<svg xmlns="http://www.w3.org/2000/svg" width="76.267" height="78.8" viewBox="0 0 76.267 78.8">
  <g id="Grupo_877040" data-name="Grupo 877040" transform="translate(-1259.302 -2802.201)">
    <path id="Trazado_266942" data-name="Trazado 266942" d="M38.482,2.1q13.224,0,26.449,0a7.61,7.61,0,0,1,2.346,14.907c-.717.194-.848.479-.847,1.159q.029,30.38.016,60.761c0,1.66-.313,1.967-2,1.967H12.422c-1.56,0-1.9-.338-1.9-1.912,0-7.572-.01-15.144.018-22.716,0-.67-.166-.834-.819-.807-1.348.056-2.7.025-4.05.015-1.032-.008-1.5-.472-1.5-1.508q0-22.16.011-44.319A7.567,7.567,0,0,1,11.955,2.1q13.264-.022,26.528,0" transform="translate(1255.134 2800.107)"/>
    <path id="Trazado_266943" data-name="Trazado 266943" d="M109.9,61.766q0-11.275,0-22.55a3.809,3.809,0,1,1,7.613-.278c.029,1.058.06,2.121-.009,3.175-.046.7.2.855.833.789a12.451,12.451,0,0,1,1.587-.009,1.264,1.264,0,0,1,1.4,1.361c.012,5.32,0,10.64.015,15.96,0,.394-.128.466-.494.479-2.057.073-2.056.084-2.056-1.926,0-4.208-.007-8.416.01-12.625,0-.5-.036-.734-.651-.738-.636,0-.638.272-.638.749q.015,18.938.014,37.875a5.8,5.8,0,0,1-.306,1.939q-1.137,3.291-2.21,6.605c-.218.669-.564,1.153-1.317,1.145s-1.079-.512-1.3-1.175c-.76-2.332-1.548-4.656-2.335-6.979a3.807,3.807,0,0,1-.171-1.247q.006-11.274,0-22.55" transform="translate(1214.226 2787.273)"/>
    <path id="Trazado_266944" data-name="Trazado 266944" d="M69.511,57.465q0,14.853.017,29.706c0,.658-.15.814-.811.813q-24.622-.031-49.246,0c-.658,0-.812-.15-.812-.811q.029-29.706,0-59.413c0-.658.149-.814.81-.813q24.623.032,49.246,0c.658,0,.814.15.812.811q-.036,14.853-.017,29.706" transform="translate(1249.527 2790.491)" fill="#fff"/>
    <path id="Trazado_266945" data-name="Trazado 266945" d="M25.9,16.4A7.665,7.665,0,0,0,26,6.348c.15-.23.383-.113.57-.113q23.417-.01,46.834,0A5.084,5.084,0,1,1,73.4,16.393q-23.418.009-46.835,0H25.9" transform="translate(1246.725 2798.517)" fill="#fff"/>
    <path id="Trazado_266946" data-name="Trazado 266946" d="M8.312,32.444c0-7.038-.013-14.076.009-21.114a4.821,4.821,0,0,1,2.859-4.581,4.834,4.834,0,0,1,5.3.535,5.061,5.061,0,0,1,1.8,5.453,5.143,5.143,0,0,1-4.528,3.647c-1.311.093-1.628.439-1.628,1.788q0,17.74.018,35.482c0,.736-.2.94-.9.88a13.223,13.223,0,0,0-2.22,0c-.615.052-.725-.161-.723-.738.021-6.641.013-13.283.013-19.924q0-.715,0-1.429" transform="translate(1253.536 2798.521)" fill="#fff"/>
    <path id="Trazado_266947" data-name="Trazado 266947" d="M116.575,89.671c0,3.362-.012,6.724.012,10.086,0,.518-.13.654-.649.65-1.905-.012-1.905.009-1.905-1.922,0-6.327.009-12.654-.015-18.981,0-.593.135-.744.731-.733,1.825.037,1.826.008,1.826,1.845Z" transform="translate(1212.63 2770.438)" fill="#fff"/>
    <path id="Trazado_266948" data-name="Trazado 266948" d="M116.571,56.011c0,2.488-.027,4.977.018,7.465.012.657-.206.763-.791.752-1.769-.033-1.769-.01-1.769-1.74,0-4.659.021-9.318-.021-13.977-.007-.735.215-.852.874-.834,1.689.046,1.69.015,1.69,1.742Z" transform="translate(1212.634 2782.471)" fill="#fff"/>
    <path id="Trazado_266949" data-name="Trazado 266949" d="M115.294,41.982c-.545-.143-1.409.395-1.293-.839.105-1.125.452-1.718,1.285-1.724.85-.006,1.215.6,1.3,1.789.088,1.3-.873.524-1.289.774" transform="translate(1212.64 2785.665)" fill="#fff"/>
    <path id="Trazado_266950" data-name="Trazado 266950" d="M114.86,118.218H116.4c-.238.715-.463,1.394-.765,2.3l-.771-2.3" transform="translate(1212.304 2755.176)" fill="#fff"/>
    <path id="Trazado_266951" data-name="Trazado 266951" d="M45.625,53.995q-11.036,0-22.072.012c-.555,0-.767-.077-.752-.71.042-1.844.008-1.844,1.828-1.844,1.218,0,2.437-.039,3.652.015.684.03.928-.112.914-.872-.052-2.963-.023-5.928-.021-8.892,0-1.287.409-1.686,1.718-1.688.926,0,1.854-.035,2.778.013.514.026.615-.149.6-.621-.036-1-.02-2.011-.008-3.016a1.293,1.293,0,0,1,1.469-1.457q2.342-.017,4.684,0A1.293,1.293,0,0,1,41.879,36.4c.011,1.852.02,3.705-.009,5.558-.007.478.1.619.6.618,1.952,0,1.952.02,1.952-1.955q0-3.93,0-7.86c0-1.2.426-1.633,1.611-1.636q2.224-.007,4.447,0c1.1,0,1.548.451,1.568,1.523.013.736-.254,1.731.12,2.14.433.475,1.441.108,2.2.144.449.021.9-.006,1.349.006a1.291,1.291,0,0,1,1.413,1.436c.013.635.026,1.272-.006,1.905-.02.4.127.484.5.476,1.032-.023,2.064-.015,3.1-.006a1.31,1.31,0,0,1,1.5,1.51c.007,3.493.018,6.987-.013,10.48-.006.592.134.749.731.733,1.693-.045,3.387,0,5.081-.026.447-.007.566.116.571.566.023,1.986.039,1.986-1.918,1.986Z" transform="translate(1247.924 2788.878)"/>
    <path id="Trazado_266952" data-name="Trazado 266952" d="M65.834,115.915q-6.151,0-12.3,0c-1.254,0-1.677-.416-1.679-1.648q-.006-3.452,0-6.905c0-1.185.434-1.612,1.633-1.612q12.341,0,24.683,0c1.2,0,1.639.431,1.641,1.606q.007,3.492,0,6.984c0,1.13-.452,1.573-1.595,1.574q-6.191.006-12.381,0" transform="translate(1236.684 2760.001)"/>
    <path id="Trazado_266953" data-name="Trazado 266953" d="M29.181,72.579c1.613,0,3.226-.006,4.839,0,1.04,0,1.513.465,1.516,1.49q.012,4.879,0,9.758a1.291,1.291,0,0,1-1.47,1.455q-4.879.013-9.758,0a1.29,1.29,0,0,1-1.473-1.451q-.014-4.919,0-9.837a1.271,1.271,0,0,1,1.428-1.414c1.639-.013,3.279,0,4.919,0" transform="translate(1247.915 2772.836)"/>
    <path id="Trazado_266954" data-name="Trazado 266954" d="M62.945,80.862c4.844,0,9.69.012,14.534-.015.59,0,.746.131.734.73-.037,1.827-.008,1.828-1.844,1.828q-13.939,0-27.877.017c-.657,0-.834-.145-.815-.81.051-1.747.015-1.748,1.766-1.748Z" transform="translate(1238.299 2769.636)"/>
    <path id="Trazado_266955" data-name="Trazado 266955" d="M62.946,89.154c4.845,0,9.69.012,14.534-.015.59,0,.745.132.734.73-.037,1.826-.008,1.827-1.845,1.827q-13.939,0-27.877.017c-.657,0-.834-.146-.815-.811.051-1.746.016-1.747,1.767-1.747Z" transform="translate(1238.299 2766.428)"/>
    <path id="Trazado_266956" data-name="Trazado 266956" d="M62.874,99.988c-4.818,0-9.636-.011-14.454.014-.578,0-.754-.112-.741-.723.039-1.832.008-1.833,1.839-1.833q13.939,0,27.877-.016c.646,0,.842.127.822.8-.053,1.752-.016,1.753-1.761,1.753Z" transform="translate(1238.298 2763.22)"/>
    <path id="Trazado_266957" data-name="Trazado 266957" d="M71.493,75.111c-3.547,0-7.1-.016-10.642.015-.592.006-.745-.134-.734-.73.037-1.826.008-1.827,1.845-1.827,6.751,0,13.5.01,20.252-.017.658,0,.834.147.815.811-.051,1.746-.016,1.747-1.767,1.747Z" transform="translate(1233.485 2772.845)"/>
    <path id="Trazado_266958" data-name="Trazado 266958" d="M30.4,120.717c-2.3,0-4.606-.021-6.909.015-.576.009-.685-.164-.679-.7.025-1.854,0-1.854,1.815-1.854,4.236,0,8.471.016,12.706-.017.645,0,.77.189.758.785-.036,1.774-.01,1.774-1.815,1.774Z" transform="translate(1247.921 2755.199)"/>
    <path id="Trazado_266959" data-name="Trazado 266959" d="M27.987,109.887c1.482,0,2.965.017,4.447-.01.449-.009.564.12.57.567.022,1.985.038,1.985-1.92,1.985-2.541,0-5.082-.015-7.622.013-.518.006-.654-.131-.65-.649.012-1.905-.009-1.905,1.921-1.905Z" transform="translate(1247.92 2758.403)"/>
    <path id="Trazado_266960" data-name="Trazado 266960" d="M64.751,44.232c0,2.726-.014,5.453.012,8.18.006.517-.129.654-.648.651-1.906-.012-1.906.009-1.906-1.922,0-5.056.011-10.112-.015-15.168,0-.592.134-.745.731-.733,1.826.036,1.826.007,1.826,1.845Z" transform="translate(1232.682 2787.282)" fill="#fff"/>
    <path id="Trazado_266961" data-name="Trazado 266961" d="M48.167,48.542c0,2.091-.017,4.182.012,6.274.007.513-.121.657-.646.654-1.909-.013-1.909.009-1.909-1.92,0-3.785.014-7.571-.015-11.356,0-.587.127-.748.728-.736,1.828.038,1.829.008,1.829,1.843Z" transform="translate(1239.099 2784.877)" fill="#fff"/>
    <path id="Trazado_266962" data-name="Trazado 266962" d="M70.5,48.387c0-2.091.018-4.182-.013-6.274-.007-.518.131-.654.649-.65,1.905.012,1.905-.009,1.905,1.922,0,3.785-.015,7.571.015,11.356,0,.593-.135.744-.731.732-1.825-.036-1.826-.007-1.826-1.845V48.387" transform="translate(1229.472 2784.874)" fill="#fff"/>
    <path id="Trazado_266963" data-name="Trazado 266963" d="M81.337,52.859c0,1.482-.018,2.965.01,4.447.009.449-.12.564-.567.569-1.985.023-1.985.038-1.985-1.92,0-2.541.015-5.082-.012-7.622-.006-.519.131-.654.649-.65,1.906.012,1.906-.009,1.906,1.922v3.255" transform="translate(1226.264 2782.468)" fill="#fff"/>
    <path id="Trazado_266964" data-name="Trazado 266964" d="M39.876,54.217c0,1.3-.019,2.595.01,3.891.01.448-.118.565-.566.57-1.986.022-1.986.038-1.986-1.92,0-2.118.018-4.235-.013-6.352-.007-.517.129-.654.649-.651,1.906.012,1.906-.009,1.906,1.921v2.541" transform="translate(1242.306 2781.666)" fill="#fff"/>
    <path id="Trazado_266965" data-name="Trazado 266965" d="M56.463,57.119c0,.9-.013,1.8.007,2.7.008.337-.079.5-.437.446a.384.384,0,0,0-.08,0c-2.032.072-2.032.072-2.032-1.94,0-1.3.015-2.594-.009-3.891-.007-.4.091-.528.518-.537,2.033-.044,2.032-.059,2.032,1.953v1.27" transform="translate(1235.886 2780.068)" fill="#fff"/>
    <path id="Trazado_266966" data-name="Trazado 266966" d="M67.5,109.883c3.574,0,7.148.01,10.721-.011.5,0,.68.1.661.638-.044,1.243-.047,2.49,0,3.732.022.578-.11.745-.722.742-5-.029-10.007-.017-15.01-.017-2.171,0-4.342-.015-6.512.012-.5.006-.68-.1-.661-.638.044-1.243.047-2.49,0-3.732-.021-.578.11-.748.722-.742,3.6.034,7.2.017,10.8.017" transform="translate(1235.089 2758.407)" fill="#fff"/>
    <path id="Trazado_266967" data-name="Trazado 266967" d="M26.973,80.462c0-1.085.014-2.171-.008-3.255-.007-.369.082-.5.476-.5q3.335.029,6.67,0c.368,0,.5.082.5.477q-.029,3.335,0,6.67c0,.368-.082.5-.477.5-2.223-.019-4.447-.025-6.67,0-.476.006-.5-.2-.492-.561.014-1.112,0-2.224,0-3.335" transform="translate(1246.313 2771.236)" fill="#fff"/>
  </g>
</svg>
