<svg xmlns="http://www.w3.org/2000/svg" width="448.671" height="151.366" viewBox="0 0 448.671 151.366">
  <g id="Grupo_872348" data-name="Grupo 872348" transform="translate(-810 -4401.108)">
    <g id="Rectángulo_4936" data-name="Rectángulo 4936" transform="translate(810.162 4453.227)" fill="#fff" stroke="#afafaf" stroke-width="1">
      <rect width="448.509" height="98.187" stroke="none"/>
      <rect x="0.5" y="0.5" width="447.509" height="97.187" fill="none"/>
    </g>
    <path id="Trazado_2380" data-name="Trazado 2380" d="M0,0H448.509V52.118H0Z" transform="translate(810 4401.108)" fill="#00f3be" opacity="0.573"/>
    <path id="Trazado_270199" data-name="Trazado 270199" d="M-11.9-4.333a4.673,4.673,0,0,1-.721,2.36,4.35,4.35,0,0,1-1.85,1.586A6.3,6.3,0,0,1-17.2.176a5.025,5.025,0,0,1-3.973-1.644,6.786,6.786,0,0,1-1.45-4.641v-.633a7.746,7.746,0,0,1,.655-3.292,4.961,4.961,0,0,1,1.885-2.18,5.26,5.26,0,0,1,2.848-.769,5.516,5.516,0,0,1,3.744,1.226,4.844,4.844,0,0,1,1.608,3.379h-3.076a2.292,2.292,0,0,0-.589-1.679,2.422,2.422,0,0,0-1.687-.51,1.843,1.843,0,0,0-1.687.861,5.536,5.536,0,0,0-.562,2.751v.905a6.126,6.126,0,0,0,.514,2.927,1.882,1.882,0,0,0,1.771.879,2.369,2.369,0,0,0,1.626-.5,2.126,2.126,0,0,0,.6-1.591Zm8.728,1.942H-7.4L-8.143,0h-3.3l4.693-12.8h2.9L.883,0H-2.43ZM-6.667-4.772h2.751L-5.3-9.211ZM6.913-12.8H9.989v8.78a4.2,4.2,0,0,1-.567,2.18A3.87,3.87,0,0,1,7.84-.352,4.835,4.835,0,0,1,5.577.176,4.661,4.661,0,0,1,2.325-.879a3.833,3.833,0,0,1-1.16-2.988H4.258a2.113,2.113,0,0,0,.3,1.274,1.2,1.2,0,0,0,1.015.4,1.148,1.148,0,0,0,.989-.479,2.251,2.251,0,0,0,.347-1.34ZM19.2-2.391H14.972L14.234,0h-3.3l4.693-12.8h2.9L23.26,0H19.947ZM15.71-4.772h2.751l-1.38-4.438Z" transform="translate(1031.413 4433.569)" fill="#12263f"/>
    <path id="Trazado_270201" data-name="Trazado 270201" d="M24.146,14.008a1.43,1.43,0,0,0-.355-1.02,3.222,3.222,0,0,0-1.207-.7,14.24,14.24,0,0,1-1.469-.637,4.679,4.679,0,0,1-1.059-.727,2.919,2.919,0,0,1-.687-.965,3.238,3.238,0,0,1-.246-1.32,2.93,2.93,0,0,1,.844-2.164,3.56,3.56,0,0,1,2.242-.984V3.82h1.25v1.7a3.263,3.263,0,0,1,2.164,1.152,3.8,3.8,0,0,1,.781,2.48H24.146a2.156,2.156,0,0,0-.387-1.4,1.278,1.278,0,0,0-1.035-.465,1.317,1.317,0,0,0-.992.363,1.383,1.383,0,0,0-.352,1,1.321,1.321,0,0,0,.344.953A3.788,3.788,0,0,0,23,10.336a14.186,14.186,0,0,1,1.535.707,4.431,4.431,0,0,1,1.016.75,2.9,2.9,0,0,1,.633.953,3.277,3.277,0,0,1,.219,1.246,2.917,2.917,0,0,1-.828,2.156,3.632,3.632,0,0,1-2.281.977V18.68H22.053V17.133A3.758,3.758,0,0,1,19.572,16a3.664,3.664,0,0,1-.879-2.566h2.258a2.077,2.077,0,0,0,.441,1.426,1.61,1.61,0,0,0,1.27.5,1.551,1.551,0,0,0,1.086-.363A1.261,1.261,0,0,0,24.146,14.008ZM73.256,17H71V8.3l-2.7.836V7.3l4.711-1.687h.242Zm3.906-1.109a1.137,1.137,0,0,1,.363-.875,1.412,1.412,0,0,1,1.828,0,1.137,1.137,0,0,1,.363.875,1.121,1.121,0,0,1-.359.863,1.435,1.435,0,0,1-1.836,0A1.121,1.121,0,0,1,77.162,15.891ZM89.256,12.3a5.763,5.763,0,0,1-.977,3.609,3.9,3.9,0,0,1-5.7.023,5.594,5.594,0,0,1-1.008-3.516V10.32A5.687,5.687,0,0,1,82.557,6.7a3.91,3.91,0,0,1,5.691-.012A5.576,5.576,0,0,1,89.256,10.2ZM87,9.995a4.165,4.165,0,0,0-.387-2.061A1.307,1.307,0,0,0,85.4,7.289a1.284,1.284,0,0,0-1.176.614,3.9,3.9,0,0,0-.4,1.92v2.768a4.373,4.373,0,0,0,.379,2.068,1.29,1.29,0,0,0,1.215.676,1.268,1.268,0,0,0,1.2-.649A4.268,4.268,0,0,0,87,12.7Zm11.438,2.3a5.763,5.763,0,0,1-.977,3.609,3.9,3.9,0,0,1-5.7.023,5.594,5.594,0,0,1-1.008-3.516V10.32A5.687,5.687,0,0,1,91.736,6.7a3.91,3.91,0,0,1,5.691-.012A5.576,5.576,0,0,1,98.436,10.2Zm-2.258-2.3a4.165,4.165,0,0,0-.387-2.061,1.307,1.307,0,0,0-1.207-.645,1.284,1.284,0,0,0-1.176.614,3.9,3.9,0,0,0-.4,1.92v2.768a4.373,4.373,0,0,0,.379,2.068,1.29,1.29,0,0,0,1.215.676,1.268,1.268,0,0,0,1.2-.649,4.268,4.268,0,0,0,.383-1.986Zm11.437,2.3a5.763,5.763,0,0,1-.977,3.609,3.9,3.9,0,0,1-5.7.023,5.594,5.594,0,0,1-1.008-3.516V10.32a5.687,5.687,0,0,1,.988-3.617,3.91,3.91,0,0,1,5.691-.012,5.576,5.576,0,0,1,1.008,3.512Zm-2.258-2.3a4.165,4.165,0,0,0-.387-2.061,1.307,1.307,0,0,0-1.207-.645,1.284,1.284,0,0,0-1.176.614,3.9,3.9,0,0,0-.4,1.92v2.768a4.373,4.373,0,0,0,.379,2.068,1.29,1.29,0,0,0,1.215.676,1.268,1.268,0,0,0,1.2-.649,4.268,4.268,0,0,0,.383-1.986Z" transform="translate(839.164 4514.756)" fill="#12263f"/>
    <rect id="Rectángulo_4935" data-name="Rectángulo 4935" width="446.509" height="43.14" transform="translate(811.162 4453.828)" fill="#efeded"/>
    <path id="Trazado_270200" data-name="Trazado 270200" d="M24.351,17V5.625h3.5a5.315,5.315,0,0,1,2.684.676,4.712,4.712,0,0,1,1.848,1.922,5.928,5.928,0,0,1,.664,2.832v.523a5.945,5.945,0,0,1-.652,2.82,4.672,4.672,0,0,1-1.84,1.914,5.355,5.355,0,0,1-2.68.688Zm2.344-9.477v7.594h1.133a2.545,2.545,0,0,0,2.1-.9,4.06,4.06,0,0,0,.742-2.57v-.6a4.124,4.124,0,0,0-.719-2.629,2.537,2.537,0,0,0-2.1-.895Zm14.9,4.547h-4.5v3.047h5.281V17H34.749V5.625h7.609v1.9H37.093v2.711h4.5ZM43.749,17V5.625h3.984a5.232,5.232,0,0,1,3.141.793,2.712,2.712,0,0,1,1.07,2.324,2.57,2.57,0,0,1-.43,1.473,2.482,2.482,0,0,1-1.2.934,2.4,2.4,0,0,1,1.379.883,2.61,2.61,0,0,1,.5,1.625,3,3,0,0,1-1.047,2.484A4.713,4.713,0,0,1,48.171,17Zm2.344-4.953v3.07H48.1a1.938,1.938,0,0,0,1.293-.395,1.353,1.353,0,0,0,.465-1.09,1.428,1.428,0,0,0-1.617-1.586Zm0-1.656h1.734Q49.6,10.359,49.6,8.977a1.307,1.307,0,0,0-.449-1.113,2.363,2.363,0,0,0-1.418-.34H46.093ZM60.8,12.07H56.3v3.047h5.281V17H53.96V5.625h7.609v1.9H56.3v2.711h4.5Z" transform="translate(875.892 4463.923)" fill="#12263f"/>
    <path id="Trazado_270202" data-name="Trazado 270202" d="M10.273,17H7.93V12.125H3.359V17H1.016V5.625H3.359v4.609H7.93V5.625h2.344Zm8.609-2.344H14.773L13.992,17H11.5L15.734,5.625h2.172L22.164,17H19.672Zm-3.477-1.9H18.25L16.82,8.5ZM23.227,17V5.625h3.984a5.232,5.232,0,0,1,3.141.793,2.712,2.712,0,0,1,1.07,2.324,2.57,2.57,0,0,1-.43,1.473,2.482,2.482,0,0,1-1.2.934,2.4,2.4,0,0,1,1.379.883,2.61,2.61,0,0,1,.5,1.625,3,3,0,0,1-1.047,2.484A4.713,4.713,0,0,1,27.648,17Zm2.344-4.953v3.07h2.008a1.938,1.938,0,0,0,1.293-.395,1.353,1.353,0,0,0,.465-1.09,1.428,1.428,0,0,0-1.617-1.586Zm0-1.656H27.3q1.773-.031,1.773-1.414a1.307,1.307,0,0,0-.449-1.113,2.363,2.363,0,0,0-1.418-.34H25.57Zm14.711,1.68h-4.5v3.047h5.281V17H33.438V5.625h7.609v1.9H35.781v2.711h4.5Zm6.367.766H44.781V17H42.438V5.625h4.227a4.778,4.778,0,0,1,3.109.9,3.1,3.1,0,0,1,1.094,2.539,3.5,3.5,0,0,1-.5,1.941,3.437,3.437,0,0,1-1.527,1.238L51.3,16.891V17H48.781Zm-1.867-1.9h1.891a1.936,1.936,0,0,0,1.367-.449,1.606,1.606,0,0,0,.484-1.238,1.719,1.719,0,0,0-.457-1.266,1.9,1.9,0,0,0-1.4-.461H44.781Z" transform="translate(1127.387 4463.923)" fill="#12263f"/>
    <line id="Línea_132" data-name="Línea 132" x2="0.034" y2="98.047" transform="translate(1035.349 4453.928)" fill="none" stroke="#afafaf" stroke-linecap="round" stroke-width="1"/>
  </g>
</svg>
