<svg xmlns="http://www.w3.org/2000/svg" width="448.671" height="151.366" viewBox="0 0 448.671 151.366">
  <g id="Grupo_875989" data-name="Grupo 875989" transform="translate(-390 -4723.927)">
    <g id="Rectángulo_291801" data-name="Rectángulo 291801" transform="translate(390.162 4776.045)" fill="#fff" stroke="#afafaf" stroke-width="1">
      <rect width="448.509" height="98.187" stroke="none"/>
      <rect x="0.5" y="0.5" width="447.509" height="97.187" fill="none"/>
    </g>
    <path id="Trazado_270206" data-name="Trazado 270206" d="M25.691,14.07a1.626,1.626,0,0,0-.5-1.211,4.508,4.508,0,0,0-1.7-.891,5.447,5.447,0,0,1-2.426-1.324A2.921,2.921,0,0,1,20.3,8.57a3,3,0,0,1,.746-2.1A3.17,3.17,0,0,1,23.1,5.492V3.781h1.164V5.5A3.011,3.011,0,0,1,26.3,6.6a3.959,3.959,0,0,1,.73,2.523H25.6a2.721,2.721,0,0,0-.523-1.756,1.72,1.72,0,0,0-1.414-.651,1.951,1.951,0,0,0-1.422.481,1.791,1.791,0,0,0-.492,1.342,1.636,1.636,0,0,0,.52,1.272,4.786,4.786,0,0,0,1.711.861,7.2,7.2,0,0,1,1.859.852,2.991,2.991,0,0,1,.984,1.082,3.128,3.128,0,0,1,.316,1.445,2.9,2.9,0,0,1-.793,2.125,3.516,3.516,0,0,1-2.223.953v1.492H22.965V17.133A3.369,3.369,0,0,1,20.687,16.1a3.493,3.493,0,0,1-.824-2.449h1.445a2.3,2.3,0,0,0,.57,1.672,2.153,2.153,0,0,0,1.617.586,2.426,2.426,0,0,0,1.609-.492A1.662,1.662,0,0,0,25.691,14.07ZM73.293,17H71.84V7.367l-2.914,1.07V7.125L73.066,5.57h.227Zm4.414-.758a.905.905,0,0,1,.223-.625.848.848,0,0,1,.668-.25.874.874,0,0,1,.676.25.887.887,0,0,1,.23.625.839.839,0,0,1-.23.6.89.89,0,0,1-.676.242.8.8,0,0,1-.891-.844Zm11.164-4.094A6.61,6.61,0,0,1,88,15.922a3.6,3.6,0,0,1-5.406.027,6.274,6.274,0,0,1-.906-3.605v-1.93a6.463,6.463,0,0,1,.867-3.727,3.668,3.668,0,0,1,5.422-.043,6.237,6.237,0,0,1,.891,3.629Zm-1.445-1.977A5.3,5.3,0,0,0,86.91,7.5a1.775,1.775,0,0,0-1.633-.84,1.751,1.751,0,0,0-1.617.836,5.171,5.171,0,0,0-.523,2.57v2.313a5.381,5.381,0,0,0,.535,2.723,1.771,1.771,0,0,0,1.621.879,1.747,1.747,0,0,0,1.59-.828,5.186,5.186,0,0,0,.543-2.609Zm10.43,1.977a6.61,6.61,0,0,1-.867,3.773,3.6,3.6,0,0,1-5.406.027,6.274,6.274,0,0,1-.906-3.605v-1.93a6.463,6.463,0,0,1,.867-3.727,3.668,3.668,0,0,1,5.422-.043,6.237,6.237,0,0,1,.891,3.629ZM96.41,10.172A5.3,5.3,0,0,0,95.894,7.5a1.775,1.775,0,0,0-1.633-.84,1.751,1.751,0,0,0-1.617.836,5.171,5.171,0,0,0-.523,2.57v2.313a5.381,5.381,0,0,0,.535,2.723,1.771,1.771,0,0,0,1.621.879,1.747,1.747,0,0,0,1.59-.828,5.186,5.186,0,0,0,.543-2.609Zm10.43,1.977a6.61,6.61,0,0,1-.867,3.773,3.6,3.6,0,0,1-5.406.027,6.274,6.274,0,0,1-.906-3.605v-1.93a6.463,6.463,0,0,1,.867-3.727,3.668,3.668,0,0,1,5.422-.043,6.237,6.237,0,0,1,.891,3.629Zm-1.445-1.977a5.3,5.3,0,0,0-.516-2.676,1.775,1.775,0,0,0-1.633-.84,1.751,1.751,0,0,0-1.617.836,5.171,5.171,0,0,0-.523,2.57v2.313a5.381,5.381,0,0,0,.535,2.723,1.771,1.771,0,0,0,1.621.879,1.747,1.747,0,0,0,1.59-.828,5.186,5.186,0,0,0,.543-2.609Z" transform="translate(419.164 4839.575)" fill="#12263f"/>
    <path id="Trazado_266420" data-name="Trazado 266420" d="M0,0H448.509V52.118H0Z" transform="translate(390 4723.927)" fill="#61ecce"/>
    <path id="Trazado_270203" data-name="Trazado 270203" d="M-12.566-4.574a4.933,4.933,0,0,1-.761,2.491A4.591,4.591,0,0,1-15.28-.408a6.647,6.647,0,0,1-2.871.594,5.3,5.3,0,0,1-4.193-1.735,7.163,7.163,0,0,1-1.531-4.9v-.668a8.176,8.176,0,0,1,.691-3.474,5.237,5.237,0,0,1,1.99-2.3,5.552,5.552,0,0,1,3.006-.812,5.822,5.822,0,0,1,3.952,1.294,5.113,5.113,0,0,1,1.7,3.567h-3.247a2.419,2.419,0,0,0-.622-1.772,2.556,2.556,0,0,0-1.781-.538,1.945,1.945,0,0,0-1.781.909,5.843,5.843,0,0,0-.594,2.9v.956a6.466,6.466,0,0,0,.543,3.089,1.986,1.986,0,0,0,1.869.928,2.5,2.5,0,0,0,1.716-.529A2.244,2.244,0,0,0-15.8-4.574Zm9.212,2.05H-7.816L-8.6,0h-3.479L-7.12-13.508h3.062L.932,0h-3.5ZM-7.037-5.038h2.9L-5.59-9.723ZM7.3-13.508h3.247V-4.24a4.431,4.431,0,0,1-.6,2.3A4.085,4.085,0,0,1,8.275-.371,5.1,5.1,0,0,1,5.886.186,4.92,4.92,0,0,1,2.454-.928,4.046,4.046,0,0,1,1.229-4.082H4.495a2.23,2.23,0,0,0,.32,1.345,1.267,1.267,0,0,0,1.072.417A1.212,1.212,0,0,0,6.93-2.825,2.376,2.376,0,0,0,7.3-4.24ZM20.266-2.523H15.8L15.025,0H11.546L16.5-13.508h3.062L24.552,0h-3.5ZM16.583-5.038h2.9L18.031-9.723Z" transform="translate(613.413 4757.387)" fill="#12263f"/>
    <path id="Trazado_270207" data-name="Trazado 270207" d="M32.289,14.07a1.626,1.626,0,0,0-.5-1.211,4.508,4.508,0,0,0-1.7-.891,5.447,5.447,0,0,1-2.426-1.324A2.921,2.921,0,0,1,26.9,8.57a3,3,0,0,1,.746-2.1A3.17,3.17,0,0,1,29.7,5.492V3.781h1.164V5.5A3.011,3.011,0,0,1,32.9,6.6a3.959,3.959,0,0,1,.73,2.523H32.2a2.721,2.721,0,0,0-.523-1.756,1.72,1.72,0,0,0-1.414-.651,1.951,1.951,0,0,0-1.422.481,1.791,1.791,0,0,0-.492,1.342,1.636,1.636,0,0,0,.52,1.272,4.786,4.786,0,0,0,1.711.861,7.2,7.2,0,0,1,1.859.852,2.991,2.991,0,0,1,.984,1.082,3.128,3.128,0,0,1,.316,1.445,2.9,2.9,0,0,1-.793,2.125,3.516,3.516,0,0,1-2.223.953v1.492H29.562V17.133A3.369,3.369,0,0,1,27.285,16.1a3.493,3.493,0,0,1-.824-2.449h1.445a2.3,2.3,0,0,0,.57,1.672,2.153,2.153,0,0,0,1.617.586,2.426,2.426,0,0,0,1.609-.492A1.662,1.662,0,0,0,32.289,14.07ZM75.8,11.3l.578-5.672h5.828V6.961h-4.6l-.344,3.1a3.671,3.671,0,0,1,1.9-.492A3.138,3.138,0,0,1,81.633,10.6a4.026,4.026,0,0,1,.914,2.777,3.886,3.886,0,0,1-.949,2.77,3.46,3.46,0,0,1-2.652,1.012,3.6,3.6,0,0,1-2.461-.836A3.337,3.337,0,0,1,75.4,14.008h1.367a2.3,2.3,0,0,0,.7,1.473,2.162,2.162,0,0,0,1.484.5,1.95,1.95,0,0,0,1.582-.687,2.874,2.874,0,0,0,.574-1.9,2.638,2.638,0,0,0-.621-1.832,2.113,2.113,0,0,0-1.652-.691,2.383,2.383,0,0,0-1.484.414l-.383.313Zm15.453.852a6.61,6.61,0,0,1-.867,3.773,3.6,3.6,0,0,1-5.406.027,6.274,6.274,0,0,1-.906-3.605v-1.93a6.463,6.463,0,0,1,.867-3.727,3.668,3.668,0,0,1,5.422-.043,6.237,6.237,0,0,1,.891,3.629Zm-1.445-1.977A5.3,5.3,0,0,0,89.3,7.5a1.775,1.775,0,0,0-1.633-.84,1.751,1.751,0,0,0-1.617.836,5.171,5.171,0,0,0-.523,2.57v2.313a5.381,5.381,0,0,0,.535,2.723,1.771,1.771,0,0,0,1.621.879,1.747,1.747,0,0,0,1.59-.828,5.186,5.186,0,0,0,.543-2.609Zm10.43,1.977a6.61,6.61,0,0,1-.867,3.773,3.6,3.6,0,0,1-5.406.027,6.274,6.274,0,0,1-.906-3.605v-1.93a6.463,6.463,0,0,1,.867-3.727,3.668,3.668,0,0,1,5.422-.043,6.237,6.237,0,0,1,.891,3.629ZM98.8,10.172A5.3,5.3,0,0,0,98.281,7.5a1.775,1.775,0,0,0-1.633-.84,1.751,1.751,0,0,0-1.617.836,5.171,5.171,0,0,0-.523,2.57v2.313a5.381,5.381,0,0,0,.535,2.723,1.771,1.771,0,0,0,1.621.879,1.747,1.747,0,0,0,1.59-.828,5.186,5.186,0,0,0,.543-2.609Z" transform="translate(659.203 4841.241)" fill="#12263f"/>
    <rect id="Rectángulo_291800" data-name="Rectángulo 291800" width="446.509" height="43.14" transform="translate(391.162 4776.646)" fill="#efeded"/>
    <path id="Trazado_270204" data-name="Trazado 270204" d="M24.335,17V5.625h3.5a5.315,5.315,0,0,1,2.684.676,4.712,4.712,0,0,1,1.848,1.922,5.928,5.928,0,0,1,.664,2.832v.523a5.945,5.945,0,0,1-.652,2.82,4.672,4.672,0,0,1-1.84,1.914,5.355,5.355,0,0,1-2.68.688Zm2.344-9.477v7.594h1.133a2.545,2.545,0,0,0,2.1-.9,4.06,4.06,0,0,0,.742-2.57v-.6a4.124,4.124,0,0,0-.719-2.629,2.537,2.537,0,0,0-2.1-.895Zm14.9,4.547h-4.5v3.047h5.281V17H34.733V5.625h7.609v1.9H37.077v2.711h4.5ZM43.733,17V5.625h3.984a5.232,5.232,0,0,1,3.141.793,2.712,2.712,0,0,1,1.07,2.324,2.57,2.57,0,0,1-.43,1.473,2.482,2.482,0,0,1-1.2.934,2.4,2.4,0,0,1,1.379.883,2.61,2.61,0,0,1,.5,1.625,3,3,0,0,1-1.047,2.484A4.713,4.713,0,0,1,48.155,17Zm2.344-4.953v3.07h2.008a1.938,1.938,0,0,0,1.293-.395,1.353,1.353,0,0,0,.465-1.09,1.428,1.428,0,0,0-1.617-1.586Zm0-1.656h1.734q1.773-.031,1.773-1.414a1.307,1.307,0,0,0-.449-1.113,2.363,2.363,0,0,0-1.418-.34H46.077Zm14.711,1.68h-4.5v3.047h5.281V17H53.944V5.625h7.609v1.9H56.288v2.711h4.5Z" transform="translate(455.892 4786.741)" fill="#12263f"/>
    <path id="Trazado_270205" data-name="Trazado 270205" d="M10.273,17H7.93V12.125H3.359V17H1.016V5.625H3.359v4.609H7.93V5.625h2.344Zm8.609-2.344H14.773L13.992,17H11.5L15.734,5.625h2.172L22.164,17H19.672Zm-3.477-1.9H18.25L16.82,8.5ZM23.227,17V5.625h3.984a5.232,5.232,0,0,1,3.141.793,2.712,2.712,0,0,1,1.07,2.324,2.57,2.57,0,0,1-.43,1.473,2.482,2.482,0,0,1-1.2.934,2.4,2.4,0,0,1,1.379.883,2.61,2.61,0,0,1,.5,1.625,3,3,0,0,1-1.047,2.484A4.713,4.713,0,0,1,27.648,17Zm2.344-4.953v3.07h2.008a1.938,1.938,0,0,0,1.293-.395,1.353,1.353,0,0,0,.465-1.09,1.428,1.428,0,0,0-1.617-1.586Zm0-1.656H27.3q1.773-.031,1.773-1.414a1.307,1.307,0,0,0-.449-1.113,2.363,2.363,0,0,0-1.418-.34H25.57Zm14.711,1.68h-4.5v3.047h5.281V17H33.438V5.625h7.609v1.9H35.781v2.711h4.5Zm6.367.766H44.781V17H42.438V5.625h4.227a4.778,4.778,0,0,1,3.109.9,3.1,3.1,0,0,1,1.094,2.539,3.5,3.5,0,0,1-.5,1.941,3.437,3.437,0,0,1-1.527,1.238L51.3,16.891V17H48.781Zm-1.867-1.9h1.891a1.936,1.936,0,0,0,1.367-.449,1.606,1.606,0,0,0,.484-1.238,1.719,1.719,0,0,0-.457-1.266,1.9,1.9,0,0,0-1.4-.461H44.781Z" transform="translate(707.387 4786.741)" fill="#12263f"/>
    <line id="Línea_161" data-name="Línea 161" y2="98.293" transform="translate(615.383 4776.5)" fill="none" stroke="#afafaf" stroke-linecap="round" stroke-width="1"/>
  </g>
</svg>
